G04 #@! TF.GenerationSoftware,KiCad,Pcbnew,(5.0.0)*
G04 #@! TF.CreationDate,2018-09-20T16:22:26-03:00*
G04 #@! TF.ProjectId,badge00,626164676530302E6B696361645F7063,rev?*
G04 #@! TF.SameCoordinates,Original*
G04 #@! TF.FileFunction,Copper,L2,Bot,Signal*
G04 #@! TF.FilePolarity,Positive*
%FSLAX46Y46*%
G04 Gerber Fmt 4.6, Leading zero omitted, Abs format (unit mm)*
G04 Created by KiCad (PCBNEW (5.0.0)) date 09/20/18 16:22:26*
%MOMM*%
%LPD*%
G01*
G04 APERTURE LIST*
G04 #@! TA.AperFunction,ComponentPad*
%ADD10C,2.400000*%
G04 #@! TD*
G04 #@! TA.AperFunction,ComponentPad*
%ADD11C,1.600000*%
G04 #@! TD*
G04 #@! TA.AperFunction,ComponentPad*
%ADD12O,1.600000X1.600000*%
G04 #@! TD*
G04 #@! TA.AperFunction,ComponentPad*
%ADD13R,1.600000X1.600000*%
G04 #@! TD*
G04 #@! TA.AperFunction,ComponentPad*
%ADD14R,1.800000X1.800000*%
G04 #@! TD*
G04 #@! TA.AperFunction,ComponentPad*
%ADD15C,1.800000*%
G04 #@! TD*
G04 #@! TA.AperFunction,ComponentPad*
%ADD16O,1.520000X3.000000*%
G04 #@! TD*
G04 #@! TA.AperFunction,Conductor*
%ADD17C,0.508000*%
G04 #@! TD*
G04 #@! TA.AperFunction,Conductor*
%ADD18C,0.254000*%
G04 #@! TD*
G04 APERTURE END LIST*
D10*
G04 #@! TO.P,BT1,2*
G04 #@! TO.N,Net-(BT1-Pad2)*
X130000000Y-78500000D03*
G04 #@! TO.P,BT1,1*
G04 #@! TO.N,Net-(BT1-Pad1)*
X130000000Y-58500000D03*
G04 #@! TD*
D11*
G04 #@! TO.P,R1,1*
G04 #@! TO.N,Net-(BT1-Pad1)*
X119507000Y-66040000D03*
D12*
G04 #@! TO.P,R1,2*
G04 #@! TO.N,Net-(D1-Pad2)*
X119507000Y-55880000D03*
G04 #@! TD*
D13*
G04 #@! TO.P,C1,1*
G04 #@! TO.N,Net-(C1-Pad1)*
X116078000Y-74168000D03*
D11*
G04 #@! TO.P,C1,2*
G04 #@! TO.N,Net-(C1-Pad2)*
X113578000Y-74168000D03*
G04 #@! TD*
D13*
G04 #@! TO.P,C2,1*
G04 #@! TO.N,Net-(C2-Pad1)*
X145923000Y-75438000D03*
D11*
G04 #@! TO.P,C2,2*
G04 #@! TO.N,Net-(C2-Pad2)*
X143423000Y-75438000D03*
G04 #@! TD*
D14*
G04 #@! TO.P,D1,1*
G04 #@! TO.N,Net-(C1-Pad1)*
X126238000Y-58039000D03*
D15*
G04 #@! TO.P,D1,2*
G04 #@! TO.N,Net-(D1-Pad2)*
X123698000Y-58039000D03*
G04 #@! TD*
D14*
G04 #@! TO.P,D2,1*
G04 #@! TO.N,Net-(C2-Pad1)*
X133477000Y-58039000D03*
D15*
G04 #@! TO.P,D2,2*
G04 #@! TO.N,Net-(D2-Pad2)*
X136017000Y-58039000D03*
G04 #@! TD*
D11*
G04 #@! TO.P,R2,1*
G04 #@! TO.N,Net-(BT1-Pad1)*
X145415000Y-69215000D03*
D12*
G04 #@! TO.P,R2,2*
G04 #@! TO.N,Net-(C1-Pad2)*
X145415000Y-59055000D03*
G04 #@! TD*
D11*
G04 #@! TO.P,R3,1*
G04 #@! TO.N,Net-(BT1-Pad1)*
X114554000Y-58928000D03*
D12*
G04 #@! TO.P,R3,2*
G04 #@! TO.N,Net-(C2-Pad2)*
X114554000Y-69088000D03*
G04 #@! TD*
D11*
G04 #@! TO.P,R4,1*
G04 #@! TO.N,Net-(BT1-Pad1)*
X141478000Y-67437000D03*
D12*
G04 #@! TO.P,R4,2*
G04 #@! TO.N,Net-(D2-Pad2)*
X141478000Y-57277000D03*
G04 #@! TD*
D16*
G04 #@! TO.P,Q1,1*
G04 #@! TO.N,Net-(C1-Pad1)*
X125095000Y-52705000D03*
G04 #@! TO.P,Q1,3*
G04 #@! TO.N,Net-(BT1-Pad2)*
X120015000Y-52705000D03*
G04 #@! TO.P,Q1,2*
G04 #@! TO.N,Net-(C2-Pad2)*
X122555000Y-52705000D03*
G04 #@! TD*
G04 #@! TO.P,Q2,2*
G04 #@! TO.N,Net-(C1-Pad2)*
X137160000Y-52705000D03*
G04 #@! TO.P,Q2,3*
G04 #@! TO.N,Net-(BT1-Pad2)*
X134620000Y-52705000D03*
G04 #@! TO.P,Q2,1*
G04 #@! TO.N,Net-(C2-Pad1)*
X139700000Y-52705000D03*
G04 #@! TD*
D17*
G04 #@! TO.N,Net-(BT1-Pad1)*
X130000000Y-58500000D02*
X130000000Y-61000000D01*
X136437000Y-67437000D02*
X141478000Y-67437000D01*
X130000000Y-61000000D02*
X136437000Y-67437000D01*
X141478000Y-67437000D02*
X143637000Y-67437000D01*
X143637000Y-67437000D02*
X145415000Y-69215000D01*
X118364000Y-61087000D02*
X118364000Y-64897000D01*
X118364000Y-64897000D02*
X119507000Y-66040000D01*
X116205000Y-58928000D02*
X118364000Y-61087000D01*
X114554000Y-58928000D02*
X116205000Y-58928000D01*
G04 #@! TO.N,Net-(C1-Pad1)*
X117386000Y-74168000D02*
X116078000Y-74168000D01*
X126238000Y-65316000D02*
X117386000Y-74168000D01*
X126238000Y-58039000D02*
X126238000Y-65316000D01*
X125095000Y-53445000D02*
X126238000Y-54588000D01*
X125095000Y-52705000D02*
X125095000Y-53445000D01*
X126238000Y-54588000D02*
X126238000Y-58039000D01*
G04 #@! TO.N,Net-(C1-Pad2)*
X127592001Y-66209999D02*
X127302000Y-66500000D01*
X127302000Y-66500000D02*
X118379999Y-75422001D01*
X128000000Y-57000000D02*
X128000000Y-65802000D01*
X128000000Y-65802000D02*
X127302000Y-66500000D01*
X114935000Y-76962000D02*
X113578000Y-75605000D01*
X113578000Y-75605000D02*
X113578000Y-74168000D01*
X118237000Y-76962000D02*
X114935000Y-76962000D01*
X118379999Y-76819001D02*
X118237000Y-76962000D01*
X118379999Y-75422001D02*
X118379999Y-76819001D01*
X135653000Y-54952000D02*
X130048000Y-54952000D01*
X137160000Y-52705000D02*
X137160000Y-53445000D01*
X130048000Y-54952000D02*
X128000000Y-57000000D01*
X137160000Y-53445000D02*
X135653000Y-54952000D01*
X137160000Y-50546000D02*
X137160000Y-52705000D01*
X137922000Y-49784000D02*
X137160000Y-50546000D01*
X141224000Y-49784000D02*
X137922000Y-49784000D01*
X145415000Y-59055000D02*
X145415000Y-53975000D01*
X145415000Y-53975000D02*
X141224000Y-49784000D01*
G04 #@! TO.N,Net-(C2-Pad1)*
X134447989Y-55660011D02*
X133477000Y-56631000D01*
X133477000Y-56631000D02*
X133477000Y-58039000D01*
X137484989Y-55660011D02*
X134447989Y-55660011D01*
X139700000Y-53445000D02*
X137484989Y-55660011D01*
X139700000Y-52705000D02*
X139700000Y-53445000D01*
X141351000Y-52705000D02*
X139700000Y-52705000D01*
X145923000Y-73025000D02*
X147066000Y-71882000D01*
X145923000Y-75438000D02*
X145923000Y-73025000D01*
X147066000Y-71882000D02*
X147066000Y-67945000D01*
X147066000Y-67945000D02*
X143891000Y-64770000D01*
X143891000Y-64770000D02*
X143891000Y-55245000D01*
X143891000Y-55245000D02*
X141351000Y-52705000D01*
G04 #@! TO.N,Net-(C2-Pad2)*
X112903000Y-58039000D02*
X112903000Y-60452000D01*
X112903000Y-60452000D02*
X114554000Y-62103000D01*
X114554000Y-62103000D02*
X114554000Y-69088000D01*
X112903000Y-55245000D02*
X112903000Y-58039000D01*
X118110000Y-50038000D02*
X112903000Y-55245000D01*
X121896000Y-50038000D02*
X118110000Y-50038000D01*
X122555000Y-52705000D02*
X122555000Y-50697000D01*
X122555000Y-50697000D02*
X121896000Y-50038000D01*
G04 #@! TO.N,Net-(D1-Pad2)*
X119507000Y-55880000D02*
X119507000Y-56007000D01*
X119507000Y-56007000D02*
X121539000Y-58039000D01*
X121539000Y-58039000D02*
X123698000Y-58039000D01*
G04 #@! TO.N,Net-(D2-Pad2)*
X141478000Y-57277000D02*
X136779000Y-57277000D01*
X136779000Y-57277000D02*
X136017000Y-58039000D01*
G04 #@! TD*
D18*
G04 #@! TO.N,Net-(BT1-Pad2)*
G36*
X128649006Y-47978095D02*
X127978095Y-48649006D01*
X127615000Y-49525594D01*
X127615000Y-50474406D01*
X127978095Y-51350994D01*
X128649006Y-52021905D01*
X129525594Y-52385000D01*
X130474406Y-52385000D01*
X131350994Y-52021905D01*
X131534899Y-51838000D01*
X133225000Y-51838000D01*
X133225000Y-52578000D01*
X134493000Y-52578000D01*
X134493000Y-50735291D01*
X134277244Y-50612764D01*
X134203489Y-50627588D01*
X133723389Y-50888784D01*
X133379789Y-51313824D01*
X133225000Y-51838000D01*
X131534899Y-51838000D01*
X132021905Y-51350994D01*
X132385000Y-50474406D01*
X132385000Y-49525594D01*
X132021905Y-48649006D01*
X131350994Y-47978095D01*
X130703756Y-47710000D01*
X147949420Y-47710000D01*
X148360027Y-47768803D01*
X148691110Y-47919338D01*
X148966639Y-48156749D01*
X149164456Y-48461944D01*
X149275700Y-48833917D01*
X149290001Y-49026362D01*
X149290000Y-84949420D01*
X149231197Y-85360027D01*
X149080661Y-85691112D01*
X148843251Y-85966639D01*
X148538056Y-86164456D01*
X148166083Y-86275700D01*
X147973652Y-86290000D01*
X112050580Y-86290000D01*
X111639973Y-86231197D01*
X111308888Y-86080661D01*
X111033361Y-85843251D01*
X110835544Y-85538056D01*
X110724300Y-85166083D01*
X110710000Y-84973652D01*
X110710000Y-79797175D01*
X128882430Y-79797175D01*
X129005565Y-80084788D01*
X129687734Y-80344707D01*
X130417443Y-80323786D01*
X130994435Y-80084788D01*
X131117570Y-79797175D01*
X130000000Y-78679605D01*
X128882430Y-79797175D01*
X110710000Y-79797175D01*
X110710000Y-78187734D01*
X128155293Y-78187734D01*
X128176214Y-78917443D01*
X128415212Y-79494435D01*
X128702825Y-79617570D01*
X129820395Y-78500000D01*
X130179605Y-78500000D01*
X131297175Y-79617570D01*
X131584788Y-79494435D01*
X131844707Y-78812266D01*
X131823786Y-78082557D01*
X131584788Y-77505565D01*
X131297175Y-77382430D01*
X130179605Y-78500000D01*
X129820395Y-78500000D01*
X128702825Y-77382430D01*
X128415212Y-77505565D01*
X128155293Y-78187734D01*
X110710000Y-78187734D01*
X110710000Y-55245000D01*
X111996584Y-55245000D01*
X112014000Y-55332555D01*
X112014001Y-57951440D01*
X112014000Y-57951445D01*
X112014001Y-60364441D01*
X111996584Y-60452000D01*
X112065582Y-60798870D01*
X112199602Y-60999445D01*
X112262068Y-61092933D01*
X112336294Y-61142529D01*
X113665000Y-62471236D01*
X113665001Y-67956151D01*
X113519423Y-68053423D01*
X113202260Y-68528091D01*
X113090887Y-69088000D01*
X113202260Y-69647909D01*
X113519423Y-70122577D01*
X113994091Y-70439740D01*
X114412667Y-70523000D01*
X114695333Y-70523000D01*
X115113909Y-70439740D01*
X115588577Y-70122577D01*
X115905740Y-69647909D01*
X116017113Y-69088000D01*
X115905740Y-68528091D01*
X115588577Y-68053423D01*
X115443000Y-67956152D01*
X115443000Y-62190556D01*
X115460416Y-62103000D01*
X115391419Y-61756129D01*
X115244529Y-61536293D01*
X115194933Y-61462067D01*
X115120707Y-61412471D01*
X113931705Y-60223469D01*
X114268561Y-60363000D01*
X114839439Y-60363000D01*
X115366862Y-60144534D01*
X115694396Y-59817000D01*
X115836765Y-59817000D01*
X117475000Y-61455236D01*
X117475001Y-64809441D01*
X117457584Y-64897000D01*
X117526582Y-65243870D01*
X117638210Y-65410933D01*
X117723068Y-65537933D01*
X117797294Y-65587529D01*
X118072000Y-65862235D01*
X118072000Y-66325439D01*
X118290466Y-66852862D01*
X118694138Y-67256534D01*
X119221561Y-67475000D01*
X119792439Y-67475000D01*
X120319862Y-67256534D01*
X120723534Y-66852862D01*
X120942000Y-66325439D01*
X120942000Y-65754561D01*
X120723534Y-65227138D01*
X120319862Y-64823466D01*
X119792439Y-64605000D01*
X119329235Y-64605000D01*
X119253000Y-64528765D01*
X119253000Y-61174554D01*
X119270416Y-61086999D01*
X119213103Y-60798870D01*
X119201419Y-60740130D01*
X119004933Y-60446067D01*
X118930707Y-60396471D01*
X116895531Y-58361296D01*
X116845933Y-58287067D01*
X116551870Y-58090581D01*
X116292556Y-58039000D01*
X116292555Y-58039000D01*
X116205000Y-58021584D01*
X116117445Y-58039000D01*
X115694396Y-58039000D01*
X115366862Y-57711466D01*
X114839439Y-57493000D01*
X114268561Y-57493000D01*
X113792000Y-57690398D01*
X113792000Y-55613235D01*
X118478236Y-50927000D01*
X119087495Y-50927000D01*
X118774789Y-51313824D01*
X118620000Y-51838000D01*
X118620000Y-52578000D01*
X119888000Y-52578000D01*
X119888000Y-52558000D01*
X120142000Y-52558000D01*
X120142000Y-52578000D01*
X120162000Y-52578000D01*
X120162000Y-52832000D01*
X120142000Y-52832000D01*
X120142000Y-52852000D01*
X119888000Y-52852000D01*
X119888000Y-52832000D01*
X118620000Y-52832000D01*
X118620000Y-53572000D01*
X118774789Y-54096176D01*
X119099565Y-54497931D01*
X118947091Y-54528260D01*
X118472423Y-54845423D01*
X118155260Y-55320091D01*
X118043887Y-55880000D01*
X118155260Y-56439909D01*
X118472423Y-56914577D01*
X118947091Y-57231740D01*
X119365667Y-57315000D01*
X119557765Y-57315000D01*
X120848471Y-58605707D01*
X120898067Y-58679933D01*
X121192130Y-58876419D01*
X121451444Y-58928000D01*
X121451445Y-58928000D01*
X121539000Y-58945416D01*
X121626555Y-58928000D01*
X122416183Y-58928000D01*
X122828493Y-59340310D01*
X123392670Y-59574000D01*
X124003330Y-59574000D01*
X124567507Y-59340310D01*
X124736725Y-59171092D01*
X124739843Y-59186765D01*
X124880191Y-59396809D01*
X125090235Y-59537157D01*
X125338000Y-59586440D01*
X125349000Y-59586440D01*
X125349001Y-64947763D01*
X117356143Y-72940622D01*
X117335809Y-72910191D01*
X117125765Y-72769843D01*
X116878000Y-72720560D01*
X115278000Y-72720560D01*
X115030235Y-72769843D01*
X114820191Y-72910191D01*
X114679843Y-73120235D01*
X114659899Y-73220503D01*
X114390862Y-72951466D01*
X113863439Y-72733000D01*
X113292561Y-72733000D01*
X112765138Y-72951466D01*
X112361466Y-73355138D01*
X112143000Y-73882561D01*
X112143000Y-74453439D01*
X112361466Y-74980862D01*
X112689000Y-75308396D01*
X112689000Y-75517445D01*
X112671584Y-75605000D01*
X112689000Y-75692555D01*
X112740581Y-75951869D01*
X112937067Y-76245933D01*
X113011296Y-76295531D01*
X114244471Y-77528707D01*
X114294067Y-77602933D01*
X114588130Y-77799419D01*
X114847444Y-77851000D01*
X114847445Y-77851000D01*
X114935000Y-77868416D01*
X115022555Y-77851000D01*
X118149445Y-77851000D01*
X118237000Y-77868416D01*
X118324555Y-77851000D01*
X118324556Y-77851000D01*
X118583870Y-77799419D01*
X118877933Y-77602933D01*
X118927531Y-77528704D01*
X118946703Y-77509532D01*
X119020932Y-77459934D01*
X119192726Y-77202825D01*
X128882430Y-77202825D01*
X130000000Y-78320395D01*
X131117570Y-77202825D01*
X130994435Y-76915212D01*
X130312266Y-76655293D01*
X129582557Y-76676214D01*
X129005565Y-76915212D01*
X128882430Y-77202825D01*
X119192726Y-77202825D01*
X119217418Y-77165871D01*
X119268999Y-76906557D01*
X119268999Y-76906556D01*
X119286415Y-76819002D01*
X119268999Y-76731447D01*
X119268999Y-75790236D01*
X127992529Y-67066707D01*
X127992531Y-67066704D01*
X128263168Y-66796067D01*
X128566706Y-66492530D01*
X128640933Y-66442933D01*
X128837419Y-66148870D01*
X128889000Y-65889556D01*
X128906416Y-65802001D01*
X128889000Y-65714446D01*
X128889000Y-59984082D01*
X128960556Y-60055638D01*
X129111001Y-60117954D01*
X129111001Y-60912441D01*
X129093584Y-61000000D01*
X129151154Y-61289419D01*
X129162582Y-61346870D01*
X129359068Y-61640933D01*
X129433294Y-61690529D01*
X135746470Y-68003706D01*
X135796067Y-68077933D01*
X136090130Y-68274419D01*
X136349444Y-68326000D01*
X136349445Y-68326000D01*
X136437000Y-68343416D01*
X136524555Y-68326000D01*
X140337604Y-68326000D01*
X140665138Y-68653534D01*
X141192561Y-68872000D01*
X141763439Y-68872000D01*
X142290862Y-68653534D01*
X142618396Y-68326000D01*
X143268765Y-68326000D01*
X143980000Y-69037236D01*
X143980000Y-69500439D01*
X144198466Y-70027862D01*
X144602138Y-70431534D01*
X145129561Y-70650000D01*
X145700439Y-70650000D01*
X146177000Y-70452602D01*
X146177000Y-71513764D01*
X145356294Y-72334471D01*
X145282068Y-72384067D01*
X145232472Y-72458293D01*
X145232471Y-72458294D01*
X145085582Y-72678130D01*
X145016584Y-73025000D01*
X145034001Y-73112559D01*
X145034001Y-74008263D01*
X144875235Y-74039843D01*
X144665191Y-74180191D01*
X144524843Y-74390235D01*
X144504899Y-74490503D01*
X144235862Y-74221466D01*
X143708439Y-74003000D01*
X143137561Y-74003000D01*
X142610138Y-74221466D01*
X142206466Y-74625138D01*
X141988000Y-75152561D01*
X141988000Y-75723439D01*
X142206466Y-76250862D01*
X142610138Y-76654534D01*
X143137561Y-76873000D01*
X143708439Y-76873000D01*
X144235862Y-76654534D01*
X144504899Y-76385497D01*
X144524843Y-76485765D01*
X144665191Y-76695809D01*
X144875235Y-76836157D01*
X145123000Y-76885440D01*
X146723000Y-76885440D01*
X146970765Y-76836157D01*
X147180809Y-76695809D01*
X147321157Y-76485765D01*
X147370440Y-76238000D01*
X147370440Y-74638000D01*
X147321157Y-74390235D01*
X147180809Y-74180191D01*
X146970765Y-74039843D01*
X146812000Y-74008263D01*
X146812000Y-73393235D01*
X147632707Y-72572529D01*
X147706933Y-72522933D01*
X147903419Y-72228870D01*
X147955000Y-71969556D01*
X147955000Y-71969555D01*
X147972416Y-71882001D01*
X147955000Y-71794446D01*
X147955000Y-68032554D01*
X147972416Y-67944999D01*
X147939595Y-67780000D01*
X147903419Y-67598130D01*
X147706933Y-67304067D01*
X147632707Y-67254471D01*
X144780000Y-64401765D01*
X144780000Y-60356566D01*
X144855091Y-60406740D01*
X145273667Y-60490000D01*
X145556333Y-60490000D01*
X145974909Y-60406740D01*
X146449577Y-60089577D01*
X146766740Y-59614909D01*
X146878113Y-59055000D01*
X146766740Y-58495091D01*
X146449577Y-58020423D01*
X146304000Y-57923152D01*
X146304000Y-54062554D01*
X146321416Y-53974999D01*
X146276776Y-53750581D01*
X146252419Y-53628130D01*
X146055933Y-53334067D01*
X145981707Y-53284471D01*
X141914531Y-49217296D01*
X141864933Y-49143067D01*
X141570870Y-48946581D01*
X141311556Y-48895000D01*
X141311555Y-48895000D01*
X141224000Y-48877584D01*
X141136445Y-48895000D01*
X138009555Y-48895000D01*
X137922000Y-48877584D01*
X137834445Y-48895000D01*
X137834444Y-48895000D01*
X137575130Y-48946581D01*
X137281067Y-49143067D01*
X137231471Y-49217294D01*
X136593296Y-49855469D01*
X136519067Y-49905067D01*
X136322581Y-50199131D01*
X136292431Y-50350706D01*
X136253584Y-50546000D01*
X136271000Y-50633555D01*
X136271000Y-50881260D01*
X136154262Y-50959263D01*
X135877724Y-51373130D01*
X135860211Y-51313824D01*
X135516611Y-50888784D01*
X135036511Y-50627588D01*
X134962756Y-50612764D01*
X134747000Y-50735291D01*
X134747000Y-52578000D01*
X134767000Y-52578000D01*
X134767000Y-52832000D01*
X134747000Y-52832000D01*
X134747000Y-52852000D01*
X134493000Y-52852000D01*
X134493000Y-52832000D01*
X133225000Y-52832000D01*
X133225000Y-53572000D01*
X133369992Y-54063000D01*
X130135550Y-54063000D01*
X130047999Y-54045585D01*
X129960448Y-54063000D01*
X129960444Y-54063000D01*
X129701130Y-54114581D01*
X129407067Y-54311067D01*
X129357471Y-54385293D01*
X127433296Y-56309469D01*
X127359067Y-56359067D01*
X127254990Y-56514830D01*
X127138000Y-56491560D01*
X127127000Y-56491560D01*
X127127000Y-54675554D01*
X127144416Y-54587999D01*
X127097356Y-54351416D01*
X127075419Y-54241130D01*
X126878933Y-53947067D01*
X126804707Y-53897471D01*
X126489938Y-53582703D01*
X126490000Y-53582393D01*
X126490000Y-51827607D01*
X126409061Y-51420698D01*
X126100737Y-50959262D01*
X125639301Y-50650939D01*
X125095000Y-50542671D01*
X124550698Y-50650939D01*
X124089262Y-50959263D01*
X123825000Y-51354757D01*
X123560737Y-50959262D01*
X123444000Y-50881260D01*
X123444000Y-50784555D01*
X123461416Y-50697000D01*
X123444000Y-50609444D01*
X123392419Y-50350130D01*
X123195933Y-50056067D01*
X123121706Y-50006470D01*
X122586531Y-49471296D01*
X122536933Y-49397067D01*
X122242870Y-49200581D01*
X121983556Y-49149000D01*
X121983555Y-49149000D01*
X121896000Y-49131584D01*
X121808445Y-49149000D01*
X118197554Y-49149000D01*
X118109999Y-49131584D01*
X118022444Y-49149000D01*
X117763130Y-49200581D01*
X117469067Y-49397067D01*
X117419471Y-49471293D01*
X112336296Y-54554469D01*
X112262067Y-54604067D01*
X112065581Y-54898131D01*
X112014000Y-55157444D01*
X111996584Y-55245000D01*
X110710000Y-55245000D01*
X110710000Y-49050580D01*
X110768803Y-48639973D01*
X110919338Y-48308890D01*
X111156749Y-48033361D01*
X111461944Y-47835544D01*
X111833917Y-47724300D01*
X112026348Y-47710000D01*
X129296244Y-47710000D01*
X128649006Y-47978095D01*
X128649006Y-47978095D01*
G37*
X128649006Y-47978095D02*
X127978095Y-48649006D01*
X127615000Y-49525594D01*
X127615000Y-50474406D01*
X127978095Y-51350994D01*
X128649006Y-52021905D01*
X129525594Y-52385000D01*
X130474406Y-52385000D01*
X131350994Y-52021905D01*
X131534899Y-51838000D01*
X133225000Y-51838000D01*
X133225000Y-52578000D01*
X134493000Y-52578000D01*
X134493000Y-50735291D01*
X134277244Y-50612764D01*
X134203489Y-50627588D01*
X133723389Y-50888784D01*
X133379789Y-51313824D01*
X133225000Y-51838000D01*
X131534899Y-51838000D01*
X132021905Y-51350994D01*
X132385000Y-50474406D01*
X132385000Y-49525594D01*
X132021905Y-48649006D01*
X131350994Y-47978095D01*
X130703756Y-47710000D01*
X147949420Y-47710000D01*
X148360027Y-47768803D01*
X148691110Y-47919338D01*
X148966639Y-48156749D01*
X149164456Y-48461944D01*
X149275700Y-48833917D01*
X149290001Y-49026362D01*
X149290000Y-84949420D01*
X149231197Y-85360027D01*
X149080661Y-85691112D01*
X148843251Y-85966639D01*
X148538056Y-86164456D01*
X148166083Y-86275700D01*
X147973652Y-86290000D01*
X112050580Y-86290000D01*
X111639973Y-86231197D01*
X111308888Y-86080661D01*
X111033361Y-85843251D01*
X110835544Y-85538056D01*
X110724300Y-85166083D01*
X110710000Y-84973652D01*
X110710000Y-79797175D01*
X128882430Y-79797175D01*
X129005565Y-80084788D01*
X129687734Y-80344707D01*
X130417443Y-80323786D01*
X130994435Y-80084788D01*
X131117570Y-79797175D01*
X130000000Y-78679605D01*
X128882430Y-79797175D01*
X110710000Y-79797175D01*
X110710000Y-78187734D01*
X128155293Y-78187734D01*
X128176214Y-78917443D01*
X128415212Y-79494435D01*
X128702825Y-79617570D01*
X129820395Y-78500000D01*
X130179605Y-78500000D01*
X131297175Y-79617570D01*
X131584788Y-79494435D01*
X131844707Y-78812266D01*
X131823786Y-78082557D01*
X131584788Y-77505565D01*
X131297175Y-77382430D01*
X130179605Y-78500000D01*
X129820395Y-78500000D01*
X128702825Y-77382430D01*
X128415212Y-77505565D01*
X128155293Y-78187734D01*
X110710000Y-78187734D01*
X110710000Y-55245000D01*
X111996584Y-55245000D01*
X112014000Y-55332555D01*
X112014001Y-57951440D01*
X112014000Y-57951445D01*
X112014001Y-60364441D01*
X111996584Y-60452000D01*
X112065582Y-60798870D01*
X112199602Y-60999445D01*
X112262068Y-61092933D01*
X112336294Y-61142529D01*
X113665000Y-62471236D01*
X113665001Y-67956151D01*
X113519423Y-68053423D01*
X113202260Y-68528091D01*
X113090887Y-69088000D01*
X113202260Y-69647909D01*
X113519423Y-70122577D01*
X113994091Y-70439740D01*
X114412667Y-70523000D01*
X114695333Y-70523000D01*
X115113909Y-70439740D01*
X115588577Y-70122577D01*
X115905740Y-69647909D01*
X116017113Y-69088000D01*
X115905740Y-68528091D01*
X115588577Y-68053423D01*
X115443000Y-67956152D01*
X115443000Y-62190556D01*
X115460416Y-62103000D01*
X115391419Y-61756129D01*
X115244529Y-61536293D01*
X115194933Y-61462067D01*
X115120707Y-61412471D01*
X113931705Y-60223469D01*
X114268561Y-60363000D01*
X114839439Y-60363000D01*
X115366862Y-60144534D01*
X115694396Y-59817000D01*
X115836765Y-59817000D01*
X117475000Y-61455236D01*
X117475001Y-64809441D01*
X117457584Y-64897000D01*
X117526582Y-65243870D01*
X117638210Y-65410933D01*
X117723068Y-65537933D01*
X117797294Y-65587529D01*
X118072000Y-65862235D01*
X118072000Y-66325439D01*
X118290466Y-66852862D01*
X118694138Y-67256534D01*
X119221561Y-67475000D01*
X119792439Y-67475000D01*
X120319862Y-67256534D01*
X120723534Y-66852862D01*
X120942000Y-66325439D01*
X120942000Y-65754561D01*
X120723534Y-65227138D01*
X120319862Y-64823466D01*
X119792439Y-64605000D01*
X119329235Y-64605000D01*
X119253000Y-64528765D01*
X119253000Y-61174554D01*
X119270416Y-61086999D01*
X119213103Y-60798870D01*
X119201419Y-60740130D01*
X119004933Y-60446067D01*
X118930707Y-60396471D01*
X116895531Y-58361296D01*
X116845933Y-58287067D01*
X116551870Y-58090581D01*
X116292556Y-58039000D01*
X116292555Y-58039000D01*
X116205000Y-58021584D01*
X116117445Y-58039000D01*
X115694396Y-58039000D01*
X115366862Y-57711466D01*
X114839439Y-57493000D01*
X114268561Y-57493000D01*
X113792000Y-57690398D01*
X113792000Y-55613235D01*
X118478236Y-50927000D01*
X119087495Y-50927000D01*
X118774789Y-51313824D01*
X118620000Y-51838000D01*
X118620000Y-52578000D01*
X119888000Y-52578000D01*
X119888000Y-52558000D01*
X120142000Y-52558000D01*
X120142000Y-52578000D01*
X120162000Y-52578000D01*
X120162000Y-52832000D01*
X120142000Y-52832000D01*
X120142000Y-52852000D01*
X119888000Y-52852000D01*
X119888000Y-52832000D01*
X118620000Y-52832000D01*
X118620000Y-53572000D01*
X118774789Y-54096176D01*
X119099565Y-54497931D01*
X118947091Y-54528260D01*
X118472423Y-54845423D01*
X118155260Y-55320091D01*
X118043887Y-55880000D01*
X118155260Y-56439909D01*
X118472423Y-56914577D01*
X118947091Y-57231740D01*
X119365667Y-57315000D01*
X119557765Y-57315000D01*
X120848471Y-58605707D01*
X120898067Y-58679933D01*
X121192130Y-58876419D01*
X121451444Y-58928000D01*
X121451445Y-58928000D01*
X121539000Y-58945416D01*
X121626555Y-58928000D01*
X122416183Y-58928000D01*
X122828493Y-59340310D01*
X123392670Y-59574000D01*
X124003330Y-59574000D01*
X124567507Y-59340310D01*
X124736725Y-59171092D01*
X124739843Y-59186765D01*
X124880191Y-59396809D01*
X125090235Y-59537157D01*
X125338000Y-59586440D01*
X125349000Y-59586440D01*
X125349001Y-64947763D01*
X117356143Y-72940622D01*
X117335809Y-72910191D01*
X117125765Y-72769843D01*
X116878000Y-72720560D01*
X115278000Y-72720560D01*
X115030235Y-72769843D01*
X114820191Y-72910191D01*
X114679843Y-73120235D01*
X114659899Y-73220503D01*
X114390862Y-72951466D01*
X113863439Y-72733000D01*
X113292561Y-72733000D01*
X112765138Y-72951466D01*
X112361466Y-73355138D01*
X112143000Y-73882561D01*
X112143000Y-74453439D01*
X112361466Y-74980862D01*
X112689000Y-75308396D01*
X112689000Y-75517445D01*
X112671584Y-75605000D01*
X112689000Y-75692555D01*
X112740581Y-75951869D01*
X112937067Y-76245933D01*
X113011296Y-76295531D01*
X114244471Y-77528707D01*
X114294067Y-77602933D01*
X114588130Y-77799419D01*
X114847444Y-77851000D01*
X114847445Y-77851000D01*
X114935000Y-77868416D01*
X115022555Y-77851000D01*
X118149445Y-77851000D01*
X118237000Y-77868416D01*
X118324555Y-77851000D01*
X118324556Y-77851000D01*
X118583870Y-77799419D01*
X118877933Y-77602933D01*
X118927531Y-77528704D01*
X118946703Y-77509532D01*
X119020932Y-77459934D01*
X119192726Y-77202825D01*
X128882430Y-77202825D01*
X130000000Y-78320395D01*
X131117570Y-77202825D01*
X130994435Y-76915212D01*
X130312266Y-76655293D01*
X129582557Y-76676214D01*
X129005565Y-76915212D01*
X128882430Y-77202825D01*
X119192726Y-77202825D01*
X119217418Y-77165871D01*
X119268999Y-76906557D01*
X119268999Y-76906556D01*
X119286415Y-76819002D01*
X119268999Y-76731447D01*
X119268999Y-75790236D01*
X127992529Y-67066707D01*
X127992531Y-67066704D01*
X128263168Y-66796067D01*
X128566706Y-66492530D01*
X128640933Y-66442933D01*
X128837419Y-66148870D01*
X128889000Y-65889556D01*
X128906416Y-65802001D01*
X128889000Y-65714446D01*
X128889000Y-59984082D01*
X128960556Y-60055638D01*
X129111001Y-60117954D01*
X129111001Y-60912441D01*
X129093584Y-61000000D01*
X129151154Y-61289419D01*
X129162582Y-61346870D01*
X129359068Y-61640933D01*
X129433294Y-61690529D01*
X135746470Y-68003706D01*
X135796067Y-68077933D01*
X136090130Y-68274419D01*
X136349444Y-68326000D01*
X136349445Y-68326000D01*
X136437000Y-68343416D01*
X136524555Y-68326000D01*
X140337604Y-68326000D01*
X140665138Y-68653534D01*
X141192561Y-68872000D01*
X141763439Y-68872000D01*
X142290862Y-68653534D01*
X142618396Y-68326000D01*
X143268765Y-68326000D01*
X143980000Y-69037236D01*
X143980000Y-69500439D01*
X144198466Y-70027862D01*
X144602138Y-70431534D01*
X145129561Y-70650000D01*
X145700439Y-70650000D01*
X146177000Y-70452602D01*
X146177000Y-71513764D01*
X145356294Y-72334471D01*
X145282068Y-72384067D01*
X145232472Y-72458293D01*
X145232471Y-72458294D01*
X145085582Y-72678130D01*
X145016584Y-73025000D01*
X145034001Y-73112559D01*
X145034001Y-74008263D01*
X144875235Y-74039843D01*
X144665191Y-74180191D01*
X144524843Y-74390235D01*
X144504899Y-74490503D01*
X144235862Y-74221466D01*
X143708439Y-74003000D01*
X143137561Y-74003000D01*
X142610138Y-74221466D01*
X142206466Y-74625138D01*
X141988000Y-75152561D01*
X141988000Y-75723439D01*
X142206466Y-76250862D01*
X142610138Y-76654534D01*
X143137561Y-76873000D01*
X143708439Y-76873000D01*
X144235862Y-76654534D01*
X144504899Y-76385497D01*
X144524843Y-76485765D01*
X144665191Y-76695809D01*
X144875235Y-76836157D01*
X145123000Y-76885440D01*
X146723000Y-76885440D01*
X146970765Y-76836157D01*
X147180809Y-76695809D01*
X147321157Y-76485765D01*
X147370440Y-76238000D01*
X147370440Y-74638000D01*
X147321157Y-74390235D01*
X147180809Y-74180191D01*
X146970765Y-74039843D01*
X146812000Y-74008263D01*
X146812000Y-73393235D01*
X147632707Y-72572529D01*
X147706933Y-72522933D01*
X147903419Y-72228870D01*
X147955000Y-71969556D01*
X147955000Y-71969555D01*
X147972416Y-71882001D01*
X147955000Y-71794446D01*
X147955000Y-68032554D01*
X147972416Y-67944999D01*
X147939595Y-67780000D01*
X147903419Y-67598130D01*
X147706933Y-67304067D01*
X147632707Y-67254471D01*
X144780000Y-64401765D01*
X144780000Y-60356566D01*
X144855091Y-60406740D01*
X145273667Y-60490000D01*
X145556333Y-60490000D01*
X145974909Y-60406740D01*
X146449577Y-60089577D01*
X146766740Y-59614909D01*
X146878113Y-59055000D01*
X146766740Y-58495091D01*
X146449577Y-58020423D01*
X146304000Y-57923152D01*
X146304000Y-54062554D01*
X146321416Y-53974999D01*
X146276776Y-53750581D01*
X146252419Y-53628130D01*
X146055933Y-53334067D01*
X145981707Y-53284471D01*
X141914531Y-49217296D01*
X141864933Y-49143067D01*
X141570870Y-48946581D01*
X141311556Y-48895000D01*
X141311555Y-48895000D01*
X141224000Y-48877584D01*
X141136445Y-48895000D01*
X138009555Y-48895000D01*
X137922000Y-48877584D01*
X137834445Y-48895000D01*
X137834444Y-48895000D01*
X137575130Y-48946581D01*
X137281067Y-49143067D01*
X137231471Y-49217294D01*
X136593296Y-49855469D01*
X136519067Y-49905067D01*
X136322581Y-50199131D01*
X136292431Y-50350706D01*
X136253584Y-50546000D01*
X136271000Y-50633555D01*
X136271000Y-50881260D01*
X136154262Y-50959263D01*
X135877724Y-51373130D01*
X135860211Y-51313824D01*
X135516611Y-50888784D01*
X135036511Y-50627588D01*
X134962756Y-50612764D01*
X134747000Y-50735291D01*
X134747000Y-52578000D01*
X134767000Y-52578000D01*
X134767000Y-52832000D01*
X134747000Y-52832000D01*
X134747000Y-52852000D01*
X134493000Y-52852000D01*
X134493000Y-52832000D01*
X133225000Y-52832000D01*
X133225000Y-53572000D01*
X133369992Y-54063000D01*
X130135550Y-54063000D01*
X130047999Y-54045585D01*
X129960448Y-54063000D01*
X129960444Y-54063000D01*
X129701130Y-54114581D01*
X129407067Y-54311067D01*
X129357471Y-54385293D01*
X127433296Y-56309469D01*
X127359067Y-56359067D01*
X127254990Y-56514830D01*
X127138000Y-56491560D01*
X127127000Y-56491560D01*
X127127000Y-54675554D01*
X127144416Y-54587999D01*
X127097356Y-54351416D01*
X127075419Y-54241130D01*
X126878933Y-53947067D01*
X126804707Y-53897471D01*
X126489938Y-53582703D01*
X126490000Y-53582393D01*
X126490000Y-51827607D01*
X126409061Y-51420698D01*
X126100737Y-50959262D01*
X125639301Y-50650939D01*
X125095000Y-50542671D01*
X124550698Y-50650939D01*
X124089262Y-50959263D01*
X123825000Y-51354757D01*
X123560737Y-50959262D01*
X123444000Y-50881260D01*
X123444000Y-50784555D01*
X123461416Y-50697000D01*
X123444000Y-50609444D01*
X123392419Y-50350130D01*
X123195933Y-50056067D01*
X123121706Y-50006470D01*
X122586531Y-49471296D01*
X122536933Y-49397067D01*
X122242870Y-49200581D01*
X121983556Y-49149000D01*
X121983555Y-49149000D01*
X121896000Y-49131584D01*
X121808445Y-49149000D01*
X118197554Y-49149000D01*
X118109999Y-49131584D01*
X118022444Y-49149000D01*
X117763130Y-49200581D01*
X117469067Y-49397067D01*
X117419471Y-49471293D01*
X112336296Y-54554469D01*
X112262067Y-54604067D01*
X112065581Y-54898131D01*
X112014000Y-55157444D01*
X111996584Y-55245000D01*
X110710000Y-55245000D01*
X110710000Y-49050580D01*
X110768803Y-48639973D01*
X110919338Y-48308890D01*
X111156749Y-48033361D01*
X111461944Y-47835544D01*
X111833917Y-47724300D01*
X112026348Y-47710000D01*
X129296244Y-47710000D01*
X128649006Y-47978095D01*
G04 #@! TD*
M02*
