G04 #@! TF.GenerationSoftware,KiCad,Pcbnew,(5.0.0)*
G04 #@! TF.CreationDate,2018-09-21T20:05:04-03:00*
G04 #@! TF.ProjectId,badge00,626164676530302E6B696361645F7063,rev?*
G04 #@! TF.SameCoordinates,Original*
G04 #@! TF.FileFunction,Legend,Top*
G04 #@! TF.FilePolarity,Positive*
%FSLAX46Y46*%
G04 Gerber Fmt 4.6, Leading zero omitted, Abs format (unit mm)*
G04 Created by KiCad (PCBNEW (5.0.0)) date 09/21/18 20:05:04*
%MOMM*%
%LPD*%
G01*
G04 APERTURE LIST*
%ADD10C,0.200000*%
%ADD11C,0.120000*%
%ADD12C,0.010000*%
%ADD13C,0.254000*%
G04 APERTURE END LIST*
D10*
X118857142Y-85914285D02*
X119028571Y-85971428D01*
X119085714Y-86028571D01*
X119142857Y-86142857D01*
X119142857Y-86314285D01*
X119085714Y-86428571D01*
X119028571Y-86485714D01*
X118914285Y-86542857D01*
X118457142Y-86542857D01*
X118457142Y-85342857D01*
X118857142Y-85342857D01*
X118971428Y-85400000D01*
X119028571Y-85457142D01*
X119085714Y-85571428D01*
X119085714Y-85685714D01*
X119028571Y-85800000D01*
X118971428Y-85857142D01*
X118857142Y-85914285D01*
X118457142Y-85914285D01*
X119600000Y-86200000D02*
X120171428Y-86200000D01*
X119485714Y-86542857D02*
X119885714Y-85342857D01*
X120285714Y-86542857D01*
X120685714Y-86542857D02*
X120685714Y-85342857D01*
X120971428Y-85342857D01*
X121142857Y-85400000D01*
X121257142Y-85514285D01*
X121314285Y-85628571D01*
X121371428Y-85857142D01*
X121371428Y-86028571D01*
X121314285Y-86257142D01*
X121257142Y-86371428D01*
X121142857Y-86485714D01*
X120971428Y-86542857D01*
X120685714Y-86542857D01*
X122514285Y-85400000D02*
X122400000Y-85342857D01*
X122228571Y-85342857D01*
X122057142Y-85400000D01*
X121942857Y-85514285D01*
X121885714Y-85628571D01*
X121828571Y-85857142D01*
X121828571Y-86028571D01*
X121885714Y-86257142D01*
X121942857Y-86371428D01*
X122057142Y-86485714D01*
X122228571Y-86542857D01*
X122342857Y-86542857D01*
X122514285Y-86485714D01*
X122571428Y-86428571D01*
X122571428Y-86028571D01*
X122342857Y-86028571D01*
X123085714Y-85914285D02*
X123485714Y-85914285D01*
X123657142Y-86542857D02*
X123085714Y-86542857D01*
X123085714Y-85342857D01*
X123657142Y-85342857D01*
X125085714Y-86085714D02*
X126000000Y-86085714D01*
X127428571Y-86200000D02*
X128000000Y-86200000D01*
X127314285Y-86542857D02*
X127714285Y-85342857D01*
X128114285Y-86542857D01*
X128514285Y-86542857D02*
X128514285Y-85342857D01*
X128971428Y-85342857D01*
X129085714Y-85400000D01*
X129142857Y-85457142D01*
X129200000Y-85571428D01*
X129200000Y-85742857D01*
X129142857Y-85857142D01*
X129085714Y-85914285D01*
X128971428Y-85971428D01*
X128514285Y-85971428D01*
X130400000Y-86542857D02*
X130000000Y-85971428D01*
X129714285Y-86542857D02*
X129714285Y-85342857D01*
X130171428Y-85342857D01*
X130285714Y-85400000D01*
X130342857Y-85457142D01*
X130400000Y-85571428D01*
X130400000Y-85742857D01*
X130342857Y-85857142D01*
X130285714Y-85914285D01*
X130171428Y-85971428D01*
X129714285Y-85971428D01*
X130914285Y-85914285D02*
X131314285Y-85914285D01*
X131485714Y-86542857D02*
X130914285Y-86542857D01*
X130914285Y-85342857D01*
X131485714Y-85342857D01*
X132000000Y-86542857D02*
X132000000Y-85342857D01*
X132685714Y-86542857D01*
X132685714Y-85342857D01*
X133257142Y-86542857D02*
X133257142Y-85342857D01*
X133542857Y-85342857D01*
X133714285Y-85400000D01*
X133828571Y-85514285D01*
X133885714Y-85628571D01*
X133942857Y-85857142D01*
X133942857Y-86028571D01*
X133885714Y-86257142D01*
X133828571Y-86371428D01*
X133714285Y-86485714D01*
X133542857Y-86542857D01*
X133257142Y-86542857D01*
X134400000Y-86200000D02*
X134971428Y-86200000D01*
X134285714Y-86542857D02*
X134685714Y-85342857D01*
X135085714Y-86542857D01*
X136342857Y-86485714D02*
X136514285Y-86542857D01*
X136800000Y-86542857D01*
X136914285Y-86485714D01*
X136971428Y-86428571D01*
X137028571Y-86314285D01*
X137028571Y-86200000D01*
X136971428Y-86085714D01*
X136914285Y-86028571D01*
X136800000Y-85971428D01*
X136571428Y-85914285D01*
X136457142Y-85857142D01*
X136400000Y-85800000D01*
X136342857Y-85685714D01*
X136342857Y-85571428D01*
X136400000Y-85457142D01*
X136457142Y-85400000D01*
X136571428Y-85342857D01*
X136857142Y-85342857D01*
X137028571Y-85400000D01*
X137771428Y-85342857D02*
X138000000Y-85342857D01*
X138114285Y-85400000D01*
X138228571Y-85514285D01*
X138285714Y-85742857D01*
X138285714Y-86142857D01*
X138228571Y-86371428D01*
X138114285Y-86485714D01*
X138000000Y-86542857D01*
X137771428Y-86542857D01*
X137657142Y-86485714D01*
X137542857Y-86371428D01*
X137485714Y-86142857D01*
X137485714Y-85742857D01*
X137542857Y-85514285D01*
X137657142Y-85400000D01*
X137771428Y-85342857D01*
X139371428Y-86542857D02*
X138800000Y-86542857D01*
X138800000Y-85342857D01*
X139771428Y-86542857D02*
X139771428Y-85342857D01*
X140057142Y-85342857D01*
X140228571Y-85400000D01*
X140342857Y-85514285D01*
X140400000Y-85628571D01*
X140457142Y-85857142D01*
X140457142Y-86028571D01*
X140400000Y-86257142D01*
X140342857Y-86371428D01*
X140228571Y-86485714D01*
X140057142Y-86542857D01*
X139771428Y-86542857D01*
X140914285Y-86200000D02*
X141485714Y-86200000D01*
X140800000Y-86542857D02*
X141200000Y-85342857D01*
X141600000Y-86542857D01*
X142685714Y-86542857D02*
X142285714Y-85971428D01*
X142000000Y-86542857D02*
X142000000Y-85342857D01*
X142457142Y-85342857D01*
X142571428Y-85400000D01*
X142628571Y-85457142D01*
X142685714Y-85571428D01*
X142685714Y-85742857D01*
X142628571Y-85857142D01*
X142571428Y-85914285D01*
X142457142Y-85971428D01*
X142000000Y-85971428D01*
D11*
G04 #@! TO.C,D1*
X123295665Y-59117608D02*
G75*
G03X126528000Y-59274516I1672335J1078608D01*
G01*
X123295665Y-56960392D02*
G75*
G02X126528000Y-56803484I1672335J-1078608D01*
G01*
X123926870Y-59118837D02*
G75*
G03X126008961Y-59119000I1041130J1079837D01*
G01*
X123926870Y-56959163D02*
G75*
G02X126008961Y-56959000I1041130J-1079837D01*
G01*
X126528000Y-59275000D02*
X126528000Y-59119000D01*
X126528000Y-56959000D02*
X126528000Y-56803000D01*
G04 #@! TO.C,D2*
X136419335Y-56960392D02*
G75*
G03X133187000Y-56803484I-1672335J-1078608D01*
G01*
X136419335Y-59117608D02*
G75*
G02X133187000Y-59274516I-1672335J1078608D01*
G01*
X135788130Y-56959163D02*
G75*
G03X133706039Y-56959000I-1041130J-1079837D01*
G01*
X135788130Y-59118837D02*
G75*
G02X133706039Y-59119000I-1041130J1079837D01*
G01*
X133187000Y-56803000D02*
X133187000Y-56959000D01*
X133187000Y-59119000D02*
X133187000Y-59275000D01*
D12*
G04 #@! TO.C,G\002A\002A\002A*
G36*
X135022686Y-56893475D02*
X135126102Y-56894013D01*
X135208198Y-56895119D01*
X135272426Y-56896963D01*
X135322237Y-56899714D01*
X135361081Y-56903543D01*
X135392409Y-56908620D01*
X135419673Y-56915115D01*
X135436494Y-56920067D01*
X135556831Y-56971805D01*
X135662737Y-57046087D01*
X135751386Y-57139730D01*
X135819954Y-57249552D01*
X135865617Y-57372373D01*
X135874930Y-57413903D01*
X135879291Y-57452341D01*
X135882844Y-57514200D01*
X135885587Y-57594691D01*
X135887521Y-57689024D01*
X135888646Y-57792409D01*
X135888961Y-57900057D01*
X135888468Y-58007180D01*
X135887165Y-58108986D01*
X135885053Y-58200687D01*
X135882132Y-58277493D01*
X135878402Y-58334615D01*
X135874930Y-58362429D01*
X135837195Y-58488737D01*
X135775650Y-58603065D01*
X135693119Y-58702232D01*
X135592429Y-58783056D01*
X135476403Y-58842355D01*
X135436494Y-58856265D01*
X135410254Y-58863704D01*
X135382286Y-58869623D01*
X135349161Y-58874185D01*
X135307453Y-58877552D01*
X135253734Y-58879887D01*
X135184577Y-58881354D01*
X135096555Y-58882114D01*
X134986239Y-58882332D01*
X134889715Y-58882241D01*
X134760307Y-58881875D01*
X134655747Y-58881137D01*
X134572661Y-58879862D01*
X134507675Y-58877886D01*
X134457415Y-58875043D01*
X134418508Y-58871167D01*
X134387580Y-58866095D01*
X134361256Y-58859661D01*
X134348368Y-58855754D01*
X134242377Y-58812769D01*
X134151755Y-58754358D01*
X134073888Y-58682238D01*
X134010416Y-58606975D01*
X133964695Y-58530966D01*
X133929674Y-58441921D01*
X133922390Y-58418300D01*
X133915849Y-58391920D01*
X133910646Y-58359554D01*
X133906642Y-58317924D01*
X133903695Y-58263753D01*
X133901665Y-58193762D01*
X133900413Y-58104674D01*
X133899796Y-57993212D01*
X133899667Y-57888166D01*
X133899902Y-57751495D01*
X133900868Y-57639517D01*
X133902956Y-57548704D01*
X133906559Y-57475530D01*
X133912066Y-57416468D01*
X133919870Y-57367989D01*
X133930362Y-57326567D01*
X133943933Y-57288675D01*
X133960974Y-57250786D01*
X133973088Y-57226468D01*
X134030206Y-57140730D01*
X134108788Y-57060440D01*
X134202078Y-56991054D01*
X134303318Y-56938029D01*
X134352506Y-56920067D01*
X134378980Y-56912580D01*
X134407321Y-56906620D01*
X134440981Y-56902016D01*
X134483410Y-56898599D01*
X134538059Y-56896197D01*
X134608380Y-56894641D01*
X134697823Y-56893761D01*
X134809839Y-56893386D01*
X134894500Y-56893333D01*
X135022686Y-56893475D01*
X135022686Y-56893475D01*
G37*
X135022686Y-56893475D02*
X135126102Y-56894013D01*
X135208198Y-56895119D01*
X135272426Y-56896963D01*
X135322237Y-56899714D01*
X135361081Y-56903543D01*
X135392409Y-56908620D01*
X135419673Y-56915115D01*
X135436494Y-56920067D01*
X135556831Y-56971805D01*
X135662737Y-57046087D01*
X135751386Y-57139730D01*
X135819954Y-57249552D01*
X135865617Y-57372373D01*
X135874930Y-57413903D01*
X135879291Y-57452341D01*
X135882844Y-57514200D01*
X135885587Y-57594691D01*
X135887521Y-57689024D01*
X135888646Y-57792409D01*
X135888961Y-57900057D01*
X135888468Y-58007180D01*
X135887165Y-58108986D01*
X135885053Y-58200687D01*
X135882132Y-58277493D01*
X135878402Y-58334615D01*
X135874930Y-58362429D01*
X135837195Y-58488737D01*
X135775650Y-58603065D01*
X135693119Y-58702232D01*
X135592429Y-58783056D01*
X135476403Y-58842355D01*
X135436494Y-58856265D01*
X135410254Y-58863704D01*
X135382286Y-58869623D01*
X135349161Y-58874185D01*
X135307453Y-58877552D01*
X135253734Y-58879887D01*
X135184577Y-58881354D01*
X135096555Y-58882114D01*
X134986239Y-58882332D01*
X134889715Y-58882241D01*
X134760307Y-58881875D01*
X134655747Y-58881137D01*
X134572661Y-58879862D01*
X134507675Y-58877886D01*
X134457415Y-58875043D01*
X134418508Y-58871167D01*
X134387580Y-58866095D01*
X134361256Y-58859661D01*
X134348368Y-58855754D01*
X134242377Y-58812769D01*
X134151755Y-58754358D01*
X134073888Y-58682238D01*
X134010416Y-58606975D01*
X133964695Y-58530966D01*
X133929674Y-58441921D01*
X133922390Y-58418300D01*
X133915849Y-58391920D01*
X133910646Y-58359554D01*
X133906642Y-58317924D01*
X133903695Y-58263753D01*
X133901665Y-58193762D01*
X133900413Y-58104674D01*
X133899796Y-57993212D01*
X133899667Y-57888166D01*
X133899902Y-57751495D01*
X133900868Y-57639517D01*
X133902956Y-57548704D01*
X133906559Y-57475530D01*
X133912066Y-57416468D01*
X133919870Y-57367989D01*
X133930362Y-57326567D01*
X133943933Y-57288675D01*
X133960974Y-57250786D01*
X133973088Y-57226468D01*
X134030206Y-57140730D01*
X134108788Y-57060440D01*
X134202078Y-56991054D01*
X134303318Y-56938029D01*
X134352506Y-56920067D01*
X134378980Y-56912580D01*
X134407321Y-56906620D01*
X134440981Y-56902016D01*
X134483410Y-56898599D01*
X134538059Y-56896197D01*
X134608380Y-56894641D01*
X134697823Y-56893761D01*
X134809839Y-56893386D01*
X134894500Y-56893333D01*
X135022686Y-56893475D01*
G36*
X125452748Y-56895545D02*
X125531229Y-56898313D01*
X125594727Y-56903000D01*
X125646550Y-56909909D01*
X125690006Y-56919345D01*
X125728402Y-56931614D01*
X125765047Y-56947019D01*
X125791667Y-56959954D01*
X125857044Y-57001129D01*
X125926301Y-57058034D01*
X125990388Y-57122234D01*
X126040252Y-57185292D01*
X126049827Y-57200557D01*
X126072822Y-57241478D01*
X126091482Y-57280173D01*
X126106255Y-57320123D01*
X126117590Y-57364805D01*
X126125936Y-57417699D01*
X126131742Y-57482284D01*
X126135457Y-57562037D01*
X126137529Y-57660439D01*
X126138409Y-57780968D01*
X126138556Y-57888166D01*
X126138277Y-58027606D01*
X126137143Y-58142305D01*
X126134703Y-58235743D01*
X126130510Y-58311398D01*
X126124114Y-58372749D01*
X126115066Y-58423275D01*
X126102918Y-58466455D01*
X126087220Y-58505767D01*
X126067524Y-58544692D01*
X126049827Y-58575775D01*
X126010477Y-58630409D01*
X125956028Y-58689996D01*
X125894922Y-58746454D01*
X125835602Y-58791699D01*
X125805909Y-58809329D01*
X125766420Y-58828644D01*
X125729213Y-58844260D01*
X125690789Y-58856555D01*
X125647649Y-58865909D01*
X125596294Y-58872699D01*
X125533224Y-58877304D01*
X125454941Y-58880102D01*
X125357946Y-58881471D01*
X125238740Y-58881789D01*
X125137633Y-58881582D01*
X125023864Y-58880847D01*
X124916937Y-58879427D01*
X124820712Y-58877430D01*
X124739046Y-58874963D01*
X124675794Y-58872133D01*
X124634815Y-58869047D01*
X124623273Y-58867304D01*
X124518448Y-58829223D01*
X124417763Y-58767240D01*
X124326329Y-58685657D01*
X124249253Y-58588777D01*
X124208415Y-58517909D01*
X124155945Y-58411741D01*
X124155945Y-57366055D01*
X124206929Y-57259298D01*
X124276427Y-57143479D01*
X124364866Y-57048383D01*
X124473580Y-56972674D01*
X124514854Y-56951373D01*
X124621611Y-56900389D01*
X125094333Y-56895698D01*
X125237608Y-56894542D01*
X125355977Y-56894389D01*
X125452748Y-56895545D01*
X125452748Y-56895545D01*
G37*
X125452748Y-56895545D02*
X125531229Y-56898313D01*
X125594727Y-56903000D01*
X125646550Y-56909909D01*
X125690006Y-56919345D01*
X125728402Y-56931614D01*
X125765047Y-56947019D01*
X125791667Y-56959954D01*
X125857044Y-57001129D01*
X125926301Y-57058034D01*
X125990388Y-57122234D01*
X126040252Y-57185292D01*
X126049827Y-57200557D01*
X126072822Y-57241478D01*
X126091482Y-57280173D01*
X126106255Y-57320123D01*
X126117590Y-57364805D01*
X126125936Y-57417699D01*
X126131742Y-57482284D01*
X126135457Y-57562037D01*
X126137529Y-57660439D01*
X126138409Y-57780968D01*
X126138556Y-57888166D01*
X126138277Y-58027606D01*
X126137143Y-58142305D01*
X126134703Y-58235743D01*
X126130510Y-58311398D01*
X126124114Y-58372749D01*
X126115066Y-58423275D01*
X126102918Y-58466455D01*
X126087220Y-58505767D01*
X126067524Y-58544692D01*
X126049827Y-58575775D01*
X126010477Y-58630409D01*
X125956028Y-58689996D01*
X125894922Y-58746454D01*
X125835602Y-58791699D01*
X125805909Y-58809329D01*
X125766420Y-58828644D01*
X125729213Y-58844260D01*
X125690789Y-58856555D01*
X125647649Y-58865909D01*
X125596294Y-58872699D01*
X125533224Y-58877304D01*
X125454941Y-58880102D01*
X125357946Y-58881471D01*
X125238740Y-58881789D01*
X125137633Y-58881582D01*
X125023864Y-58880847D01*
X124916937Y-58879427D01*
X124820712Y-58877430D01*
X124739046Y-58874963D01*
X124675794Y-58872133D01*
X124634815Y-58869047D01*
X124623273Y-58867304D01*
X124518448Y-58829223D01*
X124417763Y-58767240D01*
X124326329Y-58685657D01*
X124249253Y-58588777D01*
X124208415Y-58517909D01*
X124155945Y-58411741D01*
X124155945Y-57366055D01*
X124206929Y-57259298D01*
X124276427Y-57143479D01*
X124364866Y-57048383D01*
X124473580Y-56972674D01*
X124514854Y-56951373D01*
X124621611Y-56900389D01*
X125094333Y-56895698D01*
X125237608Y-56894542D01*
X125355977Y-56894389D01*
X125452748Y-56895545D01*
G36*
X114194840Y-61196847D02*
X114292459Y-61209121D01*
X114320500Y-61215805D01*
X114360730Y-61227168D01*
X114396935Y-61238770D01*
X114431078Y-61252223D01*
X114465118Y-61269136D01*
X114501018Y-61291121D01*
X114540738Y-61319789D01*
X114586240Y-61356750D01*
X114639483Y-61403616D01*
X114702431Y-61461996D01*
X114777043Y-61533503D01*
X114865280Y-61619746D01*
X114969104Y-61722337D01*
X115090476Y-61842887D01*
X115121558Y-61873798D01*
X115258069Y-62010166D01*
X115379515Y-62132708D01*
X115485062Y-62240551D01*
X115573872Y-62332824D01*
X115645111Y-62408653D01*
X115697942Y-62467166D01*
X115731528Y-62507490D01*
X115740054Y-62519337D01*
X115807689Y-62645682D01*
X115855826Y-62785518D01*
X115882725Y-62931292D01*
X115886646Y-63075454D01*
X115881253Y-63132003D01*
X115856688Y-63263641D01*
X115818805Y-63380664D01*
X115764281Y-63490084D01*
X115689792Y-63598911D01*
X115620194Y-63682811D01*
X115583916Y-63722448D01*
X115531051Y-63778084D01*
X115463424Y-63847916D01*
X115382860Y-63930142D01*
X115291185Y-64022958D01*
X115190224Y-64124563D01*
X115081803Y-64233153D01*
X114967747Y-64346927D01*
X114849881Y-64464080D01*
X114730031Y-64582812D01*
X114610022Y-64701319D01*
X114491680Y-64817799D01*
X114376830Y-64930448D01*
X114267297Y-65037465D01*
X114164908Y-65137047D01*
X114071486Y-65227390D01*
X113988858Y-65306694D01*
X113918849Y-65373154D01*
X113863285Y-65424969D01*
X113823991Y-65460335D01*
X113802992Y-65477321D01*
X113666607Y-65551084D01*
X113520494Y-65602783D01*
X113370203Y-65631144D01*
X113221280Y-65634894D01*
X113149712Y-65627243D01*
X112998580Y-65591697D01*
X112854740Y-65532113D01*
X112714718Y-65446870D01*
X112637780Y-65388222D01*
X112608519Y-65362536D01*
X112561767Y-65319204D01*
X112499953Y-65260574D01*
X112425507Y-65188992D01*
X112340857Y-65106805D01*
X112248432Y-65016361D01*
X112150661Y-64920007D01*
X112053675Y-64823777D01*
X111938742Y-64709132D01*
X111842233Y-64612294D01*
X111762379Y-64531352D01*
X111697410Y-64464398D01*
X111645555Y-64409523D01*
X111605047Y-64364817D01*
X111574114Y-64328371D01*
X111550987Y-64298277D01*
X111533896Y-64272624D01*
X111521072Y-64249505D01*
X111520743Y-64248847D01*
X111465651Y-64109244D01*
X111437512Y-63967793D01*
X111435899Y-63827251D01*
X111460385Y-63690376D01*
X111510544Y-63559924D01*
X111585950Y-63438652D01*
X111658926Y-63355273D01*
X111770892Y-63262769D01*
X111894887Y-63194792D01*
X112027802Y-63152049D01*
X112166527Y-63135250D01*
X112307951Y-63145102D01*
X112436880Y-63178005D01*
X112504359Y-63204905D01*
X112568055Y-63238498D01*
X112632486Y-63282075D01*
X112702174Y-63338925D01*
X112781638Y-63412339D01*
X112845732Y-63475579D01*
X113007852Y-63638590D01*
X113441278Y-63205333D01*
X113874705Y-62772076D01*
X113693844Y-62586899D01*
X113599468Y-62486143D01*
X113525589Y-62396893D01*
X113469521Y-62314561D01*
X113428580Y-62234558D01*
X113400080Y-62152293D01*
X113381336Y-62063179D01*
X113379252Y-62049305D01*
X113372973Y-61910339D01*
X113392970Y-61774925D01*
X113437299Y-61646163D01*
X113504019Y-61527151D01*
X113591185Y-61420988D01*
X113696856Y-61330774D01*
X113819089Y-61259607D01*
X113893171Y-61229533D01*
X113983374Y-61207433D01*
X114087871Y-61196410D01*
X114194840Y-61196847D01*
X114194840Y-61196847D01*
G37*
X114194840Y-61196847D02*
X114292459Y-61209121D01*
X114320500Y-61215805D01*
X114360730Y-61227168D01*
X114396935Y-61238770D01*
X114431078Y-61252223D01*
X114465118Y-61269136D01*
X114501018Y-61291121D01*
X114540738Y-61319789D01*
X114586240Y-61356750D01*
X114639483Y-61403616D01*
X114702431Y-61461996D01*
X114777043Y-61533503D01*
X114865280Y-61619746D01*
X114969104Y-61722337D01*
X115090476Y-61842887D01*
X115121558Y-61873798D01*
X115258069Y-62010166D01*
X115379515Y-62132708D01*
X115485062Y-62240551D01*
X115573872Y-62332824D01*
X115645111Y-62408653D01*
X115697942Y-62467166D01*
X115731528Y-62507490D01*
X115740054Y-62519337D01*
X115807689Y-62645682D01*
X115855826Y-62785518D01*
X115882725Y-62931292D01*
X115886646Y-63075454D01*
X115881253Y-63132003D01*
X115856688Y-63263641D01*
X115818805Y-63380664D01*
X115764281Y-63490084D01*
X115689792Y-63598911D01*
X115620194Y-63682811D01*
X115583916Y-63722448D01*
X115531051Y-63778084D01*
X115463424Y-63847916D01*
X115382860Y-63930142D01*
X115291185Y-64022958D01*
X115190224Y-64124563D01*
X115081803Y-64233153D01*
X114967747Y-64346927D01*
X114849881Y-64464080D01*
X114730031Y-64582812D01*
X114610022Y-64701319D01*
X114491680Y-64817799D01*
X114376830Y-64930448D01*
X114267297Y-65037465D01*
X114164908Y-65137047D01*
X114071486Y-65227390D01*
X113988858Y-65306694D01*
X113918849Y-65373154D01*
X113863285Y-65424969D01*
X113823991Y-65460335D01*
X113802992Y-65477321D01*
X113666607Y-65551084D01*
X113520494Y-65602783D01*
X113370203Y-65631144D01*
X113221280Y-65634894D01*
X113149712Y-65627243D01*
X112998580Y-65591697D01*
X112854740Y-65532113D01*
X112714718Y-65446870D01*
X112637780Y-65388222D01*
X112608519Y-65362536D01*
X112561767Y-65319204D01*
X112499953Y-65260574D01*
X112425507Y-65188992D01*
X112340857Y-65106805D01*
X112248432Y-65016361D01*
X112150661Y-64920007D01*
X112053675Y-64823777D01*
X111938742Y-64709132D01*
X111842233Y-64612294D01*
X111762379Y-64531352D01*
X111697410Y-64464398D01*
X111645555Y-64409523D01*
X111605047Y-64364817D01*
X111574114Y-64328371D01*
X111550987Y-64298277D01*
X111533896Y-64272624D01*
X111521072Y-64249505D01*
X111520743Y-64248847D01*
X111465651Y-64109244D01*
X111437512Y-63967793D01*
X111435899Y-63827251D01*
X111460385Y-63690376D01*
X111510544Y-63559924D01*
X111585950Y-63438652D01*
X111658926Y-63355273D01*
X111770892Y-63262769D01*
X111894887Y-63194792D01*
X112027802Y-63152049D01*
X112166527Y-63135250D01*
X112307951Y-63145102D01*
X112436880Y-63178005D01*
X112504359Y-63204905D01*
X112568055Y-63238498D01*
X112632486Y-63282075D01*
X112702174Y-63338925D01*
X112781638Y-63412339D01*
X112845732Y-63475579D01*
X113007852Y-63638590D01*
X113441278Y-63205333D01*
X113874705Y-62772076D01*
X113693844Y-62586899D01*
X113599468Y-62486143D01*
X113525589Y-62396893D01*
X113469521Y-62314561D01*
X113428580Y-62234558D01*
X113400080Y-62152293D01*
X113381336Y-62063179D01*
X113379252Y-62049305D01*
X113372973Y-61910339D01*
X113392970Y-61774925D01*
X113437299Y-61646163D01*
X113504019Y-61527151D01*
X113591185Y-61420988D01*
X113696856Y-61330774D01*
X113819089Y-61259607D01*
X113893171Y-61229533D01*
X113983374Y-61207433D01*
X114087871Y-61196410D01*
X114194840Y-61196847D01*
G36*
X116187700Y-64331908D02*
X116282568Y-64342188D01*
X116317684Y-64349526D01*
X116467594Y-64400618D01*
X116603311Y-64473762D01*
X116723282Y-64566255D01*
X116825952Y-64675393D01*
X116909767Y-64798473D01*
X116973173Y-64932792D01*
X117014617Y-65075645D01*
X117032545Y-65224330D01*
X117025401Y-65376143D01*
X116992925Y-65524234D01*
X116979349Y-65571073D01*
X116970897Y-65606011D01*
X116969341Y-65621693D01*
X116969424Y-65621794D01*
X116984494Y-65620619D01*
X117016970Y-65611877D01*
X117036895Y-65605361D01*
X117164505Y-65575057D01*
X117303105Y-65566381D01*
X117446431Y-65578623D01*
X117588219Y-65611078D01*
X117722206Y-65663037D01*
X117770667Y-65688251D01*
X117841077Y-65736266D01*
X117917475Y-65802230D01*
X117992989Y-65878967D01*
X118060746Y-65959304D01*
X118113875Y-66036067D01*
X118128029Y-66061315D01*
X118187319Y-66203215D01*
X118223640Y-66352892D01*
X118236194Y-66504463D01*
X118224182Y-66652049D01*
X118214646Y-66699067D01*
X118204368Y-66745472D01*
X118198115Y-66779335D01*
X118197216Y-66793059D01*
X118211393Y-66790685D01*
X118245498Y-66781009D01*
X118292793Y-66765976D01*
X118304277Y-66762150D01*
X118422706Y-66733001D01*
X118553349Y-66718740D01*
X118684022Y-66720074D01*
X118786667Y-66734135D01*
X118935243Y-66779513D01*
X119073149Y-66849300D01*
X119197594Y-66940806D01*
X119305787Y-67051338D01*
X119394935Y-67178206D01*
X119462248Y-67318719D01*
X119492617Y-67414711D01*
X119506764Y-67483222D01*
X119516783Y-67556939D01*
X119520445Y-67617927D01*
X119520445Y-67712340D01*
X119594528Y-67699702D01*
X119645129Y-67694674D01*
X119710821Y-67692990D01*
X119778638Y-67694925D01*
X119788556Y-67695570D01*
X119908500Y-67704076D01*
X119903893Y-67581802D01*
X119910096Y-67432213D01*
X119941184Y-67288227D01*
X119998430Y-67144111D01*
X120003409Y-67133951D01*
X120037602Y-67070879D01*
X120075385Y-67015284D01*
X120123149Y-66958727D01*
X120182248Y-66897746D01*
X120294309Y-66799295D01*
X120408335Y-66725673D01*
X120529808Y-66673710D01*
X120607000Y-66651970D01*
X120693838Y-66637976D01*
X120795009Y-66631634D01*
X120898820Y-66632989D01*
X120993580Y-66642086D01*
X121037273Y-66650327D01*
X121081821Y-66660355D01*
X121113343Y-66666598D01*
X121124208Y-66667746D01*
X121121175Y-66654239D01*
X121110998Y-66620581D01*
X121095682Y-66573316D01*
X121091051Y-66559444D01*
X121061072Y-66436784D01*
X121047418Y-66302539D01*
X121050762Y-66168609D01*
X121063944Y-66079666D01*
X121107541Y-65937104D01*
X121175118Y-65801696D01*
X121263304Y-65677807D01*
X121368733Y-65569801D01*
X121488034Y-65482043D01*
X121552445Y-65446823D01*
X121660924Y-65399130D01*
X121759530Y-65368122D01*
X121859022Y-65351233D01*
X121970164Y-65345898D01*
X121975778Y-65345889D01*
X122089599Y-65350941D01*
X122190920Y-65367848D01*
X122290750Y-65399231D01*
X122397157Y-65446270D01*
X122434903Y-65465624D01*
X122469958Y-65486137D01*
X122505651Y-65510529D01*
X122545316Y-65541525D01*
X122592282Y-65581846D01*
X122649880Y-65634214D01*
X122721443Y-65701353D01*
X122795384Y-65771729D01*
X122901927Y-65874562D01*
X122989566Y-65961809D01*
X123060747Y-66036338D01*
X123117919Y-66101018D01*
X123163530Y-66158715D01*
X123200027Y-66212298D01*
X123229859Y-66264636D01*
X123248146Y-66302199D01*
X123290467Y-66409750D01*
X123316346Y-66515510D01*
X123327561Y-66629253D01*
X123327043Y-66735833D01*
X123310732Y-66889763D01*
X123273488Y-67027969D01*
X123213336Y-67154953D01*
X123128300Y-67275215D01*
X123054894Y-67355812D01*
X122946355Y-67447648D01*
X122820286Y-67524522D01*
X122685592Y-67581350D01*
X122631945Y-67597164D01*
X122560173Y-67609795D01*
X122471878Y-67616738D01*
X122377206Y-67617969D01*
X122286302Y-67613464D01*
X122209312Y-67603199D01*
X122187463Y-67598223D01*
X122145119Y-67587531D01*
X122115996Y-67581081D01*
X122107583Y-67580129D01*
X122110803Y-67593540D01*
X122121387Y-67627046D01*
X122137256Y-67674147D01*
X122142171Y-67688333D01*
X122158022Y-67737212D01*
X122168647Y-67781211D01*
X122175073Y-67828299D01*
X122178328Y-67886439D01*
X122179439Y-67963598D01*
X122179485Y-67977611D01*
X122179091Y-68056985D01*
X122176761Y-68116176D01*
X122171434Y-68163208D01*
X122162048Y-68206106D01*
X122147542Y-68252895D01*
X122140311Y-68273809D01*
X122083033Y-68408717D01*
X122010862Y-68525440D01*
X121918604Y-68632298D01*
X121912988Y-68637911D01*
X121795012Y-68739028D01*
X121669617Y-68814273D01*
X121533498Y-68865062D01*
X121383349Y-68892812D01*
X121305500Y-68898358D01*
X121234907Y-68899593D01*
X121168141Y-68898101D01*
X121114264Y-68894218D01*
X121089454Y-68890347D01*
X121028630Y-68876283D01*
X121037547Y-68949058D01*
X121040339Y-69030748D01*
X121032304Y-69129735D01*
X121014673Y-69237797D01*
X120988676Y-69346715D01*
X120968039Y-69413592D01*
X120893415Y-69590195D01*
X120795914Y-69751269D01*
X120677192Y-69895237D01*
X120538904Y-70020523D01*
X120382704Y-70125551D01*
X120210249Y-70208746D01*
X120088866Y-70250769D01*
X120025958Y-70267649D01*
X119965986Y-70279196D01*
X119899938Y-70286603D01*
X119818805Y-70291064D01*
X119774445Y-70292442D01*
X119696961Y-70293403D01*
X119623202Y-70292418D01*
X119561067Y-70289714D01*
X119518457Y-70285517D01*
X119515643Y-70285036D01*
X119345941Y-70241570D01*
X119179699Y-70174793D01*
X119022588Y-70087837D01*
X118880276Y-69983835D01*
X118759909Y-69867578D01*
X118651867Y-69727166D01*
X118562767Y-69571903D01*
X118494756Y-69407008D01*
X118449981Y-69237698D01*
X118430588Y-69069191D01*
X118430513Y-69067036D01*
X118426926Y-69007642D01*
X118426875Y-69007359D01*
X119245675Y-69007359D01*
X119245675Y-69007425D01*
X119257218Y-69121184D01*
X119292026Y-69220740D01*
X119351660Y-69309926D01*
X119382103Y-69342845D01*
X119474026Y-69416214D01*
X119576007Y-69463731D01*
X119685789Y-69484938D01*
X119801118Y-69479377D01*
X119910576Y-69450079D01*
X120003269Y-69400880D01*
X120083630Y-69328167D01*
X120148196Y-69235218D01*
X120158454Y-69215415D01*
X120182957Y-69161933D01*
X120196969Y-69117775D01*
X120203284Y-69070413D01*
X120204695Y-69008019D01*
X120202642Y-68941428D01*
X120194981Y-68890173D01*
X120179169Y-68841532D01*
X120164801Y-68808509D01*
X120103900Y-68708956D01*
X120021812Y-68627745D01*
X119922611Y-68567466D01*
X119822824Y-68535303D01*
X119715627Y-68525862D01*
X119609635Y-68539184D01*
X119532862Y-68565624D01*
X119431913Y-68625865D01*
X119351745Y-68704447D01*
X119291276Y-68800805D01*
X119267013Y-68853779D01*
X119253155Y-68897572D01*
X119246957Y-68944620D01*
X119245675Y-69007359D01*
X118426875Y-69007359D01*
X118420814Y-68974121D01*
X118411723Y-68964204D01*
X118410126Y-68964592D01*
X118359208Y-68977375D01*
X118289442Y-68986598D01*
X118210042Y-68991705D01*
X118130221Y-68992139D01*
X118059192Y-68987345D01*
X118050944Y-68986289D01*
X117894718Y-68953482D01*
X117755068Y-68899225D01*
X117628271Y-68821678D01*
X117510882Y-68719280D01*
X117406438Y-68597196D01*
X117328818Y-68468557D01*
X117276882Y-68330612D01*
X117249489Y-68180612D01*
X117244309Y-68076389D01*
X117247298Y-67968084D01*
X117257937Y-67879717D01*
X117277271Y-67803787D01*
X117285588Y-67780571D01*
X117281182Y-67772988D01*
X117256292Y-67776765D01*
X117208527Y-67792297D01*
X117203606Y-67794073D01*
X117045169Y-67837588D01*
X116887619Y-67852910D01*
X116731385Y-67840059D01*
X116576894Y-67799058D01*
X116479500Y-67758230D01*
X116340861Y-67677630D01*
X116223139Y-67578529D01*
X116124851Y-67459443D01*
X116049117Y-67328500D01*
X115992628Y-67182387D01*
X115960953Y-67030709D01*
X115954442Y-66878033D01*
X115973450Y-66728924D01*
X115996486Y-66645331D01*
X116028113Y-66551032D01*
X115936307Y-66578416D01*
X115852387Y-66595919D01*
X115751722Y-66605364D01*
X115644632Y-66606678D01*
X115541443Y-66599785D01*
X115452477Y-66584611D01*
X115442333Y-66581983D01*
X115295426Y-66527908D01*
X115159594Y-66450134D01*
X115037986Y-66351659D01*
X114933747Y-66235480D01*
X114850026Y-66104598D01*
X114789970Y-65962009D01*
X114789242Y-65959722D01*
X114770285Y-65876442D01*
X114759090Y-65776662D01*
X114755630Y-65669133D01*
X114759875Y-65562608D01*
X114771796Y-65465838D01*
X114791136Y-65388222D01*
X114814549Y-65326142D01*
X114840169Y-65269439D01*
X114870459Y-65214878D01*
X114907879Y-65159219D01*
X114954891Y-65099227D01*
X115013954Y-65031663D01*
X115087531Y-64953291D01*
X115178082Y-64860873D01*
X115236452Y-64802444D01*
X115334457Y-64705526D01*
X115416332Y-64626615D01*
X115485331Y-64563209D01*
X115544709Y-64512805D01*
X115597721Y-64472900D01*
X115647622Y-64440990D01*
X115697666Y-64414572D01*
X115751108Y-64391143D01*
X115791703Y-64375397D01*
X115873858Y-64352784D01*
X115973683Y-64337681D01*
X116081518Y-64330564D01*
X116187700Y-64331908D01*
X116187700Y-64331908D01*
G37*
X116187700Y-64331908D02*
X116282568Y-64342188D01*
X116317684Y-64349526D01*
X116467594Y-64400618D01*
X116603311Y-64473762D01*
X116723282Y-64566255D01*
X116825952Y-64675393D01*
X116909767Y-64798473D01*
X116973173Y-64932792D01*
X117014617Y-65075645D01*
X117032545Y-65224330D01*
X117025401Y-65376143D01*
X116992925Y-65524234D01*
X116979349Y-65571073D01*
X116970897Y-65606011D01*
X116969341Y-65621693D01*
X116969424Y-65621794D01*
X116984494Y-65620619D01*
X117016970Y-65611877D01*
X117036895Y-65605361D01*
X117164505Y-65575057D01*
X117303105Y-65566381D01*
X117446431Y-65578623D01*
X117588219Y-65611078D01*
X117722206Y-65663037D01*
X117770667Y-65688251D01*
X117841077Y-65736266D01*
X117917475Y-65802230D01*
X117992989Y-65878967D01*
X118060746Y-65959304D01*
X118113875Y-66036067D01*
X118128029Y-66061315D01*
X118187319Y-66203215D01*
X118223640Y-66352892D01*
X118236194Y-66504463D01*
X118224182Y-66652049D01*
X118214646Y-66699067D01*
X118204368Y-66745472D01*
X118198115Y-66779335D01*
X118197216Y-66793059D01*
X118211393Y-66790685D01*
X118245498Y-66781009D01*
X118292793Y-66765976D01*
X118304277Y-66762150D01*
X118422706Y-66733001D01*
X118553349Y-66718740D01*
X118684022Y-66720074D01*
X118786667Y-66734135D01*
X118935243Y-66779513D01*
X119073149Y-66849300D01*
X119197594Y-66940806D01*
X119305787Y-67051338D01*
X119394935Y-67178206D01*
X119462248Y-67318719D01*
X119492617Y-67414711D01*
X119506764Y-67483222D01*
X119516783Y-67556939D01*
X119520445Y-67617927D01*
X119520445Y-67712340D01*
X119594528Y-67699702D01*
X119645129Y-67694674D01*
X119710821Y-67692990D01*
X119778638Y-67694925D01*
X119788556Y-67695570D01*
X119908500Y-67704076D01*
X119903893Y-67581802D01*
X119910096Y-67432213D01*
X119941184Y-67288227D01*
X119998430Y-67144111D01*
X120003409Y-67133951D01*
X120037602Y-67070879D01*
X120075385Y-67015284D01*
X120123149Y-66958727D01*
X120182248Y-66897746D01*
X120294309Y-66799295D01*
X120408335Y-66725673D01*
X120529808Y-66673710D01*
X120607000Y-66651970D01*
X120693838Y-66637976D01*
X120795009Y-66631634D01*
X120898820Y-66632989D01*
X120993580Y-66642086D01*
X121037273Y-66650327D01*
X121081821Y-66660355D01*
X121113343Y-66666598D01*
X121124208Y-66667746D01*
X121121175Y-66654239D01*
X121110998Y-66620581D01*
X121095682Y-66573316D01*
X121091051Y-66559444D01*
X121061072Y-66436784D01*
X121047418Y-66302539D01*
X121050762Y-66168609D01*
X121063944Y-66079666D01*
X121107541Y-65937104D01*
X121175118Y-65801696D01*
X121263304Y-65677807D01*
X121368733Y-65569801D01*
X121488034Y-65482043D01*
X121552445Y-65446823D01*
X121660924Y-65399130D01*
X121759530Y-65368122D01*
X121859022Y-65351233D01*
X121970164Y-65345898D01*
X121975778Y-65345889D01*
X122089599Y-65350941D01*
X122190920Y-65367848D01*
X122290750Y-65399231D01*
X122397157Y-65446270D01*
X122434903Y-65465624D01*
X122469958Y-65486137D01*
X122505651Y-65510529D01*
X122545316Y-65541525D01*
X122592282Y-65581846D01*
X122649880Y-65634214D01*
X122721443Y-65701353D01*
X122795384Y-65771729D01*
X122901927Y-65874562D01*
X122989566Y-65961809D01*
X123060747Y-66036338D01*
X123117919Y-66101018D01*
X123163530Y-66158715D01*
X123200027Y-66212298D01*
X123229859Y-66264636D01*
X123248146Y-66302199D01*
X123290467Y-66409750D01*
X123316346Y-66515510D01*
X123327561Y-66629253D01*
X123327043Y-66735833D01*
X123310732Y-66889763D01*
X123273488Y-67027969D01*
X123213336Y-67154953D01*
X123128300Y-67275215D01*
X123054894Y-67355812D01*
X122946355Y-67447648D01*
X122820286Y-67524522D01*
X122685592Y-67581350D01*
X122631945Y-67597164D01*
X122560173Y-67609795D01*
X122471878Y-67616738D01*
X122377206Y-67617969D01*
X122286302Y-67613464D01*
X122209312Y-67603199D01*
X122187463Y-67598223D01*
X122145119Y-67587531D01*
X122115996Y-67581081D01*
X122107583Y-67580129D01*
X122110803Y-67593540D01*
X122121387Y-67627046D01*
X122137256Y-67674147D01*
X122142171Y-67688333D01*
X122158022Y-67737212D01*
X122168647Y-67781211D01*
X122175073Y-67828299D01*
X122178328Y-67886439D01*
X122179439Y-67963598D01*
X122179485Y-67977611D01*
X122179091Y-68056985D01*
X122176761Y-68116176D01*
X122171434Y-68163208D01*
X122162048Y-68206106D01*
X122147542Y-68252895D01*
X122140311Y-68273809D01*
X122083033Y-68408717D01*
X122010862Y-68525440D01*
X121918604Y-68632298D01*
X121912988Y-68637911D01*
X121795012Y-68739028D01*
X121669617Y-68814273D01*
X121533498Y-68865062D01*
X121383349Y-68892812D01*
X121305500Y-68898358D01*
X121234907Y-68899593D01*
X121168141Y-68898101D01*
X121114264Y-68894218D01*
X121089454Y-68890347D01*
X121028630Y-68876283D01*
X121037547Y-68949058D01*
X121040339Y-69030748D01*
X121032304Y-69129735D01*
X121014673Y-69237797D01*
X120988676Y-69346715D01*
X120968039Y-69413592D01*
X120893415Y-69590195D01*
X120795914Y-69751269D01*
X120677192Y-69895237D01*
X120538904Y-70020523D01*
X120382704Y-70125551D01*
X120210249Y-70208746D01*
X120088866Y-70250769D01*
X120025958Y-70267649D01*
X119965986Y-70279196D01*
X119899938Y-70286603D01*
X119818805Y-70291064D01*
X119774445Y-70292442D01*
X119696961Y-70293403D01*
X119623202Y-70292418D01*
X119561067Y-70289714D01*
X119518457Y-70285517D01*
X119515643Y-70285036D01*
X119345941Y-70241570D01*
X119179699Y-70174793D01*
X119022588Y-70087837D01*
X118880276Y-69983835D01*
X118759909Y-69867578D01*
X118651867Y-69727166D01*
X118562767Y-69571903D01*
X118494756Y-69407008D01*
X118449981Y-69237698D01*
X118430588Y-69069191D01*
X118430513Y-69067036D01*
X118426926Y-69007642D01*
X118426875Y-69007359D01*
X119245675Y-69007359D01*
X119245675Y-69007425D01*
X119257218Y-69121184D01*
X119292026Y-69220740D01*
X119351660Y-69309926D01*
X119382103Y-69342845D01*
X119474026Y-69416214D01*
X119576007Y-69463731D01*
X119685789Y-69484938D01*
X119801118Y-69479377D01*
X119910576Y-69450079D01*
X120003269Y-69400880D01*
X120083630Y-69328167D01*
X120148196Y-69235218D01*
X120158454Y-69215415D01*
X120182957Y-69161933D01*
X120196969Y-69117775D01*
X120203284Y-69070413D01*
X120204695Y-69008019D01*
X120202642Y-68941428D01*
X120194981Y-68890173D01*
X120179169Y-68841532D01*
X120164801Y-68808509D01*
X120103900Y-68708956D01*
X120021812Y-68627745D01*
X119922611Y-68567466D01*
X119822824Y-68535303D01*
X119715627Y-68525862D01*
X119609635Y-68539184D01*
X119532862Y-68565624D01*
X119431913Y-68625865D01*
X119351745Y-68704447D01*
X119291276Y-68800805D01*
X119267013Y-68853779D01*
X119253155Y-68897572D01*
X119246957Y-68944620D01*
X119245675Y-69007359D01*
X118426875Y-69007359D01*
X118420814Y-68974121D01*
X118411723Y-68964204D01*
X118410126Y-68964592D01*
X118359208Y-68977375D01*
X118289442Y-68986598D01*
X118210042Y-68991705D01*
X118130221Y-68992139D01*
X118059192Y-68987345D01*
X118050944Y-68986289D01*
X117894718Y-68953482D01*
X117755068Y-68899225D01*
X117628271Y-68821678D01*
X117510882Y-68719280D01*
X117406438Y-68597196D01*
X117328818Y-68468557D01*
X117276882Y-68330612D01*
X117249489Y-68180612D01*
X117244309Y-68076389D01*
X117247298Y-67968084D01*
X117257937Y-67879717D01*
X117277271Y-67803787D01*
X117285588Y-67780571D01*
X117281182Y-67772988D01*
X117256292Y-67776765D01*
X117208527Y-67792297D01*
X117203606Y-67794073D01*
X117045169Y-67837588D01*
X116887619Y-67852910D01*
X116731385Y-67840059D01*
X116576894Y-67799058D01*
X116479500Y-67758230D01*
X116340861Y-67677630D01*
X116223139Y-67578529D01*
X116124851Y-67459443D01*
X116049117Y-67328500D01*
X115992628Y-67182387D01*
X115960953Y-67030709D01*
X115954442Y-66878033D01*
X115973450Y-66728924D01*
X115996486Y-66645331D01*
X116028113Y-66551032D01*
X115936307Y-66578416D01*
X115852387Y-66595919D01*
X115751722Y-66605364D01*
X115644632Y-66606678D01*
X115541443Y-66599785D01*
X115452477Y-66584611D01*
X115442333Y-66581983D01*
X115295426Y-66527908D01*
X115159594Y-66450134D01*
X115037986Y-66351659D01*
X114933747Y-66235480D01*
X114850026Y-66104598D01*
X114789970Y-65962009D01*
X114789242Y-65959722D01*
X114770285Y-65876442D01*
X114759090Y-65776662D01*
X114755630Y-65669133D01*
X114759875Y-65562608D01*
X114771796Y-65465838D01*
X114791136Y-65388222D01*
X114814549Y-65326142D01*
X114840169Y-65269439D01*
X114870459Y-65214878D01*
X114907879Y-65159219D01*
X114954891Y-65099227D01*
X115013954Y-65031663D01*
X115087531Y-64953291D01*
X115178082Y-64860873D01*
X115236452Y-64802444D01*
X115334457Y-64705526D01*
X115416332Y-64626615D01*
X115485331Y-64563209D01*
X115544709Y-64512805D01*
X115597721Y-64472900D01*
X115647622Y-64440990D01*
X115697666Y-64414572D01*
X115751108Y-64391143D01*
X115791703Y-64375397D01*
X115873858Y-64352784D01*
X115973683Y-64337681D01*
X116081518Y-64330564D01*
X116187700Y-64331908D01*
G36*
X138029721Y-65325783D02*
X138184222Y-65364025D01*
X138327413Y-65427948D01*
X138458413Y-65517177D01*
X138554272Y-65606986D01*
X138650419Y-65728986D01*
X138724357Y-65863691D01*
X138775313Y-66007291D01*
X138802511Y-66155973D01*
X138805179Y-66305927D01*
X138782541Y-66453340D01*
X138748055Y-66561031D01*
X138716404Y-66640229D01*
X138837452Y-66649185D01*
X138957472Y-66663144D01*
X139062243Y-66687669D01*
X139163756Y-66725951D01*
X139212500Y-66748979D01*
X139347410Y-66831441D01*
X139464543Y-66934475D01*
X139562123Y-67055407D01*
X139638373Y-67191560D01*
X139691517Y-67340260D01*
X139719777Y-67498829D01*
X139721160Y-67515041D01*
X139721769Y-67608125D01*
X139711922Y-67714127D01*
X139693132Y-67820406D01*
X139677221Y-67882361D01*
X139673752Y-67899751D01*
X139680314Y-67909255D01*
X139702706Y-67913248D01*
X139746727Y-67914106D01*
X139754727Y-67914111D01*
X139887766Y-67925287D01*
X140026496Y-67957154D01*
X140160510Y-68007221D01*
X140178318Y-68015549D01*
X140301599Y-68089694D01*
X140413644Y-68186332D01*
X140510793Y-68300769D01*
X140589386Y-68428310D01*
X140645761Y-68564261D01*
X140665954Y-68640833D01*
X140684424Y-68787150D01*
X140680607Y-68935758D01*
X140655234Y-69079257D01*
X140609784Y-69208623D01*
X140591693Y-69250584D01*
X140580668Y-69281028D01*
X140578953Y-69292323D01*
X140594322Y-69292813D01*
X140630476Y-69289510D01*
X140680337Y-69283102D01*
X140693510Y-69281185D01*
X140843173Y-69272760D01*
X140991243Y-69290739D01*
X141134478Y-69333355D01*
X141269639Y-69398837D01*
X141393485Y-69485416D01*
X141502776Y-69591323D01*
X141594272Y-69714789D01*
X141639949Y-69797944D01*
X141682971Y-69896698D01*
X141711026Y-69987756D01*
X141725995Y-70080867D01*
X141729758Y-70185779D01*
X141727690Y-70252929D01*
X141721424Y-70339969D01*
X141710250Y-70412578D01*
X141691471Y-70482844D01*
X141662389Y-70562854D01*
X141653662Y-70584639D01*
X141651212Y-70598064D01*
X141661247Y-70605561D01*
X141689214Y-70608836D01*
X141733351Y-70609578D01*
X141881058Y-70623481D01*
X142031460Y-70663710D01*
X142139266Y-70708504D01*
X142248533Y-70773439D01*
X142353307Y-70858960D01*
X142446569Y-70958195D01*
X142521297Y-71064272D01*
X142542515Y-71103222D01*
X142567178Y-71152133D01*
X142586830Y-71190314D01*
X142598262Y-71211557D01*
X142599717Y-71213831D01*
X142613554Y-71210620D01*
X142645913Y-71197678D01*
X142689996Y-71177740D01*
X142693313Y-71176169D01*
X142807012Y-71129391D01*
X142917642Y-71100512D01*
X143036314Y-71087139D01*
X143114222Y-71085550D01*
X143255371Y-71095207D01*
X143385299Y-71123445D01*
X143507053Y-71171931D01*
X143623681Y-71242333D01*
X143738230Y-71336318D01*
X143853749Y-71455552D01*
X143908751Y-71520188D01*
X143938517Y-71558501D01*
X143980461Y-71615456D01*
X144032564Y-71688088D01*
X144092807Y-71773433D01*
X144159170Y-71868527D01*
X144229634Y-71970406D01*
X144302179Y-72076104D01*
X144374787Y-72182659D01*
X144445437Y-72287106D01*
X144512111Y-72386480D01*
X144572789Y-72477817D01*
X144625451Y-72558153D01*
X144668079Y-72624523D01*
X144698653Y-72673963D01*
X144715153Y-72703510D01*
X144715764Y-72704833D01*
X144761101Y-72838112D01*
X144780478Y-72973841D01*
X144775340Y-73108829D01*
X144747132Y-73239885D01*
X144697300Y-73363820D01*
X144627288Y-73477443D01*
X144538542Y-73577564D01*
X144432507Y-73660992D01*
X144310629Y-73724538D01*
X144243111Y-73748181D01*
X144155986Y-73765240D01*
X144054417Y-73771470D01*
X143949960Y-73767020D01*
X143854174Y-73752035D01*
X143819778Y-73742783D01*
X143731971Y-73711239D01*
X143655124Y-73673538D01*
X143585058Y-73626163D01*
X143517592Y-73565598D01*
X143448548Y-73488325D01*
X143373745Y-73390828D01*
X143332401Y-73332715D01*
X143286430Y-73267217D01*
X143245949Y-73210212D01*
X143213743Y-73165565D01*
X143192593Y-73137141D01*
X143185495Y-73128674D01*
X143172651Y-73135358D01*
X143139206Y-73156241D01*
X143087816Y-73189537D01*
X143021138Y-73233461D01*
X142941830Y-73286228D01*
X142852550Y-73346053D01*
X142755955Y-73411150D01*
X142654703Y-73479734D01*
X142551451Y-73550020D01*
X142448856Y-73620223D01*
X142349577Y-73688558D01*
X142270977Y-73743008D01*
X142168565Y-73814197D01*
X142286841Y-73986237D01*
X142332651Y-74054247D01*
X142375880Y-74120899D01*
X142412337Y-74179560D01*
X142437827Y-74223599D01*
X142442287Y-74232124D01*
X142493408Y-74363072D01*
X142518332Y-74496851D01*
X142518462Y-74630410D01*
X142495202Y-74760695D01*
X142449956Y-74884654D01*
X142384129Y-74999235D01*
X142299125Y-75101387D01*
X142196347Y-75188057D01*
X142077201Y-75256192D01*
X141950619Y-75300848D01*
X141861902Y-75315881D01*
X141761305Y-75320688D01*
X141661729Y-75315281D01*
X141579015Y-75300478D01*
X141517369Y-75282341D01*
X141461411Y-75261675D01*
X141409195Y-75236498D01*
X141358772Y-75204827D01*
X141308196Y-75164682D01*
X141255518Y-75114079D01*
X141198791Y-75051037D01*
X141136067Y-74973573D01*
X141065398Y-74879706D01*
X140984838Y-74767453D01*
X140892438Y-74634833D01*
X140817174Y-74525166D01*
X140744661Y-74418868D01*
X140676629Y-74318760D01*
X140614842Y-74227466D01*
X140561065Y-74147610D01*
X140517062Y-74081816D01*
X140484598Y-74032709D01*
X140465437Y-74002911D01*
X140461358Y-73996000D01*
X140440102Y-73962376D01*
X140410300Y-73923216D01*
X140402714Y-73914250D01*
X140341955Y-73827048D01*
X140291154Y-73719718D01*
X140252618Y-73599298D01*
X140228652Y-73472823D01*
X140221445Y-73361000D01*
X140234215Y-73199427D01*
X140272771Y-73048869D01*
X140337481Y-72908441D01*
X140428715Y-72777262D01*
X140496153Y-72702815D01*
X140609908Y-72587908D01*
X140535385Y-72505259D01*
X140474122Y-72425562D01*
X140415817Y-72328616D01*
X140366210Y-72225257D01*
X140331043Y-72126321D01*
X140327418Y-72112729D01*
X140310686Y-72012706D01*
X140305451Y-71898462D01*
X140311429Y-71781426D01*
X140328339Y-71673023D01*
X140339332Y-71630459D01*
X140355963Y-71575997D01*
X140370455Y-71530471D01*
X140380232Y-71501926D01*
X140381660Y-71498333D01*
X140381989Y-71487313D01*
X140368182Y-71480392D01*
X140335426Y-71476381D01*
X140284060Y-71474229D01*
X140130252Y-71456728D01*
X139982712Y-71414229D01*
X139844845Y-71348870D01*
X139720059Y-71262790D01*
X139611762Y-71158129D01*
X139523361Y-71037025D01*
X139490002Y-70975744D01*
X139442044Y-70867259D01*
X139410956Y-70768460D01*
X139394164Y-70668576D01*
X139389096Y-70556837D01*
X139389098Y-70553452D01*
X139397964Y-70407281D01*
X139425134Y-70275806D01*
X139465199Y-70166422D01*
X139500265Y-70087130D01*
X139441049Y-70097759D01*
X139401325Y-70102180D01*
X139342765Y-70105403D01*
X139274748Y-70107011D01*
X139233667Y-70107029D01*
X139154893Y-70104810D01*
X139092957Y-70098674D01*
X139036558Y-70086895D01*
X138974398Y-70067747D01*
X138972747Y-70067184D01*
X138820943Y-70001308D01*
X138686639Y-69913809D01*
X138571150Y-69805934D01*
X138475794Y-69678927D01*
X138401885Y-69534033D01*
X138397361Y-69522777D01*
X138352393Y-69377048D01*
X138332897Y-69229857D01*
X138338781Y-69077707D01*
X138369954Y-68917096D01*
X138380544Y-68879095D01*
X138383056Y-68865664D01*
X138378011Y-68856666D01*
X138360679Y-68850827D01*
X138326330Y-68846874D01*
X138270232Y-68843536D01*
X138243510Y-68842225D01*
X138114378Y-68829684D01*
X138010888Y-68805720D01*
X138006000Y-68804092D01*
X137862323Y-68741197D01*
X137731154Y-68655622D01*
X137615633Y-68550527D01*
X137518896Y-68429068D01*
X137444080Y-68294407D01*
X137409353Y-68203389D01*
X137395805Y-68155802D01*
X137386795Y-68109502D01*
X137381526Y-68056899D01*
X137379201Y-67990400D01*
X137378957Y-67914111D01*
X137379938Y-67831585D01*
X137383045Y-67768755D01*
X137389870Y-67717101D01*
X137402009Y-67668101D01*
X137421056Y-67613234D01*
X137447871Y-67545782D01*
X137448627Y-67534293D01*
X137436561Y-67526241D01*
X137406897Y-67520193D01*
X137354858Y-67514721D01*
X137339959Y-67513454D01*
X137213240Y-67497399D01*
X137101947Y-67470021D01*
X136994460Y-67428071D01*
X136940611Y-67401703D01*
X136814487Y-67320997D01*
X136702224Y-67218128D01*
X136606933Y-67097024D01*
X136531724Y-66961618D01*
X136481134Y-66821182D01*
X136460054Y-66705550D01*
X136453851Y-66577979D01*
X136462159Y-66449044D01*
X136484612Y-66329320D01*
X136499836Y-66279556D01*
X136532137Y-66196852D01*
X136568687Y-66122607D01*
X136612257Y-66053862D01*
X136665615Y-65987659D01*
X136731531Y-65921040D01*
X136812775Y-65851047D01*
X136912116Y-65774722D01*
X137032325Y-65689105D01*
X137089324Y-65649921D01*
X137217421Y-65563733D01*
X137326707Y-65493299D01*
X137420689Y-65437098D01*
X137502873Y-65393610D01*
X137576764Y-65361314D01*
X137645871Y-65338689D01*
X137713698Y-65324214D01*
X137783753Y-65316369D01*
X137859542Y-65313633D01*
X137864791Y-65313595D01*
X138029721Y-65325783D01*
X138029721Y-65325783D01*
G37*
X138029721Y-65325783D02*
X138184222Y-65364025D01*
X138327413Y-65427948D01*
X138458413Y-65517177D01*
X138554272Y-65606986D01*
X138650419Y-65728986D01*
X138724357Y-65863691D01*
X138775313Y-66007291D01*
X138802511Y-66155973D01*
X138805179Y-66305927D01*
X138782541Y-66453340D01*
X138748055Y-66561031D01*
X138716404Y-66640229D01*
X138837452Y-66649185D01*
X138957472Y-66663144D01*
X139062243Y-66687669D01*
X139163756Y-66725951D01*
X139212500Y-66748979D01*
X139347410Y-66831441D01*
X139464543Y-66934475D01*
X139562123Y-67055407D01*
X139638373Y-67191560D01*
X139691517Y-67340260D01*
X139719777Y-67498829D01*
X139721160Y-67515041D01*
X139721769Y-67608125D01*
X139711922Y-67714127D01*
X139693132Y-67820406D01*
X139677221Y-67882361D01*
X139673752Y-67899751D01*
X139680314Y-67909255D01*
X139702706Y-67913248D01*
X139746727Y-67914106D01*
X139754727Y-67914111D01*
X139887766Y-67925287D01*
X140026496Y-67957154D01*
X140160510Y-68007221D01*
X140178318Y-68015549D01*
X140301599Y-68089694D01*
X140413644Y-68186332D01*
X140510793Y-68300769D01*
X140589386Y-68428310D01*
X140645761Y-68564261D01*
X140665954Y-68640833D01*
X140684424Y-68787150D01*
X140680607Y-68935758D01*
X140655234Y-69079257D01*
X140609784Y-69208623D01*
X140591693Y-69250584D01*
X140580668Y-69281028D01*
X140578953Y-69292323D01*
X140594322Y-69292813D01*
X140630476Y-69289510D01*
X140680337Y-69283102D01*
X140693510Y-69281185D01*
X140843173Y-69272760D01*
X140991243Y-69290739D01*
X141134478Y-69333355D01*
X141269639Y-69398837D01*
X141393485Y-69485416D01*
X141502776Y-69591323D01*
X141594272Y-69714789D01*
X141639949Y-69797944D01*
X141682971Y-69896698D01*
X141711026Y-69987756D01*
X141725995Y-70080867D01*
X141729758Y-70185779D01*
X141727690Y-70252929D01*
X141721424Y-70339969D01*
X141710250Y-70412578D01*
X141691471Y-70482844D01*
X141662389Y-70562854D01*
X141653662Y-70584639D01*
X141651212Y-70598064D01*
X141661247Y-70605561D01*
X141689214Y-70608836D01*
X141733351Y-70609578D01*
X141881058Y-70623481D01*
X142031460Y-70663710D01*
X142139266Y-70708504D01*
X142248533Y-70773439D01*
X142353307Y-70858960D01*
X142446569Y-70958195D01*
X142521297Y-71064272D01*
X142542515Y-71103222D01*
X142567178Y-71152133D01*
X142586830Y-71190314D01*
X142598262Y-71211557D01*
X142599717Y-71213831D01*
X142613554Y-71210620D01*
X142645913Y-71197678D01*
X142689996Y-71177740D01*
X142693313Y-71176169D01*
X142807012Y-71129391D01*
X142917642Y-71100512D01*
X143036314Y-71087139D01*
X143114222Y-71085550D01*
X143255371Y-71095207D01*
X143385299Y-71123445D01*
X143507053Y-71171931D01*
X143623681Y-71242333D01*
X143738230Y-71336318D01*
X143853749Y-71455552D01*
X143908751Y-71520188D01*
X143938517Y-71558501D01*
X143980461Y-71615456D01*
X144032564Y-71688088D01*
X144092807Y-71773433D01*
X144159170Y-71868527D01*
X144229634Y-71970406D01*
X144302179Y-72076104D01*
X144374787Y-72182659D01*
X144445437Y-72287106D01*
X144512111Y-72386480D01*
X144572789Y-72477817D01*
X144625451Y-72558153D01*
X144668079Y-72624523D01*
X144698653Y-72673963D01*
X144715153Y-72703510D01*
X144715764Y-72704833D01*
X144761101Y-72838112D01*
X144780478Y-72973841D01*
X144775340Y-73108829D01*
X144747132Y-73239885D01*
X144697300Y-73363820D01*
X144627288Y-73477443D01*
X144538542Y-73577564D01*
X144432507Y-73660992D01*
X144310629Y-73724538D01*
X144243111Y-73748181D01*
X144155986Y-73765240D01*
X144054417Y-73771470D01*
X143949960Y-73767020D01*
X143854174Y-73752035D01*
X143819778Y-73742783D01*
X143731971Y-73711239D01*
X143655124Y-73673538D01*
X143585058Y-73626163D01*
X143517592Y-73565598D01*
X143448548Y-73488325D01*
X143373745Y-73390828D01*
X143332401Y-73332715D01*
X143286430Y-73267217D01*
X143245949Y-73210212D01*
X143213743Y-73165565D01*
X143192593Y-73137141D01*
X143185495Y-73128674D01*
X143172651Y-73135358D01*
X143139206Y-73156241D01*
X143087816Y-73189537D01*
X143021138Y-73233461D01*
X142941830Y-73286228D01*
X142852550Y-73346053D01*
X142755955Y-73411150D01*
X142654703Y-73479734D01*
X142551451Y-73550020D01*
X142448856Y-73620223D01*
X142349577Y-73688558D01*
X142270977Y-73743008D01*
X142168565Y-73814197D01*
X142286841Y-73986237D01*
X142332651Y-74054247D01*
X142375880Y-74120899D01*
X142412337Y-74179560D01*
X142437827Y-74223599D01*
X142442287Y-74232124D01*
X142493408Y-74363072D01*
X142518332Y-74496851D01*
X142518462Y-74630410D01*
X142495202Y-74760695D01*
X142449956Y-74884654D01*
X142384129Y-74999235D01*
X142299125Y-75101387D01*
X142196347Y-75188057D01*
X142077201Y-75256192D01*
X141950619Y-75300848D01*
X141861902Y-75315881D01*
X141761305Y-75320688D01*
X141661729Y-75315281D01*
X141579015Y-75300478D01*
X141517369Y-75282341D01*
X141461411Y-75261675D01*
X141409195Y-75236498D01*
X141358772Y-75204827D01*
X141308196Y-75164682D01*
X141255518Y-75114079D01*
X141198791Y-75051037D01*
X141136067Y-74973573D01*
X141065398Y-74879706D01*
X140984838Y-74767453D01*
X140892438Y-74634833D01*
X140817174Y-74525166D01*
X140744661Y-74418868D01*
X140676629Y-74318760D01*
X140614842Y-74227466D01*
X140561065Y-74147610D01*
X140517062Y-74081816D01*
X140484598Y-74032709D01*
X140465437Y-74002911D01*
X140461358Y-73996000D01*
X140440102Y-73962376D01*
X140410300Y-73923216D01*
X140402714Y-73914250D01*
X140341955Y-73827048D01*
X140291154Y-73719718D01*
X140252618Y-73599298D01*
X140228652Y-73472823D01*
X140221445Y-73361000D01*
X140234215Y-73199427D01*
X140272771Y-73048869D01*
X140337481Y-72908441D01*
X140428715Y-72777262D01*
X140496153Y-72702815D01*
X140609908Y-72587908D01*
X140535385Y-72505259D01*
X140474122Y-72425562D01*
X140415817Y-72328616D01*
X140366210Y-72225257D01*
X140331043Y-72126321D01*
X140327418Y-72112729D01*
X140310686Y-72012706D01*
X140305451Y-71898462D01*
X140311429Y-71781426D01*
X140328339Y-71673023D01*
X140339332Y-71630459D01*
X140355963Y-71575997D01*
X140370455Y-71530471D01*
X140380232Y-71501926D01*
X140381660Y-71498333D01*
X140381989Y-71487313D01*
X140368182Y-71480392D01*
X140335426Y-71476381D01*
X140284060Y-71474229D01*
X140130252Y-71456728D01*
X139982712Y-71414229D01*
X139844845Y-71348870D01*
X139720059Y-71262790D01*
X139611762Y-71158129D01*
X139523361Y-71037025D01*
X139490002Y-70975744D01*
X139442044Y-70867259D01*
X139410956Y-70768460D01*
X139394164Y-70668576D01*
X139389096Y-70556837D01*
X139389098Y-70553452D01*
X139397964Y-70407281D01*
X139425134Y-70275806D01*
X139465199Y-70166422D01*
X139500265Y-70087130D01*
X139441049Y-70097759D01*
X139401325Y-70102180D01*
X139342765Y-70105403D01*
X139274748Y-70107011D01*
X139233667Y-70107029D01*
X139154893Y-70104810D01*
X139092957Y-70098674D01*
X139036558Y-70086895D01*
X138974398Y-70067747D01*
X138972747Y-70067184D01*
X138820943Y-70001308D01*
X138686639Y-69913809D01*
X138571150Y-69805934D01*
X138475794Y-69678927D01*
X138401885Y-69534033D01*
X138397361Y-69522777D01*
X138352393Y-69377048D01*
X138332897Y-69229857D01*
X138338781Y-69077707D01*
X138369954Y-68917096D01*
X138380544Y-68879095D01*
X138383056Y-68865664D01*
X138378011Y-68856666D01*
X138360679Y-68850827D01*
X138326330Y-68846874D01*
X138270232Y-68843536D01*
X138243510Y-68842225D01*
X138114378Y-68829684D01*
X138010888Y-68805720D01*
X138006000Y-68804092D01*
X137862323Y-68741197D01*
X137731154Y-68655622D01*
X137615633Y-68550527D01*
X137518896Y-68429068D01*
X137444080Y-68294407D01*
X137409353Y-68203389D01*
X137395805Y-68155802D01*
X137386795Y-68109502D01*
X137381526Y-68056899D01*
X137379201Y-67990400D01*
X137378957Y-67914111D01*
X137379938Y-67831585D01*
X137383045Y-67768755D01*
X137389870Y-67717101D01*
X137402009Y-67668101D01*
X137421056Y-67613234D01*
X137447871Y-67545782D01*
X137448627Y-67534293D01*
X137436561Y-67526241D01*
X137406897Y-67520193D01*
X137354858Y-67514721D01*
X137339959Y-67513454D01*
X137213240Y-67497399D01*
X137101947Y-67470021D01*
X136994460Y-67428071D01*
X136940611Y-67401703D01*
X136814487Y-67320997D01*
X136702224Y-67218128D01*
X136606933Y-67097024D01*
X136531724Y-66961618D01*
X136481134Y-66821182D01*
X136460054Y-66705550D01*
X136453851Y-66577979D01*
X136462159Y-66449044D01*
X136484612Y-66329320D01*
X136499836Y-66279556D01*
X136532137Y-66196852D01*
X136568687Y-66122607D01*
X136612257Y-66053862D01*
X136665615Y-65987659D01*
X136731531Y-65921040D01*
X136812775Y-65851047D01*
X136912116Y-65774722D01*
X137032325Y-65689105D01*
X137089324Y-65649921D01*
X137217421Y-65563733D01*
X137326707Y-65493299D01*
X137420689Y-65437098D01*
X137502873Y-65393610D01*
X137576764Y-65361314D01*
X137645871Y-65338689D01*
X137713698Y-65324214D01*
X137783753Y-65316369D01*
X137859542Y-65313633D01*
X137864791Y-65313595D01*
X138029721Y-65325783D01*
G36*
X127472224Y-51173137D02*
X127610906Y-51209025D01*
X127740620Y-51269338D01*
X127858370Y-51352811D01*
X127961158Y-51458178D01*
X128014999Y-51532304D01*
X128081734Y-51660293D01*
X128122378Y-51794879D01*
X128137324Y-51932901D01*
X128126963Y-52071200D01*
X128091686Y-52206618D01*
X128031887Y-52335994D01*
X127947956Y-52456169D01*
X127893012Y-52515854D01*
X127789116Y-52618653D01*
X128555886Y-54776797D01*
X131476302Y-54769611D01*
X131818866Y-53805687D01*
X131876060Y-53644720D01*
X131931325Y-53489122D01*
X131983803Y-53341313D01*
X132032636Y-53203715D01*
X132076963Y-53078748D01*
X132115928Y-52968832D01*
X132148672Y-52876390D01*
X132174336Y-52803840D01*
X132192062Y-52753605D01*
X132199740Y-52731712D01*
X132238050Y-52621659D01*
X132133436Y-52517357D01*
X132036958Y-52406942D01*
X131966928Y-52292822D01*
X131921571Y-52170798D01*
X131899119Y-52036673D01*
X131895889Y-51954444D01*
X131906908Y-51808517D01*
X131940957Y-51677114D01*
X131999527Y-51556661D01*
X132084105Y-51443584D01*
X132128161Y-51397015D01*
X132244148Y-51300281D01*
X132370841Y-51229220D01*
X132506224Y-51184382D01*
X132648285Y-51166321D01*
X132795008Y-51175589D01*
X132875406Y-51192136D01*
X132980362Y-51224998D01*
X133069836Y-51267933D01*
X133153178Y-51326323D01*
X133230952Y-51396814D01*
X133328660Y-51510359D01*
X133399696Y-51632464D01*
X133444744Y-51764757D01*
X133464490Y-51908866D01*
X133465582Y-51954444D01*
X133452376Y-52102230D01*
X133414087Y-52239951D01*
X133352704Y-52365507D01*
X133270219Y-52476799D01*
X133168623Y-52571726D01*
X133049908Y-52648187D01*
X132916063Y-52704083D01*
X132769081Y-52737314D01*
X132718044Y-52742947D01*
X132611725Y-52751722D01*
X132262182Y-53734811D01*
X132205332Y-53894742D01*
X132151113Y-54047350D01*
X132100287Y-54190484D01*
X132053617Y-54321996D01*
X132011864Y-54439733D01*
X131975792Y-54541546D01*
X131946162Y-54625283D01*
X131923737Y-54688795D01*
X131909278Y-54729931D01*
X131903603Y-54746370D01*
X131902362Y-54751356D01*
X131903168Y-54755733D01*
X131907762Y-54759548D01*
X131917886Y-54762851D01*
X131935279Y-54765692D01*
X131961684Y-54768119D01*
X131998840Y-54770181D01*
X132048489Y-54771928D01*
X132112371Y-54773408D01*
X132192228Y-54774671D01*
X132289800Y-54775767D01*
X132406829Y-54776743D01*
X132545054Y-54777649D01*
X132706217Y-54778535D01*
X132892059Y-54779449D01*
X133104321Y-54780441D01*
X133112311Y-54780478D01*
X133333092Y-54781496D01*
X133527621Y-54782460D01*
X133697870Y-54783491D01*
X133845811Y-54784712D01*
X133973414Y-54786246D01*
X134082649Y-54788214D01*
X134175488Y-54790738D01*
X134253902Y-54793943D01*
X134319862Y-54797948D01*
X134375338Y-54802878D01*
X134422301Y-54808854D01*
X134462723Y-54815999D01*
X134498574Y-54824434D01*
X134531825Y-54834283D01*
X134564447Y-54845667D01*
X134598411Y-54858709D01*
X134635688Y-54873531D01*
X134640146Y-54875303D01*
X134809005Y-54957338D01*
X134964499Y-55063067D01*
X135103933Y-55190062D01*
X135224614Y-55335890D01*
X135318132Y-55487180D01*
X135373273Y-55591511D01*
X135627775Y-55598838D01*
X135727712Y-55602287D01*
X135806226Y-55606645D01*
X135870117Y-55612679D01*
X135926184Y-55621158D01*
X135981227Y-55632848D01*
X136023389Y-55643513D01*
X136219441Y-55709584D01*
X136402847Y-55799677D01*
X136571761Y-55911816D01*
X136724338Y-56044020D01*
X136858733Y-56194313D01*
X136973099Y-56360717D01*
X137065593Y-56541252D01*
X137134369Y-56733941D01*
X137166220Y-56868644D01*
X137170669Y-56896261D01*
X137174480Y-56930130D01*
X137177698Y-56972433D01*
X137180368Y-57025350D01*
X137182537Y-57091063D01*
X137184249Y-57171752D01*
X137185550Y-57269599D01*
X137186485Y-57386783D01*
X137187101Y-57525487D01*
X137187443Y-57687891D01*
X137187555Y-57876176D01*
X137187556Y-57891036D01*
X137187513Y-58075144D01*
X137187343Y-58233383D01*
X137186982Y-58368108D01*
X137186368Y-58481671D01*
X137185439Y-58576428D01*
X137184130Y-58654731D01*
X137182380Y-58718934D01*
X137180125Y-58771391D01*
X137177304Y-58814456D01*
X137173852Y-58850482D01*
X137169707Y-58881823D01*
X137164806Y-58910834D01*
X137159629Y-58937227D01*
X137108835Y-59129326D01*
X137037586Y-59305306D01*
X136943663Y-59469376D01*
X136824848Y-59625747D01*
X136757712Y-59699949D01*
X136602209Y-59843972D01*
X136434125Y-59962781D01*
X136254018Y-60056137D01*
X136062448Y-60123803D01*
X135859973Y-60165540D01*
X135647152Y-60181112D01*
X135627246Y-60181222D01*
X135467634Y-60181222D01*
X135462806Y-60904416D01*
X135457978Y-61627611D01*
X135419561Y-61751624D01*
X135350106Y-61933368D01*
X135259661Y-62099790D01*
X135149948Y-62248069D01*
X135055831Y-62345889D01*
X134978594Y-62413535D01*
X134905081Y-62468294D01*
X134825485Y-62516669D01*
X134730001Y-62565166D01*
X134713570Y-62572914D01*
X134667748Y-62594448D01*
X134627361Y-62613024D01*
X134590017Y-62628871D01*
X134553324Y-62642219D01*
X134514891Y-62653295D01*
X134472327Y-62662329D01*
X134423241Y-62669549D01*
X134365240Y-62675184D01*
X134295933Y-62679461D01*
X134212929Y-62682611D01*
X134113837Y-62684861D01*
X133996264Y-62686441D01*
X133857820Y-62687579D01*
X133696112Y-62688503D01*
X133508750Y-62689442D01*
X133493972Y-62689517D01*
X133336876Y-62690387D01*
X133188408Y-62691335D01*
X133050925Y-62692337D01*
X132926785Y-62693370D01*
X132818344Y-62694410D01*
X132727958Y-62695436D01*
X132657986Y-62696422D01*
X132610783Y-62697347D01*
X132588707Y-62698188D01*
X132587333Y-62698430D01*
X132591555Y-62712920D01*
X132602555Y-62746434D01*
X132616004Y-62786026D01*
X132660751Y-62945594D01*
X132691850Y-63119858D01*
X132708190Y-63298593D01*
X132708656Y-63471570D01*
X132701019Y-63566928D01*
X132690527Y-63640898D01*
X132675641Y-63724585D01*
X132658055Y-63810173D01*
X132639460Y-63889844D01*
X132621549Y-63955780D01*
X132608542Y-63994157D01*
X132608141Y-63998402D01*
X132611713Y-64002136D01*
X132620988Y-64005400D01*
X132637696Y-64008235D01*
X132663568Y-64010685D01*
X132700333Y-64012790D01*
X132749723Y-64014592D01*
X132813467Y-64016133D01*
X132893296Y-64017454D01*
X132990940Y-64018598D01*
X133108130Y-64019605D01*
X133246596Y-64020519D01*
X133408068Y-64021380D01*
X133594277Y-64022229D01*
X133806953Y-64023110D01*
X133810190Y-64023123D01*
X134027751Y-64023978D01*
X134219072Y-64024766D01*
X134386134Y-64025607D01*
X134530918Y-64026623D01*
X134655407Y-64027935D01*
X134761580Y-64029663D01*
X134851421Y-64031928D01*
X134926910Y-64034852D01*
X134990028Y-64038555D01*
X135042757Y-64043157D01*
X135087079Y-64048781D01*
X135124974Y-64055546D01*
X135158424Y-64063574D01*
X135189411Y-64072985D01*
X135219915Y-64083901D01*
X135251919Y-64096442D01*
X135287404Y-64110730D01*
X135294846Y-64113709D01*
X135411853Y-64166760D01*
X135517015Y-64229209D01*
X135618171Y-64306383D01*
X135723157Y-64403610D01*
X135727056Y-64407500D01*
X135849521Y-64544722D01*
X135946548Y-64687446D01*
X136020916Y-64840587D01*
X136075401Y-65009061D01*
X136081908Y-65035444D01*
X136084190Y-65046012D01*
X136086332Y-65058518D01*
X136088340Y-65073855D01*
X136090219Y-65092918D01*
X136091975Y-65116601D01*
X136093613Y-65145798D01*
X136095139Y-65181404D01*
X136096557Y-65224313D01*
X136097873Y-65275418D01*
X136099092Y-65335615D01*
X136100221Y-65405797D01*
X136101263Y-65486860D01*
X136102225Y-65579696D01*
X136103111Y-65685200D01*
X136103928Y-65804267D01*
X136104680Y-65937790D01*
X136105373Y-66086665D01*
X136106012Y-66251785D01*
X136106602Y-66434044D01*
X136107149Y-66634337D01*
X136107659Y-66853557D01*
X136108136Y-67092600D01*
X136108586Y-67352360D01*
X136109014Y-67633730D01*
X136109425Y-67937605D01*
X136109825Y-68264879D01*
X136110220Y-68616446D01*
X136110614Y-68993202D01*
X136111013Y-69396039D01*
X136111422Y-69825852D01*
X136111587Y-70002555D01*
X136112000Y-70491511D01*
X136112307Y-70957058D01*
X136112508Y-71398926D01*
X136112605Y-71816846D01*
X136112598Y-72210548D01*
X136112487Y-72579763D01*
X136112273Y-72924219D01*
X136111956Y-73243649D01*
X136111537Y-73537781D01*
X136111017Y-73806346D01*
X136110395Y-74049074D01*
X136109673Y-74265696D01*
X136108850Y-74455942D01*
X136107929Y-74619541D01*
X136106908Y-74756224D01*
X136105788Y-74865722D01*
X136104571Y-74947765D01*
X136103256Y-75002082D01*
X136102074Y-75026111D01*
X136088955Y-75145313D01*
X136070739Y-75246566D01*
X136045002Y-75340014D01*
X136009321Y-75435805D01*
X135997565Y-75463626D01*
X135913403Y-75623971D01*
X135806321Y-75771100D01*
X135679419Y-75902526D01*
X135535798Y-76015761D01*
X135378558Y-76108317D01*
X135210799Y-76177706D01*
X135058151Y-76217400D01*
X135045801Y-76219379D01*
X135029696Y-76221238D01*
X135008975Y-76222981D01*
X134982778Y-76224610D01*
X134950246Y-76226129D01*
X134910518Y-76227541D01*
X134862736Y-76228851D01*
X134806038Y-76230062D01*
X134739565Y-76231176D01*
X134662458Y-76232198D01*
X134573855Y-76233132D01*
X134472898Y-76233979D01*
X134358727Y-76234745D01*
X134230481Y-76235433D01*
X134087301Y-76236045D01*
X133928326Y-76236587D01*
X133752698Y-76237060D01*
X133559555Y-76237469D01*
X133348039Y-76237817D01*
X133117288Y-76238107D01*
X132866444Y-76238344D01*
X132594647Y-76238530D01*
X132301036Y-76238669D01*
X131984752Y-76238764D01*
X131644935Y-76238820D01*
X131280725Y-76238839D01*
X130891261Y-76238825D01*
X130475685Y-76238782D01*
X130033136Y-76238712D01*
X129823525Y-76238673D01*
X129371140Y-76238581D01*
X128946103Y-76238482D01*
X128547542Y-76238373D01*
X128174581Y-76238248D01*
X127826349Y-76238103D01*
X127501971Y-76237934D01*
X127200573Y-76237737D01*
X126921282Y-76237507D01*
X126663224Y-76237240D01*
X126425526Y-76236931D01*
X126207313Y-76236576D01*
X126007713Y-76236171D01*
X125825852Y-76235711D01*
X125660856Y-76235191D01*
X125511851Y-76234608D01*
X125377964Y-76233957D01*
X125258321Y-76233234D01*
X125152049Y-76232434D01*
X125058274Y-76231553D01*
X124976122Y-76230586D01*
X124904720Y-76229529D01*
X124843193Y-76228378D01*
X124790670Y-76227128D01*
X124746275Y-76225775D01*
X124709135Y-76224315D01*
X124678377Y-76222742D01*
X124653126Y-76221054D01*
X124632510Y-76219245D01*
X124615655Y-76217310D01*
X124601687Y-76215246D01*
X124589732Y-76213049D01*
X124586333Y-76212347D01*
X124407779Y-76160538D01*
X124240050Y-76083823D01*
X124085339Y-75984164D01*
X123945838Y-75863526D01*
X123823739Y-75723870D01*
X123721234Y-75567161D01*
X123640516Y-75395361D01*
X123624152Y-75350730D01*
X123618117Y-75333709D01*
X123612451Y-75317932D01*
X123607143Y-75302505D01*
X123602179Y-75286535D01*
X123597550Y-75269126D01*
X123593243Y-75249387D01*
X123589247Y-75226422D01*
X123585550Y-75199339D01*
X123582140Y-75167243D01*
X123579006Y-75129240D01*
X123576137Y-75084437D01*
X123573520Y-75031941D01*
X123571143Y-74970856D01*
X123568997Y-74900290D01*
X123567067Y-74819348D01*
X123565344Y-74727138D01*
X123563816Y-74622764D01*
X123562470Y-74505334D01*
X123561295Y-74373953D01*
X123560280Y-74227729D01*
X123559412Y-74065766D01*
X123558681Y-73887171D01*
X123558075Y-73691051D01*
X123557582Y-73476511D01*
X123557190Y-73242658D01*
X123556887Y-72988599D01*
X123556663Y-72713438D01*
X123556506Y-72416283D01*
X123556403Y-72096240D01*
X123556343Y-71752415D01*
X123556316Y-71383914D01*
X123556308Y-70989844D01*
X123556308Y-70569310D01*
X123556307Y-70319126D01*
X125671154Y-70319126D01*
X125671824Y-70430624D01*
X125673168Y-70537372D01*
X125675180Y-70635709D01*
X125677857Y-70721972D01*
X125681196Y-70792497D01*
X125685190Y-70843624D01*
X125689837Y-70871688D01*
X125691875Y-70875635D01*
X125710874Y-70882756D01*
X125753335Y-70893807D01*
X125814926Y-70907821D01*
X125891314Y-70923828D01*
X125978167Y-70940860D01*
X126012903Y-70947379D01*
X126177693Y-70977967D01*
X126316929Y-71003920D01*
X126432816Y-71025678D01*
X126527564Y-71043681D01*
X126603379Y-71058368D01*
X126662469Y-71070179D01*
X126707041Y-71079552D01*
X126739303Y-71086927D01*
X126761462Y-71092744D01*
X126775726Y-71097442D01*
X126782837Y-71100637D01*
X126794660Y-71117023D01*
X126814784Y-71155995D01*
X126841686Y-71213780D01*
X126873844Y-71286606D01*
X126909736Y-71370700D01*
X126947841Y-71462290D01*
X126986636Y-71557603D01*
X127024600Y-71652866D01*
X127060210Y-71744306D01*
X127091944Y-71828152D01*
X127118281Y-71900630D01*
X127137698Y-71957967D01*
X127148674Y-71996391D01*
X127150238Y-72011343D01*
X127140557Y-72027605D01*
X127116653Y-72064369D01*
X127080353Y-72118920D01*
X127033483Y-72188547D01*
X126977870Y-72270537D01*
X126915341Y-72362176D01*
X126847723Y-72460752D01*
X126842870Y-72467807D01*
X126774962Y-72566925D01*
X126712085Y-72659483D01*
X126656062Y-72742740D01*
X126608715Y-72813952D01*
X126571865Y-72870380D01*
X126547335Y-72909280D01*
X126536947Y-72927911D01*
X126536803Y-72928360D01*
X126544665Y-72944855D01*
X126570494Y-72978128D01*
X126611717Y-73025601D01*
X126665757Y-73084700D01*
X126730039Y-73152850D01*
X126801989Y-73227477D01*
X126879030Y-73306003D01*
X126958589Y-73385855D01*
X127038090Y-73464458D01*
X127114958Y-73539236D01*
X127186617Y-73607614D01*
X127250493Y-73667017D01*
X127304010Y-73714869D01*
X127344594Y-73748597D01*
X127369668Y-73765624D01*
X127375529Y-73767086D01*
X127392849Y-73757656D01*
X127430543Y-73733997D01*
X127485801Y-73697973D01*
X127555814Y-73651451D01*
X127637772Y-73596296D01*
X127728865Y-73534374D01*
X127817778Y-73473408D01*
X127915335Y-73406556D01*
X128006826Y-73344449D01*
X128089348Y-73289014D01*
X128159999Y-73242178D01*
X128215874Y-73205867D01*
X128254071Y-73182006D01*
X128270886Y-73172787D01*
X128287526Y-73168930D01*
X128307941Y-73170765D01*
X128336296Y-73179943D01*
X128376752Y-73198117D01*
X128433474Y-73226938D01*
X128509605Y-73267510D01*
X128579013Y-73303996D01*
X128640753Y-73334757D01*
X128690165Y-73357601D01*
X128722586Y-73370337D01*
X128732318Y-73372164D01*
X128757324Y-73357237D01*
X128765511Y-73346889D01*
X128775727Y-73325563D01*
X128795135Y-73281328D01*
X128822700Y-73216721D01*
X128857387Y-73134279D01*
X128898160Y-73036539D01*
X128943985Y-72926038D01*
X128993824Y-72805315D01*
X129046643Y-72676905D01*
X129101407Y-72543347D01*
X129157080Y-72407177D01*
X129212627Y-72270932D01*
X129267012Y-72137151D01*
X129319199Y-72008371D01*
X129368154Y-71887127D01*
X129412840Y-71775959D01*
X129452223Y-71677403D01*
X129485266Y-71593996D01*
X129510936Y-71528275D01*
X129528195Y-71482779D01*
X129536008Y-71460043D01*
X129536353Y-71458024D01*
X129523547Y-71441612D01*
X129492258Y-71414197D01*
X129447700Y-71380101D01*
X129412333Y-71355204D01*
X129246614Y-71228255D01*
X129106769Y-71090822D01*
X128992952Y-70943125D01*
X128905319Y-70785384D01*
X128844025Y-70617818D01*
X128820850Y-70517552D01*
X128810834Y-70435999D01*
X128806413Y-70337717D01*
X128807454Y-70233596D01*
X128813825Y-70134528D01*
X128825392Y-70051402D01*
X128826620Y-70045376D01*
X128877350Y-69871200D01*
X128953006Y-69707431D01*
X129051418Y-69556779D01*
X129170414Y-69421951D01*
X129307825Y-69305654D01*
X129461481Y-69210597D01*
X129517566Y-69183358D01*
X129684692Y-69122764D01*
X129859561Y-69087789D01*
X130038197Y-69078380D01*
X130216623Y-69094483D01*
X130390863Y-69136043D01*
X130545320Y-69197328D01*
X130704132Y-69288921D01*
X130844616Y-69400766D01*
X130965441Y-69530584D01*
X131065278Y-69676098D01*
X131142797Y-69835029D01*
X131196665Y-70005100D01*
X131225554Y-70184033D01*
X131228293Y-70366748D01*
X131213417Y-70508165D01*
X131183818Y-70636896D01*
X131136352Y-70764820D01*
X131105321Y-70831412D01*
X131034471Y-70956205D01*
X130948650Y-71071298D01*
X130844464Y-71180321D01*
X130718518Y-71286905D01*
X130597667Y-71374318D01*
X130553534Y-71406881D01*
X130519714Y-71436502D01*
X130502359Y-71457679D01*
X130501396Y-71460461D01*
X130505904Y-71477171D01*
X130520322Y-71517349D01*
X130543603Y-71578453D01*
X130574699Y-71657942D01*
X130612566Y-71753274D01*
X130656155Y-71861908D01*
X130704420Y-71981302D01*
X130756314Y-72108916D01*
X130810791Y-72242207D01*
X130866804Y-72378635D01*
X130923306Y-72515658D01*
X130979250Y-72650734D01*
X131033590Y-72781323D01*
X131085279Y-72904883D01*
X131133271Y-73018873D01*
X131176518Y-73120750D01*
X131213974Y-73207975D01*
X131244593Y-73278005D01*
X131267327Y-73328299D01*
X131281129Y-73356317D01*
X131284167Y-73361000D01*
X131294104Y-73367465D01*
X131309139Y-73368083D01*
X131332990Y-73361421D01*
X131369371Y-73346048D01*
X131421997Y-73320531D01*
X131494584Y-73283437D01*
X131521339Y-73269561D01*
X131738024Y-73156957D01*
X131785206Y-73181064D01*
X131807714Y-73194612D01*
X131850372Y-73222229D01*
X131910152Y-73261882D01*
X131984028Y-73311538D01*
X132068971Y-73369164D01*
X132161953Y-73432726D01*
X132241611Y-73487531D01*
X132337391Y-73553242D01*
X132426340Y-73613545D01*
X132505679Y-73666611D01*
X132572630Y-73710611D01*
X132624411Y-73743716D01*
X132658246Y-73764098D01*
X132670925Y-73770057D01*
X132685335Y-73760429D01*
X132716820Y-73733199D01*
X132762752Y-73690972D01*
X132820505Y-73636356D01*
X132887450Y-73571954D01*
X132960961Y-73500373D01*
X133038411Y-73424219D01*
X133117173Y-73346096D01*
X133194619Y-73268610D01*
X133268122Y-73194368D01*
X133335054Y-73125974D01*
X133392790Y-73066034D01*
X133438701Y-73017154D01*
X133470161Y-72981939D01*
X133484400Y-72963271D01*
X133489297Y-72954307D01*
X133492764Y-72945861D01*
X133493580Y-72935933D01*
X133490518Y-72922524D01*
X133482357Y-72903634D01*
X133467873Y-72877264D01*
X133445840Y-72841413D01*
X133415038Y-72794082D01*
X133374240Y-72733272D01*
X133322224Y-72656982D01*
X133257767Y-72563214D01*
X133179644Y-72449967D01*
X133097433Y-72330889D01*
X133042923Y-72251257D01*
X132993302Y-72177505D01*
X132951031Y-72113394D01*
X132918575Y-72062689D01*
X132898395Y-72029150D01*
X132893273Y-72019010D01*
X132890519Y-72005823D01*
X132891623Y-71987006D01*
X132897522Y-71959792D01*
X132909153Y-71921415D01*
X132927451Y-71869110D01*
X132953354Y-71800112D01*
X132987796Y-71711654D01*
X133031715Y-71600972D01*
X133051856Y-71550581D01*
X133093948Y-71446288D01*
X133133403Y-71350179D01*
X133168854Y-71265460D01*
X133198933Y-71195338D01*
X133222272Y-71143016D01*
X133237503Y-71111702D01*
X133242353Y-71104174D01*
X133259784Y-71098388D01*
X133301853Y-71088214D01*
X133365429Y-71074300D01*
X133447382Y-71057292D01*
X133544579Y-71037839D01*
X133653890Y-71016588D01*
X133772184Y-70994186D01*
X133794122Y-70990093D01*
X133913742Y-70967530D01*
X134024978Y-70945968D01*
X134124691Y-70926060D01*
X134209745Y-70908458D01*
X134277000Y-70893812D01*
X134323320Y-70882775D01*
X134345565Y-70876000D01*
X134346762Y-70875290D01*
X134351595Y-70857524D01*
X134355777Y-70815226D01*
X134359307Y-70752059D01*
X134362182Y-70671686D01*
X134364398Y-70577769D01*
X134365953Y-70473970D01*
X134366843Y-70363952D01*
X134367067Y-70251377D01*
X134366620Y-70139909D01*
X134365500Y-70033209D01*
X134363704Y-69934941D01*
X134361230Y-69848766D01*
X134358074Y-69778347D01*
X134354234Y-69727346D01*
X134349706Y-69699427D01*
X134347695Y-69695537D01*
X134330297Y-69689898D01*
X134288241Y-69679869D01*
X134224637Y-69666086D01*
X134142595Y-69649189D01*
X134045228Y-69629815D01*
X133935647Y-69608602D01*
X133816962Y-69586189D01*
X133789765Y-69581128D01*
X133669137Y-69558523D01*
X133556617Y-69537020D01*
X133455368Y-69517255D01*
X133368557Y-69499863D01*
X133299348Y-69485481D01*
X133250907Y-69474745D01*
X133226398Y-69468291D01*
X133224582Y-69467536D01*
X133213495Y-69451907D01*
X133193371Y-69414013D01*
X133165890Y-69357698D01*
X133132732Y-69286806D01*
X133095576Y-69205180D01*
X133056101Y-69116664D01*
X133015988Y-69025103D01*
X132976916Y-68934339D01*
X132940564Y-68848217D01*
X132908612Y-68770581D01*
X132882740Y-68705273D01*
X132864628Y-68656138D01*
X132855955Y-68627020D01*
X132855445Y-68622778D01*
X132863205Y-68605351D01*
X132885305Y-68567501D01*
X132919968Y-68511977D01*
X132965422Y-68441528D01*
X133019891Y-68358900D01*
X133081601Y-68266842D01*
X133148777Y-68168102D01*
X133153136Y-68161743D01*
X133221841Y-68061382D01*
X133286507Y-67966578D01*
X133345144Y-67880274D01*
X133395761Y-67805413D01*
X133436368Y-67744938D01*
X133464975Y-67701793D01*
X133479593Y-67678922D01*
X133479667Y-67678796D01*
X133508507Y-67629916D01*
X133101162Y-67221680D01*
X132981780Y-67102775D01*
X132881202Y-67004188D01*
X132799503Y-66925987D01*
X132736756Y-66868244D01*
X132693035Y-66831026D01*
X132668417Y-66814404D01*
X132664723Y-66813444D01*
X132647069Y-66821227D01*
X132608888Y-66843439D01*
X132552813Y-66878379D01*
X132481474Y-66924343D01*
X132397501Y-66979629D01*
X132303525Y-67042533D01*
X132202177Y-67111354D01*
X132163454Y-67137896D01*
X132060299Y-67208404D01*
X131963806Y-67273641D01*
X131876566Y-67331909D01*
X131801169Y-67381509D01*
X131740206Y-67420742D01*
X131696267Y-67447912D01*
X131671942Y-67461319D01*
X131668400Y-67462451D01*
X131649978Y-67457305D01*
X131608907Y-67442694D01*
X131548614Y-67419941D01*
X131472531Y-67390367D01*
X131384087Y-67355294D01*
X131286710Y-67316046D01*
X131252122Y-67301962D01*
X131133950Y-67253353D01*
X131039695Y-67213662D01*
X130966910Y-67181735D01*
X130913147Y-67156416D01*
X130875962Y-67136551D01*
X130852906Y-67120983D01*
X130841534Y-67108559D01*
X130841194Y-67107935D01*
X130834843Y-67086981D01*
X130824185Y-67041442D01*
X130809869Y-66974517D01*
X130792541Y-66889406D01*
X130772851Y-66789306D01*
X130751446Y-66677419D01*
X130728975Y-66556941D01*
X130722957Y-66524166D01*
X130700470Y-66402731D01*
X130679031Y-66289698D01*
X130659262Y-66188152D01*
X130641787Y-66101175D01*
X130627226Y-66031847D01*
X130616204Y-65983253D01*
X130609343Y-65958474D01*
X130608230Y-65956194D01*
X130590715Y-65951472D01*
X130548648Y-65947414D01*
X130485687Y-65944019D01*
X130405495Y-65941286D01*
X130311732Y-65939214D01*
X130208058Y-65937801D01*
X130098135Y-65937046D01*
X129985623Y-65936948D01*
X129874184Y-65937507D01*
X129767478Y-65938720D01*
X129669165Y-65940586D01*
X129582908Y-65943105D01*
X129512366Y-65946276D01*
X129461200Y-65950096D01*
X129433072Y-65954565D01*
X129429057Y-65956574D01*
X129423254Y-65974051D01*
X129413089Y-66016198D01*
X129399201Y-66079906D01*
X129382227Y-66162070D01*
X129362807Y-66259583D01*
X129341580Y-66369337D01*
X129319184Y-66488225D01*
X129313758Y-66517490D01*
X129291108Y-66639011D01*
X129269512Y-66752937D01*
X129249612Y-66856022D01*
X129232052Y-66945017D01*
X129217473Y-67016672D01*
X129206520Y-67067741D01*
X129199833Y-67094974D01*
X129199030Y-67097364D01*
X129175465Y-67130946D01*
X129146796Y-67151836D01*
X129105605Y-67170077D01*
X129046735Y-67195060D01*
X128974200Y-67225179D01*
X128892018Y-67258829D01*
X128804204Y-67294404D01*
X128714774Y-67330299D01*
X128627743Y-67364909D01*
X128547127Y-67396629D01*
X128476943Y-67423854D01*
X128421205Y-67444977D01*
X128383930Y-67458395D01*
X128369487Y-67462555D01*
X128353162Y-67454789D01*
X128316248Y-67432620D01*
X128261336Y-67397748D01*
X128191019Y-67351868D01*
X128107886Y-67296678D01*
X128014530Y-67233875D01*
X127913543Y-67165156D01*
X127873942Y-67138007D01*
X127770536Y-67067438D01*
X127673566Y-67002153D01*
X127585655Y-66943854D01*
X127509430Y-66894244D01*
X127447516Y-66855022D01*
X127402536Y-66827890D01*
X127377118Y-66814551D01*
X127373187Y-66813451D01*
X127356239Y-66823121D01*
X127322699Y-66850428D01*
X127275123Y-66892811D01*
X127216064Y-66947712D01*
X127148077Y-67012568D01*
X127073718Y-67084821D01*
X126995540Y-67161911D01*
X126916098Y-67241276D01*
X126837946Y-67320358D01*
X126763640Y-67396595D01*
X126695734Y-67467428D01*
X126636782Y-67530296D01*
X126589339Y-67582640D01*
X126555960Y-67621900D01*
X126539199Y-67645514D01*
X126537834Y-67650617D01*
X126547436Y-67666689D01*
X126571296Y-67703347D01*
X126607636Y-67757951D01*
X126654680Y-67827863D01*
X126710649Y-67910443D01*
X126773766Y-68003053D01*
X126842254Y-68103054D01*
X126859567Y-68128260D01*
X126929073Y-68229773D01*
X126993558Y-68324679D01*
X127051252Y-68410318D01*
X127100385Y-68484032D01*
X127139189Y-68543162D01*
X127165893Y-68585048D01*
X127178729Y-68607033D01*
X127179551Y-68609061D01*
X127175796Y-68628126D01*
X127162012Y-68669021D01*
X127139846Y-68727883D01*
X127110947Y-68800849D01*
X127076964Y-68884058D01*
X127039546Y-68973646D01*
X127000341Y-69065750D01*
X126960998Y-69156509D01*
X126923165Y-69242059D01*
X126888491Y-69318538D01*
X126858624Y-69382083D01*
X126835214Y-69428831D01*
X126819909Y-69454920D01*
X126817158Y-69458129D01*
X126795339Y-69467429D01*
X126745935Y-69480943D01*
X126669258Y-69498604D01*
X126565620Y-69520343D01*
X126435332Y-69546093D01*
X126278705Y-69575788D01*
X126250317Y-69581068D01*
X126129828Y-69603692D01*
X126017750Y-69625249D01*
X125917189Y-69645104D01*
X125831251Y-69662621D01*
X125763040Y-69677164D01*
X125715662Y-69688098D01*
X125692222Y-69694787D01*
X125690528Y-69695670D01*
X125685662Y-69713312D01*
X125681503Y-69755505D01*
X125678046Y-69818586D01*
X125675288Y-69898892D01*
X125673224Y-69992762D01*
X125671849Y-70096533D01*
X125671161Y-70206542D01*
X125671154Y-70319126D01*
X123556307Y-70319126D01*
X123556305Y-70136241D01*
X123556339Y-69621729D01*
X123556458Y-69135406D01*
X123556661Y-68677240D01*
X123556950Y-68247196D01*
X123557325Y-67845242D01*
X123557785Y-67471344D01*
X123558330Y-67125470D01*
X123558961Y-66807587D01*
X123559678Y-66517661D01*
X123560481Y-66255659D01*
X123561369Y-66021548D01*
X123562344Y-65815295D01*
X123563405Y-65636868D01*
X123564552Y-65486232D01*
X123565786Y-65363355D01*
X123567106Y-65268204D01*
X123568512Y-65200745D01*
X123570005Y-65160946D01*
X123570760Y-65151595D01*
X123607552Y-64967840D01*
X123669443Y-64794128D01*
X123754462Y-64632532D01*
X123860635Y-64485123D01*
X123985988Y-64353974D01*
X124128551Y-64241156D01*
X124286348Y-64148740D01*
X124457408Y-64078799D01*
X124634786Y-64034275D01*
X124665687Y-64031434D01*
X124724422Y-64028884D01*
X124810605Y-64026630D01*
X124923848Y-64024675D01*
X125063767Y-64023024D01*
X125229973Y-64021679D01*
X125422081Y-64020647D01*
X125639704Y-64019929D01*
X125882455Y-64019531D01*
X126075530Y-64019444D01*
X127432543Y-64019444D01*
X127398932Y-63903401D01*
X127349389Y-63683998D01*
X127326082Y-63457329D01*
X127324002Y-63363277D01*
X127326694Y-63245099D01*
X127335634Y-63135681D01*
X127352118Y-63027306D01*
X127377442Y-62912255D01*
X127412903Y-62782813D01*
X127432253Y-62718651D01*
X127432220Y-62713792D01*
X127427553Y-62709611D01*
X127416230Y-62706040D01*
X127396226Y-62703012D01*
X127365518Y-62700457D01*
X127322082Y-62698310D01*
X127263895Y-62696501D01*
X127188932Y-62694963D01*
X127095172Y-62693628D01*
X126980589Y-62692428D01*
X126843160Y-62691295D01*
X126680863Y-62690162D01*
X126559757Y-62689384D01*
X126379920Y-62688225D01*
X126225952Y-62687123D01*
X126095498Y-62685992D01*
X125986205Y-62684747D01*
X125895719Y-62683300D01*
X125821686Y-62681566D01*
X125761753Y-62679460D01*
X125713565Y-62676894D01*
X125674770Y-62673783D01*
X125643014Y-62670040D01*
X125615942Y-62665581D01*
X125591202Y-62660317D01*
X125566438Y-62654165D01*
X125561503Y-62652879D01*
X125375887Y-62590419D01*
X125204920Y-62504745D01*
X125050235Y-62397467D01*
X124913461Y-62270193D01*
X124796229Y-62124534D01*
X124700170Y-61962099D01*
X124626915Y-61784497D01*
X124603882Y-61707787D01*
X124567101Y-61571166D01*
X124559523Y-60639200D01*
X127633855Y-60639200D01*
X127648056Y-60766800D01*
X127655145Y-60795692D01*
X127700948Y-60912592D01*
X127771568Y-61022337D01*
X127863997Y-61122485D01*
X127975225Y-61210592D01*
X128102244Y-61284213D01*
X128242046Y-61340906D01*
X128366632Y-61373553D01*
X128397863Y-61376903D01*
X128455026Y-61379979D01*
X128535833Y-61382779D01*
X128637993Y-61385303D01*
X128759220Y-61387550D01*
X128897223Y-61389520D01*
X129049714Y-61391211D01*
X129214405Y-61392623D01*
X129389006Y-61393756D01*
X129571228Y-61394608D01*
X129758784Y-61395180D01*
X129949383Y-61395469D01*
X130140737Y-61395477D01*
X130330558Y-61395201D01*
X130516557Y-61394642D01*
X130696444Y-61393799D01*
X130867931Y-61392670D01*
X131028729Y-61391255D01*
X131176550Y-61389555D01*
X131309104Y-61387567D01*
X131424103Y-61385291D01*
X131519257Y-61382727D01*
X131592279Y-61379874D01*
X131640879Y-61376730D01*
X131658287Y-61374532D01*
X131823992Y-61330650D01*
X131973127Y-61267624D01*
X132103897Y-61186686D01*
X132214505Y-61089065D01*
X132303154Y-60975991D01*
X132342833Y-60905781D01*
X132369961Y-60847351D01*
X132386594Y-60799072D01*
X132395849Y-60748621D01*
X132400845Y-60683678D01*
X132401282Y-60674848D01*
X132402718Y-60598833D01*
X132397706Y-60537457D01*
X132384840Y-60477592D01*
X132377456Y-60452037D01*
X132327965Y-60336144D01*
X132253505Y-60227723D01*
X132156943Y-60129588D01*
X132041145Y-60044555D01*
X131908977Y-59975439D01*
X131879813Y-59963369D01*
X131847556Y-59950440D01*
X131818631Y-59938914D01*
X131791313Y-59928705D01*
X131763877Y-59919729D01*
X131734601Y-59911899D01*
X131701760Y-59905130D01*
X131663628Y-59899335D01*
X131618483Y-59894430D01*
X131564601Y-59890328D01*
X131500255Y-59886944D01*
X131423724Y-59884192D01*
X131333282Y-59881987D01*
X131227205Y-59880242D01*
X131103770Y-59878873D01*
X130961251Y-59877792D01*
X130797924Y-59876916D01*
X130612066Y-59876157D01*
X130401953Y-59875431D01*
X130165859Y-59874651D01*
X130089667Y-59874393D01*
X129837685Y-59873557D01*
X129612231Y-59872903D01*
X129411608Y-59872490D01*
X129234122Y-59872379D01*
X129078079Y-59872629D01*
X128941782Y-59873301D01*
X128823536Y-59874453D01*
X128721648Y-59876146D01*
X128634421Y-59878440D01*
X128560161Y-59881394D01*
X128497173Y-59885068D01*
X128443761Y-59889521D01*
X128398231Y-59894815D01*
X128358888Y-59901008D01*
X128324036Y-59908160D01*
X128291981Y-59916332D01*
X128261027Y-59925582D01*
X128229480Y-59935970D01*
X128216258Y-59940478D01*
X128090952Y-59990892D01*
X127983755Y-60051825D01*
X127884925Y-60129239D01*
X127842468Y-60169183D01*
X127751978Y-60275694D01*
X127686555Y-60391179D01*
X127646934Y-60513171D01*
X127633855Y-60639200D01*
X124559523Y-60639200D01*
X124555833Y-60185462D01*
X124381677Y-60176635D01*
X124164251Y-60154906D01*
X123964381Y-60112094D01*
X123779852Y-60047255D01*
X123608449Y-59959446D01*
X123447957Y-59847722D01*
X123301389Y-59716389D01*
X123169841Y-59569406D01*
X123061684Y-59413696D01*
X122974680Y-59245149D01*
X122906592Y-59059654D01*
X122870788Y-58925333D01*
X122865521Y-58899947D01*
X122860993Y-58870972D01*
X122857127Y-58836034D01*
X122853845Y-58792758D01*
X122851070Y-58738770D01*
X122848724Y-58671695D01*
X122846731Y-58589161D01*
X122845012Y-58488792D01*
X122843491Y-58368214D01*
X122842089Y-58225053D01*
X122840731Y-58056934D01*
X122840216Y-57986944D01*
X122838953Y-57786960D01*
X122838321Y-57612780D01*
X122838434Y-57461990D01*
X122839411Y-57332175D01*
X122841366Y-57220922D01*
X122844418Y-57125817D01*
X122848682Y-57044445D01*
X122854275Y-56974393D01*
X122857919Y-56942722D01*
X123379833Y-56942722D01*
X123379833Y-58833611D01*
X123419561Y-58946500D01*
X123489283Y-59104591D01*
X123580555Y-59246799D01*
X123691154Y-59371209D01*
X123818857Y-59475906D01*
X123961440Y-59558974D01*
X124116681Y-59618499D01*
X124230217Y-59644877D01*
X124255950Y-59646883D01*
X124307280Y-59648701D01*
X124381583Y-59650305D01*
X124476234Y-59651670D01*
X124588608Y-59652771D01*
X124716081Y-59653584D01*
X124856029Y-59654084D01*
X125005826Y-59654244D01*
X125162849Y-59654041D01*
X125186056Y-59653980D01*
X126075056Y-59651488D01*
X126173833Y-59618402D01*
X126338374Y-59549403D01*
X126485632Y-59459101D01*
X126614166Y-59348992D01*
X126722533Y-59220573D01*
X126809293Y-59075343D01*
X126873003Y-58914797D01*
X126882419Y-58882553D01*
X126887522Y-58862207D01*
X126891891Y-58839448D01*
X126895582Y-58812043D01*
X126898653Y-58777760D01*
X126901159Y-58734367D01*
X126903155Y-58679631D01*
X126904700Y-58611321D01*
X126905847Y-58527202D01*
X126906358Y-58462553D01*
X128826868Y-58462553D01*
X128830619Y-58570577D01*
X128840770Y-58668249D01*
X128853779Y-58733641D01*
X128908904Y-58901938D01*
X128981146Y-59051340D01*
X129073593Y-59187437D01*
X129157239Y-59283303D01*
X129293193Y-59405695D01*
X129443223Y-59504984D01*
X129604565Y-59580271D01*
X129774454Y-59630659D01*
X129950128Y-59655248D01*
X130128822Y-59653141D01*
X130245593Y-59636971D01*
X130419059Y-59592040D01*
X130576662Y-59525211D01*
X130722346Y-59434453D01*
X130854261Y-59323296D01*
X130978871Y-59187101D01*
X131077685Y-59040573D01*
X131151938Y-58881500D01*
X131202864Y-58707672D01*
X131206077Y-58692528D01*
X131229142Y-58512863D01*
X131224870Y-58334310D01*
X131194106Y-58159546D01*
X131137691Y-57991250D01*
X131056469Y-57832096D01*
X130951282Y-57684764D01*
X130856859Y-57583331D01*
X130730196Y-57475891D01*
X130707335Y-57461440D01*
X133125403Y-57461440D01*
X133125500Y-57606430D01*
X133126119Y-57775265D01*
X133126934Y-57937816D01*
X133127906Y-58122878D01*
X133128863Y-58282136D01*
X133130035Y-58418010D01*
X133131649Y-58532915D01*
X133133936Y-58629270D01*
X133137125Y-58709493D01*
X133141445Y-58776002D01*
X133147125Y-58831214D01*
X133154395Y-58877548D01*
X133163483Y-58917420D01*
X133174619Y-58953250D01*
X133188032Y-58987454D01*
X133203952Y-59022450D01*
X133222606Y-59060656D01*
X133235939Y-59087611D01*
X133322715Y-59232915D01*
X133430243Y-59359124D01*
X133558227Y-59465941D01*
X133697585Y-59548735D01*
X133739432Y-59569542D01*
X133777127Y-59587519D01*
X133812998Y-59602865D01*
X133849373Y-59615781D01*
X133888577Y-59626467D01*
X133932938Y-59635124D01*
X133984784Y-59641952D01*
X134046442Y-59647152D01*
X134120238Y-59650923D01*
X134208500Y-59653467D01*
X134313555Y-59654983D01*
X134437730Y-59655672D01*
X134583353Y-59655735D01*
X134752750Y-59655371D01*
X134929778Y-59654838D01*
X135839945Y-59652055D01*
X135952833Y-59612434D01*
X136114774Y-59541305D01*
X136259426Y-59448216D01*
X136385501Y-59334455D01*
X136491712Y-59201309D01*
X136576771Y-59050066D01*
X136618768Y-58946500D01*
X136658389Y-58833611D01*
X136662412Y-57924960D01*
X136663188Y-57741576D01*
X136663736Y-57584129D01*
X136664002Y-57450331D01*
X136663934Y-57337897D01*
X136663479Y-57244542D01*
X136662586Y-57167979D01*
X136661200Y-57105923D01*
X136659270Y-57056087D01*
X136656742Y-57016187D01*
X136653564Y-56983935D01*
X136649684Y-56957047D01*
X136645048Y-56933236D01*
X136639605Y-56910216D01*
X136638973Y-56907710D01*
X136583837Y-56745017D01*
X136505057Y-56596812D01*
X136404025Y-56464557D01*
X136282135Y-56349714D01*
X136140778Y-56253744D01*
X135981346Y-56178109D01*
X135924611Y-56157731D01*
X135903870Y-56150971D01*
X135883916Y-56145196D01*
X135862422Y-56140315D01*
X135837061Y-56136235D01*
X135805506Y-56132865D01*
X135765430Y-56130115D01*
X135714504Y-56127892D01*
X135650402Y-56126105D01*
X135570797Y-56124663D01*
X135473361Y-56123474D01*
X135355767Y-56122447D01*
X135215687Y-56121490D01*
X135050795Y-56120511D01*
X134965056Y-56120024D01*
X134773188Y-56119024D01*
X134607178Y-56118446D01*
X134464663Y-56118428D01*
X134343280Y-56119107D01*
X134240666Y-56120624D01*
X134154458Y-56123114D01*
X134082293Y-56126718D01*
X134021809Y-56131572D01*
X133970642Y-56137815D01*
X133926429Y-56145586D01*
X133886807Y-56155022D01*
X133849414Y-56166262D01*
X133811887Y-56179444D01*
X133786778Y-56188936D01*
X133644666Y-56257969D01*
X133512474Y-56350331D01*
X133394364Y-56461952D01*
X133294497Y-56588758D01*
X133217034Y-56726678D01*
X133202257Y-56760937D01*
X133186580Y-56800409D01*
X133173097Y-56837597D01*
X133161657Y-56874876D01*
X133152106Y-56914622D01*
X133144294Y-56959211D01*
X133138067Y-57011017D01*
X133133275Y-57072415D01*
X133129764Y-57145781D01*
X133127383Y-57233491D01*
X133125980Y-57337919D01*
X133125403Y-57461440D01*
X130707335Y-57461440D01*
X130594813Y-57390314D01*
X130444879Y-57323387D01*
X130307197Y-57280223D01*
X130224943Y-57264853D01*
X130124644Y-57255887D01*
X130015739Y-57253319D01*
X129907671Y-57257148D01*
X129809877Y-57267369D01*
X129744331Y-57280425D01*
X129564103Y-57342056D01*
X129399547Y-57426629D01*
X129252076Y-57532731D01*
X129123104Y-57658947D01*
X129014045Y-57803864D01*
X128926312Y-57966069D01*
X128861320Y-58144146D01*
X128853981Y-58170775D01*
X128838552Y-58253212D01*
X128829513Y-58353618D01*
X128826868Y-58462553D01*
X126906358Y-58462553D01*
X126906655Y-58425045D01*
X126907178Y-58302615D01*
X126907473Y-58157680D01*
X126907596Y-57988009D01*
X126907611Y-57881111D01*
X126907611Y-56970944D01*
X126874535Y-56865608D01*
X126808587Y-56697849D01*
X126722313Y-56549630D01*
X126615879Y-56421127D01*
X126489453Y-56312514D01*
X126343204Y-56223966D01*
X126202056Y-56164121D01*
X126089167Y-56124277D01*
X124198278Y-56124277D01*
X124085389Y-56163898D01*
X123923448Y-56235027D01*
X123778797Y-56328116D01*
X123652721Y-56441878D01*
X123546510Y-56575024D01*
X123461451Y-56726266D01*
X123419454Y-56829833D01*
X123379833Y-56942722D01*
X122857919Y-56942722D01*
X122861312Y-56913247D01*
X122869912Y-56858592D01*
X122880190Y-56808015D01*
X122892262Y-56759102D01*
X122900977Y-56727583D01*
X122971031Y-56532521D01*
X123065022Y-56350403D01*
X123180999Y-56183147D01*
X123317008Y-56032673D01*
X123471097Y-55900901D01*
X123641312Y-55789751D01*
X123825701Y-55701141D01*
X124006100Y-55641200D01*
X124061858Y-55627439D01*
X124114554Y-55617242D01*
X124170724Y-55609902D01*
X124236904Y-55604712D01*
X124319632Y-55600968D01*
X124400536Y-55598578D01*
X124659238Y-55591970D01*
X124686142Y-55529205D01*
X124758614Y-55392441D01*
X124854784Y-55260813D01*
X124970140Y-55138556D01*
X125100173Y-55029906D01*
X125240373Y-54939097D01*
X125386228Y-54870365D01*
X125388915Y-54869342D01*
X125426306Y-54855054D01*
X125459682Y-54842482D01*
X125491018Y-54831510D01*
X125522287Y-54822021D01*
X125555461Y-54813899D01*
X125592516Y-54807027D01*
X125635422Y-54801289D01*
X125686155Y-54796568D01*
X125746688Y-54792748D01*
X125818993Y-54789712D01*
X125905045Y-54787344D01*
X126006816Y-54785528D01*
X126126280Y-54784147D01*
X126265410Y-54783084D01*
X126426180Y-54782224D01*
X126610564Y-54781449D01*
X126820533Y-54780643D01*
X126897028Y-54780346D01*
X127122017Y-54779376D01*
X127320159Y-54778330D01*
X127492828Y-54777182D01*
X127641400Y-54775909D01*
X127767250Y-54774485D01*
X127871752Y-54772887D01*
X127956281Y-54771090D01*
X128022212Y-54769069D01*
X128070920Y-54766800D01*
X128103780Y-54764259D01*
X128122167Y-54761420D01*
X128127482Y-54758446D01*
X128122734Y-54742709D01*
X128109224Y-54702494D01*
X128087690Y-54639902D01*
X128058868Y-54557030D01*
X128023494Y-54455978D01*
X127982304Y-54338844D01*
X127936037Y-54207728D01*
X127885427Y-54064728D01*
X127831213Y-53911943D01*
X127774129Y-53751472D01*
X127770952Y-53742551D01*
X127415162Y-52743713D01*
X127309553Y-52738223D01*
X127166799Y-52717699D01*
X127031851Y-52672401D01*
X126932158Y-52618745D01*
X126809594Y-52524577D01*
X126711451Y-52416471D01*
X126637984Y-52294863D01*
X126589449Y-52160186D01*
X126566103Y-52012877D01*
X126565033Y-51994913D01*
X126563961Y-51889549D01*
X126573885Y-51799166D01*
X126597109Y-51712155D01*
X126635934Y-51616907D01*
X126643022Y-51601666D01*
X126709637Y-51491080D01*
X126798510Y-51390165D01*
X126904200Y-51303199D01*
X127021264Y-51234460D01*
X127144257Y-51188225D01*
X127179945Y-51179701D01*
X127327571Y-51162941D01*
X127472224Y-51173137D01*
X127472224Y-51173137D01*
G37*
X127472224Y-51173137D02*
X127610906Y-51209025D01*
X127740620Y-51269338D01*
X127858370Y-51352811D01*
X127961158Y-51458178D01*
X128014999Y-51532304D01*
X128081734Y-51660293D01*
X128122378Y-51794879D01*
X128137324Y-51932901D01*
X128126963Y-52071200D01*
X128091686Y-52206618D01*
X128031887Y-52335994D01*
X127947956Y-52456169D01*
X127893012Y-52515854D01*
X127789116Y-52618653D01*
X128555886Y-54776797D01*
X131476302Y-54769611D01*
X131818866Y-53805687D01*
X131876060Y-53644720D01*
X131931325Y-53489122D01*
X131983803Y-53341313D01*
X132032636Y-53203715D01*
X132076963Y-53078748D01*
X132115928Y-52968832D01*
X132148672Y-52876390D01*
X132174336Y-52803840D01*
X132192062Y-52753605D01*
X132199740Y-52731712D01*
X132238050Y-52621659D01*
X132133436Y-52517357D01*
X132036958Y-52406942D01*
X131966928Y-52292822D01*
X131921571Y-52170798D01*
X131899119Y-52036673D01*
X131895889Y-51954444D01*
X131906908Y-51808517D01*
X131940957Y-51677114D01*
X131999527Y-51556661D01*
X132084105Y-51443584D01*
X132128161Y-51397015D01*
X132244148Y-51300281D01*
X132370841Y-51229220D01*
X132506224Y-51184382D01*
X132648285Y-51166321D01*
X132795008Y-51175589D01*
X132875406Y-51192136D01*
X132980362Y-51224998D01*
X133069836Y-51267933D01*
X133153178Y-51326323D01*
X133230952Y-51396814D01*
X133328660Y-51510359D01*
X133399696Y-51632464D01*
X133444744Y-51764757D01*
X133464490Y-51908866D01*
X133465582Y-51954444D01*
X133452376Y-52102230D01*
X133414087Y-52239951D01*
X133352704Y-52365507D01*
X133270219Y-52476799D01*
X133168623Y-52571726D01*
X133049908Y-52648187D01*
X132916063Y-52704083D01*
X132769081Y-52737314D01*
X132718044Y-52742947D01*
X132611725Y-52751722D01*
X132262182Y-53734811D01*
X132205332Y-53894742D01*
X132151113Y-54047350D01*
X132100287Y-54190484D01*
X132053617Y-54321996D01*
X132011864Y-54439733D01*
X131975792Y-54541546D01*
X131946162Y-54625283D01*
X131923737Y-54688795D01*
X131909278Y-54729931D01*
X131903603Y-54746370D01*
X131902362Y-54751356D01*
X131903168Y-54755733D01*
X131907762Y-54759548D01*
X131917886Y-54762851D01*
X131935279Y-54765692D01*
X131961684Y-54768119D01*
X131998840Y-54770181D01*
X132048489Y-54771928D01*
X132112371Y-54773408D01*
X132192228Y-54774671D01*
X132289800Y-54775767D01*
X132406829Y-54776743D01*
X132545054Y-54777649D01*
X132706217Y-54778535D01*
X132892059Y-54779449D01*
X133104321Y-54780441D01*
X133112311Y-54780478D01*
X133333092Y-54781496D01*
X133527621Y-54782460D01*
X133697870Y-54783491D01*
X133845811Y-54784712D01*
X133973414Y-54786246D01*
X134082649Y-54788214D01*
X134175488Y-54790738D01*
X134253902Y-54793943D01*
X134319862Y-54797948D01*
X134375338Y-54802878D01*
X134422301Y-54808854D01*
X134462723Y-54815999D01*
X134498574Y-54824434D01*
X134531825Y-54834283D01*
X134564447Y-54845667D01*
X134598411Y-54858709D01*
X134635688Y-54873531D01*
X134640146Y-54875303D01*
X134809005Y-54957338D01*
X134964499Y-55063067D01*
X135103933Y-55190062D01*
X135224614Y-55335890D01*
X135318132Y-55487180D01*
X135373273Y-55591511D01*
X135627775Y-55598838D01*
X135727712Y-55602287D01*
X135806226Y-55606645D01*
X135870117Y-55612679D01*
X135926184Y-55621158D01*
X135981227Y-55632848D01*
X136023389Y-55643513D01*
X136219441Y-55709584D01*
X136402847Y-55799677D01*
X136571761Y-55911816D01*
X136724338Y-56044020D01*
X136858733Y-56194313D01*
X136973099Y-56360717D01*
X137065593Y-56541252D01*
X137134369Y-56733941D01*
X137166220Y-56868644D01*
X137170669Y-56896261D01*
X137174480Y-56930130D01*
X137177698Y-56972433D01*
X137180368Y-57025350D01*
X137182537Y-57091063D01*
X137184249Y-57171752D01*
X137185550Y-57269599D01*
X137186485Y-57386783D01*
X137187101Y-57525487D01*
X137187443Y-57687891D01*
X137187555Y-57876176D01*
X137187556Y-57891036D01*
X137187513Y-58075144D01*
X137187343Y-58233383D01*
X137186982Y-58368108D01*
X137186368Y-58481671D01*
X137185439Y-58576428D01*
X137184130Y-58654731D01*
X137182380Y-58718934D01*
X137180125Y-58771391D01*
X137177304Y-58814456D01*
X137173852Y-58850482D01*
X137169707Y-58881823D01*
X137164806Y-58910834D01*
X137159629Y-58937227D01*
X137108835Y-59129326D01*
X137037586Y-59305306D01*
X136943663Y-59469376D01*
X136824848Y-59625747D01*
X136757712Y-59699949D01*
X136602209Y-59843972D01*
X136434125Y-59962781D01*
X136254018Y-60056137D01*
X136062448Y-60123803D01*
X135859973Y-60165540D01*
X135647152Y-60181112D01*
X135627246Y-60181222D01*
X135467634Y-60181222D01*
X135462806Y-60904416D01*
X135457978Y-61627611D01*
X135419561Y-61751624D01*
X135350106Y-61933368D01*
X135259661Y-62099790D01*
X135149948Y-62248069D01*
X135055831Y-62345889D01*
X134978594Y-62413535D01*
X134905081Y-62468294D01*
X134825485Y-62516669D01*
X134730001Y-62565166D01*
X134713570Y-62572914D01*
X134667748Y-62594448D01*
X134627361Y-62613024D01*
X134590017Y-62628871D01*
X134553324Y-62642219D01*
X134514891Y-62653295D01*
X134472327Y-62662329D01*
X134423241Y-62669549D01*
X134365240Y-62675184D01*
X134295933Y-62679461D01*
X134212929Y-62682611D01*
X134113837Y-62684861D01*
X133996264Y-62686441D01*
X133857820Y-62687579D01*
X133696112Y-62688503D01*
X133508750Y-62689442D01*
X133493972Y-62689517D01*
X133336876Y-62690387D01*
X133188408Y-62691335D01*
X133050925Y-62692337D01*
X132926785Y-62693370D01*
X132818344Y-62694410D01*
X132727958Y-62695436D01*
X132657986Y-62696422D01*
X132610783Y-62697347D01*
X132588707Y-62698188D01*
X132587333Y-62698430D01*
X132591555Y-62712920D01*
X132602555Y-62746434D01*
X132616004Y-62786026D01*
X132660751Y-62945594D01*
X132691850Y-63119858D01*
X132708190Y-63298593D01*
X132708656Y-63471570D01*
X132701019Y-63566928D01*
X132690527Y-63640898D01*
X132675641Y-63724585D01*
X132658055Y-63810173D01*
X132639460Y-63889844D01*
X132621549Y-63955780D01*
X132608542Y-63994157D01*
X132608141Y-63998402D01*
X132611713Y-64002136D01*
X132620988Y-64005400D01*
X132637696Y-64008235D01*
X132663568Y-64010685D01*
X132700333Y-64012790D01*
X132749723Y-64014592D01*
X132813467Y-64016133D01*
X132893296Y-64017454D01*
X132990940Y-64018598D01*
X133108130Y-64019605D01*
X133246596Y-64020519D01*
X133408068Y-64021380D01*
X133594277Y-64022229D01*
X133806953Y-64023110D01*
X133810190Y-64023123D01*
X134027751Y-64023978D01*
X134219072Y-64024766D01*
X134386134Y-64025607D01*
X134530918Y-64026623D01*
X134655407Y-64027935D01*
X134761580Y-64029663D01*
X134851421Y-64031928D01*
X134926910Y-64034852D01*
X134990028Y-64038555D01*
X135042757Y-64043157D01*
X135087079Y-64048781D01*
X135124974Y-64055546D01*
X135158424Y-64063574D01*
X135189411Y-64072985D01*
X135219915Y-64083901D01*
X135251919Y-64096442D01*
X135287404Y-64110730D01*
X135294846Y-64113709D01*
X135411853Y-64166760D01*
X135517015Y-64229209D01*
X135618171Y-64306383D01*
X135723157Y-64403610D01*
X135727056Y-64407500D01*
X135849521Y-64544722D01*
X135946548Y-64687446D01*
X136020916Y-64840587D01*
X136075401Y-65009061D01*
X136081908Y-65035444D01*
X136084190Y-65046012D01*
X136086332Y-65058518D01*
X136088340Y-65073855D01*
X136090219Y-65092918D01*
X136091975Y-65116601D01*
X136093613Y-65145798D01*
X136095139Y-65181404D01*
X136096557Y-65224313D01*
X136097873Y-65275418D01*
X136099092Y-65335615D01*
X136100221Y-65405797D01*
X136101263Y-65486860D01*
X136102225Y-65579696D01*
X136103111Y-65685200D01*
X136103928Y-65804267D01*
X136104680Y-65937790D01*
X136105373Y-66086665D01*
X136106012Y-66251785D01*
X136106602Y-66434044D01*
X136107149Y-66634337D01*
X136107659Y-66853557D01*
X136108136Y-67092600D01*
X136108586Y-67352360D01*
X136109014Y-67633730D01*
X136109425Y-67937605D01*
X136109825Y-68264879D01*
X136110220Y-68616446D01*
X136110614Y-68993202D01*
X136111013Y-69396039D01*
X136111422Y-69825852D01*
X136111587Y-70002555D01*
X136112000Y-70491511D01*
X136112307Y-70957058D01*
X136112508Y-71398926D01*
X136112605Y-71816846D01*
X136112598Y-72210548D01*
X136112487Y-72579763D01*
X136112273Y-72924219D01*
X136111956Y-73243649D01*
X136111537Y-73537781D01*
X136111017Y-73806346D01*
X136110395Y-74049074D01*
X136109673Y-74265696D01*
X136108850Y-74455942D01*
X136107929Y-74619541D01*
X136106908Y-74756224D01*
X136105788Y-74865722D01*
X136104571Y-74947765D01*
X136103256Y-75002082D01*
X136102074Y-75026111D01*
X136088955Y-75145313D01*
X136070739Y-75246566D01*
X136045002Y-75340014D01*
X136009321Y-75435805D01*
X135997565Y-75463626D01*
X135913403Y-75623971D01*
X135806321Y-75771100D01*
X135679419Y-75902526D01*
X135535798Y-76015761D01*
X135378558Y-76108317D01*
X135210799Y-76177706D01*
X135058151Y-76217400D01*
X135045801Y-76219379D01*
X135029696Y-76221238D01*
X135008975Y-76222981D01*
X134982778Y-76224610D01*
X134950246Y-76226129D01*
X134910518Y-76227541D01*
X134862736Y-76228851D01*
X134806038Y-76230062D01*
X134739565Y-76231176D01*
X134662458Y-76232198D01*
X134573855Y-76233132D01*
X134472898Y-76233979D01*
X134358727Y-76234745D01*
X134230481Y-76235433D01*
X134087301Y-76236045D01*
X133928326Y-76236587D01*
X133752698Y-76237060D01*
X133559555Y-76237469D01*
X133348039Y-76237817D01*
X133117288Y-76238107D01*
X132866444Y-76238344D01*
X132594647Y-76238530D01*
X132301036Y-76238669D01*
X131984752Y-76238764D01*
X131644935Y-76238820D01*
X131280725Y-76238839D01*
X130891261Y-76238825D01*
X130475685Y-76238782D01*
X130033136Y-76238712D01*
X129823525Y-76238673D01*
X129371140Y-76238581D01*
X128946103Y-76238482D01*
X128547542Y-76238373D01*
X128174581Y-76238248D01*
X127826349Y-76238103D01*
X127501971Y-76237934D01*
X127200573Y-76237737D01*
X126921282Y-76237507D01*
X126663224Y-76237240D01*
X126425526Y-76236931D01*
X126207313Y-76236576D01*
X126007713Y-76236171D01*
X125825852Y-76235711D01*
X125660856Y-76235191D01*
X125511851Y-76234608D01*
X125377964Y-76233957D01*
X125258321Y-76233234D01*
X125152049Y-76232434D01*
X125058274Y-76231553D01*
X124976122Y-76230586D01*
X124904720Y-76229529D01*
X124843193Y-76228378D01*
X124790670Y-76227128D01*
X124746275Y-76225775D01*
X124709135Y-76224315D01*
X124678377Y-76222742D01*
X124653126Y-76221054D01*
X124632510Y-76219245D01*
X124615655Y-76217310D01*
X124601687Y-76215246D01*
X124589732Y-76213049D01*
X124586333Y-76212347D01*
X124407779Y-76160538D01*
X124240050Y-76083823D01*
X124085339Y-75984164D01*
X123945838Y-75863526D01*
X123823739Y-75723870D01*
X123721234Y-75567161D01*
X123640516Y-75395361D01*
X123624152Y-75350730D01*
X123618117Y-75333709D01*
X123612451Y-75317932D01*
X123607143Y-75302505D01*
X123602179Y-75286535D01*
X123597550Y-75269126D01*
X123593243Y-75249387D01*
X123589247Y-75226422D01*
X123585550Y-75199339D01*
X123582140Y-75167243D01*
X123579006Y-75129240D01*
X123576137Y-75084437D01*
X123573520Y-75031941D01*
X123571143Y-74970856D01*
X123568997Y-74900290D01*
X123567067Y-74819348D01*
X123565344Y-74727138D01*
X123563816Y-74622764D01*
X123562470Y-74505334D01*
X123561295Y-74373953D01*
X123560280Y-74227729D01*
X123559412Y-74065766D01*
X123558681Y-73887171D01*
X123558075Y-73691051D01*
X123557582Y-73476511D01*
X123557190Y-73242658D01*
X123556887Y-72988599D01*
X123556663Y-72713438D01*
X123556506Y-72416283D01*
X123556403Y-72096240D01*
X123556343Y-71752415D01*
X123556316Y-71383914D01*
X123556308Y-70989844D01*
X123556308Y-70569310D01*
X123556307Y-70319126D01*
X125671154Y-70319126D01*
X125671824Y-70430624D01*
X125673168Y-70537372D01*
X125675180Y-70635709D01*
X125677857Y-70721972D01*
X125681196Y-70792497D01*
X125685190Y-70843624D01*
X125689837Y-70871688D01*
X125691875Y-70875635D01*
X125710874Y-70882756D01*
X125753335Y-70893807D01*
X125814926Y-70907821D01*
X125891314Y-70923828D01*
X125978167Y-70940860D01*
X126012903Y-70947379D01*
X126177693Y-70977967D01*
X126316929Y-71003920D01*
X126432816Y-71025678D01*
X126527564Y-71043681D01*
X126603379Y-71058368D01*
X126662469Y-71070179D01*
X126707041Y-71079552D01*
X126739303Y-71086927D01*
X126761462Y-71092744D01*
X126775726Y-71097442D01*
X126782837Y-71100637D01*
X126794660Y-71117023D01*
X126814784Y-71155995D01*
X126841686Y-71213780D01*
X126873844Y-71286606D01*
X126909736Y-71370700D01*
X126947841Y-71462290D01*
X126986636Y-71557603D01*
X127024600Y-71652866D01*
X127060210Y-71744306D01*
X127091944Y-71828152D01*
X127118281Y-71900630D01*
X127137698Y-71957967D01*
X127148674Y-71996391D01*
X127150238Y-72011343D01*
X127140557Y-72027605D01*
X127116653Y-72064369D01*
X127080353Y-72118920D01*
X127033483Y-72188547D01*
X126977870Y-72270537D01*
X126915341Y-72362176D01*
X126847723Y-72460752D01*
X126842870Y-72467807D01*
X126774962Y-72566925D01*
X126712085Y-72659483D01*
X126656062Y-72742740D01*
X126608715Y-72813952D01*
X126571865Y-72870380D01*
X126547335Y-72909280D01*
X126536947Y-72927911D01*
X126536803Y-72928360D01*
X126544665Y-72944855D01*
X126570494Y-72978128D01*
X126611717Y-73025601D01*
X126665757Y-73084700D01*
X126730039Y-73152850D01*
X126801989Y-73227477D01*
X126879030Y-73306003D01*
X126958589Y-73385855D01*
X127038090Y-73464458D01*
X127114958Y-73539236D01*
X127186617Y-73607614D01*
X127250493Y-73667017D01*
X127304010Y-73714869D01*
X127344594Y-73748597D01*
X127369668Y-73765624D01*
X127375529Y-73767086D01*
X127392849Y-73757656D01*
X127430543Y-73733997D01*
X127485801Y-73697973D01*
X127555814Y-73651451D01*
X127637772Y-73596296D01*
X127728865Y-73534374D01*
X127817778Y-73473408D01*
X127915335Y-73406556D01*
X128006826Y-73344449D01*
X128089348Y-73289014D01*
X128159999Y-73242178D01*
X128215874Y-73205867D01*
X128254071Y-73182006D01*
X128270886Y-73172787D01*
X128287526Y-73168930D01*
X128307941Y-73170765D01*
X128336296Y-73179943D01*
X128376752Y-73198117D01*
X128433474Y-73226938D01*
X128509605Y-73267510D01*
X128579013Y-73303996D01*
X128640753Y-73334757D01*
X128690165Y-73357601D01*
X128722586Y-73370337D01*
X128732318Y-73372164D01*
X128757324Y-73357237D01*
X128765511Y-73346889D01*
X128775727Y-73325563D01*
X128795135Y-73281328D01*
X128822700Y-73216721D01*
X128857387Y-73134279D01*
X128898160Y-73036539D01*
X128943985Y-72926038D01*
X128993824Y-72805315D01*
X129046643Y-72676905D01*
X129101407Y-72543347D01*
X129157080Y-72407177D01*
X129212627Y-72270932D01*
X129267012Y-72137151D01*
X129319199Y-72008371D01*
X129368154Y-71887127D01*
X129412840Y-71775959D01*
X129452223Y-71677403D01*
X129485266Y-71593996D01*
X129510936Y-71528275D01*
X129528195Y-71482779D01*
X129536008Y-71460043D01*
X129536353Y-71458024D01*
X129523547Y-71441612D01*
X129492258Y-71414197D01*
X129447700Y-71380101D01*
X129412333Y-71355204D01*
X129246614Y-71228255D01*
X129106769Y-71090822D01*
X128992952Y-70943125D01*
X128905319Y-70785384D01*
X128844025Y-70617818D01*
X128820850Y-70517552D01*
X128810834Y-70435999D01*
X128806413Y-70337717D01*
X128807454Y-70233596D01*
X128813825Y-70134528D01*
X128825392Y-70051402D01*
X128826620Y-70045376D01*
X128877350Y-69871200D01*
X128953006Y-69707431D01*
X129051418Y-69556779D01*
X129170414Y-69421951D01*
X129307825Y-69305654D01*
X129461481Y-69210597D01*
X129517566Y-69183358D01*
X129684692Y-69122764D01*
X129859561Y-69087789D01*
X130038197Y-69078380D01*
X130216623Y-69094483D01*
X130390863Y-69136043D01*
X130545320Y-69197328D01*
X130704132Y-69288921D01*
X130844616Y-69400766D01*
X130965441Y-69530584D01*
X131065278Y-69676098D01*
X131142797Y-69835029D01*
X131196665Y-70005100D01*
X131225554Y-70184033D01*
X131228293Y-70366748D01*
X131213417Y-70508165D01*
X131183818Y-70636896D01*
X131136352Y-70764820D01*
X131105321Y-70831412D01*
X131034471Y-70956205D01*
X130948650Y-71071298D01*
X130844464Y-71180321D01*
X130718518Y-71286905D01*
X130597667Y-71374318D01*
X130553534Y-71406881D01*
X130519714Y-71436502D01*
X130502359Y-71457679D01*
X130501396Y-71460461D01*
X130505904Y-71477171D01*
X130520322Y-71517349D01*
X130543603Y-71578453D01*
X130574699Y-71657942D01*
X130612566Y-71753274D01*
X130656155Y-71861908D01*
X130704420Y-71981302D01*
X130756314Y-72108916D01*
X130810791Y-72242207D01*
X130866804Y-72378635D01*
X130923306Y-72515658D01*
X130979250Y-72650734D01*
X131033590Y-72781323D01*
X131085279Y-72904883D01*
X131133271Y-73018873D01*
X131176518Y-73120750D01*
X131213974Y-73207975D01*
X131244593Y-73278005D01*
X131267327Y-73328299D01*
X131281129Y-73356317D01*
X131284167Y-73361000D01*
X131294104Y-73367465D01*
X131309139Y-73368083D01*
X131332990Y-73361421D01*
X131369371Y-73346048D01*
X131421997Y-73320531D01*
X131494584Y-73283437D01*
X131521339Y-73269561D01*
X131738024Y-73156957D01*
X131785206Y-73181064D01*
X131807714Y-73194612D01*
X131850372Y-73222229D01*
X131910152Y-73261882D01*
X131984028Y-73311538D01*
X132068971Y-73369164D01*
X132161953Y-73432726D01*
X132241611Y-73487531D01*
X132337391Y-73553242D01*
X132426340Y-73613545D01*
X132505679Y-73666611D01*
X132572630Y-73710611D01*
X132624411Y-73743716D01*
X132658246Y-73764098D01*
X132670925Y-73770057D01*
X132685335Y-73760429D01*
X132716820Y-73733199D01*
X132762752Y-73690972D01*
X132820505Y-73636356D01*
X132887450Y-73571954D01*
X132960961Y-73500373D01*
X133038411Y-73424219D01*
X133117173Y-73346096D01*
X133194619Y-73268610D01*
X133268122Y-73194368D01*
X133335054Y-73125974D01*
X133392790Y-73066034D01*
X133438701Y-73017154D01*
X133470161Y-72981939D01*
X133484400Y-72963271D01*
X133489297Y-72954307D01*
X133492764Y-72945861D01*
X133493580Y-72935933D01*
X133490518Y-72922524D01*
X133482357Y-72903634D01*
X133467873Y-72877264D01*
X133445840Y-72841413D01*
X133415038Y-72794082D01*
X133374240Y-72733272D01*
X133322224Y-72656982D01*
X133257767Y-72563214D01*
X133179644Y-72449967D01*
X133097433Y-72330889D01*
X133042923Y-72251257D01*
X132993302Y-72177505D01*
X132951031Y-72113394D01*
X132918575Y-72062689D01*
X132898395Y-72029150D01*
X132893273Y-72019010D01*
X132890519Y-72005823D01*
X132891623Y-71987006D01*
X132897522Y-71959792D01*
X132909153Y-71921415D01*
X132927451Y-71869110D01*
X132953354Y-71800112D01*
X132987796Y-71711654D01*
X133031715Y-71600972D01*
X133051856Y-71550581D01*
X133093948Y-71446288D01*
X133133403Y-71350179D01*
X133168854Y-71265460D01*
X133198933Y-71195338D01*
X133222272Y-71143016D01*
X133237503Y-71111702D01*
X133242353Y-71104174D01*
X133259784Y-71098388D01*
X133301853Y-71088214D01*
X133365429Y-71074300D01*
X133447382Y-71057292D01*
X133544579Y-71037839D01*
X133653890Y-71016588D01*
X133772184Y-70994186D01*
X133794122Y-70990093D01*
X133913742Y-70967530D01*
X134024978Y-70945968D01*
X134124691Y-70926060D01*
X134209745Y-70908458D01*
X134277000Y-70893812D01*
X134323320Y-70882775D01*
X134345565Y-70876000D01*
X134346762Y-70875290D01*
X134351595Y-70857524D01*
X134355777Y-70815226D01*
X134359307Y-70752059D01*
X134362182Y-70671686D01*
X134364398Y-70577769D01*
X134365953Y-70473970D01*
X134366843Y-70363952D01*
X134367067Y-70251377D01*
X134366620Y-70139909D01*
X134365500Y-70033209D01*
X134363704Y-69934941D01*
X134361230Y-69848766D01*
X134358074Y-69778347D01*
X134354234Y-69727346D01*
X134349706Y-69699427D01*
X134347695Y-69695537D01*
X134330297Y-69689898D01*
X134288241Y-69679869D01*
X134224637Y-69666086D01*
X134142595Y-69649189D01*
X134045228Y-69629815D01*
X133935647Y-69608602D01*
X133816962Y-69586189D01*
X133789765Y-69581128D01*
X133669137Y-69558523D01*
X133556617Y-69537020D01*
X133455368Y-69517255D01*
X133368557Y-69499863D01*
X133299348Y-69485481D01*
X133250907Y-69474745D01*
X133226398Y-69468291D01*
X133224582Y-69467536D01*
X133213495Y-69451907D01*
X133193371Y-69414013D01*
X133165890Y-69357698D01*
X133132732Y-69286806D01*
X133095576Y-69205180D01*
X133056101Y-69116664D01*
X133015988Y-69025103D01*
X132976916Y-68934339D01*
X132940564Y-68848217D01*
X132908612Y-68770581D01*
X132882740Y-68705273D01*
X132864628Y-68656138D01*
X132855955Y-68627020D01*
X132855445Y-68622778D01*
X132863205Y-68605351D01*
X132885305Y-68567501D01*
X132919968Y-68511977D01*
X132965422Y-68441528D01*
X133019891Y-68358900D01*
X133081601Y-68266842D01*
X133148777Y-68168102D01*
X133153136Y-68161743D01*
X133221841Y-68061382D01*
X133286507Y-67966578D01*
X133345144Y-67880274D01*
X133395761Y-67805413D01*
X133436368Y-67744938D01*
X133464975Y-67701793D01*
X133479593Y-67678922D01*
X133479667Y-67678796D01*
X133508507Y-67629916D01*
X133101162Y-67221680D01*
X132981780Y-67102775D01*
X132881202Y-67004188D01*
X132799503Y-66925987D01*
X132736756Y-66868244D01*
X132693035Y-66831026D01*
X132668417Y-66814404D01*
X132664723Y-66813444D01*
X132647069Y-66821227D01*
X132608888Y-66843439D01*
X132552813Y-66878379D01*
X132481474Y-66924343D01*
X132397501Y-66979629D01*
X132303525Y-67042533D01*
X132202177Y-67111354D01*
X132163454Y-67137896D01*
X132060299Y-67208404D01*
X131963806Y-67273641D01*
X131876566Y-67331909D01*
X131801169Y-67381509D01*
X131740206Y-67420742D01*
X131696267Y-67447912D01*
X131671942Y-67461319D01*
X131668400Y-67462451D01*
X131649978Y-67457305D01*
X131608907Y-67442694D01*
X131548614Y-67419941D01*
X131472531Y-67390367D01*
X131384087Y-67355294D01*
X131286710Y-67316046D01*
X131252122Y-67301962D01*
X131133950Y-67253353D01*
X131039695Y-67213662D01*
X130966910Y-67181735D01*
X130913147Y-67156416D01*
X130875962Y-67136551D01*
X130852906Y-67120983D01*
X130841534Y-67108559D01*
X130841194Y-67107935D01*
X130834843Y-67086981D01*
X130824185Y-67041442D01*
X130809869Y-66974517D01*
X130792541Y-66889406D01*
X130772851Y-66789306D01*
X130751446Y-66677419D01*
X130728975Y-66556941D01*
X130722957Y-66524166D01*
X130700470Y-66402731D01*
X130679031Y-66289698D01*
X130659262Y-66188152D01*
X130641787Y-66101175D01*
X130627226Y-66031847D01*
X130616204Y-65983253D01*
X130609343Y-65958474D01*
X130608230Y-65956194D01*
X130590715Y-65951472D01*
X130548648Y-65947414D01*
X130485687Y-65944019D01*
X130405495Y-65941286D01*
X130311732Y-65939214D01*
X130208058Y-65937801D01*
X130098135Y-65937046D01*
X129985623Y-65936948D01*
X129874184Y-65937507D01*
X129767478Y-65938720D01*
X129669165Y-65940586D01*
X129582908Y-65943105D01*
X129512366Y-65946276D01*
X129461200Y-65950096D01*
X129433072Y-65954565D01*
X129429057Y-65956574D01*
X129423254Y-65974051D01*
X129413089Y-66016198D01*
X129399201Y-66079906D01*
X129382227Y-66162070D01*
X129362807Y-66259583D01*
X129341580Y-66369337D01*
X129319184Y-66488225D01*
X129313758Y-66517490D01*
X129291108Y-66639011D01*
X129269512Y-66752937D01*
X129249612Y-66856022D01*
X129232052Y-66945017D01*
X129217473Y-67016672D01*
X129206520Y-67067741D01*
X129199833Y-67094974D01*
X129199030Y-67097364D01*
X129175465Y-67130946D01*
X129146796Y-67151836D01*
X129105605Y-67170077D01*
X129046735Y-67195060D01*
X128974200Y-67225179D01*
X128892018Y-67258829D01*
X128804204Y-67294404D01*
X128714774Y-67330299D01*
X128627743Y-67364909D01*
X128547127Y-67396629D01*
X128476943Y-67423854D01*
X128421205Y-67444977D01*
X128383930Y-67458395D01*
X128369487Y-67462555D01*
X128353162Y-67454789D01*
X128316248Y-67432620D01*
X128261336Y-67397748D01*
X128191019Y-67351868D01*
X128107886Y-67296678D01*
X128014530Y-67233875D01*
X127913543Y-67165156D01*
X127873942Y-67138007D01*
X127770536Y-67067438D01*
X127673566Y-67002153D01*
X127585655Y-66943854D01*
X127509430Y-66894244D01*
X127447516Y-66855022D01*
X127402536Y-66827890D01*
X127377118Y-66814551D01*
X127373187Y-66813451D01*
X127356239Y-66823121D01*
X127322699Y-66850428D01*
X127275123Y-66892811D01*
X127216064Y-66947712D01*
X127148077Y-67012568D01*
X127073718Y-67084821D01*
X126995540Y-67161911D01*
X126916098Y-67241276D01*
X126837946Y-67320358D01*
X126763640Y-67396595D01*
X126695734Y-67467428D01*
X126636782Y-67530296D01*
X126589339Y-67582640D01*
X126555960Y-67621900D01*
X126539199Y-67645514D01*
X126537834Y-67650617D01*
X126547436Y-67666689D01*
X126571296Y-67703347D01*
X126607636Y-67757951D01*
X126654680Y-67827863D01*
X126710649Y-67910443D01*
X126773766Y-68003053D01*
X126842254Y-68103054D01*
X126859567Y-68128260D01*
X126929073Y-68229773D01*
X126993558Y-68324679D01*
X127051252Y-68410318D01*
X127100385Y-68484032D01*
X127139189Y-68543162D01*
X127165893Y-68585048D01*
X127178729Y-68607033D01*
X127179551Y-68609061D01*
X127175796Y-68628126D01*
X127162012Y-68669021D01*
X127139846Y-68727883D01*
X127110947Y-68800849D01*
X127076964Y-68884058D01*
X127039546Y-68973646D01*
X127000341Y-69065750D01*
X126960998Y-69156509D01*
X126923165Y-69242059D01*
X126888491Y-69318538D01*
X126858624Y-69382083D01*
X126835214Y-69428831D01*
X126819909Y-69454920D01*
X126817158Y-69458129D01*
X126795339Y-69467429D01*
X126745935Y-69480943D01*
X126669258Y-69498604D01*
X126565620Y-69520343D01*
X126435332Y-69546093D01*
X126278705Y-69575788D01*
X126250317Y-69581068D01*
X126129828Y-69603692D01*
X126017750Y-69625249D01*
X125917189Y-69645104D01*
X125831251Y-69662621D01*
X125763040Y-69677164D01*
X125715662Y-69688098D01*
X125692222Y-69694787D01*
X125690528Y-69695670D01*
X125685662Y-69713312D01*
X125681503Y-69755505D01*
X125678046Y-69818586D01*
X125675288Y-69898892D01*
X125673224Y-69992762D01*
X125671849Y-70096533D01*
X125671161Y-70206542D01*
X125671154Y-70319126D01*
X123556307Y-70319126D01*
X123556305Y-70136241D01*
X123556339Y-69621729D01*
X123556458Y-69135406D01*
X123556661Y-68677240D01*
X123556950Y-68247196D01*
X123557325Y-67845242D01*
X123557785Y-67471344D01*
X123558330Y-67125470D01*
X123558961Y-66807587D01*
X123559678Y-66517661D01*
X123560481Y-66255659D01*
X123561369Y-66021548D01*
X123562344Y-65815295D01*
X123563405Y-65636868D01*
X123564552Y-65486232D01*
X123565786Y-65363355D01*
X123567106Y-65268204D01*
X123568512Y-65200745D01*
X123570005Y-65160946D01*
X123570760Y-65151595D01*
X123607552Y-64967840D01*
X123669443Y-64794128D01*
X123754462Y-64632532D01*
X123860635Y-64485123D01*
X123985988Y-64353974D01*
X124128551Y-64241156D01*
X124286348Y-64148740D01*
X124457408Y-64078799D01*
X124634786Y-64034275D01*
X124665687Y-64031434D01*
X124724422Y-64028884D01*
X124810605Y-64026630D01*
X124923848Y-64024675D01*
X125063767Y-64023024D01*
X125229973Y-64021679D01*
X125422081Y-64020647D01*
X125639704Y-64019929D01*
X125882455Y-64019531D01*
X126075530Y-64019444D01*
X127432543Y-64019444D01*
X127398932Y-63903401D01*
X127349389Y-63683998D01*
X127326082Y-63457329D01*
X127324002Y-63363277D01*
X127326694Y-63245099D01*
X127335634Y-63135681D01*
X127352118Y-63027306D01*
X127377442Y-62912255D01*
X127412903Y-62782813D01*
X127432253Y-62718651D01*
X127432220Y-62713792D01*
X127427553Y-62709611D01*
X127416230Y-62706040D01*
X127396226Y-62703012D01*
X127365518Y-62700457D01*
X127322082Y-62698310D01*
X127263895Y-62696501D01*
X127188932Y-62694963D01*
X127095172Y-62693628D01*
X126980589Y-62692428D01*
X126843160Y-62691295D01*
X126680863Y-62690162D01*
X126559757Y-62689384D01*
X126379920Y-62688225D01*
X126225952Y-62687123D01*
X126095498Y-62685992D01*
X125986205Y-62684747D01*
X125895719Y-62683300D01*
X125821686Y-62681566D01*
X125761753Y-62679460D01*
X125713565Y-62676894D01*
X125674770Y-62673783D01*
X125643014Y-62670040D01*
X125615942Y-62665581D01*
X125591202Y-62660317D01*
X125566438Y-62654165D01*
X125561503Y-62652879D01*
X125375887Y-62590419D01*
X125204920Y-62504745D01*
X125050235Y-62397467D01*
X124913461Y-62270193D01*
X124796229Y-62124534D01*
X124700170Y-61962099D01*
X124626915Y-61784497D01*
X124603882Y-61707787D01*
X124567101Y-61571166D01*
X124559523Y-60639200D01*
X127633855Y-60639200D01*
X127648056Y-60766800D01*
X127655145Y-60795692D01*
X127700948Y-60912592D01*
X127771568Y-61022337D01*
X127863997Y-61122485D01*
X127975225Y-61210592D01*
X128102244Y-61284213D01*
X128242046Y-61340906D01*
X128366632Y-61373553D01*
X128397863Y-61376903D01*
X128455026Y-61379979D01*
X128535833Y-61382779D01*
X128637993Y-61385303D01*
X128759220Y-61387550D01*
X128897223Y-61389520D01*
X129049714Y-61391211D01*
X129214405Y-61392623D01*
X129389006Y-61393756D01*
X129571228Y-61394608D01*
X129758784Y-61395180D01*
X129949383Y-61395469D01*
X130140737Y-61395477D01*
X130330558Y-61395201D01*
X130516557Y-61394642D01*
X130696444Y-61393799D01*
X130867931Y-61392670D01*
X131028729Y-61391255D01*
X131176550Y-61389555D01*
X131309104Y-61387567D01*
X131424103Y-61385291D01*
X131519257Y-61382727D01*
X131592279Y-61379874D01*
X131640879Y-61376730D01*
X131658287Y-61374532D01*
X131823992Y-61330650D01*
X131973127Y-61267624D01*
X132103897Y-61186686D01*
X132214505Y-61089065D01*
X132303154Y-60975991D01*
X132342833Y-60905781D01*
X132369961Y-60847351D01*
X132386594Y-60799072D01*
X132395849Y-60748621D01*
X132400845Y-60683678D01*
X132401282Y-60674848D01*
X132402718Y-60598833D01*
X132397706Y-60537457D01*
X132384840Y-60477592D01*
X132377456Y-60452037D01*
X132327965Y-60336144D01*
X132253505Y-60227723D01*
X132156943Y-60129588D01*
X132041145Y-60044555D01*
X131908977Y-59975439D01*
X131879813Y-59963369D01*
X131847556Y-59950440D01*
X131818631Y-59938914D01*
X131791313Y-59928705D01*
X131763877Y-59919729D01*
X131734601Y-59911899D01*
X131701760Y-59905130D01*
X131663628Y-59899335D01*
X131618483Y-59894430D01*
X131564601Y-59890328D01*
X131500255Y-59886944D01*
X131423724Y-59884192D01*
X131333282Y-59881987D01*
X131227205Y-59880242D01*
X131103770Y-59878873D01*
X130961251Y-59877792D01*
X130797924Y-59876916D01*
X130612066Y-59876157D01*
X130401953Y-59875431D01*
X130165859Y-59874651D01*
X130089667Y-59874393D01*
X129837685Y-59873557D01*
X129612231Y-59872903D01*
X129411608Y-59872490D01*
X129234122Y-59872379D01*
X129078079Y-59872629D01*
X128941782Y-59873301D01*
X128823536Y-59874453D01*
X128721648Y-59876146D01*
X128634421Y-59878440D01*
X128560161Y-59881394D01*
X128497173Y-59885068D01*
X128443761Y-59889521D01*
X128398231Y-59894815D01*
X128358888Y-59901008D01*
X128324036Y-59908160D01*
X128291981Y-59916332D01*
X128261027Y-59925582D01*
X128229480Y-59935970D01*
X128216258Y-59940478D01*
X128090952Y-59990892D01*
X127983755Y-60051825D01*
X127884925Y-60129239D01*
X127842468Y-60169183D01*
X127751978Y-60275694D01*
X127686555Y-60391179D01*
X127646934Y-60513171D01*
X127633855Y-60639200D01*
X124559523Y-60639200D01*
X124555833Y-60185462D01*
X124381677Y-60176635D01*
X124164251Y-60154906D01*
X123964381Y-60112094D01*
X123779852Y-60047255D01*
X123608449Y-59959446D01*
X123447957Y-59847722D01*
X123301389Y-59716389D01*
X123169841Y-59569406D01*
X123061684Y-59413696D01*
X122974680Y-59245149D01*
X122906592Y-59059654D01*
X122870788Y-58925333D01*
X122865521Y-58899947D01*
X122860993Y-58870972D01*
X122857127Y-58836034D01*
X122853845Y-58792758D01*
X122851070Y-58738770D01*
X122848724Y-58671695D01*
X122846731Y-58589161D01*
X122845012Y-58488792D01*
X122843491Y-58368214D01*
X122842089Y-58225053D01*
X122840731Y-58056934D01*
X122840216Y-57986944D01*
X122838953Y-57786960D01*
X122838321Y-57612780D01*
X122838434Y-57461990D01*
X122839411Y-57332175D01*
X122841366Y-57220922D01*
X122844418Y-57125817D01*
X122848682Y-57044445D01*
X122854275Y-56974393D01*
X122857919Y-56942722D01*
X123379833Y-56942722D01*
X123379833Y-58833611D01*
X123419561Y-58946500D01*
X123489283Y-59104591D01*
X123580555Y-59246799D01*
X123691154Y-59371209D01*
X123818857Y-59475906D01*
X123961440Y-59558974D01*
X124116681Y-59618499D01*
X124230217Y-59644877D01*
X124255950Y-59646883D01*
X124307280Y-59648701D01*
X124381583Y-59650305D01*
X124476234Y-59651670D01*
X124588608Y-59652771D01*
X124716081Y-59653584D01*
X124856029Y-59654084D01*
X125005826Y-59654244D01*
X125162849Y-59654041D01*
X125186056Y-59653980D01*
X126075056Y-59651488D01*
X126173833Y-59618402D01*
X126338374Y-59549403D01*
X126485632Y-59459101D01*
X126614166Y-59348992D01*
X126722533Y-59220573D01*
X126809293Y-59075343D01*
X126873003Y-58914797D01*
X126882419Y-58882553D01*
X126887522Y-58862207D01*
X126891891Y-58839448D01*
X126895582Y-58812043D01*
X126898653Y-58777760D01*
X126901159Y-58734367D01*
X126903155Y-58679631D01*
X126904700Y-58611321D01*
X126905847Y-58527202D01*
X126906358Y-58462553D01*
X128826868Y-58462553D01*
X128830619Y-58570577D01*
X128840770Y-58668249D01*
X128853779Y-58733641D01*
X128908904Y-58901938D01*
X128981146Y-59051340D01*
X129073593Y-59187437D01*
X129157239Y-59283303D01*
X129293193Y-59405695D01*
X129443223Y-59504984D01*
X129604565Y-59580271D01*
X129774454Y-59630659D01*
X129950128Y-59655248D01*
X130128822Y-59653141D01*
X130245593Y-59636971D01*
X130419059Y-59592040D01*
X130576662Y-59525211D01*
X130722346Y-59434453D01*
X130854261Y-59323296D01*
X130978871Y-59187101D01*
X131077685Y-59040573D01*
X131151938Y-58881500D01*
X131202864Y-58707672D01*
X131206077Y-58692528D01*
X131229142Y-58512863D01*
X131224870Y-58334310D01*
X131194106Y-58159546D01*
X131137691Y-57991250D01*
X131056469Y-57832096D01*
X130951282Y-57684764D01*
X130856859Y-57583331D01*
X130730196Y-57475891D01*
X130707335Y-57461440D01*
X133125403Y-57461440D01*
X133125500Y-57606430D01*
X133126119Y-57775265D01*
X133126934Y-57937816D01*
X133127906Y-58122878D01*
X133128863Y-58282136D01*
X133130035Y-58418010D01*
X133131649Y-58532915D01*
X133133936Y-58629270D01*
X133137125Y-58709493D01*
X133141445Y-58776002D01*
X133147125Y-58831214D01*
X133154395Y-58877548D01*
X133163483Y-58917420D01*
X133174619Y-58953250D01*
X133188032Y-58987454D01*
X133203952Y-59022450D01*
X133222606Y-59060656D01*
X133235939Y-59087611D01*
X133322715Y-59232915D01*
X133430243Y-59359124D01*
X133558227Y-59465941D01*
X133697585Y-59548735D01*
X133739432Y-59569542D01*
X133777127Y-59587519D01*
X133812998Y-59602865D01*
X133849373Y-59615781D01*
X133888577Y-59626467D01*
X133932938Y-59635124D01*
X133984784Y-59641952D01*
X134046442Y-59647152D01*
X134120238Y-59650923D01*
X134208500Y-59653467D01*
X134313555Y-59654983D01*
X134437730Y-59655672D01*
X134583353Y-59655735D01*
X134752750Y-59655371D01*
X134929778Y-59654838D01*
X135839945Y-59652055D01*
X135952833Y-59612434D01*
X136114774Y-59541305D01*
X136259426Y-59448216D01*
X136385501Y-59334455D01*
X136491712Y-59201309D01*
X136576771Y-59050066D01*
X136618768Y-58946500D01*
X136658389Y-58833611D01*
X136662412Y-57924960D01*
X136663188Y-57741576D01*
X136663736Y-57584129D01*
X136664002Y-57450331D01*
X136663934Y-57337897D01*
X136663479Y-57244542D01*
X136662586Y-57167979D01*
X136661200Y-57105923D01*
X136659270Y-57056087D01*
X136656742Y-57016187D01*
X136653564Y-56983935D01*
X136649684Y-56957047D01*
X136645048Y-56933236D01*
X136639605Y-56910216D01*
X136638973Y-56907710D01*
X136583837Y-56745017D01*
X136505057Y-56596812D01*
X136404025Y-56464557D01*
X136282135Y-56349714D01*
X136140778Y-56253744D01*
X135981346Y-56178109D01*
X135924611Y-56157731D01*
X135903870Y-56150971D01*
X135883916Y-56145196D01*
X135862422Y-56140315D01*
X135837061Y-56136235D01*
X135805506Y-56132865D01*
X135765430Y-56130115D01*
X135714504Y-56127892D01*
X135650402Y-56126105D01*
X135570797Y-56124663D01*
X135473361Y-56123474D01*
X135355767Y-56122447D01*
X135215687Y-56121490D01*
X135050795Y-56120511D01*
X134965056Y-56120024D01*
X134773188Y-56119024D01*
X134607178Y-56118446D01*
X134464663Y-56118428D01*
X134343280Y-56119107D01*
X134240666Y-56120624D01*
X134154458Y-56123114D01*
X134082293Y-56126718D01*
X134021809Y-56131572D01*
X133970642Y-56137815D01*
X133926429Y-56145586D01*
X133886807Y-56155022D01*
X133849414Y-56166262D01*
X133811887Y-56179444D01*
X133786778Y-56188936D01*
X133644666Y-56257969D01*
X133512474Y-56350331D01*
X133394364Y-56461952D01*
X133294497Y-56588758D01*
X133217034Y-56726678D01*
X133202257Y-56760937D01*
X133186580Y-56800409D01*
X133173097Y-56837597D01*
X133161657Y-56874876D01*
X133152106Y-56914622D01*
X133144294Y-56959211D01*
X133138067Y-57011017D01*
X133133275Y-57072415D01*
X133129764Y-57145781D01*
X133127383Y-57233491D01*
X133125980Y-57337919D01*
X133125403Y-57461440D01*
X130707335Y-57461440D01*
X130594813Y-57390314D01*
X130444879Y-57323387D01*
X130307197Y-57280223D01*
X130224943Y-57264853D01*
X130124644Y-57255887D01*
X130015739Y-57253319D01*
X129907671Y-57257148D01*
X129809877Y-57267369D01*
X129744331Y-57280425D01*
X129564103Y-57342056D01*
X129399547Y-57426629D01*
X129252076Y-57532731D01*
X129123104Y-57658947D01*
X129014045Y-57803864D01*
X128926312Y-57966069D01*
X128861320Y-58144146D01*
X128853981Y-58170775D01*
X128838552Y-58253212D01*
X128829513Y-58353618D01*
X128826868Y-58462553D01*
X126906358Y-58462553D01*
X126906655Y-58425045D01*
X126907178Y-58302615D01*
X126907473Y-58157680D01*
X126907596Y-57988009D01*
X126907611Y-57881111D01*
X126907611Y-56970944D01*
X126874535Y-56865608D01*
X126808587Y-56697849D01*
X126722313Y-56549630D01*
X126615879Y-56421127D01*
X126489453Y-56312514D01*
X126343204Y-56223966D01*
X126202056Y-56164121D01*
X126089167Y-56124277D01*
X124198278Y-56124277D01*
X124085389Y-56163898D01*
X123923448Y-56235027D01*
X123778797Y-56328116D01*
X123652721Y-56441878D01*
X123546510Y-56575024D01*
X123461451Y-56726266D01*
X123419454Y-56829833D01*
X123379833Y-56942722D01*
X122857919Y-56942722D01*
X122861312Y-56913247D01*
X122869912Y-56858592D01*
X122880190Y-56808015D01*
X122892262Y-56759102D01*
X122900977Y-56727583D01*
X122971031Y-56532521D01*
X123065022Y-56350403D01*
X123180999Y-56183147D01*
X123317008Y-56032673D01*
X123471097Y-55900901D01*
X123641312Y-55789751D01*
X123825701Y-55701141D01*
X124006100Y-55641200D01*
X124061858Y-55627439D01*
X124114554Y-55617242D01*
X124170724Y-55609902D01*
X124236904Y-55604712D01*
X124319632Y-55600968D01*
X124400536Y-55598578D01*
X124659238Y-55591970D01*
X124686142Y-55529205D01*
X124758614Y-55392441D01*
X124854784Y-55260813D01*
X124970140Y-55138556D01*
X125100173Y-55029906D01*
X125240373Y-54939097D01*
X125386228Y-54870365D01*
X125388915Y-54869342D01*
X125426306Y-54855054D01*
X125459682Y-54842482D01*
X125491018Y-54831510D01*
X125522287Y-54822021D01*
X125555461Y-54813899D01*
X125592516Y-54807027D01*
X125635422Y-54801289D01*
X125686155Y-54796568D01*
X125746688Y-54792748D01*
X125818993Y-54789712D01*
X125905045Y-54787344D01*
X126006816Y-54785528D01*
X126126280Y-54784147D01*
X126265410Y-54783084D01*
X126426180Y-54782224D01*
X126610564Y-54781449D01*
X126820533Y-54780643D01*
X126897028Y-54780346D01*
X127122017Y-54779376D01*
X127320159Y-54778330D01*
X127492828Y-54777182D01*
X127641400Y-54775909D01*
X127767250Y-54774485D01*
X127871752Y-54772887D01*
X127956281Y-54771090D01*
X128022212Y-54769069D01*
X128070920Y-54766800D01*
X128103780Y-54764259D01*
X128122167Y-54761420D01*
X128127482Y-54758446D01*
X128122734Y-54742709D01*
X128109224Y-54702494D01*
X128087690Y-54639902D01*
X128058868Y-54557030D01*
X128023494Y-54455978D01*
X127982304Y-54338844D01*
X127936037Y-54207728D01*
X127885427Y-54064728D01*
X127831213Y-53911943D01*
X127774129Y-53751472D01*
X127770952Y-53742551D01*
X127415162Y-52743713D01*
X127309553Y-52738223D01*
X127166799Y-52717699D01*
X127031851Y-52672401D01*
X126932158Y-52618745D01*
X126809594Y-52524577D01*
X126711451Y-52416471D01*
X126637984Y-52294863D01*
X126589449Y-52160186D01*
X126566103Y-52012877D01*
X126565033Y-51994913D01*
X126563961Y-51889549D01*
X126573885Y-51799166D01*
X126597109Y-51712155D01*
X126635934Y-51616907D01*
X126643022Y-51601666D01*
X126709637Y-51491080D01*
X126798510Y-51390165D01*
X126904200Y-51303199D01*
X127021264Y-51234460D01*
X127144257Y-51188225D01*
X127179945Y-51179701D01*
X127327571Y-51162941D01*
X127472224Y-51173137D01*
G36*
X126623714Y-76873917D02*
X126735478Y-76876435D01*
X126836800Y-76880761D01*
X126922167Y-76886894D01*
X126986063Y-76894835D01*
X126996401Y-76896766D01*
X127142115Y-76939980D01*
X127279247Y-77007189D01*
X127403853Y-77095380D01*
X127511988Y-77201537D01*
X127599709Y-77322646D01*
X127632177Y-77382666D01*
X127680408Y-77492618D01*
X127711628Y-77592571D01*
X127728354Y-77692902D01*
X127733111Y-77798944D01*
X127727827Y-77910158D01*
X127710278Y-78010837D01*
X127677919Y-78111445D01*
X127631998Y-78214744D01*
X127558788Y-78335048D01*
X127463854Y-78445549D01*
X127353412Y-78539918D01*
X127249866Y-78603809D01*
X127200858Y-78629633D01*
X127163218Y-78650902D01*
X127142696Y-78664302D01*
X127140566Y-78666777D01*
X127152242Y-78675914D01*
X127183439Y-78694302D01*
X127228402Y-78718628D01*
X127249866Y-78729745D01*
X127368725Y-78804995D01*
X127477468Y-78901867D01*
X127569880Y-79014032D01*
X127631998Y-79118811D01*
X127680510Y-79228821D01*
X127711834Y-79329117D01*
X127728512Y-79430161D01*
X127733111Y-79534611D01*
X127727827Y-79645824D01*
X127710278Y-79746504D01*
X127677919Y-79847112D01*
X127631998Y-79950411D01*
X127557044Y-80073621D01*
X127460390Y-80185286D01*
X127347648Y-80279730D01*
X127245535Y-80341146D01*
X127132026Y-80397959D01*
X127237156Y-80452078D01*
X127364805Y-80532987D01*
X127478643Y-80635442D01*
X127575439Y-80755164D01*
X127651961Y-80887877D01*
X127704979Y-81029304D01*
X127719519Y-81090568D01*
X127729579Y-81177261D01*
X127730647Y-81279159D01*
X127723391Y-81384949D01*
X127708478Y-81483318D01*
X127692663Y-81545444D01*
X127641161Y-81668377D01*
X127568474Y-81787981D01*
X127479899Y-81897330D01*
X127380732Y-81989494D01*
X127320386Y-82032385D01*
X127283814Y-82056695D01*
X127259467Y-82075296D01*
X127253359Y-82082359D01*
X127265257Y-82091493D01*
X127294956Y-82104774D01*
X127306250Y-82108982D01*
X127383528Y-82140457D01*
X127476555Y-82184545D01*
X127578126Y-82237433D01*
X127681041Y-82295307D01*
X127778097Y-82354355D01*
X127814820Y-82378216D01*
X128034687Y-82540910D01*
X128234808Y-82723071D01*
X128414257Y-82923135D01*
X128572104Y-83139535D01*
X128707422Y-83370706D01*
X128819284Y-83615083D01*
X128906761Y-83871099D01*
X128968926Y-84137190D01*
X129002263Y-84381777D01*
X129008227Y-84449534D01*
X129013059Y-84509438D01*
X129016215Y-84554418D01*
X129017174Y-84575805D01*
X129017222Y-84607555D01*
X123655000Y-84607555D01*
X123655276Y-84505250D01*
X123665880Y-84320567D01*
X123695637Y-84123346D01*
X123742883Y-83920108D01*
X123805958Y-83717374D01*
X123883198Y-83521665D01*
X123933011Y-83415585D01*
X124014468Y-83262000D01*
X124097650Y-83125802D01*
X124188259Y-82998985D01*
X124291997Y-82873549D01*
X124409521Y-82746695D01*
X124607643Y-82561135D01*
X124821440Y-82397374D01*
X125048607Y-82256857D01*
X125286839Y-82141028D01*
X125505017Y-82060282D01*
X125668756Y-82008302D01*
X125575573Y-81913115D01*
X125472271Y-81792093D01*
X125395538Y-81665855D01*
X125343762Y-81530724D01*
X125315331Y-81383017D01*
X125309460Y-81305555D01*
X125310414Y-81175146D01*
X125326617Y-81059399D01*
X125360172Y-80948005D01*
X125401457Y-80854000D01*
X125459629Y-80758054D01*
X125537527Y-80662018D01*
X125628029Y-80573034D01*
X125724013Y-80498242D01*
X125802082Y-80452378D01*
X125910108Y-80399472D01*
X125797277Y-80342998D01*
X125675726Y-80267687D01*
X125565179Y-80170906D01*
X125471481Y-80058529D01*
X125407329Y-79950846D01*
X125358835Y-79840976D01*
X125327476Y-79740921D01*
X125310714Y-79640259D01*
X125306000Y-79534611D01*
X125311248Y-79423722D01*
X125328684Y-79323339D01*
X125360844Y-79223040D01*
X125407329Y-79118376D01*
X125481088Y-78996993D01*
X125575972Y-78887071D01*
X125686389Y-78794196D01*
X125797904Y-78728120D01*
X125848131Y-78703287D01*
X125886916Y-78682708D01*
X125908501Y-78669503D01*
X125911069Y-78666777D01*
X125899231Y-78657990D01*
X125867517Y-78640357D01*
X125821628Y-78616964D01*
X125795720Y-78604346D01*
X125674494Y-78531327D01*
X125564613Y-78435878D01*
X125471152Y-78323088D01*
X125407113Y-78214744D01*
X125358601Y-78104734D01*
X125327278Y-78004438D01*
X125310599Y-77903394D01*
X125306000Y-77798944D01*
X125311203Y-77688521D01*
X125328491Y-77588416D01*
X125360379Y-77488250D01*
X125406934Y-77382666D01*
X125483918Y-77255681D01*
X125583134Y-77142258D01*
X125700639Y-77045412D01*
X125832487Y-76968158D01*
X125974736Y-76913510D01*
X126042711Y-76896766D01*
X126101305Y-76888439D01*
X126182548Y-76881919D01*
X126280926Y-76877207D01*
X126390923Y-76874303D01*
X126507024Y-76873206D01*
X126623714Y-76873917D01*
X126623714Y-76873917D01*
G37*
X126623714Y-76873917D02*
X126735478Y-76876435D01*
X126836800Y-76880761D01*
X126922167Y-76886894D01*
X126986063Y-76894835D01*
X126996401Y-76896766D01*
X127142115Y-76939980D01*
X127279247Y-77007189D01*
X127403853Y-77095380D01*
X127511988Y-77201537D01*
X127599709Y-77322646D01*
X127632177Y-77382666D01*
X127680408Y-77492618D01*
X127711628Y-77592571D01*
X127728354Y-77692902D01*
X127733111Y-77798944D01*
X127727827Y-77910158D01*
X127710278Y-78010837D01*
X127677919Y-78111445D01*
X127631998Y-78214744D01*
X127558788Y-78335048D01*
X127463854Y-78445549D01*
X127353412Y-78539918D01*
X127249866Y-78603809D01*
X127200858Y-78629633D01*
X127163218Y-78650902D01*
X127142696Y-78664302D01*
X127140566Y-78666777D01*
X127152242Y-78675914D01*
X127183439Y-78694302D01*
X127228402Y-78718628D01*
X127249866Y-78729745D01*
X127368725Y-78804995D01*
X127477468Y-78901867D01*
X127569880Y-79014032D01*
X127631998Y-79118811D01*
X127680510Y-79228821D01*
X127711834Y-79329117D01*
X127728512Y-79430161D01*
X127733111Y-79534611D01*
X127727827Y-79645824D01*
X127710278Y-79746504D01*
X127677919Y-79847112D01*
X127631998Y-79950411D01*
X127557044Y-80073621D01*
X127460390Y-80185286D01*
X127347648Y-80279730D01*
X127245535Y-80341146D01*
X127132026Y-80397959D01*
X127237156Y-80452078D01*
X127364805Y-80532987D01*
X127478643Y-80635442D01*
X127575439Y-80755164D01*
X127651961Y-80887877D01*
X127704979Y-81029304D01*
X127719519Y-81090568D01*
X127729579Y-81177261D01*
X127730647Y-81279159D01*
X127723391Y-81384949D01*
X127708478Y-81483318D01*
X127692663Y-81545444D01*
X127641161Y-81668377D01*
X127568474Y-81787981D01*
X127479899Y-81897330D01*
X127380732Y-81989494D01*
X127320386Y-82032385D01*
X127283814Y-82056695D01*
X127259467Y-82075296D01*
X127253359Y-82082359D01*
X127265257Y-82091493D01*
X127294956Y-82104774D01*
X127306250Y-82108982D01*
X127383528Y-82140457D01*
X127476555Y-82184545D01*
X127578126Y-82237433D01*
X127681041Y-82295307D01*
X127778097Y-82354355D01*
X127814820Y-82378216D01*
X128034687Y-82540910D01*
X128234808Y-82723071D01*
X128414257Y-82923135D01*
X128572104Y-83139535D01*
X128707422Y-83370706D01*
X128819284Y-83615083D01*
X128906761Y-83871099D01*
X128968926Y-84137190D01*
X129002263Y-84381777D01*
X129008227Y-84449534D01*
X129013059Y-84509438D01*
X129016215Y-84554418D01*
X129017174Y-84575805D01*
X129017222Y-84607555D01*
X123655000Y-84607555D01*
X123655276Y-84505250D01*
X123665880Y-84320567D01*
X123695637Y-84123346D01*
X123742883Y-83920108D01*
X123805958Y-83717374D01*
X123883198Y-83521665D01*
X123933011Y-83415585D01*
X124014468Y-83262000D01*
X124097650Y-83125802D01*
X124188259Y-82998985D01*
X124291997Y-82873549D01*
X124409521Y-82746695D01*
X124607643Y-82561135D01*
X124821440Y-82397374D01*
X125048607Y-82256857D01*
X125286839Y-82141028D01*
X125505017Y-82060282D01*
X125668756Y-82008302D01*
X125575573Y-81913115D01*
X125472271Y-81792093D01*
X125395538Y-81665855D01*
X125343762Y-81530724D01*
X125315331Y-81383017D01*
X125309460Y-81305555D01*
X125310414Y-81175146D01*
X125326617Y-81059399D01*
X125360172Y-80948005D01*
X125401457Y-80854000D01*
X125459629Y-80758054D01*
X125537527Y-80662018D01*
X125628029Y-80573034D01*
X125724013Y-80498242D01*
X125802082Y-80452378D01*
X125910108Y-80399472D01*
X125797277Y-80342998D01*
X125675726Y-80267687D01*
X125565179Y-80170906D01*
X125471481Y-80058529D01*
X125407329Y-79950846D01*
X125358835Y-79840976D01*
X125327476Y-79740921D01*
X125310714Y-79640259D01*
X125306000Y-79534611D01*
X125311248Y-79423722D01*
X125328684Y-79323339D01*
X125360844Y-79223040D01*
X125407329Y-79118376D01*
X125481088Y-78996993D01*
X125575972Y-78887071D01*
X125686389Y-78794196D01*
X125797904Y-78728120D01*
X125848131Y-78703287D01*
X125886916Y-78682708D01*
X125908501Y-78669503D01*
X125911069Y-78666777D01*
X125899231Y-78657990D01*
X125867517Y-78640357D01*
X125821628Y-78616964D01*
X125795720Y-78604346D01*
X125674494Y-78531327D01*
X125564613Y-78435878D01*
X125471152Y-78323088D01*
X125407113Y-78214744D01*
X125358601Y-78104734D01*
X125327278Y-78004438D01*
X125310599Y-77903394D01*
X125306000Y-77798944D01*
X125311203Y-77688521D01*
X125328491Y-77588416D01*
X125360379Y-77488250D01*
X125406934Y-77382666D01*
X125483918Y-77255681D01*
X125583134Y-77142258D01*
X125700639Y-77045412D01*
X125832487Y-76968158D01*
X125974736Y-76913510D01*
X126042711Y-76896766D01*
X126101305Y-76888439D01*
X126182548Y-76881919D01*
X126280926Y-76877207D01*
X126390923Y-76874303D01*
X126507024Y-76873206D01*
X126623714Y-76873917D01*
G36*
X133366010Y-76917186D02*
X133464225Y-76917886D01*
X133542073Y-76919309D01*
X133603481Y-76921664D01*
X133652374Y-76925163D01*
X133692680Y-76930014D01*
X133728325Y-76936428D01*
X133763235Y-76944614D01*
X133764066Y-76944827D01*
X133907861Y-76993568D01*
X134036429Y-77063473D01*
X134155128Y-77157608D01*
X134183089Y-77184490D01*
X134289778Y-77307408D01*
X134369564Y-77437824D01*
X134423158Y-77577413D01*
X134451272Y-77727849D01*
X134456218Y-77827166D01*
X134452755Y-77935039D01*
X134440054Y-78027476D01*
X134415541Y-78115868D01*
X134376643Y-78211602D01*
X134362523Y-78241907D01*
X134292822Y-78359265D01*
X134201230Y-78469071D01*
X134094051Y-78564938D01*
X133977593Y-78640481D01*
X133959972Y-78649537D01*
X133843888Y-78707142D01*
X133891933Y-78722998D01*
X133942266Y-78745397D01*
X134005248Y-78781813D01*
X134072889Y-78827016D01*
X134137202Y-78875773D01*
X134175244Y-78908551D01*
X134248097Y-78988048D01*
X134316931Y-79085741D01*
X134375497Y-79191694D01*
X134416176Y-79291695D01*
X134435650Y-79358510D01*
X134447507Y-79419890D01*
X134453516Y-79487765D01*
X134455309Y-79555777D01*
X134452903Y-79663529D01*
X134441632Y-79755007D01*
X134419022Y-79841425D01*
X134382602Y-79933999D01*
X134362162Y-79978318D01*
X134296072Y-80089628D01*
X134208369Y-80196028D01*
X134105608Y-80290815D01*
X133994343Y-80367291D01*
X133967192Y-80382129D01*
X133858329Y-80438578D01*
X133960137Y-80487539D01*
X134060374Y-80547819D01*
X134158852Y-80628979D01*
X134248798Y-80724127D01*
X134323436Y-80826370D01*
X134361942Y-80896333D01*
X134418263Y-81035875D01*
X134450786Y-81168110D01*
X134460530Y-81299171D01*
X134449980Y-81425790D01*
X134413412Y-81584325D01*
X134353475Y-81727693D01*
X134269053Y-81858088D01*
X134178480Y-81959119D01*
X134140753Y-81996913D01*
X134113060Y-82026350D01*
X134099791Y-82042693D01*
X134099384Y-82044456D01*
X134114278Y-82049499D01*
X134149664Y-82060175D01*
X134198862Y-82074485D01*
X134217167Y-82079714D01*
X134279701Y-82099460D01*
X134356273Y-82126514D01*
X134435169Y-82156633D01*
X134479369Y-82174672D01*
X134722500Y-82292014D01*
X134950263Y-82432125D01*
X135161441Y-82593358D01*
X135354816Y-82774064D01*
X135529169Y-82972593D01*
X135683283Y-83187297D01*
X135815940Y-83416527D01*
X135925922Y-83658635D01*
X136012011Y-83911972D01*
X136072990Y-84174890D01*
X136100714Y-84369679D01*
X136107074Y-84437203D01*
X136111969Y-84502717D01*
X136114615Y-84555193D01*
X136114867Y-84568750D01*
X136115111Y-84635777D01*
X130752889Y-84635777D01*
X130752889Y-84564666D01*
X130756636Y-84474470D01*
X130767118Y-84365981D01*
X130783196Y-84248008D01*
X130803730Y-84129362D01*
X130818300Y-84058870D01*
X130890684Y-83796439D01*
X130988345Y-83545137D01*
X131110028Y-83306479D01*
X131254477Y-83081981D01*
X131420434Y-82873157D01*
X131606645Y-82681522D01*
X131811853Y-82508590D01*
X132034802Y-82355877D01*
X132274235Y-82224897D01*
X132378825Y-82176985D01*
X132441732Y-82148723D01*
X132480877Y-82128345D01*
X132499029Y-82114116D01*
X132498958Y-82104303D01*
X132497207Y-82102860D01*
X132375865Y-82011924D01*
X132278084Y-81924475D01*
X132200346Y-81836043D01*
X132139135Y-81742157D01*
X132090935Y-81638346D01*
X132059914Y-81546957D01*
X132030965Y-81401550D01*
X132028139Y-81254202D01*
X132049843Y-81108287D01*
X132094482Y-80967178D01*
X132160463Y-80834250D01*
X132246191Y-80712876D01*
X132350074Y-80606430D01*
X132470517Y-80518286D01*
X132570410Y-80466370D01*
X132631098Y-80439846D01*
X132521021Y-80382763D01*
X132407602Y-80311047D01*
X132301564Y-80219521D01*
X132209364Y-80114773D01*
X132137455Y-80003395D01*
X132124838Y-79978318D01*
X132081745Y-79879677D01*
X132053522Y-79791995D01*
X132037696Y-79704058D01*
X132031795Y-79604651D01*
X132031691Y-79555777D01*
X132034254Y-79473877D01*
X132041233Y-79408146D01*
X132054395Y-79346652D01*
X132070824Y-79291695D01*
X132116987Y-79180201D01*
X132180873Y-79069037D01*
X132256143Y-78968088D01*
X132322022Y-78899774D01*
X132371839Y-78859236D01*
X132432455Y-78816131D01*
X132496225Y-78775289D01*
X132555505Y-78741542D01*
X132602650Y-78719719D01*
X132611865Y-78716627D01*
X132623267Y-78710510D01*
X132619505Y-78701131D01*
X132597525Y-78686054D01*
X132554268Y-78662843D01*
X132527198Y-78649172D01*
X132408449Y-78576079D01*
X132298928Y-78482256D01*
X132204707Y-78373839D01*
X132131860Y-78256966D01*
X132124838Y-78242651D01*
X132081355Y-78142855D01*
X132052929Y-78053808D01*
X132037003Y-77964210D01*
X132031018Y-77862759D01*
X132030782Y-77827166D01*
X132043524Y-77668756D01*
X132081367Y-77522353D01*
X132144973Y-77386401D01*
X132235000Y-77259347D01*
X132303769Y-77184960D01*
X132423111Y-77083242D01*
X132551069Y-77006854D01*
X132692171Y-76953202D01*
X132722934Y-76944827D01*
X132757874Y-76936597D01*
X132793457Y-76930144D01*
X132833610Y-76925259D01*
X132882260Y-76921732D01*
X132943333Y-76919352D01*
X133020756Y-76917910D01*
X133118456Y-76917196D01*
X133240358Y-76917000D01*
X133243500Y-76917000D01*
X133366010Y-76917186D01*
X133366010Y-76917186D01*
G37*
X133366010Y-76917186D02*
X133464225Y-76917886D01*
X133542073Y-76919309D01*
X133603481Y-76921664D01*
X133652374Y-76925163D01*
X133692680Y-76930014D01*
X133728325Y-76936428D01*
X133763235Y-76944614D01*
X133764066Y-76944827D01*
X133907861Y-76993568D01*
X134036429Y-77063473D01*
X134155128Y-77157608D01*
X134183089Y-77184490D01*
X134289778Y-77307408D01*
X134369564Y-77437824D01*
X134423158Y-77577413D01*
X134451272Y-77727849D01*
X134456218Y-77827166D01*
X134452755Y-77935039D01*
X134440054Y-78027476D01*
X134415541Y-78115868D01*
X134376643Y-78211602D01*
X134362523Y-78241907D01*
X134292822Y-78359265D01*
X134201230Y-78469071D01*
X134094051Y-78564938D01*
X133977593Y-78640481D01*
X133959972Y-78649537D01*
X133843888Y-78707142D01*
X133891933Y-78722998D01*
X133942266Y-78745397D01*
X134005248Y-78781813D01*
X134072889Y-78827016D01*
X134137202Y-78875773D01*
X134175244Y-78908551D01*
X134248097Y-78988048D01*
X134316931Y-79085741D01*
X134375497Y-79191694D01*
X134416176Y-79291695D01*
X134435650Y-79358510D01*
X134447507Y-79419890D01*
X134453516Y-79487765D01*
X134455309Y-79555777D01*
X134452903Y-79663529D01*
X134441632Y-79755007D01*
X134419022Y-79841425D01*
X134382602Y-79933999D01*
X134362162Y-79978318D01*
X134296072Y-80089628D01*
X134208369Y-80196028D01*
X134105608Y-80290815D01*
X133994343Y-80367291D01*
X133967192Y-80382129D01*
X133858329Y-80438578D01*
X133960137Y-80487539D01*
X134060374Y-80547819D01*
X134158852Y-80628979D01*
X134248798Y-80724127D01*
X134323436Y-80826370D01*
X134361942Y-80896333D01*
X134418263Y-81035875D01*
X134450786Y-81168110D01*
X134460530Y-81299171D01*
X134449980Y-81425790D01*
X134413412Y-81584325D01*
X134353475Y-81727693D01*
X134269053Y-81858088D01*
X134178480Y-81959119D01*
X134140753Y-81996913D01*
X134113060Y-82026350D01*
X134099791Y-82042693D01*
X134099384Y-82044456D01*
X134114278Y-82049499D01*
X134149664Y-82060175D01*
X134198862Y-82074485D01*
X134217167Y-82079714D01*
X134279701Y-82099460D01*
X134356273Y-82126514D01*
X134435169Y-82156633D01*
X134479369Y-82174672D01*
X134722500Y-82292014D01*
X134950263Y-82432125D01*
X135161441Y-82593358D01*
X135354816Y-82774064D01*
X135529169Y-82972593D01*
X135683283Y-83187297D01*
X135815940Y-83416527D01*
X135925922Y-83658635D01*
X136012011Y-83911972D01*
X136072990Y-84174890D01*
X136100714Y-84369679D01*
X136107074Y-84437203D01*
X136111969Y-84502717D01*
X136114615Y-84555193D01*
X136114867Y-84568750D01*
X136115111Y-84635777D01*
X130752889Y-84635777D01*
X130752889Y-84564666D01*
X130756636Y-84474470D01*
X130767118Y-84365981D01*
X130783196Y-84248008D01*
X130803730Y-84129362D01*
X130818300Y-84058870D01*
X130890684Y-83796439D01*
X130988345Y-83545137D01*
X131110028Y-83306479D01*
X131254477Y-83081981D01*
X131420434Y-82873157D01*
X131606645Y-82681522D01*
X131811853Y-82508590D01*
X132034802Y-82355877D01*
X132274235Y-82224897D01*
X132378825Y-82176985D01*
X132441732Y-82148723D01*
X132480877Y-82128345D01*
X132499029Y-82114116D01*
X132498958Y-82104303D01*
X132497207Y-82102860D01*
X132375865Y-82011924D01*
X132278084Y-81924475D01*
X132200346Y-81836043D01*
X132139135Y-81742157D01*
X132090935Y-81638346D01*
X132059914Y-81546957D01*
X132030965Y-81401550D01*
X132028139Y-81254202D01*
X132049843Y-81108287D01*
X132094482Y-80967178D01*
X132160463Y-80834250D01*
X132246191Y-80712876D01*
X132350074Y-80606430D01*
X132470517Y-80518286D01*
X132570410Y-80466370D01*
X132631098Y-80439846D01*
X132521021Y-80382763D01*
X132407602Y-80311047D01*
X132301564Y-80219521D01*
X132209364Y-80114773D01*
X132137455Y-80003395D01*
X132124838Y-79978318D01*
X132081745Y-79879677D01*
X132053522Y-79791995D01*
X132037696Y-79704058D01*
X132031795Y-79604651D01*
X132031691Y-79555777D01*
X132034254Y-79473877D01*
X132041233Y-79408146D01*
X132054395Y-79346652D01*
X132070824Y-79291695D01*
X132116987Y-79180201D01*
X132180873Y-79069037D01*
X132256143Y-78968088D01*
X132322022Y-78899774D01*
X132371839Y-78859236D01*
X132432455Y-78816131D01*
X132496225Y-78775289D01*
X132555505Y-78741542D01*
X132602650Y-78719719D01*
X132611865Y-78716627D01*
X132623267Y-78710510D01*
X132619505Y-78701131D01*
X132597525Y-78686054D01*
X132554268Y-78662843D01*
X132527198Y-78649172D01*
X132408449Y-78576079D01*
X132298928Y-78482256D01*
X132204707Y-78373839D01*
X132131860Y-78256966D01*
X132124838Y-78242651D01*
X132081355Y-78142855D01*
X132052929Y-78053808D01*
X132037003Y-77964210D01*
X132031018Y-77862759D01*
X132030782Y-77827166D01*
X132043524Y-77668756D01*
X132081367Y-77522353D01*
X132144973Y-77386401D01*
X132235000Y-77259347D01*
X132303769Y-77184960D01*
X132423111Y-77083242D01*
X132551069Y-77006854D01*
X132692171Y-76953202D01*
X132722934Y-76944827D01*
X132757874Y-76936597D01*
X132793457Y-76930144D01*
X132833610Y-76925259D01*
X132882260Y-76921732D01*
X132943333Y-76919352D01*
X133020756Y-76917910D01*
X133118456Y-76917196D01*
X133240358Y-76917000D01*
X133243500Y-76917000D01*
X133366010Y-76917186D01*
G36*
X145926958Y-50285826D02*
X145927992Y-50286832D01*
X145938814Y-50314428D01*
X145918420Y-50354313D01*
X145872247Y-50406250D01*
X145797082Y-50472679D01*
X145743054Y-50494381D01*
X145709651Y-50473927D01*
X145719013Y-50446079D01*
X145756976Y-50396620D01*
X145797014Y-50354509D01*
X145859709Y-50298335D01*
X145899934Y-50277037D01*
X145926958Y-50285826D01*
X145926958Y-50285826D01*
G37*
X145926958Y-50285826D02*
X145927992Y-50286832D01*
X145938814Y-50314428D01*
X145918420Y-50354313D01*
X145872247Y-50406250D01*
X145797082Y-50472679D01*
X145743054Y-50494381D01*
X145709651Y-50473927D01*
X145719013Y-50446079D01*
X145756976Y-50396620D01*
X145797014Y-50354509D01*
X145859709Y-50298335D01*
X145899934Y-50277037D01*
X145926958Y-50285826D01*
G36*
X145631889Y-50578206D02*
X145633366Y-50581369D01*
X145631665Y-50607112D01*
X145608802Y-50647640D01*
X145561021Y-50707531D01*
X145484567Y-50791363D01*
X145375684Y-50903714D01*
X145336070Y-50943728D01*
X145207694Y-51072114D01*
X145109843Y-51167499D01*
X145037915Y-51233582D01*
X144987309Y-51274061D01*
X144953421Y-51292635D01*
X144931650Y-51293000D01*
X144917932Y-51279739D01*
X144929476Y-51252992D01*
X144973799Y-51195922D01*
X145046820Y-51113161D01*
X145144455Y-51009343D01*
X145258136Y-50893586D01*
X145382985Y-50769760D01*
X145477106Y-50679186D01*
X145544778Y-50618304D01*
X145590280Y-50583554D01*
X145617890Y-50571375D01*
X145631889Y-50578206D01*
X145631889Y-50578206D01*
G37*
X145631889Y-50578206D02*
X145633366Y-50581369D01*
X145631665Y-50607112D01*
X145608802Y-50647640D01*
X145561021Y-50707531D01*
X145484567Y-50791363D01*
X145375684Y-50903714D01*
X145336070Y-50943728D01*
X145207694Y-51072114D01*
X145109843Y-51167499D01*
X145037915Y-51233582D01*
X144987309Y-51274061D01*
X144953421Y-51292635D01*
X144931650Y-51293000D01*
X144917932Y-51279739D01*
X144929476Y-51252992D01*
X144973799Y-51195922D01*
X145046820Y-51113161D01*
X145144455Y-51009343D01*
X145258136Y-50893586D01*
X145382985Y-50769760D01*
X145477106Y-50679186D01*
X145544778Y-50618304D01*
X145590280Y-50583554D01*
X145617890Y-50571375D01*
X145631889Y-50578206D01*
G36*
X146060982Y-49852254D02*
X146120368Y-49899077D01*
X146195021Y-49966956D01*
X146276918Y-50047579D01*
X146358036Y-50132634D01*
X146430353Y-50213808D01*
X146485847Y-50282790D01*
X146516495Y-50331267D01*
X146519529Y-50347306D01*
X146498375Y-50373522D01*
X146444813Y-50430804D01*
X146363003Y-50514958D01*
X146257103Y-50621786D01*
X146131275Y-50747094D01*
X145989678Y-50886686D01*
X145836473Y-51036367D01*
X145832248Y-51040475D01*
X145644011Y-51222659D01*
X145488843Y-51370788D01*
X145364254Y-51487088D01*
X145267750Y-51573780D01*
X145196841Y-51633087D01*
X145149034Y-51667233D01*
X145121838Y-51678439D01*
X145117742Y-51677835D01*
X145082236Y-51682818D01*
X145025273Y-51719902D01*
X144942603Y-51792132D01*
X144895921Y-51836876D01*
X144801654Y-51925069D01*
X144720699Y-51988339D01*
X144634691Y-52038496D01*
X144525264Y-52087351D01*
X144475200Y-52107448D01*
X144370561Y-52148760D01*
X144282074Y-52183701D01*
X144221434Y-52207652D01*
X144202364Y-52215190D01*
X144167427Y-52206970D01*
X144156629Y-52190669D01*
X144159828Y-52153225D01*
X144179392Y-52080118D01*
X144186904Y-52057607D01*
X144299284Y-52057607D01*
X144307296Y-52068363D01*
X144316819Y-52065766D01*
X144348284Y-52052801D01*
X144413824Y-52026217D01*
X144500366Y-51991315D01*
X144517337Y-51984489D01*
X144631972Y-51931405D01*
X144729398Y-51867423D01*
X144829736Y-51778713D01*
X144859023Y-51749651D01*
X145019610Y-51587623D01*
X144894276Y-51460375D01*
X144768941Y-51333127D01*
X144610355Y-51490304D01*
X144515005Y-51592572D01*
X144446945Y-51688137D01*
X144391436Y-51798829D01*
X144374447Y-51839690D01*
X144331162Y-51949931D01*
X144306673Y-52020350D01*
X144299284Y-52057607D01*
X144186904Y-52057607D01*
X144211971Y-51982502D01*
X144247003Y-51889584D01*
X144298328Y-51765154D01*
X144343481Y-51673037D01*
X144392508Y-51597405D01*
X144455453Y-51522429D01*
X144528023Y-51446765D01*
X144610679Y-51360375D01*
X144659847Y-51301307D01*
X144679994Y-51263119D01*
X144675591Y-51239371D01*
X144673496Y-51237056D01*
X144665518Y-51227417D01*
X144662754Y-51215545D01*
X144668132Y-51198192D01*
X144671484Y-51192877D01*
X144780369Y-51192877D01*
X144963699Y-51377438D01*
X145041350Y-51454361D01*
X145105509Y-51515578D01*
X145148035Y-51553457D01*
X145160591Y-51562000D01*
X145181290Y-51544723D01*
X145233222Y-51495867D01*
X145311817Y-51419889D01*
X145412506Y-51321249D01*
X145530717Y-51204405D01*
X145661882Y-51073817D01*
X145701184Y-51034520D01*
X146228215Y-50507041D01*
X145846389Y-50127763D01*
X144780369Y-51192877D01*
X144671484Y-51192877D01*
X144684584Y-51172106D01*
X144715042Y-51134039D01*
X144762435Y-51080739D01*
X144829694Y-51008957D01*
X144919751Y-50915442D01*
X145035535Y-50796944D01*
X145179978Y-50650214D01*
X145356011Y-50472001D01*
X145439804Y-50387250D01*
X145577116Y-50249624D01*
X145704300Y-50124512D01*
X145767712Y-50063470D01*
X145911641Y-50063470D01*
X146289061Y-50443426D01*
X146347330Y-50388685D01*
X146388028Y-50345679D01*
X146405583Y-50317663D01*
X146405600Y-50317256D01*
X146387864Y-50294344D01*
X146340018Y-50245807D01*
X146270098Y-50179564D01*
X146213069Y-50127569D01*
X146020539Y-49954572D01*
X145911641Y-50063470D01*
X145767712Y-50063470D01*
X145816674Y-50016338D01*
X145909551Y-49929525D01*
X145978246Y-49868497D01*
X146018076Y-49837678D01*
X146024885Y-49834800D01*
X146060982Y-49852254D01*
X146060982Y-49852254D01*
G37*
X146060982Y-49852254D02*
X146120368Y-49899077D01*
X146195021Y-49966956D01*
X146276918Y-50047579D01*
X146358036Y-50132634D01*
X146430353Y-50213808D01*
X146485847Y-50282790D01*
X146516495Y-50331267D01*
X146519529Y-50347306D01*
X146498375Y-50373522D01*
X146444813Y-50430804D01*
X146363003Y-50514958D01*
X146257103Y-50621786D01*
X146131275Y-50747094D01*
X145989678Y-50886686D01*
X145836473Y-51036367D01*
X145832248Y-51040475D01*
X145644011Y-51222659D01*
X145488843Y-51370788D01*
X145364254Y-51487088D01*
X145267750Y-51573780D01*
X145196841Y-51633087D01*
X145149034Y-51667233D01*
X145121838Y-51678439D01*
X145117742Y-51677835D01*
X145082236Y-51682818D01*
X145025273Y-51719902D01*
X144942603Y-51792132D01*
X144895921Y-51836876D01*
X144801654Y-51925069D01*
X144720699Y-51988339D01*
X144634691Y-52038496D01*
X144525264Y-52087351D01*
X144475200Y-52107448D01*
X144370561Y-52148760D01*
X144282074Y-52183701D01*
X144221434Y-52207652D01*
X144202364Y-52215190D01*
X144167427Y-52206970D01*
X144156629Y-52190669D01*
X144159828Y-52153225D01*
X144179392Y-52080118D01*
X144186904Y-52057607D01*
X144299284Y-52057607D01*
X144307296Y-52068363D01*
X144316819Y-52065766D01*
X144348284Y-52052801D01*
X144413824Y-52026217D01*
X144500366Y-51991315D01*
X144517337Y-51984489D01*
X144631972Y-51931405D01*
X144729398Y-51867423D01*
X144829736Y-51778713D01*
X144859023Y-51749651D01*
X145019610Y-51587623D01*
X144894276Y-51460375D01*
X144768941Y-51333127D01*
X144610355Y-51490304D01*
X144515005Y-51592572D01*
X144446945Y-51688137D01*
X144391436Y-51798829D01*
X144374447Y-51839690D01*
X144331162Y-51949931D01*
X144306673Y-52020350D01*
X144299284Y-52057607D01*
X144186904Y-52057607D01*
X144211971Y-51982502D01*
X144247003Y-51889584D01*
X144298328Y-51765154D01*
X144343481Y-51673037D01*
X144392508Y-51597405D01*
X144455453Y-51522429D01*
X144528023Y-51446765D01*
X144610679Y-51360375D01*
X144659847Y-51301307D01*
X144679994Y-51263119D01*
X144675591Y-51239371D01*
X144673496Y-51237056D01*
X144665518Y-51227417D01*
X144662754Y-51215545D01*
X144668132Y-51198192D01*
X144671484Y-51192877D01*
X144780369Y-51192877D01*
X144963699Y-51377438D01*
X145041350Y-51454361D01*
X145105509Y-51515578D01*
X145148035Y-51553457D01*
X145160591Y-51562000D01*
X145181290Y-51544723D01*
X145233222Y-51495867D01*
X145311817Y-51419889D01*
X145412506Y-51321249D01*
X145530717Y-51204405D01*
X145661882Y-51073817D01*
X145701184Y-51034520D01*
X146228215Y-50507041D01*
X145846389Y-50127763D01*
X144780369Y-51192877D01*
X144671484Y-51192877D01*
X144684584Y-51172106D01*
X144715042Y-51134039D01*
X144762435Y-51080739D01*
X144829694Y-51008957D01*
X144919751Y-50915442D01*
X145035535Y-50796944D01*
X145179978Y-50650214D01*
X145356011Y-50472001D01*
X145439804Y-50387250D01*
X145577116Y-50249624D01*
X145704300Y-50124512D01*
X145767712Y-50063470D01*
X145911641Y-50063470D01*
X146289061Y-50443426D01*
X146347330Y-50388685D01*
X146388028Y-50345679D01*
X146405583Y-50317663D01*
X146405600Y-50317256D01*
X146387864Y-50294344D01*
X146340018Y-50245807D01*
X146270098Y-50179564D01*
X146213069Y-50127569D01*
X146020539Y-49954572D01*
X145911641Y-50063470D01*
X145767712Y-50063470D01*
X145816674Y-50016338D01*
X145909551Y-49929525D01*
X145978246Y-49868497D01*
X146018076Y-49837678D01*
X146024885Y-49834800D01*
X146060982Y-49852254D01*
G36*
X144337494Y-49803180D02*
X144384207Y-49856771D01*
X144452056Y-49938850D01*
X144536168Y-50043491D01*
X144631671Y-50164770D01*
X144661354Y-50202919D01*
X144778139Y-50355301D01*
X144864384Y-50472751D01*
X144922327Y-50559147D01*
X144954207Y-50618367D01*
X144962261Y-50654290D01*
X144948725Y-50670794D01*
X144932568Y-50673000D01*
X144910574Y-50653964D01*
X144862725Y-50601004D01*
X144794295Y-50520339D01*
X144710560Y-50418191D01*
X144616793Y-50300778D01*
X144614878Y-50298350D01*
X144521174Y-50180335D01*
X144437851Y-50076918D01*
X144370108Y-49994430D01*
X144323146Y-49939202D01*
X144302165Y-49917565D01*
X144302061Y-49917523D01*
X144278580Y-49930997D01*
X144221500Y-49971627D01*
X144136798Y-50034726D01*
X144030453Y-50115603D01*
X143908443Y-50209569D01*
X143776748Y-50311937D01*
X143641346Y-50418015D01*
X143508215Y-50523116D01*
X143383334Y-50622550D01*
X143272682Y-50711628D01*
X143182237Y-50785661D01*
X143117978Y-50839961D01*
X143085883Y-50869837D01*
X143083427Y-50873314D01*
X143096687Y-50899189D01*
X143138170Y-50955899D01*
X143202304Y-51036353D01*
X143283513Y-51133462D01*
X143333455Y-51191421D01*
X143431760Y-51303742D01*
X143503473Y-51382889D01*
X143555117Y-51434214D01*
X143593214Y-51463067D01*
X143624286Y-51474799D01*
X143654854Y-51474762D01*
X143674803Y-51471479D01*
X143778601Y-51472558D01*
X143862688Y-51511126D01*
X143923643Y-51576861D01*
X143958043Y-51659442D01*
X143962467Y-51748544D01*
X143933493Y-51833847D01*
X143867699Y-51905026D01*
X143826491Y-51929075D01*
X143730065Y-51962875D01*
X143651599Y-51957562D01*
X143574312Y-51911084D01*
X143556920Y-51896132D01*
X143491230Y-51806240D01*
X143481063Y-51750260D01*
X143568836Y-51750260D01*
X143599602Y-51810394D01*
X143653050Y-51852457D01*
X143720120Y-51867197D01*
X143791750Y-51845359D01*
X143819149Y-51824763D01*
X143858710Y-51760336D01*
X143860579Y-51686564D01*
X143830490Y-51618946D01*
X143774177Y-51572985D01*
X143721963Y-51562000D01*
X143659506Y-51579533D01*
X143611600Y-51612800D01*
X143569815Y-51681311D01*
X143568836Y-51750260D01*
X143481063Y-51750260D01*
X143471629Y-51698321D01*
X143491708Y-51598157D01*
X143493444Y-51570577D01*
X143478387Y-51532430D01*
X143442338Y-51477562D01*
X143381098Y-51399821D01*
X143290467Y-51293057D01*
X143257623Y-51255257D01*
X143167958Y-51154302D01*
X143088739Y-51068622D01*
X143026391Y-51004899D01*
X142987342Y-50969814D01*
X142978552Y-50965100D01*
X142949572Y-50979863D01*
X142890767Y-51019560D01*
X142811057Y-51077306D01*
X142719366Y-51146213D01*
X142624616Y-51219394D01*
X142535730Y-51289962D01*
X142461629Y-51351030D01*
X142411236Y-51395712D01*
X142393448Y-51416724D01*
X142408455Y-51441374D01*
X142451076Y-51499452D01*
X142516759Y-51585066D01*
X142600954Y-51692322D01*
X142699110Y-51815328D01*
X142749594Y-51877921D01*
X142891657Y-52050442D01*
X143006006Y-52182715D01*
X143092270Y-52274335D01*
X143150078Y-52324897D01*
X143169704Y-52335084D01*
X143217935Y-52336767D01*
X143266364Y-52310009D01*
X143317159Y-52261237D01*
X143378816Y-52204135D01*
X143436238Y-52177941D01*
X143513818Y-52171600D01*
X143514921Y-52171600D01*
X143604291Y-52180858D01*
X143665370Y-52213172D01*
X143681489Y-52228750D01*
X143740758Y-52323006D01*
X143755885Y-52421431D01*
X143731465Y-52513858D01*
X143672090Y-52590118D01*
X143582354Y-52640043D01*
X143489286Y-52654200D01*
X143401902Y-52632845D01*
X143324363Y-52578195D01*
X143275521Y-52504370D01*
X143271453Y-52491029D01*
X143249760Y-52447072D01*
X143203307Y-52426216D01*
X143161099Y-52420777D01*
X143128840Y-52416093D01*
X143097783Y-52404552D01*
X143077080Y-52390712D01*
X143362016Y-52390712D01*
X143373792Y-52457223D01*
X143415125Y-52512263D01*
X143475558Y-52547214D01*
X143544634Y-52553461D01*
X143611894Y-52522389D01*
X143622485Y-52512685D01*
X143652187Y-52458353D01*
X143662400Y-52398971D01*
X143641796Y-52325182D01*
X143589518Y-52277087D01*
X143519863Y-52258763D01*
X143447127Y-52274288D01*
X143390255Y-52321346D01*
X143362016Y-52390712D01*
X143077080Y-52390712D01*
X143063012Y-52381308D01*
X143019610Y-52341517D01*
X142962658Y-52280334D01*
X142887239Y-52192914D01*
X142788436Y-52074412D01*
X142697524Y-51964040D01*
X142591187Y-51834797D01*
X142495405Y-51718669D01*
X142414957Y-51621427D01*
X142354624Y-51548844D01*
X142319186Y-51506693D01*
X142312121Y-51498654D01*
X142286195Y-51505106D01*
X142234042Y-51536183D01*
X142167495Y-51582863D01*
X142098382Y-51636122D01*
X142038537Y-51686936D01*
X141999788Y-51726281D01*
X141991747Y-51743017D01*
X142008670Y-51766286D01*
X142054254Y-51824933D01*
X142125217Y-51914835D01*
X142218276Y-52031871D01*
X142330149Y-52171921D01*
X142457551Y-52330860D01*
X142597201Y-52504569D01*
X142694623Y-52625478D01*
X143390547Y-53488408D01*
X143640773Y-53283614D01*
X143891000Y-53078821D01*
X143891000Y-52990478D01*
X143997443Y-52990478D01*
X144032335Y-53057537D01*
X144049750Y-53072613D01*
X144126208Y-53104380D01*
X144196665Y-53086284D01*
X144256230Y-53027685D01*
X144289951Y-52975404D01*
X144292969Y-52935763D01*
X144270686Y-52887985D01*
X144215660Y-52832742D01*
X144141668Y-52809449D01*
X144067916Y-52821584D01*
X144033885Y-52845142D01*
X143997465Y-52912582D01*
X143997443Y-52990478D01*
X143891000Y-52990478D01*
X143891000Y-52957668D01*
X143896152Y-52876479D01*
X143917997Y-52822670D01*
X143966120Y-52773318D01*
X143969148Y-52770757D01*
X144068360Y-52714228D01*
X144168769Y-52707015D01*
X144264189Y-52748960D01*
X144299353Y-52779246D01*
X144356263Y-52867486D01*
X144375397Y-52970142D01*
X144354792Y-53069539D01*
X144335421Y-53103804D01*
X144266752Y-53162908D01*
X144174030Y-53195620D01*
X144080146Y-53194961D01*
X144058105Y-53188362D01*
X144000875Y-53169270D01*
X143967235Y-53162200D01*
X143942005Y-53177039D01*
X143886801Y-53216690D01*
X143811013Y-53273855D01*
X143724030Y-53341235D01*
X143635243Y-53411531D01*
X143554040Y-53477445D01*
X143489813Y-53531678D01*
X143474987Y-53544824D01*
X143480987Y-53570685D01*
X143513125Y-53623755D01*
X143563216Y-53693788D01*
X143623079Y-53770537D01*
X143684531Y-53843758D01*
X143739390Y-53903205D01*
X143779471Y-53938631D01*
X143793725Y-53943924D01*
X143818848Y-53927116D01*
X143878746Y-53883365D01*
X143967975Y-53816761D01*
X144081090Y-53731393D01*
X144212647Y-53631352D01*
X144357201Y-53520726D01*
X144361132Y-53517708D01*
X144524244Y-53392137D01*
X144651302Y-53293110D01*
X144746774Y-53216536D01*
X144815127Y-53158324D01*
X144860830Y-53114381D01*
X144888351Y-53080617D01*
X144902158Y-53052939D01*
X144906719Y-53027256D01*
X144906957Y-53017861D01*
X144896015Y-52952970D01*
X144858349Y-52921648D01*
X144854753Y-52920441D01*
X144797588Y-52878338D01*
X144755762Y-52802882D01*
X144736210Y-52710823D01*
X144736239Y-52710283D01*
X144829496Y-52710283D01*
X144851443Y-52782403D01*
X144872836Y-52810949D01*
X144938176Y-52850704D01*
X145014226Y-52853069D01*
X145080547Y-52818960D01*
X145096059Y-52800948D01*
X145132119Y-52720210D01*
X145118866Y-52647594D01*
X145084800Y-52603400D01*
X145015717Y-52560936D01*
X144946450Y-52559396D01*
X144886194Y-52589776D01*
X144844145Y-52643073D01*
X144829496Y-52710283D01*
X144736239Y-52710283D01*
X144739921Y-52643114D01*
X144773728Y-52557622D01*
X144838528Y-52500683D01*
X144943510Y-52457121D01*
X145039656Y-52462613D01*
X145132987Y-52517635D01*
X145140972Y-52524600D01*
X145197059Y-52585466D01*
X145220229Y-52648381D01*
X145223345Y-52700371D01*
X145201247Y-52809637D01*
X145138915Y-52893595D01*
X145069313Y-52934531D01*
X145024913Y-52973830D01*
X144999873Y-53054182D01*
X144999689Y-53055329D01*
X144993133Y-53086295D01*
X144981010Y-53115937D01*
X144958785Y-53148461D01*
X144921926Y-53188077D01*
X144865898Y-53238991D01*
X144786170Y-53305413D01*
X144678207Y-53391550D01*
X144537476Y-53501610D01*
X144423920Y-53589804D01*
X144278542Y-53703309D01*
X144147343Y-53807159D01*
X144035419Y-53897205D01*
X143947869Y-53969297D01*
X143889788Y-54019286D01*
X143866275Y-54043023D01*
X143866020Y-54043941D01*
X143883443Y-54080467D01*
X143924843Y-54137581D01*
X143980098Y-54203928D01*
X144039083Y-54268151D01*
X144091672Y-54318894D01*
X144127741Y-54344802D01*
X144135098Y-54345740D01*
X144161344Y-54328497D01*
X144223211Y-54284320D01*
X144316253Y-54216538D01*
X144436024Y-54128477D01*
X144578076Y-54023465D01*
X144737963Y-53904829D01*
X144911239Y-53775896D01*
X145093456Y-53639995D01*
X145280167Y-53500451D01*
X145466927Y-53360593D01*
X145649288Y-53223747D01*
X145822803Y-53093241D01*
X145983027Y-52972403D01*
X146125512Y-52864559D01*
X146245811Y-52773037D01*
X146339478Y-52701164D01*
X146402066Y-52652268D01*
X146429128Y-52629676D01*
X146429886Y-52628637D01*
X146415117Y-52606061D01*
X146372911Y-52548962D01*
X146307344Y-52462663D01*
X146222491Y-52352486D01*
X146122427Y-52223754D01*
X146011815Y-52082537D01*
X145877732Y-51910779D01*
X145773577Y-51774151D01*
X145696868Y-51668663D01*
X145645124Y-51590328D01*
X145615862Y-51535155D01*
X145606600Y-51499157D01*
X145614857Y-51478344D01*
X145630900Y-51470343D01*
X145652410Y-51487715D01*
X145699578Y-51539643D01*
X145767625Y-51620008D01*
X145851773Y-51722690D01*
X145947244Y-51841573D01*
X146049260Y-51970537D01*
X146153043Y-52103464D01*
X146253816Y-52234236D01*
X146346799Y-52356733D01*
X146427215Y-52464838D01*
X146490287Y-52552432D01*
X146531236Y-52613396D01*
X146545300Y-52641284D01*
X146525601Y-52660811D01*
X146469376Y-52707313D01*
X146380932Y-52777548D01*
X146264579Y-52868272D01*
X146124622Y-52976241D01*
X145965371Y-53098212D01*
X145791132Y-53230940D01*
X145606214Y-53371182D01*
X145414925Y-53515694D01*
X145221571Y-53661233D01*
X145030462Y-53804555D01*
X144845904Y-53942417D01*
X144672206Y-54071574D01*
X144513674Y-54188783D01*
X144374618Y-54290800D01*
X144259345Y-54374382D01*
X144172162Y-54436284D01*
X144117378Y-54473264D01*
X144099780Y-54482723D01*
X144081131Y-54463448D01*
X144033187Y-54407840D01*
X143958572Y-54319086D01*
X143859912Y-54200372D01*
X143739831Y-54054884D01*
X143600955Y-53885808D01*
X143445909Y-53696329D01*
X143277318Y-53489635D01*
X143097808Y-53268911D01*
X142976600Y-53119533D01*
X142791516Y-52890787D01*
X142616152Y-52673195D01*
X142453097Y-52470023D01*
X142304938Y-52284537D01*
X142174264Y-52120005D01*
X142063665Y-51979692D01*
X141975728Y-51866865D01*
X141913042Y-51784790D01*
X141878195Y-51736733D01*
X141871700Y-51725329D01*
X141891018Y-51705414D01*
X141946187Y-51657544D01*
X142033023Y-51585040D01*
X142147345Y-51491221D01*
X142284971Y-51379409D01*
X142441719Y-51252922D01*
X142613407Y-51115082D01*
X142795855Y-50969209D01*
X142984879Y-50818623D01*
X143176298Y-50666644D01*
X143365930Y-50516593D01*
X143549593Y-50371789D01*
X143723106Y-50235553D01*
X143882286Y-50111206D01*
X144022952Y-50002067D01*
X144140922Y-49911457D01*
X144232014Y-49842695D01*
X144292046Y-49799103D01*
X144316790Y-49784000D01*
X144337494Y-49803180D01*
X144337494Y-49803180D01*
G37*
X144337494Y-49803180D02*
X144384207Y-49856771D01*
X144452056Y-49938850D01*
X144536168Y-50043491D01*
X144631671Y-50164770D01*
X144661354Y-50202919D01*
X144778139Y-50355301D01*
X144864384Y-50472751D01*
X144922327Y-50559147D01*
X144954207Y-50618367D01*
X144962261Y-50654290D01*
X144948725Y-50670794D01*
X144932568Y-50673000D01*
X144910574Y-50653964D01*
X144862725Y-50601004D01*
X144794295Y-50520339D01*
X144710560Y-50418191D01*
X144616793Y-50300778D01*
X144614878Y-50298350D01*
X144521174Y-50180335D01*
X144437851Y-50076918D01*
X144370108Y-49994430D01*
X144323146Y-49939202D01*
X144302165Y-49917565D01*
X144302061Y-49917523D01*
X144278580Y-49930997D01*
X144221500Y-49971627D01*
X144136798Y-50034726D01*
X144030453Y-50115603D01*
X143908443Y-50209569D01*
X143776748Y-50311937D01*
X143641346Y-50418015D01*
X143508215Y-50523116D01*
X143383334Y-50622550D01*
X143272682Y-50711628D01*
X143182237Y-50785661D01*
X143117978Y-50839961D01*
X143085883Y-50869837D01*
X143083427Y-50873314D01*
X143096687Y-50899189D01*
X143138170Y-50955899D01*
X143202304Y-51036353D01*
X143283513Y-51133462D01*
X143333455Y-51191421D01*
X143431760Y-51303742D01*
X143503473Y-51382889D01*
X143555117Y-51434214D01*
X143593214Y-51463067D01*
X143624286Y-51474799D01*
X143654854Y-51474762D01*
X143674803Y-51471479D01*
X143778601Y-51472558D01*
X143862688Y-51511126D01*
X143923643Y-51576861D01*
X143958043Y-51659442D01*
X143962467Y-51748544D01*
X143933493Y-51833847D01*
X143867699Y-51905026D01*
X143826491Y-51929075D01*
X143730065Y-51962875D01*
X143651599Y-51957562D01*
X143574312Y-51911084D01*
X143556920Y-51896132D01*
X143491230Y-51806240D01*
X143481063Y-51750260D01*
X143568836Y-51750260D01*
X143599602Y-51810394D01*
X143653050Y-51852457D01*
X143720120Y-51867197D01*
X143791750Y-51845359D01*
X143819149Y-51824763D01*
X143858710Y-51760336D01*
X143860579Y-51686564D01*
X143830490Y-51618946D01*
X143774177Y-51572985D01*
X143721963Y-51562000D01*
X143659506Y-51579533D01*
X143611600Y-51612800D01*
X143569815Y-51681311D01*
X143568836Y-51750260D01*
X143481063Y-51750260D01*
X143471629Y-51698321D01*
X143491708Y-51598157D01*
X143493444Y-51570577D01*
X143478387Y-51532430D01*
X143442338Y-51477562D01*
X143381098Y-51399821D01*
X143290467Y-51293057D01*
X143257623Y-51255257D01*
X143167958Y-51154302D01*
X143088739Y-51068622D01*
X143026391Y-51004899D01*
X142987342Y-50969814D01*
X142978552Y-50965100D01*
X142949572Y-50979863D01*
X142890767Y-51019560D01*
X142811057Y-51077306D01*
X142719366Y-51146213D01*
X142624616Y-51219394D01*
X142535730Y-51289962D01*
X142461629Y-51351030D01*
X142411236Y-51395712D01*
X142393448Y-51416724D01*
X142408455Y-51441374D01*
X142451076Y-51499452D01*
X142516759Y-51585066D01*
X142600954Y-51692322D01*
X142699110Y-51815328D01*
X142749594Y-51877921D01*
X142891657Y-52050442D01*
X143006006Y-52182715D01*
X143092270Y-52274335D01*
X143150078Y-52324897D01*
X143169704Y-52335084D01*
X143217935Y-52336767D01*
X143266364Y-52310009D01*
X143317159Y-52261237D01*
X143378816Y-52204135D01*
X143436238Y-52177941D01*
X143513818Y-52171600D01*
X143514921Y-52171600D01*
X143604291Y-52180858D01*
X143665370Y-52213172D01*
X143681489Y-52228750D01*
X143740758Y-52323006D01*
X143755885Y-52421431D01*
X143731465Y-52513858D01*
X143672090Y-52590118D01*
X143582354Y-52640043D01*
X143489286Y-52654200D01*
X143401902Y-52632845D01*
X143324363Y-52578195D01*
X143275521Y-52504370D01*
X143271453Y-52491029D01*
X143249760Y-52447072D01*
X143203307Y-52426216D01*
X143161099Y-52420777D01*
X143128840Y-52416093D01*
X143097783Y-52404552D01*
X143077080Y-52390712D01*
X143362016Y-52390712D01*
X143373792Y-52457223D01*
X143415125Y-52512263D01*
X143475558Y-52547214D01*
X143544634Y-52553461D01*
X143611894Y-52522389D01*
X143622485Y-52512685D01*
X143652187Y-52458353D01*
X143662400Y-52398971D01*
X143641796Y-52325182D01*
X143589518Y-52277087D01*
X143519863Y-52258763D01*
X143447127Y-52274288D01*
X143390255Y-52321346D01*
X143362016Y-52390712D01*
X143077080Y-52390712D01*
X143063012Y-52381308D01*
X143019610Y-52341517D01*
X142962658Y-52280334D01*
X142887239Y-52192914D01*
X142788436Y-52074412D01*
X142697524Y-51964040D01*
X142591187Y-51834797D01*
X142495405Y-51718669D01*
X142414957Y-51621427D01*
X142354624Y-51548844D01*
X142319186Y-51506693D01*
X142312121Y-51498654D01*
X142286195Y-51505106D01*
X142234042Y-51536183D01*
X142167495Y-51582863D01*
X142098382Y-51636122D01*
X142038537Y-51686936D01*
X141999788Y-51726281D01*
X141991747Y-51743017D01*
X142008670Y-51766286D01*
X142054254Y-51824933D01*
X142125217Y-51914835D01*
X142218276Y-52031871D01*
X142330149Y-52171921D01*
X142457551Y-52330860D01*
X142597201Y-52504569D01*
X142694623Y-52625478D01*
X143390547Y-53488408D01*
X143640773Y-53283614D01*
X143891000Y-53078821D01*
X143891000Y-52990478D01*
X143997443Y-52990478D01*
X144032335Y-53057537D01*
X144049750Y-53072613D01*
X144126208Y-53104380D01*
X144196665Y-53086284D01*
X144256230Y-53027685D01*
X144289951Y-52975404D01*
X144292969Y-52935763D01*
X144270686Y-52887985D01*
X144215660Y-52832742D01*
X144141668Y-52809449D01*
X144067916Y-52821584D01*
X144033885Y-52845142D01*
X143997465Y-52912582D01*
X143997443Y-52990478D01*
X143891000Y-52990478D01*
X143891000Y-52957668D01*
X143896152Y-52876479D01*
X143917997Y-52822670D01*
X143966120Y-52773318D01*
X143969148Y-52770757D01*
X144068360Y-52714228D01*
X144168769Y-52707015D01*
X144264189Y-52748960D01*
X144299353Y-52779246D01*
X144356263Y-52867486D01*
X144375397Y-52970142D01*
X144354792Y-53069539D01*
X144335421Y-53103804D01*
X144266752Y-53162908D01*
X144174030Y-53195620D01*
X144080146Y-53194961D01*
X144058105Y-53188362D01*
X144000875Y-53169270D01*
X143967235Y-53162200D01*
X143942005Y-53177039D01*
X143886801Y-53216690D01*
X143811013Y-53273855D01*
X143724030Y-53341235D01*
X143635243Y-53411531D01*
X143554040Y-53477445D01*
X143489813Y-53531678D01*
X143474987Y-53544824D01*
X143480987Y-53570685D01*
X143513125Y-53623755D01*
X143563216Y-53693788D01*
X143623079Y-53770537D01*
X143684531Y-53843758D01*
X143739390Y-53903205D01*
X143779471Y-53938631D01*
X143793725Y-53943924D01*
X143818848Y-53927116D01*
X143878746Y-53883365D01*
X143967975Y-53816761D01*
X144081090Y-53731393D01*
X144212647Y-53631352D01*
X144357201Y-53520726D01*
X144361132Y-53517708D01*
X144524244Y-53392137D01*
X144651302Y-53293110D01*
X144746774Y-53216536D01*
X144815127Y-53158324D01*
X144860830Y-53114381D01*
X144888351Y-53080617D01*
X144902158Y-53052939D01*
X144906719Y-53027256D01*
X144906957Y-53017861D01*
X144896015Y-52952970D01*
X144858349Y-52921648D01*
X144854753Y-52920441D01*
X144797588Y-52878338D01*
X144755762Y-52802882D01*
X144736210Y-52710823D01*
X144736239Y-52710283D01*
X144829496Y-52710283D01*
X144851443Y-52782403D01*
X144872836Y-52810949D01*
X144938176Y-52850704D01*
X145014226Y-52853069D01*
X145080547Y-52818960D01*
X145096059Y-52800948D01*
X145132119Y-52720210D01*
X145118866Y-52647594D01*
X145084800Y-52603400D01*
X145015717Y-52560936D01*
X144946450Y-52559396D01*
X144886194Y-52589776D01*
X144844145Y-52643073D01*
X144829496Y-52710283D01*
X144736239Y-52710283D01*
X144739921Y-52643114D01*
X144773728Y-52557622D01*
X144838528Y-52500683D01*
X144943510Y-52457121D01*
X145039656Y-52462613D01*
X145132987Y-52517635D01*
X145140972Y-52524600D01*
X145197059Y-52585466D01*
X145220229Y-52648381D01*
X145223345Y-52700371D01*
X145201247Y-52809637D01*
X145138915Y-52893595D01*
X145069313Y-52934531D01*
X145024913Y-52973830D01*
X144999873Y-53054182D01*
X144999689Y-53055329D01*
X144993133Y-53086295D01*
X144981010Y-53115937D01*
X144958785Y-53148461D01*
X144921926Y-53188077D01*
X144865898Y-53238991D01*
X144786170Y-53305413D01*
X144678207Y-53391550D01*
X144537476Y-53501610D01*
X144423920Y-53589804D01*
X144278542Y-53703309D01*
X144147343Y-53807159D01*
X144035419Y-53897205D01*
X143947869Y-53969297D01*
X143889788Y-54019286D01*
X143866275Y-54043023D01*
X143866020Y-54043941D01*
X143883443Y-54080467D01*
X143924843Y-54137581D01*
X143980098Y-54203928D01*
X144039083Y-54268151D01*
X144091672Y-54318894D01*
X144127741Y-54344802D01*
X144135098Y-54345740D01*
X144161344Y-54328497D01*
X144223211Y-54284320D01*
X144316253Y-54216538D01*
X144436024Y-54128477D01*
X144578076Y-54023465D01*
X144737963Y-53904829D01*
X144911239Y-53775896D01*
X145093456Y-53639995D01*
X145280167Y-53500451D01*
X145466927Y-53360593D01*
X145649288Y-53223747D01*
X145822803Y-53093241D01*
X145983027Y-52972403D01*
X146125512Y-52864559D01*
X146245811Y-52773037D01*
X146339478Y-52701164D01*
X146402066Y-52652268D01*
X146429128Y-52629676D01*
X146429886Y-52628637D01*
X146415117Y-52606061D01*
X146372911Y-52548962D01*
X146307344Y-52462663D01*
X146222491Y-52352486D01*
X146122427Y-52223754D01*
X146011815Y-52082537D01*
X145877732Y-51910779D01*
X145773577Y-51774151D01*
X145696868Y-51668663D01*
X145645124Y-51590328D01*
X145615862Y-51535155D01*
X145606600Y-51499157D01*
X145614857Y-51478344D01*
X145630900Y-51470343D01*
X145652410Y-51487715D01*
X145699578Y-51539643D01*
X145767625Y-51620008D01*
X145851773Y-51722690D01*
X145947244Y-51841573D01*
X146049260Y-51970537D01*
X146153043Y-52103464D01*
X146253816Y-52234236D01*
X146346799Y-52356733D01*
X146427215Y-52464838D01*
X146490287Y-52552432D01*
X146531236Y-52613396D01*
X146545300Y-52641284D01*
X146525601Y-52660811D01*
X146469376Y-52707313D01*
X146380932Y-52777548D01*
X146264579Y-52868272D01*
X146124622Y-52976241D01*
X145965371Y-53098212D01*
X145791132Y-53230940D01*
X145606214Y-53371182D01*
X145414925Y-53515694D01*
X145221571Y-53661233D01*
X145030462Y-53804555D01*
X144845904Y-53942417D01*
X144672206Y-54071574D01*
X144513674Y-54188783D01*
X144374618Y-54290800D01*
X144259345Y-54374382D01*
X144172162Y-54436284D01*
X144117378Y-54473264D01*
X144099780Y-54482723D01*
X144081131Y-54463448D01*
X144033187Y-54407840D01*
X143958572Y-54319086D01*
X143859912Y-54200372D01*
X143739831Y-54054884D01*
X143600955Y-53885808D01*
X143445909Y-53696329D01*
X143277318Y-53489635D01*
X143097808Y-53268911D01*
X142976600Y-53119533D01*
X142791516Y-52890787D01*
X142616152Y-52673195D01*
X142453097Y-52470023D01*
X142304938Y-52284537D01*
X142174264Y-52120005D01*
X142063665Y-51979692D01*
X141975728Y-51866865D01*
X141913042Y-51784790D01*
X141878195Y-51736733D01*
X141871700Y-51725329D01*
X141891018Y-51705414D01*
X141946187Y-51657544D01*
X142033023Y-51585040D01*
X142147345Y-51491221D01*
X142284971Y-51379409D01*
X142441719Y-51252922D01*
X142613407Y-51115082D01*
X142795855Y-50969209D01*
X142984879Y-50818623D01*
X143176298Y-50666644D01*
X143365930Y-50516593D01*
X143549593Y-50371789D01*
X143723106Y-50235553D01*
X143882286Y-50111206D01*
X144022952Y-50002067D01*
X144140922Y-49911457D01*
X144232014Y-49842695D01*
X144292046Y-49799103D01*
X144316790Y-49784000D01*
X144337494Y-49803180D01*
G36*
X139547600Y-55448200D02*
X138988800Y-55448200D01*
X138988800Y-55270400D01*
X139547600Y-55270400D01*
X139547600Y-55448200D01*
X139547600Y-55448200D01*
G37*
X139547600Y-55448200D02*
X138988800Y-55448200D01*
X138988800Y-55270400D01*
X139547600Y-55270400D01*
X139547600Y-55448200D01*
G36*
X149381993Y-54857536D02*
X149499090Y-54879171D01*
X149585987Y-54920592D01*
X149652379Y-54986186D01*
X149701250Y-55066813D01*
X149745546Y-55198977D01*
X149761399Y-55351271D01*
X149748832Y-55503783D01*
X149707865Y-55636603D01*
X149700616Y-55651079D01*
X149646767Y-55734439D01*
X149581803Y-55792489D01*
X149496175Y-55829209D01*
X149380332Y-55848578D01*
X149224725Y-55854577D01*
X149212242Y-55854600D01*
X149091537Y-55853328D01*
X149008473Y-55847965D01*
X148949918Y-55836184D01*
X148902744Y-55815660D01*
X148867562Y-55793559D01*
X148782223Y-55716735D01*
X148726974Y-55618578D01*
X148698855Y-55490911D01*
X148695435Y-55347602D01*
X148869400Y-55347602D01*
X148879605Y-55493585D01*
X148911360Y-55596412D01*
X148966371Y-55659691D01*
X149028656Y-55684340D01*
X149140135Y-55696894D01*
X149261413Y-55696705D01*
X149371482Y-55684695D01*
X149439671Y-55666250D01*
X149506567Y-55629157D01*
X149549035Y-55578028D01*
X149571963Y-55501883D01*
X149580241Y-55389740D01*
X149580600Y-55349686D01*
X149577907Y-55248796D01*
X149567112Y-55181965D01*
X149544138Y-55132612D01*
X149519299Y-55100366D01*
X149487282Y-55066437D01*
X149454107Y-55045438D01*
X149407190Y-55034276D01*
X149333948Y-55029861D01*
X149229245Y-55029100D01*
X149117482Y-55030375D01*
X149043523Y-55036012D01*
X148994398Y-55048723D01*
X148957138Y-55071222D01*
X148934946Y-55090677D01*
X148901266Y-55127157D01*
X148881579Y-55167475D01*
X148872208Y-55226044D01*
X148869476Y-55317273D01*
X148869400Y-55347602D01*
X148695435Y-55347602D01*
X148694908Y-55325558D01*
X148695239Y-55317392D01*
X148702952Y-55201180D01*
X148716527Y-55120666D01*
X148739444Y-55060805D01*
X148763452Y-55022366D01*
X148826994Y-54947842D01*
X148899421Y-54897641D01*
X148991865Y-54867636D01*
X149115458Y-54853701D01*
X149225000Y-54851300D01*
X149381993Y-54857536D01*
X149381993Y-54857536D01*
G37*
X149381993Y-54857536D02*
X149499090Y-54879171D01*
X149585987Y-54920592D01*
X149652379Y-54986186D01*
X149701250Y-55066813D01*
X149745546Y-55198977D01*
X149761399Y-55351271D01*
X149748832Y-55503783D01*
X149707865Y-55636603D01*
X149700616Y-55651079D01*
X149646767Y-55734439D01*
X149581803Y-55792489D01*
X149496175Y-55829209D01*
X149380332Y-55848578D01*
X149224725Y-55854577D01*
X149212242Y-55854600D01*
X149091537Y-55853328D01*
X149008473Y-55847965D01*
X148949918Y-55836184D01*
X148902744Y-55815660D01*
X148867562Y-55793559D01*
X148782223Y-55716735D01*
X148726974Y-55618578D01*
X148698855Y-55490911D01*
X148695435Y-55347602D01*
X148869400Y-55347602D01*
X148879605Y-55493585D01*
X148911360Y-55596412D01*
X148966371Y-55659691D01*
X149028656Y-55684340D01*
X149140135Y-55696894D01*
X149261413Y-55696705D01*
X149371482Y-55684695D01*
X149439671Y-55666250D01*
X149506567Y-55629157D01*
X149549035Y-55578028D01*
X149571963Y-55501883D01*
X149580241Y-55389740D01*
X149580600Y-55349686D01*
X149577907Y-55248796D01*
X149567112Y-55181965D01*
X149544138Y-55132612D01*
X149519299Y-55100366D01*
X149487282Y-55066437D01*
X149454107Y-55045438D01*
X149407190Y-55034276D01*
X149333948Y-55029861D01*
X149229245Y-55029100D01*
X149117482Y-55030375D01*
X149043523Y-55036012D01*
X148994398Y-55048723D01*
X148957138Y-55071222D01*
X148934946Y-55090677D01*
X148901266Y-55127157D01*
X148881579Y-55167475D01*
X148872208Y-55226044D01*
X148869476Y-55317273D01*
X148869400Y-55347602D01*
X148695435Y-55347602D01*
X148694908Y-55325558D01*
X148695239Y-55317392D01*
X148702952Y-55201180D01*
X148716527Y-55120666D01*
X148739444Y-55060805D01*
X148763452Y-55022366D01*
X148826994Y-54947842D01*
X148899421Y-54897641D01*
X148991865Y-54867636D01*
X149115458Y-54853701D01*
X149225000Y-54851300D01*
X149381993Y-54857536D01*
G36*
X147701000Y-55270400D02*
X148336000Y-55270400D01*
X148336000Y-54864000D01*
X148513800Y-54864000D01*
X148513800Y-55854600D01*
X148336000Y-55854600D01*
X148336000Y-55448200D01*
X147701000Y-55448200D01*
X147701000Y-55854600D01*
X147523200Y-55854600D01*
X147523200Y-54864000D01*
X147701000Y-54864000D01*
X147701000Y-55270400D01*
X147701000Y-55270400D01*
G37*
X147701000Y-55270400D02*
X148336000Y-55270400D01*
X148336000Y-54864000D01*
X148513800Y-54864000D01*
X148513800Y-55854600D01*
X148336000Y-55854600D01*
X148336000Y-55448200D01*
X147701000Y-55448200D01*
X147701000Y-55854600D01*
X147523200Y-55854600D01*
X147523200Y-54864000D01*
X147701000Y-54864000D01*
X147701000Y-55270400D01*
G36*
X146457485Y-54891123D02*
X146538475Y-54960731D01*
X146647849Y-55068446D01*
X146766671Y-55188978D01*
X146875603Y-55298917D01*
X146972047Y-55395353D01*
X147050485Y-55472841D01*
X147105400Y-55525938D01*
X147131272Y-55549201D01*
X147132427Y-55549800D01*
X147135999Y-55525942D01*
X147138986Y-55460541D01*
X147141123Y-55362851D01*
X147142148Y-55242127D01*
X147142200Y-55206900D01*
X147142200Y-54864000D01*
X147295696Y-54864000D01*
X147288798Y-55352950D01*
X147285884Y-55545194D01*
X147280426Y-55689211D01*
X147268171Y-55786545D01*
X147244865Y-55838741D01*
X147206255Y-55847345D01*
X147148087Y-55813902D01*
X147066108Y-55739957D01*
X146956065Y-55627056D01*
X146848112Y-55513049D01*
X146744426Y-55404603D01*
X146652173Y-55310182D01*
X146577157Y-55235559D01*
X146525181Y-55186507D01*
X146502049Y-55168800D01*
X146502029Y-55168800D01*
X146494634Y-55192655D01*
X146488452Y-55258052D01*
X146484027Y-55355737D01*
X146481906Y-55476455D01*
X146481800Y-55511700D01*
X146481800Y-55854600D01*
X146329400Y-55854600D01*
X146329400Y-55375110D01*
X146329413Y-55178055D01*
X146332288Y-55029970D01*
X146342280Y-54929045D01*
X146363641Y-54873469D01*
X146400625Y-54861432D01*
X146457485Y-54891123D01*
X146457485Y-54891123D01*
G37*
X146457485Y-54891123D02*
X146538475Y-54960731D01*
X146647849Y-55068446D01*
X146766671Y-55188978D01*
X146875603Y-55298917D01*
X146972047Y-55395353D01*
X147050485Y-55472841D01*
X147105400Y-55525938D01*
X147131272Y-55549201D01*
X147132427Y-55549800D01*
X147135999Y-55525942D01*
X147138986Y-55460541D01*
X147141123Y-55362851D01*
X147142148Y-55242127D01*
X147142200Y-55206900D01*
X147142200Y-54864000D01*
X147295696Y-54864000D01*
X147288798Y-55352950D01*
X147285884Y-55545194D01*
X147280426Y-55689211D01*
X147268171Y-55786545D01*
X147244865Y-55838741D01*
X147206255Y-55847345D01*
X147148087Y-55813902D01*
X147066108Y-55739957D01*
X146956065Y-55627056D01*
X146848112Y-55513049D01*
X146744426Y-55404603D01*
X146652173Y-55310182D01*
X146577157Y-55235559D01*
X146525181Y-55186507D01*
X146502049Y-55168800D01*
X146502029Y-55168800D01*
X146494634Y-55192655D01*
X146488452Y-55258052D01*
X146484027Y-55355737D01*
X146481906Y-55476455D01*
X146481800Y-55511700D01*
X146481800Y-55854600D01*
X146329400Y-55854600D01*
X146329400Y-55375110D01*
X146329413Y-55178055D01*
X146332288Y-55029970D01*
X146342280Y-54929045D01*
X146363641Y-54873469D01*
X146400625Y-54861432D01*
X146457485Y-54891123D01*
G36*
X146100800Y-55854600D02*
X145923000Y-55854600D01*
X145923000Y-54864000D01*
X146100800Y-54864000D01*
X146100800Y-55854600D01*
X146100800Y-55854600D01*
G37*
X146100800Y-55854600D02*
X145923000Y-55854600D01*
X145923000Y-54864000D01*
X146100800Y-54864000D01*
X146100800Y-55854600D01*
G36*
X144829416Y-54857947D02*
X144862169Y-54876574D01*
X144908533Y-54914702D01*
X144973723Y-54976647D01*
X145062958Y-55066727D01*
X145181453Y-55189258D01*
X145189458Y-55197582D01*
X145540366Y-55562500D01*
X145542000Y-54864000D01*
X145720896Y-54864000D01*
X145713998Y-55352950D01*
X145711134Y-55543413D01*
X145705768Y-55686991D01*
X145693660Y-55785097D01*
X145670572Y-55839141D01*
X145632267Y-55850534D01*
X145574506Y-55820688D01*
X145493051Y-55751015D01*
X145383664Y-55642925D01*
X145251134Y-55507092D01*
X144909094Y-55156100D01*
X144907000Y-55854600D01*
X144729200Y-55854600D01*
X144729200Y-55372893D01*
X144729420Y-55205231D01*
X144730593Y-55081215D01*
X144733484Y-54993690D01*
X144738858Y-54935502D01*
X144747480Y-54899499D01*
X144760116Y-54878525D01*
X144777533Y-54865427D01*
X144783875Y-54861925D01*
X144805057Y-54854503D01*
X144829416Y-54857947D01*
X144829416Y-54857947D01*
G37*
X144829416Y-54857947D02*
X144862169Y-54876574D01*
X144908533Y-54914702D01*
X144973723Y-54976647D01*
X145062958Y-55066727D01*
X145181453Y-55189258D01*
X145189458Y-55197582D01*
X145540366Y-55562500D01*
X145542000Y-54864000D01*
X145720896Y-54864000D01*
X145713998Y-55352950D01*
X145711134Y-55543413D01*
X145705768Y-55686991D01*
X145693660Y-55785097D01*
X145670572Y-55839141D01*
X145632267Y-55850534D01*
X145574506Y-55820688D01*
X145493051Y-55751015D01*
X145383664Y-55642925D01*
X145251134Y-55507092D01*
X144909094Y-55156100D01*
X144907000Y-55854600D01*
X144729200Y-55854600D01*
X144729200Y-55372893D01*
X144729420Y-55205231D01*
X144730593Y-55081215D01*
X144733484Y-54993690D01*
X144738858Y-54935502D01*
X144747480Y-54899499D01*
X144760116Y-54878525D01*
X144777533Y-54865427D01*
X144783875Y-54861925D01*
X144805057Y-54854503D01*
X144829416Y-54857947D01*
G36*
X144526000Y-55854600D02*
X144348200Y-55854600D01*
X144348200Y-54864000D01*
X144526000Y-54864000D01*
X144526000Y-55854600D01*
X144526000Y-55854600D01*
G37*
X144526000Y-55854600D02*
X144348200Y-55854600D01*
X144348200Y-54864000D01*
X144526000Y-54864000D01*
X144526000Y-55854600D01*
G36*
X143874666Y-54864831D02*
X143995291Y-54867689D01*
X144078791Y-54873121D01*
X144131994Y-54881673D01*
X144161725Y-54893892D01*
X144169296Y-54900770D01*
X144182476Y-54919678D01*
X144186410Y-54940261D01*
X144177266Y-54968054D01*
X144151214Y-55008588D01*
X144104424Y-55067396D01*
X144033066Y-55150011D01*
X143933308Y-55261966D01*
X143871950Y-55330267D01*
X143777471Y-55436144D01*
X143696172Y-55528802D01*
X143633644Y-55601743D01*
X143595476Y-55648470D01*
X143586200Y-55662416D01*
X143609927Y-55668079D01*
X143674424Y-55672692D01*
X143769665Y-55675762D01*
X143878300Y-55676800D01*
X144170400Y-55676800D01*
X144170400Y-55854600D01*
X143756380Y-55854600D01*
X143578067Y-55853029D01*
X143447417Y-55848179D01*
X143361387Y-55839841D01*
X143316930Y-55827806D01*
X143311880Y-55824120D01*
X143284816Y-55779720D01*
X143281400Y-55761617D01*
X143297684Y-55733218D01*
X143342888Y-55674092D01*
X143411535Y-55590895D01*
X143498149Y-55490285D01*
X143585409Y-55392047D01*
X143889418Y-55054500D01*
X143281400Y-55040236D01*
X143281400Y-54864000D01*
X143710089Y-54864000D01*
X143874666Y-54864831D01*
X143874666Y-54864831D01*
G37*
X143874666Y-54864831D02*
X143995291Y-54867689D01*
X144078791Y-54873121D01*
X144131994Y-54881673D01*
X144161725Y-54893892D01*
X144169296Y-54900770D01*
X144182476Y-54919678D01*
X144186410Y-54940261D01*
X144177266Y-54968054D01*
X144151214Y-55008588D01*
X144104424Y-55067396D01*
X144033066Y-55150011D01*
X143933308Y-55261966D01*
X143871950Y-55330267D01*
X143777471Y-55436144D01*
X143696172Y-55528802D01*
X143633644Y-55601743D01*
X143595476Y-55648470D01*
X143586200Y-55662416D01*
X143609927Y-55668079D01*
X143674424Y-55672692D01*
X143769665Y-55675762D01*
X143878300Y-55676800D01*
X144170400Y-55676800D01*
X144170400Y-55854600D01*
X143756380Y-55854600D01*
X143578067Y-55853029D01*
X143447417Y-55848179D01*
X143361387Y-55839841D01*
X143316930Y-55827806D01*
X143311880Y-55824120D01*
X143284816Y-55779720D01*
X143281400Y-55761617D01*
X143297684Y-55733218D01*
X143342888Y-55674092D01*
X143411535Y-55590895D01*
X143498149Y-55490285D01*
X143585409Y-55392047D01*
X143889418Y-55054500D01*
X143281400Y-55040236D01*
X143281400Y-54864000D01*
X143710089Y-54864000D01*
X143874666Y-54864831D01*
G36*
X142242373Y-54855925D02*
X142295131Y-54904247D01*
X142371881Y-54978084D01*
X142466941Y-55071954D01*
X142574630Y-55180377D01*
X142594460Y-55200550D01*
X142949701Y-55562500D01*
X142950450Y-55213250D01*
X142951200Y-54864000D01*
X143129000Y-54864000D01*
X143129000Y-55319122D01*
X143128169Y-55468354D01*
X143125863Y-55601640D01*
X143122362Y-55709974D01*
X143117948Y-55784349D01*
X143113582Y-55814422D01*
X143091521Y-55849048D01*
X143058366Y-55858563D01*
X143010314Y-55840434D01*
X142943564Y-55792126D01*
X142854314Y-55711103D01*
X142738762Y-55594831D01*
X142659565Y-55511700D01*
X142556225Y-55403342D01*
X142464081Y-55309066D01*
X142388992Y-55234680D01*
X142336819Y-55185989D01*
X142313522Y-55168800D01*
X142305216Y-55192654D01*
X142298272Y-55258050D01*
X142293302Y-55355733D01*
X142290920Y-55476449D01*
X142290800Y-55511700D01*
X142290800Y-55854600D01*
X142138400Y-55854600D01*
X142138400Y-55377080D01*
X142139316Y-55196053D01*
X142142669Y-55059781D01*
X142149364Y-54962240D01*
X142160305Y-54897408D01*
X142176396Y-54859261D01*
X142198543Y-54841777D01*
X142219289Y-54838600D01*
X142242373Y-54855925D01*
X142242373Y-54855925D01*
G37*
X142242373Y-54855925D02*
X142295131Y-54904247D01*
X142371881Y-54978084D01*
X142466941Y-55071954D01*
X142574630Y-55180377D01*
X142594460Y-55200550D01*
X142949701Y-55562500D01*
X142950450Y-55213250D01*
X142951200Y-54864000D01*
X143129000Y-54864000D01*
X143129000Y-55319122D01*
X143128169Y-55468354D01*
X143125863Y-55601640D01*
X143122362Y-55709974D01*
X143117948Y-55784349D01*
X143113582Y-55814422D01*
X143091521Y-55849048D01*
X143058366Y-55858563D01*
X143010314Y-55840434D01*
X142943564Y-55792126D01*
X142854314Y-55711103D01*
X142738762Y-55594831D01*
X142659565Y-55511700D01*
X142556225Y-55403342D01*
X142464081Y-55309066D01*
X142388992Y-55234680D01*
X142336819Y-55185989D01*
X142313522Y-55168800D01*
X142305216Y-55192654D01*
X142298272Y-55258050D01*
X142293302Y-55355733D01*
X142290920Y-55476449D01*
X142290800Y-55511700D01*
X142290800Y-55854600D01*
X142138400Y-55854600D01*
X142138400Y-55377080D01*
X142139316Y-55196053D01*
X142142669Y-55059781D01*
X142149364Y-54962240D01*
X142160305Y-54897408D01*
X142176396Y-54859261D01*
X142198543Y-54841777D01*
X142219289Y-54838600D01*
X142242373Y-54855925D01*
G36*
X141817723Y-54870605D02*
X141880545Y-54881471D01*
X141898252Y-54890356D01*
X141911803Y-54910670D01*
X141921741Y-54950249D01*
X141928556Y-55015695D01*
X141932739Y-55113609D01*
X141934780Y-55250590D01*
X141935200Y-55387810D01*
X141935200Y-55854600D01*
X141757400Y-55854600D01*
X141757400Y-55600600D01*
X141122400Y-55600600D01*
X141122400Y-55854600D01*
X140944600Y-55854600D01*
X140944600Y-55545119D01*
X140949393Y-55365920D01*
X140954051Y-55326851D01*
X141122400Y-55326851D01*
X141122400Y-55422800D01*
X141757400Y-55422800D01*
X141757400Y-55041800D01*
X141552938Y-55041800D01*
X141385578Y-55053348D01*
X141261333Y-55089053D01*
X141177806Y-55150499D01*
X141132601Y-55239274D01*
X141122400Y-55326851D01*
X140954051Y-55326851D01*
X140965845Y-55227938D01*
X140997066Y-55122311D01*
X141046164Y-55040182D01*
X141116249Y-54972690D01*
X141155251Y-54944874D01*
X141203581Y-54915386D01*
X141250880Y-54895384D01*
X141308991Y-54882621D01*
X141389760Y-54874852D01*
X141505029Y-54869832D01*
X141559726Y-54868196D01*
X141712048Y-54866263D01*
X141817723Y-54870605D01*
X141817723Y-54870605D01*
G37*
X141817723Y-54870605D02*
X141880545Y-54881471D01*
X141898252Y-54890356D01*
X141911803Y-54910670D01*
X141921741Y-54950249D01*
X141928556Y-55015695D01*
X141932739Y-55113609D01*
X141934780Y-55250590D01*
X141935200Y-55387810D01*
X141935200Y-55854600D01*
X141757400Y-55854600D01*
X141757400Y-55600600D01*
X141122400Y-55600600D01*
X141122400Y-55854600D01*
X140944600Y-55854600D01*
X140944600Y-55545119D01*
X140949393Y-55365920D01*
X140954051Y-55326851D01*
X141122400Y-55326851D01*
X141122400Y-55422800D01*
X141757400Y-55422800D01*
X141757400Y-55041800D01*
X141552938Y-55041800D01*
X141385578Y-55053348D01*
X141261333Y-55089053D01*
X141177806Y-55150499D01*
X141132601Y-55239274D01*
X141122400Y-55326851D01*
X140954051Y-55326851D01*
X140965845Y-55227938D01*
X140997066Y-55122311D01*
X141046164Y-55040182D01*
X141116249Y-54972690D01*
X141155251Y-54944874D01*
X141203581Y-54915386D01*
X141250880Y-54895384D01*
X141308991Y-54882621D01*
X141389760Y-54874852D01*
X141505029Y-54869832D01*
X141559726Y-54868196D01*
X141712048Y-54866263D01*
X141817723Y-54870605D01*
G36*
X140390956Y-54864244D02*
X140500061Y-54865776D01*
X140575528Y-54869788D01*
X140625941Y-54877478D01*
X140659880Y-54890039D01*
X140685927Y-54908667D01*
X140707229Y-54929120D01*
X140741425Y-54967873D01*
X140759829Y-55007981D01*
X140765942Y-55065000D01*
X140763266Y-55154485D01*
X140762226Y-55173395D01*
X140754744Y-55270500D01*
X140741816Y-55333198D01*
X140717419Y-55377879D01*
X140675528Y-55420933D01*
X140669119Y-55426697D01*
X140598594Y-55477563D01*
X140526637Y-55511678D01*
X140510668Y-55515936D01*
X140435201Y-55531029D01*
X140543426Y-55622964D01*
X140621556Y-55690103D01*
X140697736Y-55756767D01*
X140728275Y-55784005D01*
X140804900Y-55853110D01*
X140675983Y-55853855D01*
X140614526Y-55852208D01*
X140565121Y-55842323D01*
X140515676Y-55818018D01*
X140454096Y-55773114D01*
X140368287Y-55701432D01*
X140354343Y-55689500D01*
X140237020Y-55595499D01*
X140150117Y-55540723D01*
X140095910Y-55524400D01*
X140051546Y-55518125D01*
X140033372Y-55489261D01*
X140030200Y-55435500D01*
X140030200Y-55346600D01*
X140269685Y-55346600D01*
X140402673Y-55343581D01*
X140493040Y-55331317D01*
X140548771Y-55305001D01*
X140577853Y-55259821D01*
X140588269Y-55190969D01*
X140589000Y-55154285D01*
X140589000Y-55041800D01*
X139954000Y-55041800D01*
X139954000Y-55854600D01*
X139776200Y-55854600D01*
X139776200Y-55389780D01*
X139777492Y-55202404D01*
X139781509Y-55062337D01*
X139788463Y-54966149D01*
X139798564Y-54910411D01*
X139806679Y-54894480D01*
X139841685Y-54881257D01*
X139918179Y-54871913D01*
X140039073Y-54866243D01*
X140207275Y-54864043D01*
X140239634Y-54864000D01*
X140390956Y-54864244D01*
X140390956Y-54864244D01*
G37*
X140390956Y-54864244D02*
X140500061Y-54865776D01*
X140575528Y-54869788D01*
X140625941Y-54877478D01*
X140659880Y-54890039D01*
X140685927Y-54908667D01*
X140707229Y-54929120D01*
X140741425Y-54967873D01*
X140759829Y-55007981D01*
X140765942Y-55065000D01*
X140763266Y-55154485D01*
X140762226Y-55173395D01*
X140754744Y-55270500D01*
X140741816Y-55333198D01*
X140717419Y-55377879D01*
X140675528Y-55420933D01*
X140669119Y-55426697D01*
X140598594Y-55477563D01*
X140526637Y-55511678D01*
X140510668Y-55515936D01*
X140435201Y-55531029D01*
X140543426Y-55622964D01*
X140621556Y-55690103D01*
X140697736Y-55756767D01*
X140728275Y-55784005D01*
X140804900Y-55853110D01*
X140675983Y-55853855D01*
X140614526Y-55852208D01*
X140565121Y-55842323D01*
X140515676Y-55818018D01*
X140454096Y-55773114D01*
X140368287Y-55701432D01*
X140354343Y-55689500D01*
X140237020Y-55595499D01*
X140150117Y-55540723D01*
X140095910Y-55524400D01*
X140051546Y-55518125D01*
X140033372Y-55489261D01*
X140030200Y-55435500D01*
X140030200Y-55346600D01*
X140269685Y-55346600D01*
X140402673Y-55343581D01*
X140493040Y-55331317D01*
X140548771Y-55305001D01*
X140577853Y-55259821D01*
X140588269Y-55190969D01*
X140589000Y-55154285D01*
X140589000Y-55041800D01*
X139954000Y-55041800D01*
X139954000Y-55854600D01*
X139776200Y-55854600D01*
X139776200Y-55389780D01*
X139777492Y-55202404D01*
X139781509Y-55062337D01*
X139788463Y-54966149D01*
X139798564Y-54910411D01*
X139806679Y-54894480D01*
X139841685Y-54881257D01*
X139918179Y-54871913D01*
X140039073Y-54866243D01*
X140207275Y-54864043D01*
X140239634Y-54864000D01*
X140390956Y-54864244D01*
G36*
X139623800Y-55041800D02*
X138912600Y-55041800D01*
X138912600Y-55854600D01*
X138734800Y-55854600D01*
X138734800Y-55389780D01*
X138736092Y-55202404D01*
X138740109Y-55062337D01*
X138747063Y-54966149D01*
X138757164Y-54910411D01*
X138765279Y-54894480D01*
X138799620Y-54881468D01*
X138874759Y-54872206D01*
X138993740Y-54866487D01*
X139159608Y-54864100D01*
X139209779Y-54864000D01*
X139623800Y-54864000D01*
X139623800Y-55041800D01*
X139623800Y-55041800D01*
G37*
X139623800Y-55041800D02*
X138912600Y-55041800D01*
X138912600Y-55854600D01*
X138734800Y-55854600D01*
X138734800Y-55389780D01*
X138736092Y-55202404D01*
X138740109Y-55062337D01*
X138747063Y-54966149D01*
X138757164Y-54910411D01*
X138765279Y-54894480D01*
X138799620Y-54881468D01*
X138874759Y-54872206D01*
X138993740Y-54866487D01*
X139159608Y-54864100D01*
X139209779Y-54864000D01*
X139623800Y-54864000D01*
X139623800Y-55041800D01*
G04 #@! TD*
D13*
G36*
X148873000Y-83873000D02*
X137127000Y-83873000D01*
X137127000Y-79127000D01*
X148873000Y-79127000D01*
X148873000Y-83873000D01*
X148873000Y-83873000D01*
G37*
X148873000Y-83873000D02*
X137127000Y-83873000D01*
X137127000Y-79127000D01*
X148873000Y-79127000D01*
X148873000Y-83873000D01*
M02*
