M48
;DRILL file {KiCad (5.0.0)} date 09/21/18 20:05:06
;FORMAT={2:4/ absolute / inch / suppress leading zeros}
FMAT,2
INCH,TZ
T1C0.0315
T2C0.0354
T3C0.0472
T4C0.0591
%
G90
G05
M72
T1
X56466Y-29700
X53000Y-20750
X54000Y-20750
X55000Y-20750
X45100Y-23200
X45100Y-27200
X47050Y-22000
X47050Y-26000
X57250Y-23250
X57250Y-27250
X55700Y-22550
X55700Y-26550
X44716Y-29200
X45700Y-29200
X47250Y-20750
X48250Y-20750
X49250Y-20750
X57450Y-29700
T2
X52550Y-22850
X53550Y-22850
X48700Y-22850
X49700Y-22850
X45000Y-32200
X45787Y-32200
X46575Y-32200
T3
X51181Y-23031
X51181Y-30906
T4
X44134Y-32200
X47441Y-32200
T0
M30
