M48
INCH,TZ
T1C0.016
T2C0.024
T3C0.031
T4C0.035
T5C0.047
%
G90
G05
T1
X54331Y-28740
T2
X47550Y-20650
X48050Y-20650
X48550Y-20650
X53800Y-20650
X54300Y-20650
X54800Y-20650
T3
X44716Y-29200
X45100Y-23200
X45100Y-27200
X45700Y-29200
X47050Y-22000
X47050Y-26000
X55700Y-22550
X55700Y-26550
X56466Y-29700
X57250Y-23250
X57250Y-27250
X57450Y-29700
T4
X48700Y-22850
X49700Y-22850
X52550Y-22850
X53550Y-22850
T5
X51181Y-23031
X51181Y-30906
T0
M30
