G04 #@! TF.FileFunction,Copper,L2,Bot,Signal*
%FSLAX46Y46*%
G04 Gerber Fmt 4.6, Leading zero omitted, Abs format (unit mm)*
G04 Created by KiCad (PCBNEW 4.0.6) date 07/03/18 08:43:19*
%MOMM*%
%LPD*%
G01*
G04 APERTURE LIST*
%ADD10C,0.100000*%
%ADD11C,1.600000*%
%ADD12O,1.600000X1.600000*%
%ADD13R,1.600000X1.600000*%
%ADD14R,1.800000X1.800000*%
%ADD15C,1.800000*%
%ADD16O,0.900000X1.500000*%
%ADD17R,0.900000X1.500000*%
%ADD18C,2.400000*%
%ADD19C,0.600000*%
%ADD20C,0.508000*%
%ADD21C,0.254000*%
G04 APERTURE END LIST*
D10*
D11*
X119507000Y-66040000D03*
D12*
X119507000Y-55880000D03*
D13*
X116078000Y-74168000D03*
D11*
X113578000Y-74168000D03*
D13*
X145923000Y-75438000D03*
D11*
X143423000Y-75438000D03*
D14*
X126238000Y-58039000D03*
D15*
X123698000Y-58039000D03*
D14*
X133477000Y-58039000D03*
D15*
X136017000Y-58039000D03*
D16*
X122047000Y-52451000D03*
X120777000Y-52451000D03*
D17*
X123317000Y-52451000D03*
D16*
X137922000Y-52451000D03*
X136652000Y-52451000D03*
D17*
X139192000Y-52451000D03*
D11*
X145415000Y-69215000D03*
D12*
X145415000Y-59055000D03*
D11*
X114554000Y-58928000D03*
D12*
X114554000Y-69088000D03*
D11*
X141478000Y-67437000D03*
D12*
X141478000Y-57277000D03*
D18*
X130000000Y-78500000D03*
X130000000Y-58500000D03*
D19*
X138000000Y-73000000D03*
D20*
X132500000Y-78500000D02*
X130000000Y-78500000D01*
X138000000Y-73000000D02*
X132500000Y-78500000D01*
X120777000Y-52451000D02*
X120777000Y-51435000D01*
X135509000Y-52451000D02*
X136652000Y-52451000D01*
X134874000Y-53086000D02*
X135509000Y-52451000D01*
X128778000Y-53086000D02*
X134874000Y-53086000D01*
X126746000Y-51054000D02*
X128778000Y-53086000D01*
X121158000Y-51054000D02*
X126746000Y-51054000D01*
X120777000Y-51435000D02*
X121158000Y-51054000D01*
X130000000Y-58500000D02*
X130000000Y-61000000D01*
X136437000Y-67437000D02*
X141478000Y-67437000D01*
X130000000Y-61000000D02*
X136437000Y-67437000D01*
X141478000Y-67437000D02*
X143637000Y-67437000D01*
X143637000Y-67437000D02*
X145415000Y-69215000D01*
X118364000Y-61087000D02*
X118364000Y-64897000D01*
X118364000Y-64897000D02*
X119507000Y-66040000D01*
X116205000Y-58928000D02*
X118364000Y-61087000D01*
X114554000Y-58928000D02*
X116205000Y-58928000D01*
X117386000Y-74168000D02*
X116078000Y-74168000D01*
X126238000Y-65316000D02*
X117386000Y-74168000D01*
X126238000Y-58039000D02*
X126238000Y-65316000D01*
X123317000Y-52451000D02*
X124206000Y-52451000D01*
X126238000Y-54483000D02*
X126238000Y-58039000D01*
X124206000Y-52451000D02*
X126238000Y-54483000D01*
X127592001Y-66209999D02*
X127302000Y-66500000D01*
X127302000Y-66500000D02*
X118379999Y-75422001D01*
X137922000Y-52451000D02*
X137922000Y-53709000D01*
X137922000Y-53709000D02*
X137529000Y-54102000D01*
X137529000Y-54102000D02*
X130898000Y-54102000D01*
X130898000Y-54102000D02*
X128000000Y-57000000D01*
X128000000Y-57000000D02*
X128000000Y-65802000D01*
X128000000Y-65802000D02*
X127302000Y-66500000D01*
X114935000Y-76962000D02*
X113578000Y-75605000D01*
X113578000Y-75605000D02*
X113578000Y-74168000D01*
X118237000Y-76962000D02*
X114935000Y-76962000D01*
X118379999Y-76819001D02*
X118237000Y-76962000D01*
X118379999Y-75422001D02*
X118379999Y-76819001D01*
X137922000Y-52451000D02*
X137922000Y-50927000D01*
X145415000Y-56388000D02*
X145415000Y-59055000D01*
X139573000Y-50546000D02*
X145415000Y-56388000D01*
X138303000Y-50546000D02*
X139573000Y-50546000D01*
X137922000Y-50927000D02*
X138303000Y-50546000D01*
X139192000Y-52451000D02*
X139446000Y-52451000D01*
X139446000Y-52451000D02*
X143891000Y-56896000D01*
X145923000Y-73025000D02*
X145923000Y-75438000D01*
X147066000Y-71882000D02*
X145923000Y-73025000D01*
X147066000Y-67945000D02*
X147066000Y-71882000D01*
X143891000Y-64770000D02*
X147066000Y-67945000D01*
X143891000Y-56896000D02*
X143891000Y-64770000D01*
X133477000Y-58039000D02*
X133477000Y-57023000D01*
X139192000Y-54356000D02*
X139192000Y-52451000D01*
X138303000Y-55245000D02*
X139192000Y-54356000D01*
X135255000Y-55245000D02*
X138303000Y-55245000D01*
X133477000Y-57023000D02*
X135255000Y-55245000D01*
X122047000Y-52451000D02*
X122047000Y-53709000D01*
X122047000Y-53709000D02*
X121781000Y-53975000D01*
X121781000Y-53975000D02*
X117475000Y-53975000D01*
X117475000Y-53975000D02*
X114681000Y-56769000D01*
X114681000Y-56769000D02*
X114173000Y-56769000D01*
X114173000Y-56769000D02*
X112903000Y-58039000D01*
X112903000Y-58039000D02*
X112903000Y-60452000D01*
X112903000Y-60452000D02*
X114554000Y-62103000D01*
X114554000Y-62103000D02*
X114554000Y-69088000D01*
X119507000Y-55880000D02*
X119507000Y-56007000D01*
X119507000Y-56007000D02*
X121539000Y-58039000D01*
X121539000Y-58039000D02*
X123698000Y-58039000D01*
X141478000Y-57277000D02*
X136779000Y-57277000D01*
X136779000Y-57277000D02*
X136017000Y-58039000D01*
D21*
G36*
X128650771Y-47976916D02*
X127979274Y-48647242D01*
X127615415Y-49523513D01*
X127614587Y-50472325D01*
X127976916Y-51349229D01*
X128647242Y-52020726D01*
X129523513Y-52384585D01*
X130472325Y-52385413D01*
X131347012Y-52024000D01*
X135567000Y-52024000D01*
X135567000Y-52324000D01*
X136525000Y-52324000D01*
X136525000Y-51233498D01*
X136357999Y-51106592D01*
X135974592Y-51293987D01*
X135698192Y-51618456D01*
X135567000Y-52024000D01*
X131347012Y-52024000D01*
X131349229Y-52023084D01*
X132020726Y-51352758D01*
X132384585Y-50476487D01*
X132385413Y-49527675D01*
X132023084Y-48650771D01*
X131352758Y-47979274D01*
X130704273Y-47710000D01*
X147930069Y-47710000D01*
X148488338Y-47821046D01*
X148902333Y-48097669D01*
X149178953Y-48511660D01*
X149290000Y-49069931D01*
X149290000Y-84930069D01*
X149178953Y-85488340D01*
X148902333Y-85902331D01*
X148488338Y-86178954D01*
X147930069Y-86290000D01*
X112069931Y-86290000D01*
X111511660Y-86178953D01*
X111097669Y-85902333D01*
X110821046Y-85488338D01*
X110710000Y-84930069D01*
X110710000Y-79797175D01*
X128882430Y-79797175D01*
X129005565Y-80084788D01*
X129687734Y-80344707D01*
X130417443Y-80323786D01*
X130994435Y-80084788D01*
X131117570Y-79797175D01*
X130000000Y-78679605D01*
X128882430Y-79797175D01*
X110710000Y-79797175D01*
X110710000Y-78187734D01*
X128155293Y-78187734D01*
X128176214Y-78917443D01*
X128415212Y-79494435D01*
X128702825Y-79617570D01*
X129820395Y-78500000D01*
X130179605Y-78500000D01*
X131297175Y-79617570D01*
X131584788Y-79494435D01*
X131844707Y-78812266D01*
X131823786Y-78082557D01*
X131584788Y-77505565D01*
X131297175Y-77382430D01*
X130179605Y-78500000D01*
X129820395Y-78500000D01*
X128702825Y-77382430D01*
X128415212Y-77505565D01*
X128155293Y-78187734D01*
X110710000Y-78187734D01*
X110710000Y-58039000D01*
X112014000Y-58039000D01*
X112014000Y-60452000D01*
X112081671Y-60792206D01*
X112220515Y-61000000D01*
X112274382Y-61080618D01*
X113665000Y-62471236D01*
X113665000Y-67961200D01*
X113539302Y-68045189D01*
X113228233Y-68510736D01*
X113119000Y-69059887D01*
X113119000Y-69116113D01*
X113228233Y-69665264D01*
X113539302Y-70130811D01*
X114004849Y-70441880D01*
X114554000Y-70551113D01*
X115103151Y-70441880D01*
X115568698Y-70130811D01*
X115879767Y-69665264D01*
X115989000Y-69116113D01*
X115989000Y-69059887D01*
X115879767Y-68510736D01*
X115568698Y-68045189D01*
X115443000Y-67961200D01*
X115443000Y-62103000D01*
X115400433Y-61889000D01*
X115375330Y-61762795D01*
X115182618Y-61474382D01*
X113931578Y-60223342D01*
X114267309Y-60362750D01*
X114838187Y-60363248D01*
X115365800Y-60145243D01*
X115694616Y-59817000D01*
X115836764Y-59817000D01*
X117475000Y-61455236D01*
X117475000Y-64897000D01*
X117542671Y-65237206D01*
X117595320Y-65316000D01*
X117735382Y-65525618D01*
X118072155Y-65862391D01*
X118071752Y-66324187D01*
X118289757Y-66851800D01*
X118693077Y-67255824D01*
X119220309Y-67474750D01*
X119791187Y-67475248D01*
X120318800Y-67257243D01*
X120722824Y-66853923D01*
X120941750Y-66326691D01*
X120942248Y-65755813D01*
X120724243Y-65228200D01*
X120320923Y-64824176D01*
X119793691Y-64605250D01*
X119329081Y-64604845D01*
X119253000Y-64528764D01*
X119253000Y-61087000D01*
X119185329Y-60746794D01*
X118992618Y-60458382D01*
X116833618Y-58299382D01*
X116545206Y-58106671D01*
X116205000Y-58039000D01*
X115694178Y-58039000D01*
X115367923Y-57712176D01*
X115041625Y-57576685D01*
X115309618Y-57397618D01*
X117843236Y-54864000D01*
X118474387Y-54864000D01*
X118181233Y-55302736D01*
X118072000Y-55851887D01*
X118072000Y-55908113D01*
X118181233Y-56457264D01*
X118492302Y-56922811D01*
X118957849Y-57233880D01*
X119507000Y-57343113D01*
X119572790Y-57330026D01*
X120910382Y-58667618D01*
X121198794Y-58860329D01*
X121539000Y-58928000D01*
X122416525Y-58928000D01*
X122827357Y-59339551D01*
X123391330Y-59573733D01*
X124001991Y-59574265D01*
X124566371Y-59341068D01*
X124734613Y-59173120D01*
X124734838Y-59174317D01*
X124873910Y-59390441D01*
X125086110Y-59535431D01*
X125338000Y-59586440D01*
X125349000Y-59586440D01*
X125349000Y-64947764D01*
X117357013Y-72939751D01*
X117342090Y-72916559D01*
X117129890Y-72771569D01*
X116878000Y-72720560D01*
X115278000Y-72720560D01*
X115042683Y-72764838D01*
X114826559Y-72903910D01*
X114681569Y-73116110D01*
X114660320Y-73221041D01*
X114391923Y-72952176D01*
X113864691Y-72733250D01*
X113293813Y-72732752D01*
X112766200Y-72950757D01*
X112362176Y-73354077D01*
X112143250Y-73881309D01*
X112142752Y-74452187D01*
X112360757Y-74979800D01*
X112689000Y-75308616D01*
X112689000Y-75605000D01*
X112756671Y-75945206D01*
X112887277Y-76140671D01*
X112949382Y-76233618D01*
X114306382Y-77590618D01*
X114594794Y-77783329D01*
X114935000Y-77851000D01*
X118237000Y-77851000D01*
X118577206Y-77783329D01*
X118865618Y-77590618D01*
X119008617Y-77447619D01*
X119105779Y-77302206D01*
X119172183Y-77202825D01*
X128882430Y-77202825D01*
X130000000Y-78320395D01*
X131117570Y-77202825D01*
X130994435Y-76915212D01*
X130312266Y-76655293D01*
X129582557Y-76676214D01*
X129005565Y-76915212D01*
X128882430Y-77202825D01*
X119172183Y-77202825D01*
X119201328Y-77159207D01*
X119268999Y-76819001D01*
X119268999Y-75790237D01*
X128628618Y-66430618D01*
X128699733Y-66324187D01*
X128821329Y-66142206D01*
X128889000Y-65802000D01*
X128889000Y-59984408D01*
X128959199Y-60054730D01*
X129111000Y-60117763D01*
X129111000Y-61000000D01*
X129178671Y-61340206D01*
X129179202Y-61341000D01*
X129371382Y-61628618D01*
X135808382Y-68065618D01*
X136096794Y-68258329D01*
X136437000Y-68326000D01*
X140337822Y-68326000D01*
X140664077Y-68652824D01*
X141191309Y-68871750D01*
X141762187Y-68872248D01*
X142289800Y-68654243D01*
X142618616Y-68326000D01*
X143268764Y-68326000D01*
X143980155Y-69037391D01*
X143979752Y-69499187D01*
X144197757Y-70026800D01*
X144601077Y-70430824D01*
X145128309Y-70649750D01*
X145699187Y-70650248D01*
X146177000Y-70452820D01*
X146177000Y-71513764D01*
X145294382Y-72396382D01*
X145101671Y-72684794D01*
X145034000Y-73025000D01*
X145034000Y-74007307D01*
X144887683Y-74034838D01*
X144671559Y-74173910D01*
X144526569Y-74386110D01*
X144505320Y-74491041D01*
X144236923Y-74222176D01*
X143709691Y-74003250D01*
X143138813Y-74002752D01*
X142611200Y-74220757D01*
X142207176Y-74624077D01*
X141988250Y-75151309D01*
X141987752Y-75722187D01*
X142205757Y-76249800D01*
X142609077Y-76653824D01*
X143136309Y-76872750D01*
X143707187Y-76873248D01*
X144234800Y-76655243D01*
X144503583Y-76386928D01*
X144519838Y-76473317D01*
X144658910Y-76689441D01*
X144871110Y-76834431D01*
X145123000Y-76885440D01*
X146723000Y-76885440D01*
X146958317Y-76841162D01*
X147174441Y-76702090D01*
X147319431Y-76489890D01*
X147370440Y-76238000D01*
X147370440Y-74638000D01*
X147326162Y-74402683D01*
X147187090Y-74186559D01*
X146974890Y-74041569D01*
X146812000Y-74008583D01*
X146812000Y-73393236D01*
X147694618Y-72510618D01*
X147770948Y-72396382D01*
X147887329Y-72222206D01*
X147955000Y-71882000D01*
X147955000Y-67945000D01*
X147887329Y-67604794D01*
X147694618Y-67316382D01*
X144780000Y-64401764D01*
X144780000Y-60351517D01*
X144865849Y-60408880D01*
X145415000Y-60518113D01*
X145964151Y-60408880D01*
X146429698Y-60097811D01*
X146740767Y-59632264D01*
X146850000Y-59083113D01*
X146850000Y-59026887D01*
X146740767Y-58477736D01*
X146429698Y-58012189D01*
X146304000Y-57928200D01*
X146304000Y-56388000D01*
X146236330Y-56047795D01*
X146043618Y-55759382D01*
X140201618Y-49917382D01*
X139913206Y-49724671D01*
X139573000Y-49657000D01*
X138303000Y-49657000D01*
X137962794Y-49724671D01*
X137674382Y-49917382D01*
X137293382Y-50298382D01*
X137100671Y-50586794D01*
X137033000Y-50927000D01*
X137033000Y-51149114D01*
X136946001Y-51106592D01*
X136779000Y-51233498D01*
X136779000Y-52324000D01*
X136799000Y-52324000D01*
X136799000Y-52578000D01*
X136779000Y-52578000D01*
X136779000Y-52598000D01*
X136525000Y-52598000D01*
X136525000Y-52578000D01*
X135567000Y-52578000D01*
X135567000Y-52878000D01*
X135675371Y-53213000D01*
X130898000Y-53213000D01*
X130557794Y-53280671D01*
X130278933Y-53467000D01*
X130269382Y-53473382D01*
X127371382Y-56371382D01*
X127272837Y-56518865D01*
X127138000Y-56491560D01*
X127127000Y-56491560D01*
X127127000Y-54483000D01*
X127059329Y-54142794D01*
X126866618Y-53854382D01*
X124834618Y-51822382D01*
X124652957Y-51701000D01*
X124546206Y-51629671D01*
X124395373Y-51599669D01*
X124370162Y-51465683D01*
X124231090Y-51249559D01*
X124018890Y-51104569D01*
X123767000Y-51053560D01*
X122867000Y-51053560D01*
X122631683Y-51097838D01*
X122527345Y-51164978D01*
X122462212Y-51121457D01*
X122047000Y-51038866D01*
X121631788Y-51121457D01*
X121407726Y-51271170D01*
X121071001Y-51106592D01*
X120904000Y-51233498D01*
X120904000Y-52324000D01*
X120924000Y-52324000D01*
X120924000Y-52578000D01*
X120904000Y-52578000D01*
X120904000Y-52598000D01*
X120650000Y-52598000D01*
X120650000Y-52578000D01*
X119692000Y-52578000D01*
X119692000Y-52878000D01*
X119759287Y-53086000D01*
X117475000Y-53086000D01*
X117134794Y-53153671D01*
X116940426Y-53283544D01*
X116846382Y-53346382D01*
X114312764Y-55880000D01*
X114173000Y-55880000D01*
X113832794Y-55947671D01*
X113588355Y-56111000D01*
X113544382Y-56140382D01*
X112274382Y-57410382D01*
X112081671Y-57698794D01*
X112014000Y-58039000D01*
X110710000Y-58039000D01*
X110710000Y-52024000D01*
X119692000Y-52024000D01*
X119692000Y-52324000D01*
X120650000Y-52324000D01*
X120650000Y-51233498D01*
X120482999Y-51106592D01*
X120099592Y-51293987D01*
X119823192Y-51618456D01*
X119692000Y-52024000D01*
X110710000Y-52024000D01*
X110710000Y-49069931D01*
X110821046Y-48511662D01*
X111097669Y-48097667D01*
X111511660Y-47821047D01*
X112069931Y-47710000D01*
X129296758Y-47710000D01*
X128650771Y-47976916D01*
X128650771Y-47976916D01*
G37*
X128650771Y-47976916D02*
X127979274Y-48647242D01*
X127615415Y-49523513D01*
X127614587Y-50472325D01*
X127976916Y-51349229D01*
X128647242Y-52020726D01*
X129523513Y-52384585D01*
X130472325Y-52385413D01*
X131347012Y-52024000D01*
X135567000Y-52024000D01*
X135567000Y-52324000D01*
X136525000Y-52324000D01*
X136525000Y-51233498D01*
X136357999Y-51106592D01*
X135974592Y-51293987D01*
X135698192Y-51618456D01*
X135567000Y-52024000D01*
X131347012Y-52024000D01*
X131349229Y-52023084D01*
X132020726Y-51352758D01*
X132384585Y-50476487D01*
X132385413Y-49527675D01*
X132023084Y-48650771D01*
X131352758Y-47979274D01*
X130704273Y-47710000D01*
X147930069Y-47710000D01*
X148488338Y-47821046D01*
X148902333Y-48097669D01*
X149178953Y-48511660D01*
X149290000Y-49069931D01*
X149290000Y-84930069D01*
X149178953Y-85488340D01*
X148902333Y-85902331D01*
X148488338Y-86178954D01*
X147930069Y-86290000D01*
X112069931Y-86290000D01*
X111511660Y-86178953D01*
X111097669Y-85902333D01*
X110821046Y-85488338D01*
X110710000Y-84930069D01*
X110710000Y-79797175D01*
X128882430Y-79797175D01*
X129005565Y-80084788D01*
X129687734Y-80344707D01*
X130417443Y-80323786D01*
X130994435Y-80084788D01*
X131117570Y-79797175D01*
X130000000Y-78679605D01*
X128882430Y-79797175D01*
X110710000Y-79797175D01*
X110710000Y-78187734D01*
X128155293Y-78187734D01*
X128176214Y-78917443D01*
X128415212Y-79494435D01*
X128702825Y-79617570D01*
X129820395Y-78500000D01*
X130179605Y-78500000D01*
X131297175Y-79617570D01*
X131584788Y-79494435D01*
X131844707Y-78812266D01*
X131823786Y-78082557D01*
X131584788Y-77505565D01*
X131297175Y-77382430D01*
X130179605Y-78500000D01*
X129820395Y-78500000D01*
X128702825Y-77382430D01*
X128415212Y-77505565D01*
X128155293Y-78187734D01*
X110710000Y-78187734D01*
X110710000Y-58039000D01*
X112014000Y-58039000D01*
X112014000Y-60452000D01*
X112081671Y-60792206D01*
X112220515Y-61000000D01*
X112274382Y-61080618D01*
X113665000Y-62471236D01*
X113665000Y-67961200D01*
X113539302Y-68045189D01*
X113228233Y-68510736D01*
X113119000Y-69059887D01*
X113119000Y-69116113D01*
X113228233Y-69665264D01*
X113539302Y-70130811D01*
X114004849Y-70441880D01*
X114554000Y-70551113D01*
X115103151Y-70441880D01*
X115568698Y-70130811D01*
X115879767Y-69665264D01*
X115989000Y-69116113D01*
X115989000Y-69059887D01*
X115879767Y-68510736D01*
X115568698Y-68045189D01*
X115443000Y-67961200D01*
X115443000Y-62103000D01*
X115400433Y-61889000D01*
X115375330Y-61762795D01*
X115182618Y-61474382D01*
X113931578Y-60223342D01*
X114267309Y-60362750D01*
X114838187Y-60363248D01*
X115365800Y-60145243D01*
X115694616Y-59817000D01*
X115836764Y-59817000D01*
X117475000Y-61455236D01*
X117475000Y-64897000D01*
X117542671Y-65237206D01*
X117595320Y-65316000D01*
X117735382Y-65525618D01*
X118072155Y-65862391D01*
X118071752Y-66324187D01*
X118289757Y-66851800D01*
X118693077Y-67255824D01*
X119220309Y-67474750D01*
X119791187Y-67475248D01*
X120318800Y-67257243D01*
X120722824Y-66853923D01*
X120941750Y-66326691D01*
X120942248Y-65755813D01*
X120724243Y-65228200D01*
X120320923Y-64824176D01*
X119793691Y-64605250D01*
X119329081Y-64604845D01*
X119253000Y-64528764D01*
X119253000Y-61087000D01*
X119185329Y-60746794D01*
X118992618Y-60458382D01*
X116833618Y-58299382D01*
X116545206Y-58106671D01*
X116205000Y-58039000D01*
X115694178Y-58039000D01*
X115367923Y-57712176D01*
X115041625Y-57576685D01*
X115309618Y-57397618D01*
X117843236Y-54864000D01*
X118474387Y-54864000D01*
X118181233Y-55302736D01*
X118072000Y-55851887D01*
X118072000Y-55908113D01*
X118181233Y-56457264D01*
X118492302Y-56922811D01*
X118957849Y-57233880D01*
X119507000Y-57343113D01*
X119572790Y-57330026D01*
X120910382Y-58667618D01*
X121198794Y-58860329D01*
X121539000Y-58928000D01*
X122416525Y-58928000D01*
X122827357Y-59339551D01*
X123391330Y-59573733D01*
X124001991Y-59574265D01*
X124566371Y-59341068D01*
X124734613Y-59173120D01*
X124734838Y-59174317D01*
X124873910Y-59390441D01*
X125086110Y-59535431D01*
X125338000Y-59586440D01*
X125349000Y-59586440D01*
X125349000Y-64947764D01*
X117357013Y-72939751D01*
X117342090Y-72916559D01*
X117129890Y-72771569D01*
X116878000Y-72720560D01*
X115278000Y-72720560D01*
X115042683Y-72764838D01*
X114826559Y-72903910D01*
X114681569Y-73116110D01*
X114660320Y-73221041D01*
X114391923Y-72952176D01*
X113864691Y-72733250D01*
X113293813Y-72732752D01*
X112766200Y-72950757D01*
X112362176Y-73354077D01*
X112143250Y-73881309D01*
X112142752Y-74452187D01*
X112360757Y-74979800D01*
X112689000Y-75308616D01*
X112689000Y-75605000D01*
X112756671Y-75945206D01*
X112887277Y-76140671D01*
X112949382Y-76233618D01*
X114306382Y-77590618D01*
X114594794Y-77783329D01*
X114935000Y-77851000D01*
X118237000Y-77851000D01*
X118577206Y-77783329D01*
X118865618Y-77590618D01*
X119008617Y-77447619D01*
X119105779Y-77302206D01*
X119172183Y-77202825D01*
X128882430Y-77202825D01*
X130000000Y-78320395D01*
X131117570Y-77202825D01*
X130994435Y-76915212D01*
X130312266Y-76655293D01*
X129582557Y-76676214D01*
X129005565Y-76915212D01*
X128882430Y-77202825D01*
X119172183Y-77202825D01*
X119201328Y-77159207D01*
X119268999Y-76819001D01*
X119268999Y-75790237D01*
X128628618Y-66430618D01*
X128699733Y-66324187D01*
X128821329Y-66142206D01*
X128889000Y-65802000D01*
X128889000Y-59984408D01*
X128959199Y-60054730D01*
X129111000Y-60117763D01*
X129111000Y-61000000D01*
X129178671Y-61340206D01*
X129179202Y-61341000D01*
X129371382Y-61628618D01*
X135808382Y-68065618D01*
X136096794Y-68258329D01*
X136437000Y-68326000D01*
X140337822Y-68326000D01*
X140664077Y-68652824D01*
X141191309Y-68871750D01*
X141762187Y-68872248D01*
X142289800Y-68654243D01*
X142618616Y-68326000D01*
X143268764Y-68326000D01*
X143980155Y-69037391D01*
X143979752Y-69499187D01*
X144197757Y-70026800D01*
X144601077Y-70430824D01*
X145128309Y-70649750D01*
X145699187Y-70650248D01*
X146177000Y-70452820D01*
X146177000Y-71513764D01*
X145294382Y-72396382D01*
X145101671Y-72684794D01*
X145034000Y-73025000D01*
X145034000Y-74007307D01*
X144887683Y-74034838D01*
X144671559Y-74173910D01*
X144526569Y-74386110D01*
X144505320Y-74491041D01*
X144236923Y-74222176D01*
X143709691Y-74003250D01*
X143138813Y-74002752D01*
X142611200Y-74220757D01*
X142207176Y-74624077D01*
X141988250Y-75151309D01*
X141987752Y-75722187D01*
X142205757Y-76249800D01*
X142609077Y-76653824D01*
X143136309Y-76872750D01*
X143707187Y-76873248D01*
X144234800Y-76655243D01*
X144503583Y-76386928D01*
X144519838Y-76473317D01*
X144658910Y-76689441D01*
X144871110Y-76834431D01*
X145123000Y-76885440D01*
X146723000Y-76885440D01*
X146958317Y-76841162D01*
X147174441Y-76702090D01*
X147319431Y-76489890D01*
X147370440Y-76238000D01*
X147370440Y-74638000D01*
X147326162Y-74402683D01*
X147187090Y-74186559D01*
X146974890Y-74041569D01*
X146812000Y-74008583D01*
X146812000Y-73393236D01*
X147694618Y-72510618D01*
X147770948Y-72396382D01*
X147887329Y-72222206D01*
X147955000Y-71882000D01*
X147955000Y-67945000D01*
X147887329Y-67604794D01*
X147694618Y-67316382D01*
X144780000Y-64401764D01*
X144780000Y-60351517D01*
X144865849Y-60408880D01*
X145415000Y-60518113D01*
X145964151Y-60408880D01*
X146429698Y-60097811D01*
X146740767Y-59632264D01*
X146850000Y-59083113D01*
X146850000Y-59026887D01*
X146740767Y-58477736D01*
X146429698Y-58012189D01*
X146304000Y-57928200D01*
X146304000Y-56388000D01*
X146236330Y-56047795D01*
X146043618Y-55759382D01*
X140201618Y-49917382D01*
X139913206Y-49724671D01*
X139573000Y-49657000D01*
X138303000Y-49657000D01*
X137962794Y-49724671D01*
X137674382Y-49917382D01*
X137293382Y-50298382D01*
X137100671Y-50586794D01*
X137033000Y-50927000D01*
X137033000Y-51149114D01*
X136946001Y-51106592D01*
X136779000Y-51233498D01*
X136779000Y-52324000D01*
X136799000Y-52324000D01*
X136799000Y-52578000D01*
X136779000Y-52578000D01*
X136779000Y-52598000D01*
X136525000Y-52598000D01*
X136525000Y-52578000D01*
X135567000Y-52578000D01*
X135567000Y-52878000D01*
X135675371Y-53213000D01*
X130898000Y-53213000D01*
X130557794Y-53280671D01*
X130278933Y-53467000D01*
X130269382Y-53473382D01*
X127371382Y-56371382D01*
X127272837Y-56518865D01*
X127138000Y-56491560D01*
X127127000Y-56491560D01*
X127127000Y-54483000D01*
X127059329Y-54142794D01*
X126866618Y-53854382D01*
X124834618Y-51822382D01*
X124652957Y-51701000D01*
X124546206Y-51629671D01*
X124395373Y-51599669D01*
X124370162Y-51465683D01*
X124231090Y-51249559D01*
X124018890Y-51104569D01*
X123767000Y-51053560D01*
X122867000Y-51053560D01*
X122631683Y-51097838D01*
X122527345Y-51164978D01*
X122462212Y-51121457D01*
X122047000Y-51038866D01*
X121631788Y-51121457D01*
X121407726Y-51271170D01*
X121071001Y-51106592D01*
X120904000Y-51233498D01*
X120904000Y-52324000D01*
X120924000Y-52324000D01*
X120924000Y-52578000D01*
X120904000Y-52578000D01*
X120904000Y-52598000D01*
X120650000Y-52598000D01*
X120650000Y-52578000D01*
X119692000Y-52578000D01*
X119692000Y-52878000D01*
X119759287Y-53086000D01*
X117475000Y-53086000D01*
X117134794Y-53153671D01*
X116940426Y-53283544D01*
X116846382Y-53346382D01*
X114312764Y-55880000D01*
X114173000Y-55880000D01*
X113832794Y-55947671D01*
X113588355Y-56111000D01*
X113544382Y-56140382D01*
X112274382Y-57410382D01*
X112081671Y-57698794D01*
X112014000Y-58039000D01*
X110710000Y-58039000D01*
X110710000Y-52024000D01*
X119692000Y-52024000D01*
X119692000Y-52324000D01*
X120650000Y-52324000D01*
X120650000Y-51233498D01*
X120482999Y-51106592D01*
X120099592Y-51293987D01*
X119823192Y-51618456D01*
X119692000Y-52024000D01*
X110710000Y-52024000D01*
X110710000Y-49069931D01*
X110821046Y-48511662D01*
X111097669Y-48097667D01*
X111511660Y-47821047D01*
X112069931Y-47710000D01*
X129296758Y-47710000D01*
X128650771Y-47976916D01*
M02*
