G04 #@! TF.FileFunction,Legend,Top*
%FSLAX46Y46*%
G04 Gerber Fmt 4.6, Leading zero omitted, Abs format (unit mm)*
G04 Created by KiCad (PCBNEW 4.0.6) date 07/03/18 08:43:19*
%MOMM*%
%LPD*%
G01*
G04 APERTURE LIST*
%ADD10C,0.100000*%
%ADD11C,0.200000*%
%ADD12C,0.010000*%
%ADD13C,0.120000*%
%ADD14C,0.254000*%
G04 APERTURE END LIST*
D10*
D11*
X118857143Y-85914286D02*
X119028572Y-85971429D01*
X119085715Y-86028571D01*
X119142858Y-86142857D01*
X119142858Y-86314286D01*
X119085715Y-86428571D01*
X119028572Y-86485714D01*
X118914286Y-86542857D01*
X118457143Y-86542857D01*
X118457143Y-85342857D01*
X118857143Y-85342857D01*
X118971429Y-85400000D01*
X119028572Y-85457143D01*
X119085715Y-85571429D01*
X119085715Y-85685714D01*
X119028572Y-85800000D01*
X118971429Y-85857143D01*
X118857143Y-85914286D01*
X118457143Y-85914286D01*
X119600000Y-86200000D02*
X120171429Y-86200000D01*
X119485715Y-86542857D02*
X119885715Y-85342857D01*
X120285715Y-86542857D01*
X120685714Y-86542857D02*
X120685714Y-85342857D01*
X120971429Y-85342857D01*
X121142857Y-85400000D01*
X121257143Y-85514286D01*
X121314286Y-85628571D01*
X121371429Y-85857143D01*
X121371429Y-86028571D01*
X121314286Y-86257143D01*
X121257143Y-86371429D01*
X121142857Y-86485714D01*
X120971429Y-86542857D01*
X120685714Y-86542857D01*
X122514286Y-85400000D02*
X122400000Y-85342857D01*
X122228571Y-85342857D01*
X122057143Y-85400000D01*
X121942857Y-85514286D01*
X121885714Y-85628571D01*
X121828571Y-85857143D01*
X121828571Y-86028571D01*
X121885714Y-86257143D01*
X121942857Y-86371429D01*
X122057143Y-86485714D01*
X122228571Y-86542857D01*
X122342857Y-86542857D01*
X122514286Y-86485714D01*
X122571429Y-86428571D01*
X122571429Y-86028571D01*
X122342857Y-86028571D01*
X123085714Y-85914286D02*
X123485714Y-85914286D01*
X123657143Y-86542857D02*
X123085714Y-86542857D01*
X123085714Y-85342857D01*
X123657143Y-85342857D01*
X125085714Y-86085714D02*
X126000000Y-86085714D01*
X127428571Y-86200000D02*
X128000000Y-86200000D01*
X127314286Y-86542857D02*
X127714286Y-85342857D01*
X128114286Y-86542857D01*
X128514285Y-86542857D02*
X128514285Y-85342857D01*
X128971428Y-85342857D01*
X129085714Y-85400000D01*
X129142857Y-85457143D01*
X129200000Y-85571429D01*
X129200000Y-85742857D01*
X129142857Y-85857143D01*
X129085714Y-85914286D01*
X128971428Y-85971429D01*
X128514285Y-85971429D01*
X130400000Y-86542857D02*
X130000000Y-85971429D01*
X129714285Y-86542857D02*
X129714285Y-85342857D01*
X130171428Y-85342857D01*
X130285714Y-85400000D01*
X130342857Y-85457143D01*
X130400000Y-85571429D01*
X130400000Y-85742857D01*
X130342857Y-85857143D01*
X130285714Y-85914286D01*
X130171428Y-85971429D01*
X129714285Y-85971429D01*
X130914285Y-85914286D02*
X131314285Y-85914286D01*
X131485714Y-86542857D02*
X130914285Y-86542857D01*
X130914285Y-85342857D01*
X131485714Y-85342857D01*
X131999999Y-86542857D02*
X131999999Y-85342857D01*
X132685714Y-86542857D01*
X132685714Y-85342857D01*
X133257142Y-86542857D02*
X133257142Y-85342857D01*
X133542857Y-85342857D01*
X133714285Y-85400000D01*
X133828571Y-85514286D01*
X133885714Y-85628571D01*
X133942857Y-85857143D01*
X133942857Y-86028571D01*
X133885714Y-86257143D01*
X133828571Y-86371429D01*
X133714285Y-86485714D01*
X133542857Y-86542857D01*
X133257142Y-86542857D01*
X134399999Y-86200000D02*
X134971428Y-86200000D01*
X134285714Y-86542857D02*
X134685714Y-85342857D01*
X135085714Y-86542857D01*
X136342856Y-86485714D02*
X136514285Y-86542857D01*
X136799999Y-86542857D01*
X136914285Y-86485714D01*
X136971428Y-86428571D01*
X137028571Y-86314286D01*
X137028571Y-86200000D01*
X136971428Y-86085714D01*
X136914285Y-86028571D01*
X136799999Y-85971429D01*
X136571428Y-85914286D01*
X136457142Y-85857143D01*
X136399999Y-85800000D01*
X136342856Y-85685714D01*
X136342856Y-85571429D01*
X136399999Y-85457143D01*
X136457142Y-85400000D01*
X136571428Y-85342857D01*
X136857142Y-85342857D01*
X137028571Y-85400000D01*
X137771428Y-85342857D02*
X137999999Y-85342857D01*
X138114285Y-85400000D01*
X138228571Y-85514286D01*
X138285713Y-85742857D01*
X138285713Y-86142857D01*
X138228571Y-86371429D01*
X138114285Y-86485714D01*
X137999999Y-86542857D01*
X137771428Y-86542857D01*
X137657142Y-86485714D01*
X137542856Y-86371429D01*
X137485713Y-86142857D01*
X137485713Y-85742857D01*
X137542856Y-85514286D01*
X137657142Y-85400000D01*
X137771428Y-85342857D01*
X139371428Y-86542857D02*
X138799999Y-86542857D01*
X138799999Y-85342857D01*
X139771428Y-86542857D02*
X139771428Y-85342857D01*
X140057143Y-85342857D01*
X140228571Y-85400000D01*
X140342857Y-85514286D01*
X140400000Y-85628571D01*
X140457143Y-85857143D01*
X140457143Y-86028571D01*
X140400000Y-86257143D01*
X140342857Y-86371429D01*
X140228571Y-86485714D01*
X140057143Y-86542857D01*
X139771428Y-86542857D01*
X140914285Y-86200000D02*
X141485714Y-86200000D01*
X140800000Y-86542857D02*
X141200000Y-85342857D01*
X141600000Y-86542857D01*
X142685714Y-86542857D02*
X142285714Y-85971429D01*
X141999999Y-86542857D02*
X141999999Y-85342857D01*
X142457142Y-85342857D01*
X142571428Y-85400000D01*
X142628571Y-85457143D01*
X142685714Y-85571429D01*
X142685714Y-85742857D01*
X142628571Y-85857143D01*
X142571428Y-85914286D01*
X142457142Y-85971429D01*
X141999999Y-85971429D01*
X141357143Y-48952381D02*
X140880952Y-48952381D01*
X140880952Y-47952381D01*
X142071429Y-48904762D02*
X141976191Y-48952381D01*
X141785714Y-48952381D01*
X141690476Y-48904762D01*
X141642857Y-48809524D01*
X141642857Y-48428571D01*
X141690476Y-48333333D01*
X141785714Y-48285714D01*
X141976191Y-48285714D01*
X142071429Y-48333333D01*
X142119048Y-48428571D01*
X142119048Y-48523810D01*
X141642857Y-48619048D01*
X142547619Y-48952381D02*
X142547619Y-48285714D01*
X142547619Y-47952381D02*
X142500000Y-48000000D01*
X142547619Y-48047619D01*
X142595238Y-48000000D01*
X142547619Y-47952381D01*
X142547619Y-48047619D01*
X144214286Y-48952381D02*
X144214286Y-47952381D01*
X144214286Y-48904762D02*
X144119048Y-48952381D01*
X143928571Y-48952381D01*
X143833333Y-48904762D01*
X143785714Y-48857143D01*
X143738095Y-48761905D01*
X143738095Y-48476190D01*
X143785714Y-48380952D01*
X143833333Y-48333333D01*
X143928571Y-48285714D01*
X144119048Y-48285714D01*
X144214286Y-48333333D01*
X145071429Y-48904762D02*
X144976191Y-48952381D01*
X144785714Y-48952381D01*
X144690476Y-48904762D01*
X144642857Y-48809524D01*
X144642857Y-48428571D01*
X144690476Y-48333333D01*
X144785714Y-48285714D01*
X144976191Y-48285714D01*
X145071429Y-48333333D01*
X145119048Y-48428571D01*
X145119048Y-48523810D01*
X144642857Y-48619048D01*
X146500000Y-47952381D02*
X146690477Y-47952381D01*
X146785715Y-48000000D01*
X146880953Y-48095238D01*
X146928572Y-48285714D01*
X146928572Y-48619048D01*
X146880953Y-48809524D01*
X146785715Y-48904762D01*
X146690477Y-48952381D01*
X146500000Y-48952381D01*
X146404762Y-48904762D01*
X146309524Y-48809524D01*
X146261905Y-48619048D01*
X146261905Y-48285714D01*
X146309524Y-48095238D01*
X146404762Y-48000000D01*
X146500000Y-47952381D01*
X147357143Y-48952381D02*
X147357143Y-47952381D01*
X147785715Y-48952381D02*
X147785715Y-48428571D01*
X147738096Y-48333333D01*
X147642858Y-48285714D01*
X147500000Y-48285714D01*
X147404762Y-48333333D01*
X147357143Y-48380952D01*
X148261905Y-48952381D02*
X148261905Y-48285714D01*
X148261905Y-48380952D02*
X148309524Y-48333333D01*
X148404762Y-48285714D01*
X148547620Y-48285714D01*
X148642858Y-48333333D01*
X148690477Y-48428571D01*
X148690477Y-48952381D01*
X148690477Y-48428571D02*
X148738096Y-48333333D01*
X148833334Y-48285714D01*
X148976191Y-48285714D01*
X149071429Y-48333333D01*
X149119048Y-48428571D01*
X149119048Y-48952381D01*
X141380952Y-54952381D02*
X141714285Y-55952381D01*
X142047619Y-54952381D01*
X143142857Y-55428571D02*
X143904762Y-55428571D01*
X143904762Y-55714286D02*
X143142857Y-55714286D01*
X145714286Y-55952381D02*
X145380952Y-55476190D01*
X145142857Y-55952381D02*
X145142857Y-54952381D01*
X145523810Y-54952381D01*
X145619048Y-55000000D01*
X145666667Y-55047619D01*
X145714286Y-55142857D01*
X145714286Y-55285714D01*
X145666667Y-55380952D01*
X145619048Y-55428571D01*
X145523810Y-55476190D01*
X145142857Y-55476190D01*
X146809524Y-55952381D02*
X147333334Y-55285714D01*
X146809524Y-55285714D02*
X147333334Y-55952381D01*
X148476191Y-55952381D02*
X148476191Y-54952381D01*
D12*
G36*
X133150556Y-77024415D02*
X133595056Y-77024775D01*
X133707945Y-77062860D01*
X133850142Y-77122091D01*
X133973812Y-77198809D01*
X134085177Y-77296938D01*
X134094658Y-77306796D01*
X134193853Y-77426508D01*
X134266755Y-77550752D01*
X134315293Y-77684022D01*
X134341397Y-77830812D01*
X134345875Y-77891889D01*
X134343104Y-78046681D01*
X134318158Y-78186834D01*
X134269569Y-78316125D01*
X134195874Y-78438327D01*
X134095605Y-78557217D01*
X134082253Y-78570899D01*
X134019683Y-78631709D01*
X133966535Y-78676686D01*
X133914580Y-78712017D01*
X133855588Y-78743889D01*
X133845825Y-78748657D01*
X133729706Y-78804792D01*
X133852403Y-78865591D01*
X133926888Y-78906141D01*
X133990235Y-78950240D01*
X134053701Y-79006137D01*
X134081552Y-79033556D01*
X134183932Y-79151820D01*
X134259897Y-79275358D01*
X134311224Y-79408170D01*
X134339693Y-79554256D01*
X134345629Y-79627555D01*
X134345621Y-79756132D01*
X134330369Y-79870217D01*
X134297759Y-79980302D01*
X134254543Y-80079111D01*
X134196299Y-80174898D01*
X134117920Y-80270994D01*
X134026502Y-80360304D01*
X133929142Y-80435733D01*
X133852583Y-80480899D01*
X133803530Y-80505640D01*
X133765863Y-80525150D01*
X133745342Y-80536422D01*
X133743222Y-80537972D01*
X133754898Y-80544922D01*
X133785944Y-80561191D01*
X133830391Y-80583671D01*
X133845528Y-80591202D01*
X133979728Y-80672705D01*
X134095411Y-80773453D01*
X134191206Y-80890479D01*
X134265742Y-81020817D01*
X134317649Y-81161500D01*
X134345554Y-81309560D01*
X134348088Y-81462033D01*
X134323880Y-81615949D01*
X134322173Y-81622732D01*
X134271016Y-81770716D01*
X134196162Y-81904916D01*
X134095963Y-82028231D01*
X134085335Y-82039211D01*
X134043370Y-82082466D01*
X134010449Y-82117359D01*
X133990521Y-82139644D01*
X133986471Y-82145526D01*
X134000462Y-82150375D01*
X134036274Y-82162407D01*
X134088926Y-82179960D01*
X134153438Y-82201368D01*
X134173611Y-82208047D01*
X134424777Y-82305860D01*
X134666631Y-82429598D01*
X134896591Y-82577775D01*
X135107189Y-82744630D01*
X135290610Y-82922873D01*
X135456292Y-83120321D01*
X135602767Y-83333975D01*
X135728567Y-83560835D01*
X135832225Y-83797900D01*
X135912273Y-84042172D01*
X135967243Y-84290650D01*
X135995667Y-84540334D01*
X135996881Y-84562916D01*
X136005289Y-84735777D01*
X130662711Y-84735777D01*
X130671119Y-84562916D01*
X130697478Y-84306767D01*
X130750557Y-84055223D01*
X130828977Y-83810234D01*
X130931361Y-83573750D01*
X131056332Y-83347723D01*
X131202510Y-83134103D01*
X131368520Y-82934841D01*
X131552983Y-82751888D01*
X131754520Y-82587193D01*
X131971756Y-82442709D01*
X132203311Y-82320386D01*
X132278629Y-82286911D01*
X132336155Y-82262116D01*
X132383448Y-82241071D01*
X132414815Y-82226352D01*
X132424552Y-82220929D01*
X132417886Y-82210090D01*
X132393313Y-82189787D01*
X132371204Y-82174413D01*
X132238244Y-82073161D01*
X132130421Y-81960136D01*
X132046533Y-81833705D01*
X131985379Y-81692229D01*
X131964299Y-81620667D01*
X131939034Y-81467326D01*
X131940555Y-81315192D01*
X131967482Y-81167243D01*
X132018435Y-81026456D01*
X132092034Y-80895810D01*
X132186898Y-80778282D01*
X132301648Y-80676850D01*
X132434902Y-80594492D01*
X132441472Y-80591202D01*
X132488790Y-80567458D01*
X132524506Y-80548989D01*
X132542653Y-80538902D01*
X132543778Y-80537972D01*
X132532136Y-80530924D01*
X132501079Y-80514291D01*
X132456413Y-80491155D01*
X132437124Y-80481324D01*
X132311074Y-80402350D01*
X132196654Y-80301181D01*
X132098340Y-80182920D01*
X132020609Y-80052674D01*
X131983062Y-79963495D01*
X131956823Y-79863714D01*
X131941524Y-79750417D01*
X131937746Y-79634388D01*
X131946070Y-79526413D01*
X131956564Y-79472157D01*
X132007484Y-79322985D01*
X132081470Y-79185360D01*
X132175867Y-79062653D01*
X132288016Y-78958238D01*
X132415261Y-78875487D01*
X132434356Y-78865710D01*
X132556813Y-78805030D01*
X132440934Y-78747635D01*
X132338255Y-78685509D01*
X132237834Y-78604226D01*
X132146541Y-78510583D01*
X132071248Y-78411377D01*
X132032319Y-78343444D01*
X131983253Y-78228006D01*
X131953274Y-78116920D01*
X131940274Y-77999788D01*
X131940809Y-77891889D01*
X131960718Y-77732956D01*
X132005922Y-77586274D01*
X132076778Y-77451078D01*
X132173646Y-77326601D01*
X132233414Y-77266781D01*
X132337085Y-77182221D01*
X132446799Y-77117183D01*
X132572180Y-77066167D01*
X132600222Y-77057088D01*
X132630897Y-77047857D01*
X132659637Y-77040530D01*
X132690082Y-77034890D01*
X132725874Y-77030722D01*
X132770651Y-77027809D01*
X132828054Y-77025936D01*
X132901724Y-77024885D01*
X132995299Y-77024441D01*
X133112421Y-77024389D01*
X133150556Y-77024415D01*
X133150556Y-77024415D01*
G37*
X133150556Y-77024415D02*
X133595056Y-77024775D01*
X133707945Y-77062860D01*
X133850142Y-77122091D01*
X133973812Y-77198809D01*
X134085177Y-77296938D01*
X134094658Y-77306796D01*
X134193853Y-77426508D01*
X134266755Y-77550752D01*
X134315293Y-77684022D01*
X134341397Y-77830812D01*
X134345875Y-77891889D01*
X134343104Y-78046681D01*
X134318158Y-78186834D01*
X134269569Y-78316125D01*
X134195874Y-78438327D01*
X134095605Y-78557217D01*
X134082253Y-78570899D01*
X134019683Y-78631709D01*
X133966535Y-78676686D01*
X133914580Y-78712017D01*
X133855588Y-78743889D01*
X133845825Y-78748657D01*
X133729706Y-78804792D01*
X133852403Y-78865591D01*
X133926888Y-78906141D01*
X133990235Y-78950240D01*
X134053701Y-79006137D01*
X134081552Y-79033556D01*
X134183932Y-79151820D01*
X134259897Y-79275358D01*
X134311224Y-79408170D01*
X134339693Y-79554256D01*
X134345629Y-79627555D01*
X134345621Y-79756132D01*
X134330369Y-79870217D01*
X134297759Y-79980302D01*
X134254543Y-80079111D01*
X134196299Y-80174898D01*
X134117920Y-80270994D01*
X134026502Y-80360304D01*
X133929142Y-80435733D01*
X133852583Y-80480899D01*
X133803530Y-80505640D01*
X133765863Y-80525150D01*
X133745342Y-80536422D01*
X133743222Y-80537972D01*
X133754898Y-80544922D01*
X133785944Y-80561191D01*
X133830391Y-80583671D01*
X133845528Y-80591202D01*
X133979728Y-80672705D01*
X134095411Y-80773453D01*
X134191206Y-80890479D01*
X134265742Y-81020817D01*
X134317649Y-81161500D01*
X134345554Y-81309560D01*
X134348088Y-81462033D01*
X134323880Y-81615949D01*
X134322173Y-81622732D01*
X134271016Y-81770716D01*
X134196162Y-81904916D01*
X134095963Y-82028231D01*
X134085335Y-82039211D01*
X134043370Y-82082466D01*
X134010449Y-82117359D01*
X133990521Y-82139644D01*
X133986471Y-82145526D01*
X134000462Y-82150375D01*
X134036274Y-82162407D01*
X134088926Y-82179960D01*
X134153438Y-82201368D01*
X134173611Y-82208047D01*
X134424777Y-82305860D01*
X134666631Y-82429598D01*
X134896591Y-82577775D01*
X135107189Y-82744630D01*
X135290610Y-82922873D01*
X135456292Y-83120321D01*
X135602767Y-83333975D01*
X135728567Y-83560835D01*
X135832225Y-83797900D01*
X135912273Y-84042172D01*
X135967243Y-84290650D01*
X135995667Y-84540334D01*
X135996881Y-84562916D01*
X136005289Y-84735777D01*
X130662711Y-84735777D01*
X130671119Y-84562916D01*
X130697478Y-84306767D01*
X130750557Y-84055223D01*
X130828977Y-83810234D01*
X130931361Y-83573750D01*
X131056332Y-83347723D01*
X131202510Y-83134103D01*
X131368520Y-82934841D01*
X131552983Y-82751888D01*
X131754520Y-82587193D01*
X131971756Y-82442709D01*
X132203311Y-82320386D01*
X132278629Y-82286911D01*
X132336155Y-82262116D01*
X132383448Y-82241071D01*
X132414815Y-82226352D01*
X132424552Y-82220929D01*
X132417886Y-82210090D01*
X132393313Y-82189787D01*
X132371204Y-82174413D01*
X132238244Y-82073161D01*
X132130421Y-81960136D01*
X132046533Y-81833705D01*
X131985379Y-81692229D01*
X131964299Y-81620667D01*
X131939034Y-81467326D01*
X131940555Y-81315192D01*
X131967482Y-81167243D01*
X132018435Y-81026456D01*
X132092034Y-80895810D01*
X132186898Y-80778282D01*
X132301648Y-80676850D01*
X132434902Y-80594492D01*
X132441472Y-80591202D01*
X132488790Y-80567458D01*
X132524506Y-80548989D01*
X132542653Y-80538902D01*
X132543778Y-80537972D01*
X132532136Y-80530924D01*
X132501079Y-80514291D01*
X132456413Y-80491155D01*
X132437124Y-80481324D01*
X132311074Y-80402350D01*
X132196654Y-80301181D01*
X132098340Y-80182920D01*
X132020609Y-80052674D01*
X131983062Y-79963495D01*
X131956823Y-79863714D01*
X131941524Y-79750417D01*
X131937746Y-79634388D01*
X131946070Y-79526413D01*
X131956564Y-79472157D01*
X132007484Y-79322985D01*
X132081470Y-79185360D01*
X132175867Y-79062653D01*
X132288016Y-78958238D01*
X132415261Y-78875487D01*
X132434356Y-78865710D01*
X132556813Y-78805030D01*
X132440934Y-78747635D01*
X132338255Y-78685509D01*
X132237834Y-78604226D01*
X132146541Y-78510583D01*
X132071248Y-78411377D01*
X132032319Y-78343444D01*
X131983253Y-78228006D01*
X131953274Y-78116920D01*
X131940274Y-77999788D01*
X131940809Y-77891889D01*
X131960718Y-77732956D01*
X132005922Y-77586274D01*
X132076778Y-77451078D01*
X132173646Y-77326601D01*
X132233414Y-77266781D01*
X132337085Y-77182221D01*
X132446799Y-77117183D01*
X132572180Y-77066167D01*
X132600222Y-77057088D01*
X132630897Y-77047857D01*
X132659637Y-77040530D01*
X132690082Y-77034890D01*
X132725874Y-77030722D01*
X132770651Y-77027809D01*
X132828054Y-77025936D01*
X132901724Y-77024885D01*
X132995299Y-77024441D01*
X133112421Y-77024389D01*
X133150556Y-77024415D01*
G36*
X126556813Y-76989556D02*
X126669749Y-76990992D01*
X126762256Y-76994025D01*
X126838232Y-76999182D01*
X126901569Y-77006986D01*
X126956162Y-77017963D01*
X127005907Y-77032638D01*
X127054698Y-77051534D01*
X127106429Y-77075177D01*
X127125111Y-77084259D01*
X127230336Y-77148363D01*
X127332430Y-77233400D01*
X127424469Y-77332335D01*
X127499530Y-77438132D01*
X127531106Y-77496777D01*
X127575132Y-77598693D01*
X127603779Y-77689617D01*
X127619578Y-77780368D01*
X127625058Y-77881765D01*
X127625147Y-77898944D01*
X127620952Y-78003729D01*
X127606661Y-78096006D01*
X127579711Y-78186714D01*
X127537542Y-78286792D01*
X127531162Y-78300318D01*
X127460758Y-78418834D01*
X127368717Y-78528564D01*
X127261191Y-78623318D01*
X127144336Y-78696909D01*
X127129493Y-78704257D01*
X127078626Y-78729371D01*
X127039068Y-78750233D01*
X127016544Y-78763758D01*
X127013460Y-78766777D01*
X127025109Y-78775502D01*
X127056704Y-78792949D01*
X127102548Y-78816059D01*
X127128087Y-78828334D01*
X127243568Y-78896916D01*
X127351405Y-78987496D01*
X127445441Y-79093891D01*
X127519519Y-79209916D01*
X127531162Y-79233237D01*
X127575386Y-79335227D01*
X127604073Y-79426500D01*
X127619787Y-79517992D01*
X127625089Y-79620643D01*
X127625147Y-79634611D01*
X127620952Y-79739395D01*
X127606661Y-79831672D01*
X127579711Y-79922381D01*
X127537542Y-80022458D01*
X127531162Y-80035985D01*
X127461359Y-80153262D01*
X127369466Y-80262691D01*
X127261565Y-80358143D01*
X127143735Y-80433495D01*
X127129259Y-80440875D01*
X127013463Y-80498282D01*
X127122204Y-80552664D01*
X127187182Y-80589118D01*
X127248150Y-80632900D01*
X127313218Y-80690197D01*
X127351587Y-80727606D01*
X127454091Y-80842798D01*
X127530559Y-80959322D01*
X127582972Y-81081910D01*
X127613312Y-81215294D01*
X127623559Y-81364206D01*
X127623568Y-81377333D01*
X127621652Y-81457571D01*
X127615519Y-81521274D01*
X127603504Y-81580014D01*
X127585867Y-81639495D01*
X127523338Y-81786800D01*
X127437063Y-81919856D01*
X127328979Y-82036111D01*
X127220608Y-82120347D01*
X127122674Y-82185454D01*
X127247942Y-82237129D01*
X127495760Y-82354304D01*
X127727692Y-82494320D01*
X127942623Y-82655971D01*
X128139438Y-82838051D01*
X128317021Y-83039352D01*
X128474257Y-83258669D01*
X128610032Y-83494793D01*
X128723229Y-83746520D01*
X128774773Y-83889111D01*
X128811601Y-84013892D01*
X128844160Y-84150839D01*
X128870968Y-84291598D01*
X128890540Y-84427813D01*
X128901394Y-84551129D01*
X128903111Y-84611935D01*
X128903111Y-84693444D01*
X126229056Y-84693444D01*
X125894999Y-84693411D01*
X125588156Y-84693307D01*
X125307515Y-84693127D01*
X125052068Y-84692862D01*
X124820804Y-84692507D01*
X124612716Y-84692055D01*
X124426792Y-84691498D01*
X124262023Y-84690832D01*
X124117400Y-84690048D01*
X123991914Y-84689140D01*
X123884554Y-84688102D01*
X123794311Y-84686927D01*
X123720176Y-84685608D01*
X123661138Y-84684138D01*
X123616190Y-84682512D01*
X123584320Y-84680721D01*
X123564520Y-84678761D01*
X123555779Y-84676623D01*
X123555146Y-84675805D01*
X123556365Y-84655480D01*
X123559577Y-84613243D01*
X123564291Y-84555295D01*
X123569930Y-84488833D01*
X123607199Y-84217123D01*
X123670813Y-83953325D01*
X123759830Y-83699155D01*
X123873308Y-83456328D01*
X124010303Y-83226560D01*
X124169874Y-83011568D01*
X124351078Y-82813066D01*
X124552973Y-82632772D01*
X124616822Y-82582953D01*
X124792580Y-82459713D01*
X124972526Y-82353649D01*
X125162706Y-82261806D01*
X125369162Y-82181228D01*
X125569019Y-82117317D01*
X125566940Y-82106021D01*
X125547915Y-82079359D01*
X125515287Y-82041582D01*
X125481599Y-82006173D01*
X125379149Y-81883281D01*
X125299296Y-81746332D01*
X125244158Y-81599362D01*
X125225618Y-81518444D01*
X125211889Y-81364958D01*
X125224853Y-81213973D01*
X125262982Y-81068449D01*
X125324750Y-80931343D01*
X125408631Y-80805615D01*
X125513098Y-80694224D01*
X125636626Y-80600129D01*
X125725017Y-80550334D01*
X125831417Y-80497761D01*
X125756981Y-80464910D01*
X125626904Y-80392910D01*
X125507583Y-80298268D01*
X125404181Y-80185961D01*
X125321866Y-80060966D01*
X125306322Y-80030663D01*
X125261339Y-79927695D01*
X125232785Y-79833672D01*
X125217916Y-79736828D01*
X125213964Y-79634611D01*
X125216154Y-79565722D01*
X125221961Y-79496758D01*
X125230244Y-79440333D01*
X125232488Y-79430000D01*
X125263227Y-79335284D01*
X125309850Y-79233348D01*
X125366600Y-79135085D01*
X125427719Y-79051389D01*
X125440145Y-79037152D01*
X125495765Y-78982371D01*
X125563172Y-78926058D01*
X125635108Y-78873431D01*
X125704313Y-78829707D01*
X125763532Y-78800104D01*
X125776604Y-78795295D01*
X125808989Y-78782318D01*
X125825818Y-78771096D01*
X125826506Y-78769211D01*
X125814444Y-78759391D01*
X125782467Y-78741068D01*
X125736344Y-78717438D01*
X125711025Y-78705221D01*
X125595543Y-78636639D01*
X125487706Y-78546059D01*
X125393670Y-78439664D01*
X125319592Y-78323639D01*
X125307949Y-78300318D01*
X125263726Y-78198327D01*
X125235038Y-78107055D01*
X125219324Y-78015563D01*
X125214022Y-77912912D01*
X125213964Y-77898944D01*
X125218086Y-77794957D01*
X125232138Y-77703275D01*
X125258651Y-77613081D01*
X125300154Y-77513553D01*
X125308005Y-77496777D01*
X125370759Y-77390204D01*
X125454304Y-77286619D01*
X125551717Y-77193058D01*
X125656074Y-77116555D01*
X125714000Y-77084259D01*
X125767589Y-77058906D01*
X125816932Y-77038477D01*
X125865923Y-77022446D01*
X125918457Y-77010287D01*
X125978428Y-77001478D01*
X126049732Y-76995492D01*
X126136263Y-76991805D01*
X126241915Y-76989892D01*
X126370584Y-76989229D01*
X126419556Y-76989195D01*
X126556813Y-76989556D01*
X126556813Y-76989556D01*
G37*
X126556813Y-76989556D02*
X126669749Y-76990992D01*
X126762256Y-76994025D01*
X126838232Y-76999182D01*
X126901569Y-77006986D01*
X126956162Y-77017963D01*
X127005907Y-77032638D01*
X127054698Y-77051534D01*
X127106429Y-77075177D01*
X127125111Y-77084259D01*
X127230336Y-77148363D01*
X127332430Y-77233400D01*
X127424469Y-77332335D01*
X127499530Y-77438132D01*
X127531106Y-77496777D01*
X127575132Y-77598693D01*
X127603779Y-77689617D01*
X127619578Y-77780368D01*
X127625058Y-77881765D01*
X127625147Y-77898944D01*
X127620952Y-78003729D01*
X127606661Y-78096006D01*
X127579711Y-78186714D01*
X127537542Y-78286792D01*
X127531162Y-78300318D01*
X127460758Y-78418834D01*
X127368717Y-78528564D01*
X127261191Y-78623318D01*
X127144336Y-78696909D01*
X127129493Y-78704257D01*
X127078626Y-78729371D01*
X127039068Y-78750233D01*
X127016544Y-78763758D01*
X127013460Y-78766777D01*
X127025109Y-78775502D01*
X127056704Y-78792949D01*
X127102548Y-78816059D01*
X127128087Y-78828334D01*
X127243568Y-78896916D01*
X127351405Y-78987496D01*
X127445441Y-79093891D01*
X127519519Y-79209916D01*
X127531162Y-79233237D01*
X127575386Y-79335227D01*
X127604073Y-79426500D01*
X127619787Y-79517992D01*
X127625089Y-79620643D01*
X127625147Y-79634611D01*
X127620952Y-79739395D01*
X127606661Y-79831672D01*
X127579711Y-79922381D01*
X127537542Y-80022458D01*
X127531162Y-80035985D01*
X127461359Y-80153262D01*
X127369466Y-80262691D01*
X127261565Y-80358143D01*
X127143735Y-80433495D01*
X127129259Y-80440875D01*
X127013463Y-80498282D01*
X127122204Y-80552664D01*
X127187182Y-80589118D01*
X127248150Y-80632900D01*
X127313218Y-80690197D01*
X127351587Y-80727606D01*
X127454091Y-80842798D01*
X127530559Y-80959322D01*
X127582972Y-81081910D01*
X127613312Y-81215294D01*
X127623559Y-81364206D01*
X127623568Y-81377333D01*
X127621652Y-81457571D01*
X127615519Y-81521274D01*
X127603504Y-81580014D01*
X127585867Y-81639495D01*
X127523338Y-81786800D01*
X127437063Y-81919856D01*
X127328979Y-82036111D01*
X127220608Y-82120347D01*
X127122674Y-82185454D01*
X127247942Y-82237129D01*
X127495760Y-82354304D01*
X127727692Y-82494320D01*
X127942623Y-82655971D01*
X128139438Y-82838051D01*
X128317021Y-83039352D01*
X128474257Y-83258669D01*
X128610032Y-83494793D01*
X128723229Y-83746520D01*
X128774773Y-83889111D01*
X128811601Y-84013892D01*
X128844160Y-84150839D01*
X128870968Y-84291598D01*
X128890540Y-84427813D01*
X128901394Y-84551129D01*
X128903111Y-84611935D01*
X128903111Y-84693444D01*
X126229056Y-84693444D01*
X125894999Y-84693411D01*
X125588156Y-84693307D01*
X125307515Y-84693127D01*
X125052068Y-84692862D01*
X124820804Y-84692507D01*
X124612716Y-84692055D01*
X124426792Y-84691498D01*
X124262023Y-84690832D01*
X124117400Y-84690048D01*
X123991914Y-84689140D01*
X123884554Y-84688102D01*
X123794311Y-84686927D01*
X123720176Y-84685608D01*
X123661138Y-84684138D01*
X123616190Y-84682512D01*
X123584320Y-84680721D01*
X123564520Y-84678761D01*
X123555779Y-84676623D01*
X123555146Y-84675805D01*
X123556365Y-84655480D01*
X123559577Y-84613243D01*
X123564291Y-84555295D01*
X123569930Y-84488833D01*
X123607199Y-84217123D01*
X123670813Y-83953325D01*
X123759830Y-83699155D01*
X123873308Y-83456328D01*
X124010303Y-83226560D01*
X124169874Y-83011568D01*
X124351078Y-82813066D01*
X124552973Y-82632772D01*
X124616822Y-82582953D01*
X124792580Y-82459713D01*
X124972526Y-82353649D01*
X125162706Y-82261806D01*
X125369162Y-82181228D01*
X125569019Y-82117317D01*
X125566940Y-82106021D01*
X125547915Y-82079359D01*
X125515287Y-82041582D01*
X125481599Y-82006173D01*
X125379149Y-81883281D01*
X125299296Y-81746332D01*
X125244158Y-81599362D01*
X125225618Y-81518444D01*
X125211889Y-81364958D01*
X125224853Y-81213973D01*
X125262982Y-81068449D01*
X125324750Y-80931343D01*
X125408631Y-80805615D01*
X125513098Y-80694224D01*
X125636626Y-80600129D01*
X125725017Y-80550334D01*
X125831417Y-80497761D01*
X125756981Y-80464910D01*
X125626904Y-80392910D01*
X125507583Y-80298268D01*
X125404181Y-80185961D01*
X125321866Y-80060966D01*
X125306322Y-80030663D01*
X125261339Y-79927695D01*
X125232785Y-79833672D01*
X125217916Y-79736828D01*
X125213964Y-79634611D01*
X125216154Y-79565722D01*
X125221961Y-79496758D01*
X125230244Y-79440333D01*
X125232488Y-79430000D01*
X125263227Y-79335284D01*
X125309850Y-79233348D01*
X125366600Y-79135085D01*
X125427719Y-79051389D01*
X125440145Y-79037152D01*
X125495765Y-78982371D01*
X125563172Y-78926058D01*
X125635108Y-78873431D01*
X125704313Y-78829707D01*
X125763532Y-78800104D01*
X125776604Y-78795295D01*
X125808989Y-78782318D01*
X125825818Y-78771096D01*
X125826506Y-78769211D01*
X125814444Y-78759391D01*
X125782467Y-78741068D01*
X125736344Y-78717438D01*
X125711025Y-78705221D01*
X125595543Y-78636639D01*
X125487706Y-78546059D01*
X125393670Y-78439664D01*
X125319592Y-78323639D01*
X125307949Y-78300318D01*
X125263726Y-78198327D01*
X125235038Y-78107055D01*
X125219324Y-78015563D01*
X125214022Y-77912912D01*
X125213964Y-77898944D01*
X125218086Y-77794957D01*
X125232138Y-77703275D01*
X125258651Y-77613081D01*
X125300154Y-77513553D01*
X125308005Y-77496777D01*
X125370759Y-77390204D01*
X125454304Y-77286619D01*
X125551717Y-77193058D01*
X125656074Y-77116555D01*
X125714000Y-77084259D01*
X125767589Y-77058906D01*
X125816932Y-77038477D01*
X125865923Y-77022446D01*
X125918457Y-77010287D01*
X125978428Y-77001478D01*
X126049732Y-76995492D01*
X126136263Y-76991805D01*
X126241915Y-76989892D01*
X126370584Y-76989229D01*
X126419556Y-76989195D01*
X126556813Y-76989556D01*
G36*
X127390103Y-51286180D02*
X127526360Y-51323861D01*
X127651339Y-51384057D01*
X127762550Y-51464469D01*
X127857506Y-51562800D01*
X127933719Y-51676751D01*
X127988700Y-51804023D01*
X128019962Y-51942318D01*
X128024886Y-51993649D01*
X128022113Y-52143194D01*
X127993944Y-52281238D01*
X127939768Y-52409365D01*
X127858973Y-52529157D01*
X127788085Y-52607091D01*
X127678813Y-52715238D01*
X128064093Y-53799480D01*
X128449372Y-54883722D01*
X129914492Y-54887071D01*
X131379611Y-54890420D01*
X131764475Y-53804820D01*
X132149340Y-52719220D01*
X132039219Y-52609082D01*
X131962741Y-52526366D01*
X131906054Y-52448672D01*
X131864160Y-52367528D01*
X131832065Y-52274460D01*
X131823803Y-52243738D01*
X131800157Y-52097734D01*
X131804205Y-51955250D01*
X131835481Y-51817961D01*
X131893518Y-51687539D01*
X131977848Y-51565659D01*
X132028722Y-51509466D01*
X132139062Y-51413363D01*
X132256122Y-51343941D01*
X132383024Y-51299888D01*
X132522888Y-51279895D01*
X132579056Y-51278333D01*
X132723601Y-51289577D01*
X132854453Y-51324235D01*
X132974923Y-51383696D01*
X133088321Y-51469346D01*
X133130801Y-51509603D01*
X133227629Y-51625039D01*
X133298363Y-51750737D01*
X133342604Y-51885499D01*
X133359950Y-52028126D01*
X133351318Y-52168687D01*
X133318365Y-52303382D01*
X133261904Y-52428619D01*
X133184952Y-52541706D01*
X133090532Y-52639953D01*
X132981663Y-52720668D01*
X132861365Y-52781161D01*
X132732659Y-52818740D01*
X132608244Y-52830766D01*
X132508500Y-52830977D01*
X132149909Y-53843238D01*
X132092520Y-54005240D01*
X132037813Y-54159670D01*
X131986528Y-54304441D01*
X131939403Y-54437466D01*
X131897178Y-54556658D01*
X131860593Y-54659929D01*
X131830387Y-54745191D01*
X131807300Y-54810358D01*
X131792071Y-54853341D01*
X131785440Y-54872054D01*
X131785260Y-54872561D01*
X131790116Y-54875674D01*
X131807931Y-54878467D01*
X131840079Y-54880963D01*
X131887935Y-54883186D01*
X131952873Y-54885161D01*
X132036270Y-54886911D01*
X132139498Y-54888460D01*
X132263934Y-54889832D01*
X132410951Y-54891051D01*
X132581924Y-54892140D01*
X132778229Y-54893124D01*
X133001239Y-54894027D01*
X133025795Y-54894116D01*
X134272389Y-54898610D01*
X134384856Y-54930979D01*
X134561437Y-54994785D01*
X134726199Y-55080152D01*
X134876262Y-55184739D01*
X135008744Y-55306207D01*
X135120763Y-55442217D01*
X135209437Y-55590429D01*
X135217424Y-55606916D01*
X135259199Y-55695111D01*
X135372572Y-55695334D01*
X135504770Y-55699030D01*
X135639171Y-55708995D01*
X135767434Y-55724307D01*
X135881216Y-55744042D01*
X135941642Y-55758313D01*
X136132252Y-55823968D01*
X136310890Y-55913812D01*
X136475688Y-56025682D01*
X136624775Y-56157417D01*
X136756283Y-56306854D01*
X136868341Y-56471828D01*
X136959081Y-56650179D01*
X137026632Y-56839743D01*
X137069126Y-57038356D01*
X137073018Y-57067153D01*
X137076045Y-57106301D01*
X137078701Y-57170324D01*
X137080986Y-57255970D01*
X137082899Y-57359983D01*
X137084441Y-57479111D01*
X137085612Y-57610099D01*
X137086411Y-57749694D01*
X137086839Y-57894641D01*
X137086896Y-58041687D01*
X137086582Y-58187577D01*
X137085897Y-58329059D01*
X137084841Y-58462878D01*
X137083414Y-58585780D01*
X137081616Y-58694511D01*
X137079447Y-58785819D01*
X137076907Y-58856447D01*
X137073996Y-58903144D01*
X137072994Y-58912444D01*
X137040562Y-59088530D01*
X136988755Y-59255023D01*
X136926051Y-59399277D01*
X136821031Y-59584551D01*
X136696782Y-59749180D01*
X136553191Y-59893283D01*
X136390144Y-60016980D01*
X136263595Y-60091905D01*
X136116425Y-60161979D01*
X135970021Y-60213847D01*
X135816824Y-60249478D01*
X135649278Y-60270840D01*
X135552972Y-60277009D01*
X135366000Y-60285574D01*
X135366000Y-60890732D01*
X135365636Y-61028367D01*
X135364594Y-61161065D01*
X135362951Y-61285131D01*
X135360781Y-61396874D01*
X135358160Y-61492600D01*
X135355165Y-61568617D01*
X135351870Y-61621231D01*
X135350817Y-61632055D01*
X135316189Y-61820375D01*
X135256462Y-61997727D01*
X135173246Y-62162259D01*
X135068150Y-62312121D01*
X134942784Y-62445462D01*
X134798758Y-62560431D01*
X134637682Y-62655177D01*
X134461164Y-62727851D01*
X134375652Y-62753246D01*
X134350985Y-62759511D01*
X134326728Y-62764885D01*
X134300552Y-62769451D01*
X134270124Y-62773293D01*
X134233112Y-62776494D01*
X134187185Y-62779139D01*
X134130010Y-62781310D01*
X134059257Y-62783091D01*
X133972592Y-62784566D01*
X133867685Y-62785818D01*
X133742204Y-62786931D01*
X133593816Y-62787988D01*
X133420190Y-62789073D01*
X133366804Y-62789393D01*
X132475330Y-62794706D01*
X132503433Y-62874992D01*
X132543548Y-63007646D01*
X132571642Y-63144897D01*
X132589169Y-63295131D01*
X132595755Y-63408028D01*
X132596939Y-63574885D01*
X132585629Y-63726984D01*
X132560508Y-63875483D01*
X132523306Y-64021122D01*
X132490619Y-64133555D01*
X133671718Y-64133555D01*
X133910565Y-64133742D01*
X134126182Y-64134298D01*
X134317958Y-64135217D01*
X134485279Y-64136490D01*
X134627533Y-64138110D01*
X134744107Y-64140071D01*
X134834389Y-64142366D01*
X134897765Y-64144986D01*
X134933625Y-64147926D01*
X134936547Y-64148386D01*
X135120365Y-64194772D01*
X135292102Y-64265769D01*
X135449938Y-64359696D01*
X135592051Y-64474873D01*
X135716620Y-64609617D01*
X135821821Y-64762249D01*
X135905834Y-64931087D01*
X135961428Y-65094054D01*
X135993945Y-65213055D01*
X135993945Y-70222500D01*
X135993940Y-70670073D01*
X135993922Y-71090303D01*
X135993887Y-71484067D01*
X135993831Y-71852245D01*
X135993749Y-72195713D01*
X135993637Y-72515351D01*
X135993491Y-72812037D01*
X135993306Y-73086649D01*
X135993079Y-73340066D01*
X135992805Y-73573165D01*
X135992479Y-73786826D01*
X135992098Y-73981927D01*
X135991657Y-74159346D01*
X135991152Y-74319961D01*
X135990579Y-74464651D01*
X135989933Y-74594294D01*
X135989209Y-74709769D01*
X135988405Y-74811953D01*
X135987515Y-74901726D01*
X135986535Y-74979965D01*
X135985462Y-75047549D01*
X135984290Y-75105356D01*
X135983015Y-75154265D01*
X135981633Y-75195154D01*
X135980141Y-75228901D01*
X135978532Y-75256385D01*
X135976804Y-75278484D01*
X135974953Y-75296076D01*
X135972972Y-75310040D01*
X135970860Y-75321254D01*
X135969084Y-75328786D01*
X135907261Y-75516407D01*
X135822551Y-75688946D01*
X135716178Y-75844899D01*
X135589365Y-75982765D01*
X135443335Y-76101041D01*
X135279313Y-76198224D01*
X135249400Y-76212693D01*
X135177565Y-76243433D01*
X135096693Y-76273603D01*
X135022472Y-76297414D01*
X135011719Y-76300393D01*
X134893278Y-76332216D01*
X129792111Y-76334247D01*
X129413443Y-76334366D01*
X129041598Y-76334420D01*
X128677591Y-76334411D01*
X128322441Y-76334341D01*
X127977163Y-76334211D01*
X127642775Y-76334025D01*
X127320293Y-76333783D01*
X127010733Y-76333487D01*
X126715112Y-76333139D01*
X126434448Y-76332742D01*
X126169756Y-76332296D01*
X125922053Y-76331804D01*
X125692356Y-76331268D01*
X125481682Y-76330690D01*
X125291047Y-76330071D01*
X125121468Y-76329413D01*
X124973961Y-76328718D01*
X124849544Y-76327989D01*
X124749233Y-76327226D01*
X124674044Y-76326432D01*
X124624995Y-76325609D01*
X124603101Y-76324758D01*
X124602746Y-76324715D01*
X124414261Y-76286383D01*
X124237608Y-76223170D01*
X124074444Y-76136522D01*
X123926425Y-76027882D01*
X123795206Y-75898696D01*
X123682444Y-75750405D01*
X123589795Y-75584456D01*
X123518915Y-75402292D01*
X123509657Y-75371574D01*
X123477389Y-75260166D01*
X123477389Y-70384318D01*
X125558778Y-70384318D01*
X125558852Y-70527433D01*
X125559147Y-70644953D01*
X125559773Y-70739506D01*
X125560837Y-70813717D01*
X125562449Y-70870216D01*
X125564718Y-70911627D01*
X125567752Y-70940580D01*
X125571662Y-70959700D01*
X125576555Y-70971615D01*
X125582541Y-70978952D01*
X125583472Y-70979764D01*
X125603673Y-70987641D01*
X125649409Y-70999711D01*
X125718388Y-71015483D01*
X125808313Y-71034468D01*
X125916891Y-71056175D01*
X126041827Y-71080115D01*
X126130278Y-71096559D01*
X126248764Y-71118545D01*
X126359044Y-71139393D01*
X126457904Y-71158469D01*
X126542131Y-71175134D01*
X126608512Y-71188753D01*
X126653833Y-71198689D01*
X126674881Y-71204305D01*
X126675471Y-71204575D01*
X126685504Y-71219817D01*
X126704175Y-71257610D01*
X126729939Y-71314184D01*
X126761252Y-71385769D01*
X126796570Y-71468594D01*
X126834349Y-71558889D01*
X126873046Y-71652885D01*
X126911115Y-71746809D01*
X126947014Y-71836893D01*
X126979197Y-71919365D01*
X127006122Y-71990456D01*
X127026244Y-72046395D01*
X127038018Y-72083412D01*
X127040469Y-72095863D01*
X127032685Y-72112772D01*
X127010530Y-72150100D01*
X126975780Y-72205118D01*
X126930213Y-72275101D01*
X126875605Y-72357321D01*
X126813735Y-72449050D01*
X126746378Y-72547562D01*
X126741619Y-72554474D01*
X126673559Y-72654089D01*
X126610599Y-72747800D01*
X126554574Y-72832757D01*
X126507317Y-72906113D01*
X126470663Y-72965019D01*
X126446445Y-73006626D01*
X126436498Y-73028087D01*
X126436417Y-73028522D01*
X126436178Y-73039980D01*
X126440150Y-73053528D01*
X126450106Y-73071148D01*
X126467821Y-73094821D01*
X126495065Y-73126532D01*
X126533613Y-73168261D01*
X126585237Y-73221992D01*
X126651710Y-73289707D01*
X126734804Y-73373388D01*
X126830769Y-73469494D01*
X126936785Y-73575122D01*
X127024829Y-73661913D01*
X127096511Y-73731350D01*
X127153444Y-73784915D01*
X127197241Y-73824090D01*
X127229515Y-73850358D01*
X127251878Y-73865203D01*
X127265942Y-73870105D01*
X127266498Y-73870116D01*
X127288537Y-73861841D01*
X127332355Y-73837496D01*
X127396973Y-73797703D01*
X127481415Y-73743085D01*
X127584701Y-73674264D01*
X127705855Y-73591862D01*
X127731889Y-73573982D01*
X127830647Y-73506603D01*
X127923068Y-73444595D01*
X128006365Y-73389748D01*
X128077756Y-73343852D01*
X128134453Y-73308696D01*
X128173673Y-73286070D01*
X128192631Y-73277764D01*
X128192866Y-73277755D01*
X128215321Y-73284155D01*
X128257479Y-73301959D01*
X128314378Y-73328860D01*
X128381054Y-73362547D01*
X128424399Y-73385439D01*
X128506044Y-73428398D01*
X128566413Y-73457965D01*
X128608375Y-73475355D01*
X128634803Y-73481784D01*
X128647029Y-73479644D01*
X128655855Y-73464655D01*
X128674495Y-73425647D01*
X128702049Y-73364710D01*
X128737615Y-73283934D01*
X128780293Y-73185411D01*
X128829183Y-73071230D01*
X128883384Y-72943482D01*
X128941996Y-72804257D01*
X129004118Y-72655646D01*
X129061407Y-72517721D01*
X129138547Y-72331156D01*
X129205310Y-72168998D01*
X129262311Y-72029662D01*
X129310167Y-71911561D01*
X129349492Y-71813109D01*
X129380902Y-71732720D01*
X129405014Y-71668809D01*
X129422443Y-71619788D01*
X129433803Y-71584073D01*
X129439712Y-71560078D01*
X129440785Y-71546215D01*
X129439839Y-71542833D01*
X129419107Y-71518978D01*
X129384681Y-71491826D01*
X129372484Y-71483971D01*
X129303424Y-71438242D01*
X129225951Y-71380855D01*
X129148629Y-71318647D01*
X129080019Y-71258458D01*
X129036496Y-71215649D01*
X128921435Y-71072545D01*
X128829354Y-70913227D01*
X128760635Y-70738389D01*
X128746015Y-70688166D01*
X128731520Y-70626734D01*
X128722213Y-70565077D01*
X128717176Y-70494289D01*
X128715491Y-70405463D01*
X128715470Y-70391833D01*
X128716779Y-70299942D01*
X128721318Y-70227271D01*
X128730005Y-70164914D01*
X128743758Y-70103965D01*
X128746015Y-70095500D01*
X128807879Y-69918552D01*
X128892806Y-69756461D01*
X128999002Y-69610911D01*
X129124674Y-69483588D01*
X129268028Y-69376178D01*
X129427272Y-69290364D01*
X129600611Y-69227832D01*
X129693015Y-69205619D01*
X129766402Y-69193401D01*
X129838979Y-69187626D01*
X129922009Y-69187668D01*
X129975238Y-69189892D01*
X130089561Y-69198836D01*
X130186605Y-69214341D01*
X130277041Y-69239067D01*
X130371539Y-69275671D01*
X130434167Y-69304222D01*
X130587782Y-69389605D01*
X130721555Y-69491663D01*
X130839859Y-69614164D01*
X130924445Y-69726675D01*
X131010974Y-69878494D01*
X131073037Y-70040981D01*
X131110630Y-70210728D01*
X131123749Y-70384325D01*
X131112388Y-70558364D01*
X131076544Y-70729435D01*
X131016211Y-70894130D01*
X130931385Y-71049039D01*
X130926261Y-71056828D01*
X130843917Y-71165937D01*
X130744982Y-71268560D01*
X130624945Y-71369121D01*
X130556244Y-71419557D01*
X130497484Y-71462024D01*
X130447340Y-71500036D01*
X130410261Y-71530087D01*
X130390695Y-71548671D01*
X130388931Y-71551419D01*
X130392979Y-71567315D01*
X130407031Y-71607073D01*
X130430219Y-71668509D01*
X130461678Y-71749439D01*
X130500539Y-71847681D01*
X130545937Y-71961051D01*
X130597005Y-72087365D01*
X130652876Y-72224440D01*
X130712683Y-72370093D01*
X130745061Y-72448522D01*
X130822621Y-72636060D01*
X130890127Y-72799234D01*
X130948321Y-72939756D01*
X130997947Y-73059337D01*
X131039747Y-73159689D01*
X131074464Y-73242524D01*
X131102842Y-73309553D01*
X131125624Y-73362486D01*
X131143553Y-73403037D01*
X131157372Y-73432915D01*
X131167824Y-73453833D01*
X131175653Y-73467502D01*
X131181601Y-73475633D01*
X131186411Y-73479939D01*
X131190828Y-73482129D01*
X131194439Y-73483456D01*
X131213419Y-73479767D01*
X131252317Y-73464391D01*
X131306434Y-73439446D01*
X131371073Y-73407054D01*
X131413736Y-73384503D01*
X131483408Y-73347925D01*
X131546249Y-73316732D01*
X131597287Y-73293254D01*
X131631550Y-73279823D01*
X131641823Y-73277555D01*
X131659928Y-73285326D01*
X131698385Y-73307441D01*
X131754392Y-73342102D01*
X131825151Y-73387514D01*
X131907860Y-73441880D01*
X131999720Y-73503402D01*
X132096622Y-73569386D01*
X132195021Y-73636480D01*
X132287208Y-73698489D01*
X132370345Y-73753568D01*
X132441595Y-73799871D01*
X132498119Y-73835555D01*
X132537080Y-73858774D01*
X132555457Y-73867652D01*
X132566428Y-73866805D01*
X132581964Y-73859587D01*
X132603915Y-73844317D01*
X132634129Y-73819314D01*
X132674456Y-73782897D01*
X132726747Y-73733386D01*
X132792850Y-73669100D01*
X132874614Y-73588358D01*
X132973890Y-73489479D01*
X132996838Y-73466551D01*
X133093215Y-73369592D01*
X133179704Y-73281341D01*
X133254608Y-73203599D01*
X133316232Y-73138170D01*
X133362881Y-73086855D01*
X133392859Y-73051459D01*
X133404469Y-73033782D01*
X133404556Y-73033106D01*
X133396789Y-73015978D01*
X133374662Y-72978396D01*
X133339932Y-72923069D01*
X133294360Y-72852710D01*
X133239702Y-72770030D01*
X133177719Y-72677740D01*
X133110169Y-72578550D01*
X133101167Y-72565430D01*
X133032984Y-72465385D01*
X132970151Y-72371716D01*
X132914429Y-72287162D01*
X132867581Y-72214463D01*
X132831368Y-72156358D01*
X132807554Y-72115586D01*
X132797901Y-72094887D01*
X132797778Y-72093855D01*
X132802985Y-72071593D01*
X132817560Y-72027513D01*
X132839934Y-71965523D01*
X132868538Y-71889529D01*
X132901800Y-71803442D01*
X132938152Y-71711168D01*
X132976025Y-71616616D01*
X133013849Y-71523693D01*
X133050054Y-71436308D01*
X133083070Y-71358368D01*
X133111329Y-71293782D01*
X133133260Y-71246458D01*
X133147295Y-71220303D01*
X133149967Y-71216946D01*
X133170880Y-71208318D01*
X133218308Y-71195475D01*
X133290909Y-71178708D01*
X133387337Y-71158308D01*
X133506250Y-71134567D01*
X133646303Y-71107775D01*
X133701669Y-71097434D01*
X133848126Y-71069936D01*
X133968676Y-71046597D01*
X134065257Y-71026987D01*
X134139810Y-71010673D01*
X134194271Y-70997223D01*
X134230581Y-70986205D01*
X134250678Y-70977188D01*
X134254318Y-70974349D01*
X134260637Y-70966360D01*
X134265804Y-70954471D01*
X134269933Y-70935998D01*
X134273140Y-70908257D01*
X134275540Y-70868564D01*
X134277246Y-70814233D01*
X134278375Y-70742581D01*
X134279041Y-70650923D01*
X134279359Y-70536575D01*
X134279444Y-70396853D01*
X134279445Y-70387474D01*
X134279237Y-70238051D01*
X134278570Y-70114687D01*
X134277377Y-70015223D01*
X134275593Y-69937500D01*
X134273151Y-69879358D01*
X134269985Y-69838637D01*
X134266030Y-69813177D01*
X134261504Y-69801192D01*
X134250543Y-69793557D01*
X134226606Y-69784494D01*
X134187582Y-69773534D01*
X134131360Y-69760202D01*
X134055829Y-69744027D01*
X133958877Y-69724538D01*
X133838393Y-69701261D01*
X133692267Y-69673726D01*
X133687230Y-69672785D01*
X133538420Y-69644739D01*
X133415496Y-69620953D01*
X133316512Y-69600997D01*
X133239527Y-69584438D01*
X133182595Y-69570843D01*
X133143774Y-69559780D01*
X133121118Y-69550817D01*
X133113552Y-69545193D01*
X133101607Y-69523465D01*
X133081035Y-69480269D01*
X133053518Y-69419579D01*
X133020738Y-69345367D01*
X132984376Y-69261606D01*
X132946115Y-69172269D01*
X132907637Y-69081330D01*
X132870625Y-68992761D01*
X132836759Y-68910537D01*
X132807722Y-68838628D01*
X132785197Y-68781010D01*
X132770865Y-68741655D01*
X132766362Y-68725118D01*
X132774076Y-68707206D01*
X132796215Y-68668839D01*
X132831049Y-68612699D01*
X132876846Y-68541470D01*
X132931876Y-68457836D01*
X132994405Y-68364481D01*
X133062705Y-68264087D01*
X133080423Y-68238284D01*
X133150161Y-68136331D01*
X133214873Y-68040611D01*
X133272779Y-67953838D01*
X133322102Y-67878725D01*
X133361064Y-67817988D01*
X133387886Y-67774338D01*
X133400792Y-67750491D01*
X133401619Y-67748023D01*
X133400864Y-67737155D01*
X133393720Y-67721702D01*
X133378509Y-67699818D01*
X133353551Y-67669654D01*
X133317169Y-67629365D01*
X133267684Y-67577103D01*
X133203417Y-67511021D01*
X133122690Y-67429272D01*
X133023824Y-67330009D01*
X133000885Y-67307051D01*
X132902648Y-67209401D01*
X132813647Y-67122182D01*
X132735606Y-67047018D01*
X132670252Y-66985530D01*
X132619311Y-66939341D01*
X132584509Y-66910075D01*
X132567570Y-66899353D01*
X132567256Y-66899333D01*
X132550263Y-66907092D01*
X132512690Y-66929241D01*
X132457146Y-66964084D01*
X132386242Y-67009926D01*
X132302588Y-67065073D01*
X132208794Y-67127830D01*
X132107471Y-67196502D01*
X132067402Y-67223889D01*
X131963724Y-67294416D01*
X131866402Y-67359667D01*
X131778074Y-67417941D01*
X131701377Y-67467542D01*
X131638950Y-67506771D01*
X131593430Y-67533930D01*
X131567454Y-67547319D01*
X131563283Y-67548444D01*
X131542538Y-67543184D01*
X131499997Y-67528507D01*
X131439724Y-67506069D01*
X131365783Y-67477525D01*
X131282238Y-67444531D01*
X131193153Y-67408741D01*
X131102591Y-67371810D01*
X131014616Y-67335395D01*
X130933293Y-67301150D01*
X130862685Y-67270731D01*
X130806856Y-67245793D01*
X130769870Y-67227991D01*
X130756336Y-67219762D01*
X130750264Y-67202593D01*
X130739798Y-67160668D01*
X130725569Y-67097001D01*
X130708204Y-67014607D01*
X130688333Y-66916501D01*
X130666586Y-66805699D01*
X130643592Y-66685215D01*
X130633543Y-66631530D01*
X130605604Y-66482620D01*
X130581946Y-66359437D01*
X130562104Y-66259888D01*
X130545614Y-66181879D01*
X130532009Y-66123317D01*
X130520827Y-66082108D01*
X130511600Y-66056159D01*
X130503866Y-66043376D01*
X130502705Y-66042391D01*
X130481872Y-66037384D01*
X130436587Y-66033116D01*
X130370612Y-66029583D01*
X130287708Y-66026783D01*
X130191637Y-66024712D01*
X130086159Y-66023367D01*
X129975035Y-66022744D01*
X129862027Y-66022841D01*
X129750896Y-66023654D01*
X129645403Y-66025180D01*
X129549309Y-66027416D01*
X129466376Y-66030358D01*
X129400364Y-66034003D01*
X129355035Y-66038348D01*
X129334150Y-66043390D01*
X129334140Y-66043398D01*
X129326473Y-66053339D01*
X129317868Y-66073921D01*
X129307805Y-66107447D01*
X129295765Y-66156222D01*
X129281231Y-66222550D01*
X129263682Y-66308736D01*
X129242600Y-66417085D01*
X129217467Y-66549899D01*
X129204667Y-66618425D01*
X129181657Y-66741013D01*
X129159785Y-66855690D01*
X129139677Y-66959310D01*
X129121957Y-67048728D01*
X129107252Y-67120800D01*
X129096188Y-67172380D01*
X129089389Y-67200324D01*
X129088242Y-67203703D01*
X129076424Y-67216013D01*
X129048595Y-67233318D01*
X129002818Y-67256527D01*
X128937156Y-67286547D01*
X128849672Y-67324288D01*
X128738428Y-67370659D01*
X128689379Y-67390790D01*
X128590232Y-67430920D01*
X128498390Y-67467284D01*
X128417413Y-67498539D01*
X128350859Y-67523337D01*
X128302287Y-67540333D01*
X128275256Y-67548182D01*
X128272131Y-67548559D01*
X128253747Y-67540710D01*
X128214734Y-67518290D01*
X128157587Y-67482906D01*
X128084800Y-67436165D01*
X127998869Y-67379677D01*
X127902289Y-67315049D01*
X127797554Y-67243889D01*
X127768383Y-67223889D01*
X127665090Y-67153353D01*
X127568358Y-67088097D01*
X127480792Y-67029818D01*
X127404997Y-66980215D01*
X127343580Y-66940987D01*
X127299146Y-66913834D01*
X127274301Y-66900453D01*
X127270564Y-66899333D01*
X127254088Y-66909129D01*
X127220767Y-66936779D01*
X127173195Y-66979680D01*
X127113964Y-67035227D01*
X127045670Y-67100816D01*
X126970906Y-67173840D01*
X126892266Y-67251697D01*
X126812344Y-67331782D01*
X126733735Y-67411489D01*
X126659031Y-67488215D01*
X126590827Y-67559355D01*
X126531718Y-67622303D01*
X126484296Y-67674457D01*
X126451156Y-67713210D01*
X126434892Y-67735959D01*
X126433667Y-67739654D01*
X126441445Y-67757379D01*
X126463631Y-67795600D01*
X126498505Y-67851652D01*
X126544346Y-67922872D01*
X126599434Y-68006597D01*
X126662046Y-68100163D01*
X126730464Y-68200906D01*
X126751167Y-68231116D01*
X126823818Y-68337684D01*
X126890002Y-68436275D01*
X126948134Y-68524426D01*
X126996632Y-68599677D01*
X127033913Y-68659566D01*
X127058393Y-68701632D01*
X127068490Y-68723414D01*
X127068667Y-68724764D01*
X127063249Y-68744406D01*
X127048110Y-68785918D01*
X127024920Y-68845348D01*
X126995349Y-68918745D01*
X126961069Y-69002158D01*
X126923750Y-69091634D01*
X126885062Y-69183223D01*
X126846676Y-69272973D01*
X126810262Y-69356933D01*
X126777492Y-69431152D01*
X126750035Y-69491678D01*
X126729563Y-69534560D01*
X126717745Y-69555847D01*
X126716847Y-69556908D01*
X126700451Y-69562348D01*
X126659331Y-69572209D01*
X126596533Y-69585867D01*
X126515099Y-69602697D01*
X126418073Y-69622072D01*
X126308501Y-69643368D01*
X126189425Y-69665960D01*
X126151537Y-69673039D01*
X126029811Y-69696024D01*
X125916367Y-69718062D01*
X125814302Y-69738505D01*
X125726712Y-69756708D01*
X125656692Y-69772021D01*
X125607339Y-69783798D01*
X125581748Y-69791391D01*
X125579189Y-69792738D01*
X125574021Y-69800694D01*
X125569777Y-69816819D01*
X125566371Y-69843581D01*
X125563719Y-69883453D01*
X125561736Y-69938904D01*
X125560335Y-70012405D01*
X125559433Y-70106428D01*
X125558942Y-70223442D01*
X125558779Y-70365918D01*
X125558778Y-70384318D01*
X123477389Y-70384318D01*
X123477389Y-65184833D01*
X123516953Y-65058529D01*
X123587757Y-64876745D01*
X123680454Y-64710765D01*
X123793237Y-64562143D01*
X123924301Y-64432435D01*
X124071840Y-64323197D01*
X124234051Y-64235982D01*
X124409125Y-64172346D01*
X124589660Y-64134601D01*
X124626522Y-64131624D01*
X124691212Y-64128962D01*
X124783338Y-64126618D01*
X124902506Y-64124597D01*
X125048325Y-64122904D01*
X125220401Y-64121542D01*
X125418342Y-64120515D01*
X125641756Y-64119828D01*
X125890249Y-64119485D01*
X126020056Y-64119444D01*
X127340069Y-64119444D01*
X127331086Y-64087694D01*
X127276417Y-63867393D01*
X127242177Y-63662661D01*
X127228316Y-63469647D01*
X127234785Y-63284498D01*
X127261535Y-63103364D01*
X127308516Y-62922393D01*
X127315887Y-62899353D01*
X127332231Y-62848592D01*
X127344499Y-62809174D01*
X127350581Y-62787917D01*
X127350889Y-62786186D01*
X127337172Y-62785081D01*
X127297600Y-62783900D01*
X127234537Y-62782669D01*
X127150351Y-62781417D01*
X127047408Y-62780171D01*
X126928072Y-62778960D01*
X126794712Y-62777812D01*
X126649692Y-62776753D01*
X126495379Y-62775814D01*
X126451306Y-62775578D01*
X126269400Y-62774607D01*
X126113419Y-62773672D01*
X125981066Y-62772692D01*
X125870043Y-62771586D01*
X125778054Y-62770275D01*
X125702800Y-62768679D01*
X125641985Y-62766717D01*
X125593312Y-62764309D01*
X125554483Y-62761375D01*
X125523201Y-62757835D01*
X125497169Y-62753608D01*
X125474090Y-62748614D01*
X125451667Y-62742774D01*
X125443088Y-62740385D01*
X125260015Y-62675099D01*
X125091778Y-62587167D01*
X124940060Y-62478367D01*
X124806544Y-62350481D01*
X124692912Y-62205287D01*
X124600849Y-62044564D01*
X124532036Y-61870093D01*
X124498857Y-61741972D01*
X124492679Y-61709661D01*
X124487537Y-61676029D01*
X124483339Y-61638231D01*
X124479990Y-61593420D01*
X124477395Y-61538752D01*
X124475461Y-61471379D01*
X124474093Y-61388457D01*
X124473198Y-61287139D01*
X124472680Y-61164580D01*
X124472446Y-61017933D01*
X124472408Y-60942834D01*
X124472359Y-60762559D01*
X127526336Y-60762559D01*
X127544583Y-60882659D01*
X127587871Y-61000630D01*
X127656828Y-61114147D01*
X127735425Y-61204726D01*
X127862334Y-61311387D01*
X128005792Y-61395755D01*
X128163925Y-61456920D01*
X128327510Y-61492918D01*
X128354128Y-61494726D01*
X128407212Y-61496404D01*
X128485008Y-61497942D01*
X128585760Y-61499328D01*
X128707714Y-61500550D01*
X128849113Y-61501597D01*
X129008202Y-61502458D01*
X129183227Y-61503120D01*
X129372432Y-61503574D01*
X129574061Y-61503807D01*
X129786360Y-61503807D01*
X129968500Y-61503624D01*
X131520722Y-61501373D01*
X131633611Y-61469530D01*
X131792344Y-61413957D01*
X131933092Y-61342606D01*
X132054293Y-61257038D01*
X132154387Y-61158815D01*
X132231812Y-61049497D01*
X132285007Y-60930644D01*
X132312411Y-60803819D01*
X132313785Y-60789440D01*
X132310740Y-60662179D01*
X132281305Y-60538718D01*
X132227277Y-60421461D01*
X132150454Y-60312810D01*
X132052635Y-60215169D01*
X131935615Y-60130940D01*
X131801194Y-60062526D01*
X131756964Y-60045158D01*
X131726454Y-60034024D01*
X131697821Y-60024077D01*
X131669377Y-60015250D01*
X131639435Y-60007475D01*
X131606305Y-60000685D01*
X131568300Y-59994812D01*
X131523732Y-59989790D01*
X131470912Y-59985549D01*
X131408152Y-59982024D01*
X131333763Y-59979146D01*
X131246058Y-59976849D01*
X131143349Y-59975064D01*
X131023947Y-59973724D01*
X130886164Y-59972762D01*
X130728311Y-59972110D01*
X130548701Y-59971701D01*
X130345646Y-59971467D01*
X130117456Y-59971341D01*
X129907933Y-59971270D01*
X129657652Y-59971184D01*
X129433906Y-59971147D01*
X129235009Y-59971238D01*
X129059274Y-59971534D01*
X128905014Y-59972115D01*
X128770543Y-59973057D01*
X128654173Y-59974440D01*
X128554218Y-59976341D01*
X128468991Y-59978839D01*
X128396806Y-59982013D01*
X128335975Y-59985939D01*
X128284813Y-59990697D01*
X128241631Y-59996365D01*
X128204744Y-60003021D01*
X128172464Y-60010743D01*
X128143105Y-60019610D01*
X128114980Y-60029700D01*
X128086403Y-60041090D01*
X128055686Y-60053860D01*
X128046691Y-60057602D01*
X127907334Y-60127486D01*
X127788598Y-60211521D01*
X127691116Y-60307381D01*
X127615517Y-60412740D01*
X127562433Y-60525274D01*
X127532496Y-60642655D01*
X127526336Y-60762559D01*
X124472359Y-60762559D01*
X124472222Y-60270945D01*
X124264083Y-60263365D01*
X124105429Y-60252357D01*
X123964655Y-60230352D01*
X123832852Y-60195243D01*
X123701116Y-60144926D01*
X123634908Y-60114568D01*
X123453206Y-60011973D01*
X123288575Y-59887631D01*
X123142472Y-59743306D01*
X123016351Y-59580760D01*
X122911668Y-59401755D01*
X122829879Y-59208054D01*
X122795970Y-59098793D01*
X122758550Y-58961833D01*
X122754136Y-58177632D01*
X123265711Y-58177632D01*
X123265815Y-58341238D01*
X123266244Y-58481347D01*
X123267207Y-58600319D01*
X123268911Y-58700519D01*
X123271567Y-58784307D01*
X123275382Y-58854045D01*
X123280566Y-58912097D01*
X123287326Y-58960824D01*
X123295873Y-59002588D01*
X123306414Y-59039752D01*
X123319159Y-59074677D01*
X123334315Y-59109726D01*
X123352092Y-59147261D01*
X123371714Y-59187611D01*
X123455924Y-59329424D01*
X123563293Y-59457181D01*
X123691030Y-59567927D01*
X123794889Y-59635957D01*
X123865294Y-59670220D01*
X123952829Y-59703495D01*
X124046519Y-59732231D01*
X124135389Y-59752876D01*
X124175781Y-59759202D01*
X124206609Y-59761203D01*
X124262824Y-59762993D01*
X124341592Y-59764546D01*
X124440079Y-59765837D01*
X124555450Y-59766840D01*
X124684872Y-59767529D01*
X124825509Y-59767880D01*
X124974527Y-59767865D01*
X125100167Y-59767566D01*
X125274715Y-59766939D01*
X125423455Y-59766288D01*
X125548800Y-59765528D01*
X125653162Y-59764573D01*
X125738956Y-59763337D01*
X125808595Y-59761734D01*
X125864492Y-59759680D01*
X125909060Y-59757087D01*
X125944713Y-59753872D01*
X125973865Y-59749948D01*
X125998928Y-59745229D01*
X126022317Y-59739631D01*
X126042602Y-59734139D01*
X126184929Y-59684742D01*
X126311996Y-59618563D01*
X126430826Y-59531447D01*
X126512360Y-59456287D01*
X126573490Y-59393356D01*
X126619160Y-59340338D01*
X126655537Y-59289012D01*
X126688784Y-59231154D01*
X126705230Y-59199073D01*
X126727674Y-59153914D01*
X126747034Y-59113144D01*
X126763536Y-59074369D01*
X126777407Y-59035191D01*
X126788874Y-58993216D01*
X126798165Y-58946047D01*
X126805507Y-58891289D01*
X126811126Y-58826546D01*
X126815249Y-58749422D01*
X126818105Y-58657522D01*
X126819919Y-58548449D01*
X126820919Y-58419809D01*
X126821332Y-58269205D01*
X126821385Y-58094241D01*
X126821338Y-57974055D01*
X126821269Y-57850331D01*
X133016511Y-57850331D01*
X133016514Y-57981111D01*
X133016547Y-58171603D01*
X133016802Y-58336269D01*
X133017502Y-58477505D01*
X133018872Y-58597707D01*
X133021136Y-58699272D01*
X133024517Y-58784595D01*
X133029240Y-58856073D01*
X133035528Y-58916102D01*
X133043606Y-58967078D01*
X133053696Y-59011397D01*
X133066024Y-59051455D01*
X133080814Y-59089649D01*
X133098288Y-59128374D01*
X133118671Y-59170027D01*
X133129681Y-59192017D01*
X133218420Y-59338653D01*
X133327873Y-59467620D01*
X133455679Y-59576719D01*
X133599475Y-59663750D01*
X133670668Y-59695901D01*
X133708088Y-59710660D01*
X133743964Y-59723362D01*
X133780640Y-59734150D01*
X133820461Y-59743169D01*
X133865770Y-59750561D01*
X133918911Y-59756472D01*
X133982229Y-59761045D01*
X134058068Y-59764424D01*
X134148772Y-59766752D01*
X134256685Y-59768175D01*
X134384151Y-59768835D01*
X134533514Y-59768877D01*
X134707118Y-59768445D01*
X134843889Y-59767938D01*
X135024250Y-59767161D01*
X135178660Y-59766326D01*
X135309392Y-59765367D01*
X135418716Y-59764216D01*
X135508905Y-59762805D01*
X135582231Y-59761067D01*
X135640964Y-59758935D01*
X135687377Y-59756341D01*
X135723742Y-59753219D01*
X135752329Y-59749499D01*
X135775411Y-59745116D01*
X135795260Y-59740001D01*
X135796389Y-59739672D01*
X135960133Y-59677922D01*
X136109579Y-59593705D01*
X136242370Y-59488988D01*
X136356148Y-59365736D01*
X136448554Y-59225915D01*
X136475377Y-59173500D01*
X136494153Y-59134003D01*
X136510339Y-59098620D01*
X136524128Y-59065006D01*
X136535712Y-59030819D01*
X136545282Y-58993715D01*
X136553031Y-58951352D01*
X136559152Y-58901385D01*
X136563835Y-58841471D01*
X136567272Y-58769267D01*
X136569657Y-58682431D01*
X136571180Y-58578618D01*
X136572034Y-58455485D01*
X136572411Y-58310689D01*
X136572503Y-58141887D01*
X136572500Y-57988166D01*
X136572452Y-57804675D01*
X136572268Y-57647159D01*
X136571891Y-57513371D01*
X136571262Y-57401062D01*
X136570324Y-57307986D01*
X136569018Y-57231895D01*
X136567285Y-57170542D01*
X136565069Y-57121679D01*
X136562311Y-57083059D01*
X136558953Y-57052436D01*
X136554936Y-57027560D01*
X136550203Y-57006185D01*
X136546778Y-56993333D01*
X136486404Y-56828076D01*
X136403102Y-56678367D01*
X136298482Y-56545815D01*
X136174153Y-56432027D01*
X136031727Y-56338609D01*
X135872812Y-56267169D01*
X135794159Y-56242001D01*
X135770921Y-56235625D01*
X135748396Y-56230183D01*
X135724247Y-56225599D01*
X135696135Y-56221799D01*
X135661723Y-56218707D01*
X135618671Y-56216250D01*
X135564643Y-56214352D01*
X135497299Y-56212939D01*
X135414302Y-56211935D01*
X135313314Y-56211267D01*
X135191996Y-56210859D01*
X135048010Y-56210636D01*
X134879018Y-56210525D01*
X134808611Y-56210496D01*
X134617547Y-56210453D01*
X134452310Y-56210629D01*
X134310503Y-56211252D01*
X134189731Y-56212548D01*
X134087598Y-56214746D01*
X134001709Y-56218071D01*
X133929668Y-56222752D01*
X133869079Y-56229015D01*
X133817547Y-56237088D01*
X133772675Y-56247197D01*
X133732067Y-56259571D01*
X133693329Y-56274435D01*
X133654065Y-56292018D01*
X133611878Y-56312547D01*
X133583593Y-56326659D01*
X133519674Y-56360637D01*
X133466130Y-56394874D01*
X133414733Y-56435536D01*
X133357250Y-56488790D01*
X133326185Y-56519528D01*
X133266244Y-56581509D01*
X133221600Y-56633359D01*
X133186148Y-56683344D01*
X133153781Y-56739727D01*
X133132515Y-56781666D01*
X133109913Y-56827650D01*
X133090455Y-56868571D01*
X133073906Y-56906863D01*
X133060029Y-56944958D01*
X133048590Y-56985289D01*
X133039353Y-57030289D01*
X133032084Y-57082392D01*
X133026546Y-57144029D01*
X133022505Y-57217634D01*
X133019725Y-57305641D01*
X133017971Y-57410480D01*
X133017007Y-57534587D01*
X133016599Y-57680393D01*
X133016511Y-57850331D01*
X126821269Y-57850331D01*
X126821237Y-57795030D01*
X126821052Y-57641890D01*
X126820710Y-57512297D01*
X126820137Y-57403915D01*
X126819257Y-57314406D01*
X126817996Y-57241432D01*
X126816281Y-57182657D01*
X126814036Y-57135742D01*
X126811188Y-57098352D01*
X126807662Y-57068147D01*
X126803383Y-57042792D01*
X126798278Y-57019949D01*
X126792271Y-56997280D01*
X126790000Y-56989157D01*
X126728968Y-56820918D01*
X126645925Y-56669969D01*
X126541937Y-56537379D01*
X126418067Y-56424213D01*
X126275382Y-56331540D01*
X126114946Y-56260427D01*
X126038556Y-56236115D01*
X126018324Y-56230851D01*
X125996166Y-56226347D01*
X125969834Y-56222544D01*
X125937079Y-56219383D01*
X125895652Y-56216806D01*
X125843306Y-56214754D01*
X125777792Y-56213169D01*
X125696860Y-56211992D01*
X125598263Y-56211163D01*
X125479751Y-56210626D01*
X125339077Y-56210320D01*
X125173992Y-56210187D01*
X125043722Y-56210166D01*
X124854312Y-56210154D01*
X124690759Y-56210258D01*
X124550701Y-56210685D01*
X124431775Y-56211644D01*
X124331615Y-56213344D01*
X124247859Y-56215992D01*
X124178143Y-56219798D01*
X124120103Y-56224969D01*
X124071375Y-56231714D01*
X124029597Y-56240241D01*
X123992403Y-56250759D01*
X123957430Y-56263476D01*
X123922315Y-56278600D01*
X123884694Y-56296340D01*
X123844278Y-56315903D01*
X123702196Y-56399863D01*
X123575459Y-56506037D01*
X123466363Y-56631616D01*
X123377202Y-56773791D01*
X123310273Y-56929753D01*
X123290795Y-56993333D01*
X123285695Y-57013902D01*
X123281332Y-57036965D01*
X123277647Y-57064765D01*
X123274586Y-57099545D01*
X123272091Y-57143548D01*
X123270106Y-57199016D01*
X123268574Y-57268192D01*
X123267438Y-57353320D01*
X123266643Y-57456642D01*
X123266131Y-57580401D01*
X123265847Y-57726840D01*
X123265733Y-57898203D01*
X123265722Y-57988166D01*
X123265711Y-58177632D01*
X122754136Y-58177632D01*
X122753506Y-58065777D01*
X122752533Y-57855498D01*
X122752151Y-57672107D01*
X122752373Y-57514275D01*
X122753215Y-57380676D01*
X122754692Y-57269980D01*
X122756820Y-57180860D01*
X122759613Y-57111988D01*
X122763087Y-57062034D01*
X122765216Y-57042722D01*
X122805090Y-56845659D01*
X122870610Y-56656411D01*
X122959831Y-56477462D01*
X123070808Y-56311299D01*
X123201597Y-56160409D01*
X123350252Y-56027277D01*
X123514830Y-55914389D01*
X123693385Y-55824232D01*
X123729962Y-55809396D01*
X123827297Y-55773818D01*
X123917037Y-55746913D01*
X124006554Y-55727320D01*
X124103220Y-55713680D01*
X124214408Y-55704634D01*
X124325533Y-55699550D01*
X124566899Y-55691143D01*
X124612742Y-55597877D01*
X124707081Y-55437158D01*
X124823003Y-55294244D01*
X124959636Y-55169841D01*
X125116111Y-55064655D01*
X125291556Y-54979391D01*
X125438833Y-54927818D01*
X125456585Y-54922730D01*
X125474715Y-54918257D01*
X125495093Y-54914352D01*
X125519589Y-54910968D01*
X125550074Y-54908058D01*
X125588417Y-54905576D01*
X125636488Y-54903475D01*
X125696156Y-54901708D01*
X125769293Y-54900229D01*
X125857767Y-54898991D01*
X125963449Y-54897947D01*
X126088209Y-54897051D01*
X126233916Y-54896256D01*
X126402440Y-54895516D01*
X126595652Y-54894783D01*
X126789972Y-54894099D01*
X126992568Y-54893258D01*
X127182146Y-54892191D01*
X127357109Y-54890920D01*
X127515861Y-54889467D01*
X127656805Y-54887853D01*
X127778344Y-54886101D01*
X127878882Y-54884233D01*
X127956822Y-54882269D01*
X128010567Y-54880232D01*
X128038520Y-54878143D01*
X128042333Y-54877039D01*
X128037753Y-54862566D01*
X128024597Y-54823981D01*
X128003740Y-54763765D01*
X127976059Y-54684397D01*
X127942430Y-54588359D01*
X127903728Y-54478130D01*
X127860830Y-54356191D01*
X127814611Y-54225022D01*
X127765949Y-54087104D01*
X127715717Y-53944917D01*
X127664794Y-53800941D01*
X127614054Y-53657657D01*
X127564374Y-53517545D01*
X127516629Y-53383085D01*
X127471696Y-53256757D01*
X127430450Y-53141043D01*
X127393768Y-53038422D01*
X127362525Y-52951375D01*
X127348898Y-52913583D01*
X127320263Y-52834333D01*
X127197992Y-52827003D01*
X127053370Y-52804901D01*
X126919259Y-52757825D01*
X126797957Y-52687802D01*
X126691766Y-52596859D01*
X126602985Y-52487023D01*
X126533913Y-52360322D01*
X126486851Y-52218782D01*
X126481655Y-52195555D01*
X126466403Y-52055880D01*
X126478106Y-51917015D01*
X126515618Y-51782369D01*
X126577791Y-51655351D01*
X126663479Y-51539370D01*
X126722664Y-51479266D01*
X126838574Y-51388737D01*
X126960584Y-51325056D01*
X127091770Y-51287008D01*
X127235209Y-51273381D01*
X127245056Y-51273312D01*
X127390103Y-51286180D01*
X127390103Y-51286180D01*
G37*
X127390103Y-51286180D02*
X127526360Y-51323861D01*
X127651339Y-51384057D01*
X127762550Y-51464469D01*
X127857506Y-51562800D01*
X127933719Y-51676751D01*
X127988700Y-51804023D01*
X128019962Y-51942318D01*
X128024886Y-51993649D01*
X128022113Y-52143194D01*
X127993944Y-52281238D01*
X127939768Y-52409365D01*
X127858973Y-52529157D01*
X127788085Y-52607091D01*
X127678813Y-52715238D01*
X128064093Y-53799480D01*
X128449372Y-54883722D01*
X129914492Y-54887071D01*
X131379611Y-54890420D01*
X131764475Y-53804820D01*
X132149340Y-52719220D01*
X132039219Y-52609082D01*
X131962741Y-52526366D01*
X131906054Y-52448672D01*
X131864160Y-52367528D01*
X131832065Y-52274460D01*
X131823803Y-52243738D01*
X131800157Y-52097734D01*
X131804205Y-51955250D01*
X131835481Y-51817961D01*
X131893518Y-51687539D01*
X131977848Y-51565659D01*
X132028722Y-51509466D01*
X132139062Y-51413363D01*
X132256122Y-51343941D01*
X132383024Y-51299888D01*
X132522888Y-51279895D01*
X132579056Y-51278333D01*
X132723601Y-51289577D01*
X132854453Y-51324235D01*
X132974923Y-51383696D01*
X133088321Y-51469346D01*
X133130801Y-51509603D01*
X133227629Y-51625039D01*
X133298363Y-51750737D01*
X133342604Y-51885499D01*
X133359950Y-52028126D01*
X133351318Y-52168687D01*
X133318365Y-52303382D01*
X133261904Y-52428619D01*
X133184952Y-52541706D01*
X133090532Y-52639953D01*
X132981663Y-52720668D01*
X132861365Y-52781161D01*
X132732659Y-52818740D01*
X132608244Y-52830766D01*
X132508500Y-52830977D01*
X132149909Y-53843238D01*
X132092520Y-54005240D01*
X132037813Y-54159670D01*
X131986528Y-54304441D01*
X131939403Y-54437466D01*
X131897178Y-54556658D01*
X131860593Y-54659929D01*
X131830387Y-54745191D01*
X131807300Y-54810358D01*
X131792071Y-54853341D01*
X131785440Y-54872054D01*
X131785260Y-54872561D01*
X131790116Y-54875674D01*
X131807931Y-54878467D01*
X131840079Y-54880963D01*
X131887935Y-54883186D01*
X131952873Y-54885161D01*
X132036270Y-54886911D01*
X132139498Y-54888460D01*
X132263934Y-54889832D01*
X132410951Y-54891051D01*
X132581924Y-54892140D01*
X132778229Y-54893124D01*
X133001239Y-54894027D01*
X133025795Y-54894116D01*
X134272389Y-54898610D01*
X134384856Y-54930979D01*
X134561437Y-54994785D01*
X134726199Y-55080152D01*
X134876262Y-55184739D01*
X135008744Y-55306207D01*
X135120763Y-55442217D01*
X135209437Y-55590429D01*
X135217424Y-55606916D01*
X135259199Y-55695111D01*
X135372572Y-55695334D01*
X135504770Y-55699030D01*
X135639171Y-55708995D01*
X135767434Y-55724307D01*
X135881216Y-55744042D01*
X135941642Y-55758313D01*
X136132252Y-55823968D01*
X136310890Y-55913812D01*
X136475688Y-56025682D01*
X136624775Y-56157417D01*
X136756283Y-56306854D01*
X136868341Y-56471828D01*
X136959081Y-56650179D01*
X137026632Y-56839743D01*
X137069126Y-57038356D01*
X137073018Y-57067153D01*
X137076045Y-57106301D01*
X137078701Y-57170324D01*
X137080986Y-57255970D01*
X137082899Y-57359983D01*
X137084441Y-57479111D01*
X137085612Y-57610099D01*
X137086411Y-57749694D01*
X137086839Y-57894641D01*
X137086896Y-58041687D01*
X137086582Y-58187577D01*
X137085897Y-58329059D01*
X137084841Y-58462878D01*
X137083414Y-58585780D01*
X137081616Y-58694511D01*
X137079447Y-58785819D01*
X137076907Y-58856447D01*
X137073996Y-58903144D01*
X137072994Y-58912444D01*
X137040562Y-59088530D01*
X136988755Y-59255023D01*
X136926051Y-59399277D01*
X136821031Y-59584551D01*
X136696782Y-59749180D01*
X136553191Y-59893283D01*
X136390144Y-60016980D01*
X136263595Y-60091905D01*
X136116425Y-60161979D01*
X135970021Y-60213847D01*
X135816824Y-60249478D01*
X135649278Y-60270840D01*
X135552972Y-60277009D01*
X135366000Y-60285574D01*
X135366000Y-60890732D01*
X135365636Y-61028367D01*
X135364594Y-61161065D01*
X135362951Y-61285131D01*
X135360781Y-61396874D01*
X135358160Y-61492600D01*
X135355165Y-61568617D01*
X135351870Y-61621231D01*
X135350817Y-61632055D01*
X135316189Y-61820375D01*
X135256462Y-61997727D01*
X135173246Y-62162259D01*
X135068150Y-62312121D01*
X134942784Y-62445462D01*
X134798758Y-62560431D01*
X134637682Y-62655177D01*
X134461164Y-62727851D01*
X134375652Y-62753246D01*
X134350985Y-62759511D01*
X134326728Y-62764885D01*
X134300552Y-62769451D01*
X134270124Y-62773293D01*
X134233112Y-62776494D01*
X134187185Y-62779139D01*
X134130010Y-62781310D01*
X134059257Y-62783091D01*
X133972592Y-62784566D01*
X133867685Y-62785818D01*
X133742204Y-62786931D01*
X133593816Y-62787988D01*
X133420190Y-62789073D01*
X133366804Y-62789393D01*
X132475330Y-62794706D01*
X132503433Y-62874992D01*
X132543548Y-63007646D01*
X132571642Y-63144897D01*
X132589169Y-63295131D01*
X132595755Y-63408028D01*
X132596939Y-63574885D01*
X132585629Y-63726984D01*
X132560508Y-63875483D01*
X132523306Y-64021122D01*
X132490619Y-64133555D01*
X133671718Y-64133555D01*
X133910565Y-64133742D01*
X134126182Y-64134298D01*
X134317958Y-64135217D01*
X134485279Y-64136490D01*
X134627533Y-64138110D01*
X134744107Y-64140071D01*
X134834389Y-64142366D01*
X134897765Y-64144986D01*
X134933625Y-64147926D01*
X134936547Y-64148386D01*
X135120365Y-64194772D01*
X135292102Y-64265769D01*
X135449938Y-64359696D01*
X135592051Y-64474873D01*
X135716620Y-64609617D01*
X135821821Y-64762249D01*
X135905834Y-64931087D01*
X135961428Y-65094054D01*
X135993945Y-65213055D01*
X135993945Y-70222500D01*
X135993940Y-70670073D01*
X135993922Y-71090303D01*
X135993887Y-71484067D01*
X135993831Y-71852245D01*
X135993749Y-72195713D01*
X135993637Y-72515351D01*
X135993491Y-72812037D01*
X135993306Y-73086649D01*
X135993079Y-73340066D01*
X135992805Y-73573165D01*
X135992479Y-73786826D01*
X135992098Y-73981927D01*
X135991657Y-74159346D01*
X135991152Y-74319961D01*
X135990579Y-74464651D01*
X135989933Y-74594294D01*
X135989209Y-74709769D01*
X135988405Y-74811953D01*
X135987515Y-74901726D01*
X135986535Y-74979965D01*
X135985462Y-75047549D01*
X135984290Y-75105356D01*
X135983015Y-75154265D01*
X135981633Y-75195154D01*
X135980141Y-75228901D01*
X135978532Y-75256385D01*
X135976804Y-75278484D01*
X135974953Y-75296076D01*
X135972972Y-75310040D01*
X135970860Y-75321254D01*
X135969084Y-75328786D01*
X135907261Y-75516407D01*
X135822551Y-75688946D01*
X135716178Y-75844899D01*
X135589365Y-75982765D01*
X135443335Y-76101041D01*
X135279313Y-76198224D01*
X135249400Y-76212693D01*
X135177565Y-76243433D01*
X135096693Y-76273603D01*
X135022472Y-76297414D01*
X135011719Y-76300393D01*
X134893278Y-76332216D01*
X129792111Y-76334247D01*
X129413443Y-76334366D01*
X129041598Y-76334420D01*
X128677591Y-76334411D01*
X128322441Y-76334341D01*
X127977163Y-76334211D01*
X127642775Y-76334025D01*
X127320293Y-76333783D01*
X127010733Y-76333487D01*
X126715112Y-76333139D01*
X126434448Y-76332742D01*
X126169756Y-76332296D01*
X125922053Y-76331804D01*
X125692356Y-76331268D01*
X125481682Y-76330690D01*
X125291047Y-76330071D01*
X125121468Y-76329413D01*
X124973961Y-76328718D01*
X124849544Y-76327989D01*
X124749233Y-76327226D01*
X124674044Y-76326432D01*
X124624995Y-76325609D01*
X124603101Y-76324758D01*
X124602746Y-76324715D01*
X124414261Y-76286383D01*
X124237608Y-76223170D01*
X124074444Y-76136522D01*
X123926425Y-76027882D01*
X123795206Y-75898696D01*
X123682444Y-75750405D01*
X123589795Y-75584456D01*
X123518915Y-75402292D01*
X123509657Y-75371574D01*
X123477389Y-75260166D01*
X123477389Y-70384318D01*
X125558778Y-70384318D01*
X125558852Y-70527433D01*
X125559147Y-70644953D01*
X125559773Y-70739506D01*
X125560837Y-70813717D01*
X125562449Y-70870216D01*
X125564718Y-70911627D01*
X125567752Y-70940580D01*
X125571662Y-70959700D01*
X125576555Y-70971615D01*
X125582541Y-70978952D01*
X125583472Y-70979764D01*
X125603673Y-70987641D01*
X125649409Y-70999711D01*
X125718388Y-71015483D01*
X125808313Y-71034468D01*
X125916891Y-71056175D01*
X126041827Y-71080115D01*
X126130278Y-71096559D01*
X126248764Y-71118545D01*
X126359044Y-71139393D01*
X126457904Y-71158469D01*
X126542131Y-71175134D01*
X126608512Y-71188753D01*
X126653833Y-71198689D01*
X126674881Y-71204305D01*
X126675471Y-71204575D01*
X126685504Y-71219817D01*
X126704175Y-71257610D01*
X126729939Y-71314184D01*
X126761252Y-71385769D01*
X126796570Y-71468594D01*
X126834349Y-71558889D01*
X126873046Y-71652885D01*
X126911115Y-71746809D01*
X126947014Y-71836893D01*
X126979197Y-71919365D01*
X127006122Y-71990456D01*
X127026244Y-72046395D01*
X127038018Y-72083412D01*
X127040469Y-72095863D01*
X127032685Y-72112772D01*
X127010530Y-72150100D01*
X126975780Y-72205118D01*
X126930213Y-72275101D01*
X126875605Y-72357321D01*
X126813735Y-72449050D01*
X126746378Y-72547562D01*
X126741619Y-72554474D01*
X126673559Y-72654089D01*
X126610599Y-72747800D01*
X126554574Y-72832757D01*
X126507317Y-72906113D01*
X126470663Y-72965019D01*
X126446445Y-73006626D01*
X126436498Y-73028087D01*
X126436417Y-73028522D01*
X126436178Y-73039980D01*
X126440150Y-73053528D01*
X126450106Y-73071148D01*
X126467821Y-73094821D01*
X126495065Y-73126532D01*
X126533613Y-73168261D01*
X126585237Y-73221992D01*
X126651710Y-73289707D01*
X126734804Y-73373388D01*
X126830769Y-73469494D01*
X126936785Y-73575122D01*
X127024829Y-73661913D01*
X127096511Y-73731350D01*
X127153444Y-73784915D01*
X127197241Y-73824090D01*
X127229515Y-73850358D01*
X127251878Y-73865203D01*
X127265942Y-73870105D01*
X127266498Y-73870116D01*
X127288537Y-73861841D01*
X127332355Y-73837496D01*
X127396973Y-73797703D01*
X127481415Y-73743085D01*
X127584701Y-73674264D01*
X127705855Y-73591862D01*
X127731889Y-73573982D01*
X127830647Y-73506603D01*
X127923068Y-73444595D01*
X128006365Y-73389748D01*
X128077756Y-73343852D01*
X128134453Y-73308696D01*
X128173673Y-73286070D01*
X128192631Y-73277764D01*
X128192866Y-73277755D01*
X128215321Y-73284155D01*
X128257479Y-73301959D01*
X128314378Y-73328860D01*
X128381054Y-73362547D01*
X128424399Y-73385439D01*
X128506044Y-73428398D01*
X128566413Y-73457965D01*
X128608375Y-73475355D01*
X128634803Y-73481784D01*
X128647029Y-73479644D01*
X128655855Y-73464655D01*
X128674495Y-73425647D01*
X128702049Y-73364710D01*
X128737615Y-73283934D01*
X128780293Y-73185411D01*
X128829183Y-73071230D01*
X128883384Y-72943482D01*
X128941996Y-72804257D01*
X129004118Y-72655646D01*
X129061407Y-72517721D01*
X129138547Y-72331156D01*
X129205310Y-72168998D01*
X129262311Y-72029662D01*
X129310167Y-71911561D01*
X129349492Y-71813109D01*
X129380902Y-71732720D01*
X129405014Y-71668809D01*
X129422443Y-71619788D01*
X129433803Y-71584073D01*
X129439712Y-71560078D01*
X129440785Y-71546215D01*
X129439839Y-71542833D01*
X129419107Y-71518978D01*
X129384681Y-71491826D01*
X129372484Y-71483971D01*
X129303424Y-71438242D01*
X129225951Y-71380855D01*
X129148629Y-71318647D01*
X129080019Y-71258458D01*
X129036496Y-71215649D01*
X128921435Y-71072545D01*
X128829354Y-70913227D01*
X128760635Y-70738389D01*
X128746015Y-70688166D01*
X128731520Y-70626734D01*
X128722213Y-70565077D01*
X128717176Y-70494289D01*
X128715491Y-70405463D01*
X128715470Y-70391833D01*
X128716779Y-70299942D01*
X128721318Y-70227271D01*
X128730005Y-70164914D01*
X128743758Y-70103965D01*
X128746015Y-70095500D01*
X128807879Y-69918552D01*
X128892806Y-69756461D01*
X128999002Y-69610911D01*
X129124674Y-69483588D01*
X129268028Y-69376178D01*
X129427272Y-69290364D01*
X129600611Y-69227832D01*
X129693015Y-69205619D01*
X129766402Y-69193401D01*
X129838979Y-69187626D01*
X129922009Y-69187668D01*
X129975238Y-69189892D01*
X130089561Y-69198836D01*
X130186605Y-69214341D01*
X130277041Y-69239067D01*
X130371539Y-69275671D01*
X130434167Y-69304222D01*
X130587782Y-69389605D01*
X130721555Y-69491663D01*
X130839859Y-69614164D01*
X130924445Y-69726675D01*
X131010974Y-69878494D01*
X131073037Y-70040981D01*
X131110630Y-70210728D01*
X131123749Y-70384325D01*
X131112388Y-70558364D01*
X131076544Y-70729435D01*
X131016211Y-70894130D01*
X130931385Y-71049039D01*
X130926261Y-71056828D01*
X130843917Y-71165937D01*
X130744982Y-71268560D01*
X130624945Y-71369121D01*
X130556244Y-71419557D01*
X130497484Y-71462024D01*
X130447340Y-71500036D01*
X130410261Y-71530087D01*
X130390695Y-71548671D01*
X130388931Y-71551419D01*
X130392979Y-71567315D01*
X130407031Y-71607073D01*
X130430219Y-71668509D01*
X130461678Y-71749439D01*
X130500539Y-71847681D01*
X130545937Y-71961051D01*
X130597005Y-72087365D01*
X130652876Y-72224440D01*
X130712683Y-72370093D01*
X130745061Y-72448522D01*
X130822621Y-72636060D01*
X130890127Y-72799234D01*
X130948321Y-72939756D01*
X130997947Y-73059337D01*
X131039747Y-73159689D01*
X131074464Y-73242524D01*
X131102842Y-73309553D01*
X131125624Y-73362486D01*
X131143553Y-73403037D01*
X131157372Y-73432915D01*
X131167824Y-73453833D01*
X131175653Y-73467502D01*
X131181601Y-73475633D01*
X131186411Y-73479939D01*
X131190828Y-73482129D01*
X131194439Y-73483456D01*
X131213419Y-73479767D01*
X131252317Y-73464391D01*
X131306434Y-73439446D01*
X131371073Y-73407054D01*
X131413736Y-73384503D01*
X131483408Y-73347925D01*
X131546249Y-73316732D01*
X131597287Y-73293254D01*
X131631550Y-73279823D01*
X131641823Y-73277555D01*
X131659928Y-73285326D01*
X131698385Y-73307441D01*
X131754392Y-73342102D01*
X131825151Y-73387514D01*
X131907860Y-73441880D01*
X131999720Y-73503402D01*
X132096622Y-73569386D01*
X132195021Y-73636480D01*
X132287208Y-73698489D01*
X132370345Y-73753568D01*
X132441595Y-73799871D01*
X132498119Y-73835555D01*
X132537080Y-73858774D01*
X132555457Y-73867652D01*
X132566428Y-73866805D01*
X132581964Y-73859587D01*
X132603915Y-73844317D01*
X132634129Y-73819314D01*
X132674456Y-73782897D01*
X132726747Y-73733386D01*
X132792850Y-73669100D01*
X132874614Y-73588358D01*
X132973890Y-73489479D01*
X132996838Y-73466551D01*
X133093215Y-73369592D01*
X133179704Y-73281341D01*
X133254608Y-73203599D01*
X133316232Y-73138170D01*
X133362881Y-73086855D01*
X133392859Y-73051459D01*
X133404469Y-73033782D01*
X133404556Y-73033106D01*
X133396789Y-73015978D01*
X133374662Y-72978396D01*
X133339932Y-72923069D01*
X133294360Y-72852710D01*
X133239702Y-72770030D01*
X133177719Y-72677740D01*
X133110169Y-72578550D01*
X133101167Y-72565430D01*
X133032984Y-72465385D01*
X132970151Y-72371716D01*
X132914429Y-72287162D01*
X132867581Y-72214463D01*
X132831368Y-72156358D01*
X132807554Y-72115586D01*
X132797901Y-72094887D01*
X132797778Y-72093855D01*
X132802985Y-72071593D01*
X132817560Y-72027513D01*
X132839934Y-71965523D01*
X132868538Y-71889529D01*
X132901800Y-71803442D01*
X132938152Y-71711168D01*
X132976025Y-71616616D01*
X133013849Y-71523693D01*
X133050054Y-71436308D01*
X133083070Y-71358368D01*
X133111329Y-71293782D01*
X133133260Y-71246458D01*
X133147295Y-71220303D01*
X133149967Y-71216946D01*
X133170880Y-71208318D01*
X133218308Y-71195475D01*
X133290909Y-71178708D01*
X133387337Y-71158308D01*
X133506250Y-71134567D01*
X133646303Y-71107775D01*
X133701669Y-71097434D01*
X133848126Y-71069936D01*
X133968676Y-71046597D01*
X134065257Y-71026987D01*
X134139810Y-71010673D01*
X134194271Y-70997223D01*
X134230581Y-70986205D01*
X134250678Y-70977188D01*
X134254318Y-70974349D01*
X134260637Y-70966360D01*
X134265804Y-70954471D01*
X134269933Y-70935998D01*
X134273140Y-70908257D01*
X134275540Y-70868564D01*
X134277246Y-70814233D01*
X134278375Y-70742581D01*
X134279041Y-70650923D01*
X134279359Y-70536575D01*
X134279444Y-70396853D01*
X134279445Y-70387474D01*
X134279237Y-70238051D01*
X134278570Y-70114687D01*
X134277377Y-70015223D01*
X134275593Y-69937500D01*
X134273151Y-69879358D01*
X134269985Y-69838637D01*
X134266030Y-69813177D01*
X134261504Y-69801192D01*
X134250543Y-69793557D01*
X134226606Y-69784494D01*
X134187582Y-69773534D01*
X134131360Y-69760202D01*
X134055829Y-69744027D01*
X133958877Y-69724538D01*
X133838393Y-69701261D01*
X133692267Y-69673726D01*
X133687230Y-69672785D01*
X133538420Y-69644739D01*
X133415496Y-69620953D01*
X133316512Y-69600997D01*
X133239527Y-69584438D01*
X133182595Y-69570843D01*
X133143774Y-69559780D01*
X133121118Y-69550817D01*
X133113552Y-69545193D01*
X133101607Y-69523465D01*
X133081035Y-69480269D01*
X133053518Y-69419579D01*
X133020738Y-69345367D01*
X132984376Y-69261606D01*
X132946115Y-69172269D01*
X132907637Y-69081330D01*
X132870625Y-68992761D01*
X132836759Y-68910537D01*
X132807722Y-68838628D01*
X132785197Y-68781010D01*
X132770865Y-68741655D01*
X132766362Y-68725118D01*
X132774076Y-68707206D01*
X132796215Y-68668839D01*
X132831049Y-68612699D01*
X132876846Y-68541470D01*
X132931876Y-68457836D01*
X132994405Y-68364481D01*
X133062705Y-68264087D01*
X133080423Y-68238284D01*
X133150161Y-68136331D01*
X133214873Y-68040611D01*
X133272779Y-67953838D01*
X133322102Y-67878725D01*
X133361064Y-67817988D01*
X133387886Y-67774338D01*
X133400792Y-67750491D01*
X133401619Y-67748023D01*
X133400864Y-67737155D01*
X133393720Y-67721702D01*
X133378509Y-67699818D01*
X133353551Y-67669654D01*
X133317169Y-67629365D01*
X133267684Y-67577103D01*
X133203417Y-67511021D01*
X133122690Y-67429272D01*
X133023824Y-67330009D01*
X133000885Y-67307051D01*
X132902648Y-67209401D01*
X132813647Y-67122182D01*
X132735606Y-67047018D01*
X132670252Y-66985530D01*
X132619311Y-66939341D01*
X132584509Y-66910075D01*
X132567570Y-66899353D01*
X132567256Y-66899333D01*
X132550263Y-66907092D01*
X132512690Y-66929241D01*
X132457146Y-66964084D01*
X132386242Y-67009926D01*
X132302588Y-67065073D01*
X132208794Y-67127830D01*
X132107471Y-67196502D01*
X132067402Y-67223889D01*
X131963724Y-67294416D01*
X131866402Y-67359667D01*
X131778074Y-67417941D01*
X131701377Y-67467542D01*
X131638950Y-67506771D01*
X131593430Y-67533930D01*
X131567454Y-67547319D01*
X131563283Y-67548444D01*
X131542538Y-67543184D01*
X131499997Y-67528507D01*
X131439724Y-67506069D01*
X131365783Y-67477525D01*
X131282238Y-67444531D01*
X131193153Y-67408741D01*
X131102591Y-67371810D01*
X131014616Y-67335395D01*
X130933293Y-67301150D01*
X130862685Y-67270731D01*
X130806856Y-67245793D01*
X130769870Y-67227991D01*
X130756336Y-67219762D01*
X130750264Y-67202593D01*
X130739798Y-67160668D01*
X130725569Y-67097001D01*
X130708204Y-67014607D01*
X130688333Y-66916501D01*
X130666586Y-66805699D01*
X130643592Y-66685215D01*
X130633543Y-66631530D01*
X130605604Y-66482620D01*
X130581946Y-66359437D01*
X130562104Y-66259888D01*
X130545614Y-66181879D01*
X130532009Y-66123317D01*
X130520827Y-66082108D01*
X130511600Y-66056159D01*
X130503866Y-66043376D01*
X130502705Y-66042391D01*
X130481872Y-66037384D01*
X130436587Y-66033116D01*
X130370612Y-66029583D01*
X130287708Y-66026783D01*
X130191637Y-66024712D01*
X130086159Y-66023367D01*
X129975035Y-66022744D01*
X129862027Y-66022841D01*
X129750896Y-66023654D01*
X129645403Y-66025180D01*
X129549309Y-66027416D01*
X129466376Y-66030358D01*
X129400364Y-66034003D01*
X129355035Y-66038348D01*
X129334150Y-66043390D01*
X129334140Y-66043398D01*
X129326473Y-66053339D01*
X129317868Y-66073921D01*
X129307805Y-66107447D01*
X129295765Y-66156222D01*
X129281231Y-66222550D01*
X129263682Y-66308736D01*
X129242600Y-66417085D01*
X129217467Y-66549899D01*
X129204667Y-66618425D01*
X129181657Y-66741013D01*
X129159785Y-66855690D01*
X129139677Y-66959310D01*
X129121957Y-67048728D01*
X129107252Y-67120800D01*
X129096188Y-67172380D01*
X129089389Y-67200324D01*
X129088242Y-67203703D01*
X129076424Y-67216013D01*
X129048595Y-67233318D01*
X129002818Y-67256527D01*
X128937156Y-67286547D01*
X128849672Y-67324288D01*
X128738428Y-67370659D01*
X128689379Y-67390790D01*
X128590232Y-67430920D01*
X128498390Y-67467284D01*
X128417413Y-67498539D01*
X128350859Y-67523337D01*
X128302287Y-67540333D01*
X128275256Y-67548182D01*
X128272131Y-67548559D01*
X128253747Y-67540710D01*
X128214734Y-67518290D01*
X128157587Y-67482906D01*
X128084800Y-67436165D01*
X127998869Y-67379677D01*
X127902289Y-67315049D01*
X127797554Y-67243889D01*
X127768383Y-67223889D01*
X127665090Y-67153353D01*
X127568358Y-67088097D01*
X127480792Y-67029818D01*
X127404997Y-66980215D01*
X127343580Y-66940987D01*
X127299146Y-66913834D01*
X127274301Y-66900453D01*
X127270564Y-66899333D01*
X127254088Y-66909129D01*
X127220767Y-66936779D01*
X127173195Y-66979680D01*
X127113964Y-67035227D01*
X127045670Y-67100816D01*
X126970906Y-67173840D01*
X126892266Y-67251697D01*
X126812344Y-67331782D01*
X126733735Y-67411489D01*
X126659031Y-67488215D01*
X126590827Y-67559355D01*
X126531718Y-67622303D01*
X126484296Y-67674457D01*
X126451156Y-67713210D01*
X126434892Y-67735959D01*
X126433667Y-67739654D01*
X126441445Y-67757379D01*
X126463631Y-67795600D01*
X126498505Y-67851652D01*
X126544346Y-67922872D01*
X126599434Y-68006597D01*
X126662046Y-68100163D01*
X126730464Y-68200906D01*
X126751167Y-68231116D01*
X126823818Y-68337684D01*
X126890002Y-68436275D01*
X126948134Y-68524426D01*
X126996632Y-68599677D01*
X127033913Y-68659566D01*
X127058393Y-68701632D01*
X127068490Y-68723414D01*
X127068667Y-68724764D01*
X127063249Y-68744406D01*
X127048110Y-68785918D01*
X127024920Y-68845348D01*
X126995349Y-68918745D01*
X126961069Y-69002158D01*
X126923750Y-69091634D01*
X126885062Y-69183223D01*
X126846676Y-69272973D01*
X126810262Y-69356933D01*
X126777492Y-69431152D01*
X126750035Y-69491678D01*
X126729563Y-69534560D01*
X126717745Y-69555847D01*
X126716847Y-69556908D01*
X126700451Y-69562348D01*
X126659331Y-69572209D01*
X126596533Y-69585867D01*
X126515099Y-69602697D01*
X126418073Y-69622072D01*
X126308501Y-69643368D01*
X126189425Y-69665960D01*
X126151537Y-69673039D01*
X126029811Y-69696024D01*
X125916367Y-69718062D01*
X125814302Y-69738505D01*
X125726712Y-69756708D01*
X125656692Y-69772021D01*
X125607339Y-69783798D01*
X125581748Y-69791391D01*
X125579189Y-69792738D01*
X125574021Y-69800694D01*
X125569777Y-69816819D01*
X125566371Y-69843581D01*
X125563719Y-69883453D01*
X125561736Y-69938904D01*
X125560335Y-70012405D01*
X125559433Y-70106428D01*
X125558942Y-70223442D01*
X125558779Y-70365918D01*
X125558778Y-70384318D01*
X123477389Y-70384318D01*
X123477389Y-65184833D01*
X123516953Y-65058529D01*
X123587757Y-64876745D01*
X123680454Y-64710765D01*
X123793237Y-64562143D01*
X123924301Y-64432435D01*
X124071840Y-64323197D01*
X124234051Y-64235982D01*
X124409125Y-64172346D01*
X124589660Y-64134601D01*
X124626522Y-64131624D01*
X124691212Y-64128962D01*
X124783338Y-64126618D01*
X124902506Y-64124597D01*
X125048325Y-64122904D01*
X125220401Y-64121542D01*
X125418342Y-64120515D01*
X125641756Y-64119828D01*
X125890249Y-64119485D01*
X126020056Y-64119444D01*
X127340069Y-64119444D01*
X127331086Y-64087694D01*
X127276417Y-63867393D01*
X127242177Y-63662661D01*
X127228316Y-63469647D01*
X127234785Y-63284498D01*
X127261535Y-63103364D01*
X127308516Y-62922393D01*
X127315887Y-62899353D01*
X127332231Y-62848592D01*
X127344499Y-62809174D01*
X127350581Y-62787917D01*
X127350889Y-62786186D01*
X127337172Y-62785081D01*
X127297600Y-62783900D01*
X127234537Y-62782669D01*
X127150351Y-62781417D01*
X127047408Y-62780171D01*
X126928072Y-62778960D01*
X126794712Y-62777812D01*
X126649692Y-62776753D01*
X126495379Y-62775814D01*
X126451306Y-62775578D01*
X126269400Y-62774607D01*
X126113419Y-62773672D01*
X125981066Y-62772692D01*
X125870043Y-62771586D01*
X125778054Y-62770275D01*
X125702800Y-62768679D01*
X125641985Y-62766717D01*
X125593312Y-62764309D01*
X125554483Y-62761375D01*
X125523201Y-62757835D01*
X125497169Y-62753608D01*
X125474090Y-62748614D01*
X125451667Y-62742774D01*
X125443088Y-62740385D01*
X125260015Y-62675099D01*
X125091778Y-62587167D01*
X124940060Y-62478367D01*
X124806544Y-62350481D01*
X124692912Y-62205287D01*
X124600849Y-62044564D01*
X124532036Y-61870093D01*
X124498857Y-61741972D01*
X124492679Y-61709661D01*
X124487537Y-61676029D01*
X124483339Y-61638231D01*
X124479990Y-61593420D01*
X124477395Y-61538752D01*
X124475461Y-61471379D01*
X124474093Y-61388457D01*
X124473198Y-61287139D01*
X124472680Y-61164580D01*
X124472446Y-61017933D01*
X124472408Y-60942834D01*
X124472359Y-60762559D01*
X127526336Y-60762559D01*
X127544583Y-60882659D01*
X127587871Y-61000630D01*
X127656828Y-61114147D01*
X127735425Y-61204726D01*
X127862334Y-61311387D01*
X128005792Y-61395755D01*
X128163925Y-61456920D01*
X128327510Y-61492918D01*
X128354128Y-61494726D01*
X128407212Y-61496404D01*
X128485008Y-61497942D01*
X128585760Y-61499328D01*
X128707714Y-61500550D01*
X128849113Y-61501597D01*
X129008202Y-61502458D01*
X129183227Y-61503120D01*
X129372432Y-61503574D01*
X129574061Y-61503807D01*
X129786360Y-61503807D01*
X129968500Y-61503624D01*
X131520722Y-61501373D01*
X131633611Y-61469530D01*
X131792344Y-61413957D01*
X131933092Y-61342606D01*
X132054293Y-61257038D01*
X132154387Y-61158815D01*
X132231812Y-61049497D01*
X132285007Y-60930644D01*
X132312411Y-60803819D01*
X132313785Y-60789440D01*
X132310740Y-60662179D01*
X132281305Y-60538718D01*
X132227277Y-60421461D01*
X132150454Y-60312810D01*
X132052635Y-60215169D01*
X131935615Y-60130940D01*
X131801194Y-60062526D01*
X131756964Y-60045158D01*
X131726454Y-60034024D01*
X131697821Y-60024077D01*
X131669377Y-60015250D01*
X131639435Y-60007475D01*
X131606305Y-60000685D01*
X131568300Y-59994812D01*
X131523732Y-59989790D01*
X131470912Y-59985549D01*
X131408152Y-59982024D01*
X131333763Y-59979146D01*
X131246058Y-59976849D01*
X131143349Y-59975064D01*
X131023947Y-59973724D01*
X130886164Y-59972762D01*
X130728311Y-59972110D01*
X130548701Y-59971701D01*
X130345646Y-59971467D01*
X130117456Y-59971341D01*
X129907933Y-59971270D01*
X129657652Y-59971184D01*
X129433906Y-59971147D01*
X129235009Y-59971238D01*
X129059274Y-59971534D01*
X128905014Y-59972115D01*
X128770543Y-59973057D01*
X128654173Y-59974440D01*
X128554218Y-59976341D01*
X128468991Y-59978839D01*
X128396806Y-59982013D01*
X128335975Y-59985939D01*
X128284813Y-59990697D01*
X128241631Y-59996365D01*
X128204744Y-60003021D01*
X128172464Y-60010743D01*
X128143105Y-60019610D01*
X128114980Y-60029700D01*
X128086403Y-60041090D01*
X128055686Y-60053860D01*
X128046691Y-60057602D01*
X127907334Y-60127486D01*
X127788598Y-60211521D01*
X127691116Y-60307381D01*
X127615517Y-60412740D01*
X127562433Y-60525274D01*
X127532496Y-60642655D01*
X127526336Y-60762559D01*
X124472359Y-60762559D01*
X124472222Y-60270945D01*
X124264083Y-60263365D01*
X124105429Y-60252357D01*
X123964655Y-60230352D01*
X123832852Y-60195243D01*
X123701116Y-60144926D01*
X123634908Y-60114568D01*
X123453206Y-60011973D01*
X123288575Y-59887631D01*
X123142472Y-59743306D01*
X123016351Y-59580760D01*
X122911668Y-59401755D01*
X122829879Y-59208054D01*
X122795970Y-59098793D01*
X122758550Y-58961833D01*
X122754136Y-58177632D01*
X123265711Y-58177632D01*
X123265815Y-58341238D01*
X123266244Y-58481347D01*
X123267207Y-58600319D01*
X123268911Y-58700519D01*
X123271567Y-58784307D01*
X123275382Y-58854045D01*
X123280566Y-58912097D01*
X123287326Y-58960824D01*
X123295873Y-59002588D01*
X123306414Y-59039752D01*
X123319159Y-59074677D01*
X123334315Y-59109726D01*
X123352092Y-59147261D01*
X123371714Y-59187611D01*
X123455924Y-59329424D01*
X123563293Y-59457181D01*
X123691030Y-59567927D01*
X123794889Y-59635957D01*
X123865294Y-59670220D01*
X123952829Y-59703495D01*
X124046519Y-59732231D01*
X124135389Y-59752876D01*
X124175781Y-59759202D01*
X124206609Y-59761203D01*
X124262824Y-59762993D01*
X124341592Y-59764546D01*
X124440079Y-59765837D01*
X124555450Y-59766840D01*
X124684872Y-59767529D01*
X124825509Y-59767880D01*
X124974527Y-59767865D01*
X125100167Y-59767566D01*
X125274715Y-59766939D01*
X125423455Y-59766288D01*
X125548800Y-59765528D01*
X125653162Y-59764573D01*
X125738956Y-59763337D01*
X125808595Y-59761734D01*
X125864492Y-59759680D01*
X125909060Y-59757087D01*
X125944713Y-59753872D01*
X125973865Y-59749948D01*
X125998928Y-59745229D01*
X126022317Y-59739631D01*
X126042602Y-59734139D01*
X126184929Y-59684742D01*
X126311996Y-59618563D01*
X126430826Y-59531447D01*
X126512360Y-59456287D01*
X126573490Y-59393356D01*
X126619160Y-59340338D01*
X126655537Y-59289012D01*
X126688784Y-59231154D01*
X126705230Y-59199073D01*
X126727674Y-59153914D01*
X126747034Y-59113144D01*
X126763536Y-59074369D01*
X126777407Y-59035191D01*
X126788874Y-58993216D01*
X126798165Y-58946047D01*
X126805507Y-58891289D01*
X126811126Y-58826546D01*
X126815249Y-58749422D01*
X126818105Y-58657522D01*
X126819919Y-58548449D01*
X126820919Y-58419809D01*
X126821332Y-58269205D01*
X126821385Y-58094241D01*
X126821338Y-57974055D01*
X126821269Y-57850331D01*
X133016511Y-57850331D01*
X133016514Y-57981111D01*
X133016547Y-58171603D01*
X133016802Y-58336269D01*
X133017502Y-58477505D01*
X133018872Y-58597707D01*
X133021136Y-58699272D01*
X133024517Y-58784595D01*
X133029240Y-58856073D01*
X133035528Y-58916102D01*
X133043606Y-58967078D01*
X133053696Y-59011397D01*
X133066024Y-59051455D01*
X133080814Y-59089649D01*
X133098288Y-59128374D01*
X133118671Y-59170027D01*
X133129681Y-59192017D01*
X133218420Y-59338653D01*
X133327873Y-59467620D01*
X133455679Y-59576719D01*
X133599475Y-59663750D01*
X133670668Y-59695901D01*
X133708088Y-59710660D01*
X133743964Y-59723362D01*
X133780640Y-59734150D01*
X133820461Y-59743169D01*
X133865770Y-59750561D01*
X133918911Y-59756472D01*
X133982229Y-59761045D01*
X134058068Y-59764424D01*
X134148772Y-59766752D01*
X134256685Y-59768175D01*
X134384151Y-59768835D01*
X134533514Y-59768877D01*
X134707118Y-59768445D01*
X134843889Y-59767938D01*
X135024250Y-59767161D01*
X135178660Y-59766326D01*
X135309392Y-59765367D01*
X135418716Y-59764216D01*
X135508905Y-59762805D01*
X135582231Y-59761067D01*
X135640964Y-59758935D01*
X135687377Y-59756341D01*
X135723742Y-59753219D01*
X135752329Y-59749499D01*
X135775411Y-59745116D01*
X135795260Y-59740001D01*
X135796389Y-59739672D01*
X135960133Y-59677922D01*
X136109579Y-59593705D01*
X136242370Y-59488988D01*
X136356148Y-59365736D01*
X136448554Y-59225915D01*
X136475377Y-59173500D01*
X136494153Y-59134003D01*
X136510339Y-59098620D01*
X136524128Y-59065006D01*
X136535712Y-59030819D01*
X136545282Y-58993715D01*
X136553031Y-58951352D01*
X136559152Y-58901385D01*
X136563835Y-58841471D01*
X136567272Y-58769267D01*
X136569657Y-58682431D01*
X136571180Y-58578618D01*
X136572034Y-58455485D01*
X136572411Y-58310689D01*
X136572503Y-58141887D01*
X136572500Y-57988166D01*
X136572452Y-57804675D01*
X136572268Y-57647159D01*
X136571891Y-57513371D01*
X136571262Y-57401062D01*
X136570324Y-57307986D01*
X136569018Y-57231895D01*
X136567285Y-57170542D01*
X136565069Y-57121679D01*
X136562311Y-57083059D01*
X136558953Y-57052436D01*
X136554936Y-57027560D01*
X136550203Y-57006185D01*
X136546778Y-56993333D01*
X136486404Y-56828076D01*
X136403102Y-56678367D01*
X136298482Y-56545815D01*
X136174153Y-56432027D01*
X136031727Y-56338609D01*
X135872812Y-56267169D01*
X135794159Y-56242001D01*
X135770921Y-56235625D01*
X135748396Y-56230183D01*
X135724247Y-56225599D01*
X135696135Y-56221799D01*
X135661723Y-56218707D01*
X135618671Y-56216250D01*
X135564643Y-56214352D01*
X135497299Y-56212939D01*
X135414302Y-56211935D01*
X135313314Y-56211267D01*
X135191996Y-56210859D01*
X135048010Y-56210636D01*
X134879018Y-56210525D01*
X134808611Y-56210496D01*
X134617547Y-56210453D01*
X134452310Y-56210629D01*
X134310503Y-56211252D01*
X134189731Y-56212548D01*
X134087598Y-56214746D01*
X134001709Y-56218071D01*
X133929668Y-56222752D01*
X133869079Y-56229015D01*
X133817547Y-56237088D01*
X133772675Y-56247197D01*
X133732067Y-56259571D01*
X133693329Y-56274435D01*
X133654065Y-56292018D01*
X133611878Y-56312547D01*
X133583593Y-56326659D01*
X133519674Y-56360637D01*
X133466130Y-56394874D01*
X133414733Y-56435536D01*
X133357250Y-56488790D01*
X133326185Y-56519528D01*
X133266244Y-56581509D01*
X133221600Y-56633359D01*
X133186148Y-56683344D01*
X133153781Y-56739727D01*
X133132515Y-56781666D01*
X133109913Y-56827650D01*
X133090455Y-56868571D01*
X133073906Y-56906863D01*
X133060029Y-56944958D01*
X133048590Y-56985289D01*
X133039353Y-57030289D01*
X133032084Y-57082392D01*
X133026546Y-57144029D01*
X133022505Y-57217634D01*
X133019725Y-57305641D01*
X133017971Y-57410480D01*
X133017007Y-57534587D01*
X133016599Y-57680393D01*
X133016511Y-57850331D01*
X126821269Y-57850331D01*
X126821237Y-57795030D01*
X126821052Y-57641890D01*
X126820710Y-57512297D01*
X126820137Y-57403915D01*
X126819257Y-57314406D01*
X126817996Y-57241432D01*
X126816281Y-57182657D01*
X126814036Y-57135742D01*
X126811188Y-57098352D01*
X126807662Y-57068147D01*
X126803383Y-57042792D01*
X126798278Y-57019949D01*
X126792271Y-56997280D01*
X126790000Y-56989157D01*
X126728968Y-56820918D01*
X126645925Y-56669969D01*
X126541937Y-56537379D01*
X126418067Y-56424213D01*
X126275382Y-56331540D01*
X126114946Y-56260427D01*
X126038556Y-56236115D01*
X126018324Y-56230851D01*
X125996166Y-56226347D01*
X125969834Y-56222544D01*
X125937079Y-56219383D01*
X125895652Y-56216806D01*
X125843306Y-56214754D01*
X125777792Y-56213169D01*
X125696860Y-56211992D01*
X125598263Y-56211163D01*
X125479751Y-56210626D01*
X125339077Y-56210320D01*
X125173992Y-56210187D01*
X125043722Y-56210166D01*
X124854312Y-56210154D01*
X124690759Y-56210258D01*
X124550701Y-56210685D01*
X124431775Y-56211644D01*
X124331615Y-56213344D01*
X124247859Y-56215992D01*
X124178143Y-56219798D01*
X124120103Y-56224969D01*
X124071375Y-56231714D01*
X124029597Y-56240241D01*
X123992403Y-56250759D01*
X123957430Y-56263476D01*
X123922315Y-56278600D01*
X123884694Y-56296340D01*
X123844278Y-56315903D01*
X123702196Y-56399863D01*
X123575459Y-56506037D01*
X123466363Y-56631616D01*
X123377202Y-56773791D01*
X123310273Y-56929753D01*
X123290795Y-56993333D01*
X123285695Y-57013902D01*
X123281332Y-57036965D01*
X123277647Y-57064765D01*
X123274586Y-57099545D01*
X123272091Y-57143548D01*
X123270106Y-57199016D01*
X123268574Y-57268192D01*
X123267438Y-57353320D01*
X123266643Y-57456642D01*
X123266131Y-57580401D01*
X123265847Y-57726840D01*
X123265733Y-57898203D01*
X123265722Y-57988166D01*
X123265711Y-58177632D01*
X122754136Y-58177632D01*
X122753506Y-58065777D01*
X122752533Y-57855498D01*
X122752151Y-57672107D01*
X122752373Y-57514275D01*
X122753215Y-57380676D01*
X122754692Y-57269980D01*
X122756820Y-57180860D01*
X122759613Y-57111988D01*
X122763087Y-57062034D01*
X122765216Y-57042722D01*
X122805090Y-56845659D01*
X122870610Y-56656411D01*
X122959831Y-56477462D01*
X123070808Y-56311299D01*
X123201597Y-56160409D01*
X123350252Y-56027277D01*
X123514830Y-55914389D01*
X123693385Y-55824232D01*
X123729962Y-55809396D01*
X123827297Y-55773818D01*
X123917037Y-55746913D01*
X124006554Y-55727320D01*
X124103220Y-55713680D01*
X124214408Y-55704634D01*
X124325533Y-55699550D01*
X124566899Y-55691143D01*
X124612742Y-55597877D01*
X124707081Y-55437158D01*
X124823003Y-55294244D01*
X124959636Y-55169841D01*
X125116111Y-55064655D01*
X125291556Y-54979391D01*
X125438833Y-54927818D01*
X125456585Y-54922730D01*
X125474715Y-54918257D01*
X125495093Y-54914352D01*
X125519589Y-54910968D01*
X125550074Y-54908058D01*
X125588417Y-54905576D01*
X125636488Y-54903475D01*
X125696156Y-54901708D01*
X125769293Y-54900229D01*
X125857767Y-54898991D01*
X125963449Y-54897947D01*
X126088209Y-54897051D01*
X126233916Y-54896256D01*
X126402440Y-54895516D01*
X126595652Y-54894783D01*
X126789972Y-54894099D01*
X126992568Y-54893258D01*
X127182146Y-54892191D01*
X127357109Y-54890920D01*
X127515861Y-54889467D01*
X127656805Y-54887853D01*
X127778344Y-54886101D01*
X127878882Y-54884233D01*
X127956822Y-54882269D01*
X128010567Y-54880232D01*
X128038520Y-54878143D01*
X128042333Y-54877039D01*
X128037753Y-54862566D01*
X128024597Y-54823981D01*
X128003740Y-54763765D01*
X127976059Y-54684397D01*
X127942430Y-54588359D01*
X127903728Y-54478130D01*
X127860830Y-54356191D01*
X127814611Y-54225022D01*
X127765949Y-54087104D01*
X127715717Y-53944917D01*
X127664794Y-53800941D01*
X127614054Y-53657657D01*
X127564374Y-53517545D01*
X127516629Y-53383085D01*
X127471696Y-53256757D01*
X127430450Y-53141043D01*
X127393768Y-53038422D01*
X127362525Y-52951375D01*
X127348898Y-52913583D01*
X127320263Y-52834333D01*
X127197992Y-52827003D01*
X127053370Y-52804901D01*
X126919259Y-52757825D01*
X126797957Y-52687802D01*
X126691766Y-52596859D01*
X126602985Y-52487023D01*
X126533913Y-52360322D01*
X126486851Y-52218782D01*
X126481655Y-52195555D01*
X126466403Y-52055880D01*
X126478106Y-51917015D01*
X126515618Y-51782369D01*
X126577791Y-51655351D01*
X126663479Y-51539370D01*
X126722664Y-51479266D01*
X126838574Y-51388737D01*
X126960584Y-51325056D01*
X127091770Y-51287008D01*
X127235209Y-51273381D01*
X127245056Y-51273312D01*
X127390103Y-51286180D01*
G36*
X137980340Y-65442016D02*
X138120062Y-65486800D01*
X138251474Y-65553766D01*
X138371927Y-65641793D01*
X138478773Y-65749759D01*
X138569361Y-65876545D01*
X138641043Y-66021028D01*
X138648002Y-66038852D01*
X138664546Y-66084662D01*
X138675820Y-66124275D01*
X138682830Y-66165086D01*
X138686586Y-66214485D01*
X138688093Y-66279867D01*
X138688345Y-66334889D01*
X138687908Y-66415772D01*
X138685701Y-66476078D01*
X138680751Y-66523440D01*
X138672083Y-66565491D01*
X138658725Y-66609866D01*
X138650076Y-66635047D01*
X138632351Y-66686038D01*
X138618931Y-66725654D01*
X138612028Y-66747333D01*
X138611556Y-66749411D01*
X138624646Y-66752126D01*
X138659902Y-66755644D01*
X138711295Y-66759427D01*
X138749783Y-66761735D01*
X138907949Y-66783756D01*
X139055155Y-66830498D01*
X139189403Y-66899919D01*
X139308695Y-66989979D01*
X139411032Y-67098637D01*
X139494415Y-67223851D01*
X139556847Y-67363581D01*
X139596330Y-67515786D01*
X139609833Y-67640166D01*
X139611334Y-67722259D01*
X139606715Y-67795562D01*
X139594619Y-67870356D01*
X139573686Y-67956923D01*
X139562726Y-67996472D01*
X139559569Y-68011938D01*
X139564349Y-68021348D01*
X139582252Y-68026221D01*
X139618467Y-68028079D01*
X139671771Y-68028430D01*
X139829004Y-68040559D01*
X139973071Y-68077013D01*
X140106329Y-68138774D01*
X140231134Y-68226818D01*
X140299218Y-68288965D01*
X140403736Y-68406749D01*
X140481699Y-68528254D01*
X140534771Y-68657433D01*
X140564618Y-68798238D01*
X140573000Y-68938668D01*
X140566224Y-69070527D01*
X140544528Y-69187378D01*
X140505857Y-69299329D01*
X140494521Y-69325065D01*
X140476848Y-69366412D01*
X140466378Y-69396215D01*
X140465101Y-69406693D01*
X140480808Y-69407059D01*
X140514223Y-69401724D01*
X140532332Y-69397834D01*
X140651002Y-69382540D01*
X140781368Y-69386754D01*
X140915901Y-69409323D01*
X141047069Y-69449096D01*
X141141685Y-69491055D01*
X141245221Y-69556975D01*
X141345428Y-69643546D01*
X141435220Y-69743447D01*
X141507510Y-69849356D01*
X141530256Y-69892425D01*
X141589411Y-70041955D01*
X141621781Y-70190105D01*
X141627396Y-70339368D01*
X141606288Y-70492236D01*
X141558488Y-70651203D01*
X141540433Y-70696887D01*
X141539071Y-70708172D01*
X141549665Y-70715214D01*
X141577095Y-70719122D01*
X141626243Y-70721006D01*
X141648177Y-70721374D01*
X141804929Y-70737208D01*
X141953778Y-70779026D01*
X142092009Y-70845074D01*
X142216905Y-70933595D01*
X142325754Y-71042833D01*
X142415838Y-71171031D01*
X142453154Y-71242027D01*
X142474435Y-71285836D01*
X142490931Y-71317405D01*
X142499215Y-71330193D01*
X142499347Y-71330222D01*
X142513292Y-71324560D01*
X142546275Y-71309521D01*
X142591934Y-71288023D01*
X142605943Y-71281330D01*
X142754337Y-71225413D01*
X142908057Y-71196072D01*
X143063610Y-71193070D01*
X143217504Y-71216174D01*
X143366249Y-71265149D01*
X143506353Y-71339760D01*
X143509953Y-71342108D01*
X143554522Y-71373006D01*
X143597863Y-71407091D01*
X143641589Y-71446353D01*
X143687311Y-71492785D01*
X143736640Y-71548379D01*
X143791188Y-71615127D01*
X143852567Y-71695021D01*
X143922387Y-71790052D01*
X144002261Y-71902213D01*
X144093800Y-72033496D01*
X144198615Y-72185892D01*
X144231577Y-72234105D01*
X144305752Y-72343380D01*
X144376180Y-72448411D01*
X144440967Y-72546278D01*
X144498218Y-72634064D01*
X144546037Y-72708848D01*
X144582529Y-72767713D01*
X144605798Y-72807739D01*
X144611855Y-72819716D01*
X144655782Y-72950978D01*
X144673458Y-73086804D01*
X144665635Y-73223551D01*
X144633065Y-73357574D01*
X144576498Y-73485232D01*
X144496688Y-73602879D01*
X144436783Y-73668297D01*
X144331665Y-73752031D01*
X144213350Y-73813089D01*
X144085843Y-73851169D01*
X143953148Y-73865971D01*
X143819270Y-73857193D01*
X143688212Y-73824535D01*
X143563979Y-73767694D01*
X143516264Y-73737549D01*
X143474493Y-73707451D01*
X143437906Y-73677190D01*
X143402891Y-73642670D01*
X143365836Y-73599794D01*
X143323131Y-73544466D01*
X143271163Y-73472588D01*
X143225916Y-73408193D01*
X143180878Y-73344234D01*
X143141343Y-73289172D01*
X143110136Y-73246857D01*
X143090085Y-73221141D01*
X143084136Y-73215064D01*
X143070183Y-73222424D01*
X143036111Y-73243942D01*
X142984817Y-73277623D01*
X142919197Y-73321471D01*
X142842149Y-73373492D01*
X142756569Y-73431689D01*
X142665353Y-73494067D01*
X142571399Y-73558632D01*
X142477603Y-73623387D01*
X142386862Y-73686338D01*
X142302072Y-73745490D01*
X142226131Y-73798846D01*
X142161934Y-73844412D01*
X142112379Y-73880192D01*
X142080363Y-73904192D01*
X142068781Y-73914415D01*
X142068778Y-73914458D01*
X142076353Y-73930030D01*
X142097316Y-73964670D01*
X142129022Y-74014220D01*
X142168824Y-74074524D01*
X142200733Y-74121858D01*
X142248106Y-74193807D01*
X142292004Y-74264615D01*
X142328791Y-74328118D01*
X142354836Y-74378150D01*
X142363213Y-74397556D01*
X142401719Y-74538481D01*
X142413130Y-74679793D01*
X142398098Y-74818418D01*
X142357278Y-74951282D01*
X142291323Y-75075312D01*
X142200887Y-75187433D01*
X142193762Y-75194650D01*
X142110926Y-75267866D01*
X142023338Y-75323834D01*
X141919881Y-75369527D01*
X141908187Y-75373817D01*
X141837847Y-75393462D01*
X141755341Y-75407834D01*
X141672312Y-75415528D01*
X141600400Y-75415143D01*
X141581945Y-75413129D01*
X141453875Y-75383270D01*
X141331083Y-75333319D01*
X141221246Y-75266925D01*
X141152213Y-75208757D01*
X141132003Y-75185132D01*
X141098079Y-75141168D01*
X141052559Y-75079892D01*
X140997563Y-75004329D01*
X140935208Y-74917503D01*
X140867613Y-74822440D01*
X140796897Y-74722166D01*
X140725178Y-74619704D01*
X140654576Y-74518081D01*
X140587208Y-74420320D01*
X140525193Y-74329449D01*
X140470651Y-74248491D01*
X140425698Y-74180471D01*
X140392455Y-74128415D01*
X140374958Y-74098927D01*
X140349921Y-74058506D01*
X140315570Y-74009394D01*
X140290195Y-73976055D01*
X140228359Y-73879090D01*
X140179661Y-73763680D01*
X140145937Y-73637240D01*
X140129022Y-73507184D01*
X140130752Y-73380929D01*
X140134713Y-73348050D01*
X140163158Y-73207559D01*
X140206469Y-73084816D01*
X140268149Y-72972878D01*
X140351699Y-72864807D01*
X140409718Y-72803015D01*
X140523619Y-72688308D01*
X140442230Y-72598435D01*
X140348505Y-72474502D01*
X140278387Y-72337569D01*
X140232565Y-72191108D01*
X140211729Y-72038591D01*
X140216569Y-71883489D01*
X140247775Y-71729274D01*
X140261179Y-71687168D01*
X140301527Y-71570111D01*
X140206687Y-71570111D01*
X140095745Y-71560676D01*
X139974740Y-71534106D01*
X139853782Y-71492999D01*
X139782778Y-71461120D01*
X139674329Y-71393922D01*
X139571017Y-71305301D01*
X139479471Y-71202015D01*
X139406320Y-71090822D01*
X139391453Y-71062111D01*
X139344539Y-70947951D01*
X139310384Y-70827167D01*
X139291652Y-70710396D01*
X139288889Y-70652888D01*
X139295704Y-70562510D01*
X139314257Y-70460537D01*
X139341707Y-70359540D01*
X139374649Y-70273309D01*
X139394652Y-70228302D01*
X139408120Y-70194628D01*
X139412347Y-70179090D01*
X139412210Y-70178839D01*
X139397240Y-70179101D01*
X139364877Y-70184813D01*
X139351993Y-70187665D01*
X139292339Y-70196276D01*
X139214730Y-70200256D01*
X139129021Y-70199788D01*
X139045064Y-70195057D01*
X138972715Y-70186246D01*
X138942604Y-70180026D01*
X138793632Y-70128123D01*
X138656706Y-70052291D01*
X138534529Y-69955234D01*
X138429804Y-69839655D01*
X138345233Y-69708254D01*
X138283519Y-69563735D01*
X138265974Y-69503396D01*
X138250411Y-69410812D01*
X138244819Y-69303443D01*
X138249023Y-69192836D01*
X138262848Y-69090542D01*
X138272889Y-69047645D01*
X138286420Y-68998307D01*
X138296377Y-68961033D01*
X138300902Y-68942796D01*
X138300998Y-68942095D01*
X138287899Y-68940251D01*
X138252976Y-68938468D01*
X138202626Y-68937034D01*
X138177526Y-68936590D01*
X138018503Y-68920826D01*
X137868747Y-68879331D01*
X137730373Y-68813674D01*
X137605494Y-68725426D01*
X137496224Y-68616157D01*
X137404679Y-68487435D01*
X137332971Y-68340831D01*
X137317047Y-68297693D01*
X137299978Y-68243936D01*
X137289063Y-68195732D01*
X137283031Y-68143746D01*
X137280610Y-68078641D01*
X137280364Y-68028222D01*
X137284600Y-67919350D01*
X137298549Y-67823452D01*
X137324701Y-67728441D01*
X137362449Y-67629583D01*
X137365080Y-67616545D01*
X137355751Y-67609065D01*
X137329157Y-67605612D01*
X137279992Y-67604655D01*
X137276038Y-67604643D01*
X137119901Y-67590800D01*
X136971940Y-67551538D01*
X136834481Y-67489046D01*
X136709847Y-67405514D01*
X136600363Y-67303132D01*
X136508352Y-67184089D01*
X136436140Y-67050576D01*
X136386050Y-66904780D01*
X136360407Y-66748893D01*
X136359856Y-66741549D01*
X136362743Y-66589992D01*
X136391591Y-66439721D01*
X136444561Y-66295689D01*
X136519815Y-66162849D01*
X136615515Y-66046152D01*
X136619413Y-66042220D01*
X136663507Y-66002546D01*
X136727148Y-65951354D01*
X136805780Y-65891804D01*
X136894845Y-65827054D01*
X136989784Y-65760264D01*
X137086041Y-65694594D01*
X137179057Y-65633202D01*
X137264275Y-65579249D01*
X137337138Y-65535893D01*
X137391349Y-65507117D01*
X137537814Y-65451964D01*
X137686567Y-65423477D01*
X137834959Y-65420534D01*
X137980340Y-65442016D01*
X137980340Y-65442016D01*
G37*
X137980340Y-65442016D02*
X138120062Y-65486800D01*
X138251474Y-65553766D01*
X138371927Y-65641793D01*
X138478773Y-65749759D01*
X138569361Y-65876545D01*
X138641043Y-66021028D01*
X138648002Y-66038852D01*
X138664546Y-66084662D01*
X138675820Y-66124275D01*
X138682830Y-66165086D01*
X138686586Y-66214485D01*
X138688093Y-66279867D01*
X138688345Y-66334889D01*
X138687908Y-66415772D01*
X138685701Y-66476078D01*
X138680751Y-66523440D01*
X138672083Y-66565491D01*
X138658725Y-66609866D01*
X138650076Y-66635047D01*
X138632351Y-66686038D01*
X138618931Y-66725654D01*
X138612028Y-66747333D01*
X138611556Y-66749411D01*
X138624646Y-66752126D01*
X138659902Y-66755644D01*
X138711295Y-66759427D01*
X138749783Y-66761735D01*
X138907949Y-66783756D01*
X139055155Y-66830498D01*
X139189403Y-66899919D01*
X139308695Y-66989979D01*
X139411032Y-67098637D01*
X139494415Y-67223851D01*
X139556847Y-67363581D01*
X139596330Y-67515786D01*
X139609833Y-67640166D01*
X139611334Y-67722259D01*
X139606715Y-67795562D01*
X139594619Y-67870356D01*
X139573686Y-67956923D01*
X139562726Y-67996472D01*
X139559569Y-68011938D01*
X139564349Y-68021348D01*
X139582252Y-68026221D01*
X139618467Y-68028079D01*
X139671771Y-68028430D01*
X139829004Y-68040559D01*
X139973071Y-68077013D01*
X140106329Y-68138774D01*
X140231134Y-68226818D01*
X140299218Y-68288965D01*
X140403736Y-68406749D01*
X140481699Y-68528254D01*
X140534771Y-68657433D01*
X140564618Y-68798238D01*
X140573000Y-68938668D01*
X140566224Y-69070527D01*
X140544528Y-69187378D01*
X140505857Y-69299329D01*
X140494521Y-69325065D01*
X140476848Y-69366412D01*
X140466378Y-69396215D01*
X140465101Y-69406693D01*
X140480808Y-69407059D01*
X140514223Y-69401724D01*
X140532332Y-69397834D01*
X140651002Y-69382540D01*
X140781368Y-69386754D01*
X140915901Y-69409323D01*
X141047069Y-69449096D01*
X141141685Y-69491055D01*
X141245221Y-69556975D01*
X141345428Y-69643546D01*
X141435220Y-69743447D01*
X141507510Y-69849356D01*
X141530256Y-69892425D01*
X141589411Y-70041955D01*
X141621781Y-70190105D01*
X141627396Y-70339368D01*
X141606288Y-70492236D01*
X141558488Y-70651203D01*
X141540433Y-70696887D01*
X141539071Y-70708172D01*
X141549665Y-70715214D01*
X141577095Y-70719122D01*
X141626243Y-70721006D01*
X141648177Y-70721374D01*
X141804929Y-70737208D01*
X141953778Y-70779026D01*
X142092009Y-70845074D01*
X142216905Y-70933595D01*
X142325754Y-71042833D01*
X142415838Y-71171031D01*
X142453154Y-71242027D01*
X142474435Y-71285836D01*
X142490931Y-71317405D01*
X142499215Y-71330193D01*
X142499347Y-71330222D01*
X142513292Y-71324560D01*
X142546275Y-71309521D01*
X142591934Y-71288023D01*
X142605943Y-71281330D01*
X142754337Y-71225413D01*
X142908057Y-71196072D01*
X143063610Y-71193070D01*
X143217504Y-71216174D01*
X143366249Y-71265149D01*
X143506353Y-71339760D01*
X143509953Y-71342108D01*
X143554522Y-71373006D01*
X143597863Y-71407091D01*
X143641589Y-71446353D01*
X143687311Y-71492785D01*
X143736640Y-71548379D01*
X143791188Y-71615127D01*
X143852567Y-71695021D01*
X143922387Y-71790052D01*
X144002261Y-71902213D01*
X144093800Y-72033496D01*
X144198615Y-72185892D01*
X144231577Y-72234105D01*
X144305752Y-72343380D01*
X144376180Y-72448411D01*
X144440967Y-72546278D01*
X144498218Y-72634064D01*
X144546037Y-72708848D01*
X144582529Y-72767713D01*
X144605798Y-72807739D01*
X144611855Y-72819716D01*
X144655782Y-72950978D01*
X144673458Y-73086804D01*
X144665635Y-73223551D01*
X144633065Y-73357574D01*
X144576498Y-73485232D01*
X144496688Y-73602879D01*
X144436783Y-73668297D01*
X144331665Y-73752031D01*
X144213350Y-73813089D01*
X144085843Y-73851169D01*
X143953148Y-73865971D01*
X143819270Y-73857193D01*
X143688212Y-73824535D01*
X143563979Y-73767694D01*
X143516264Y-73737549D01*
X143474493Y-73707451D01*
X143437906Y-73677190D01*
X143402891Y-73642670D01*
X143365836Y-73599794D01*
X143323131Y-73544466D01*
X143271163Y-73472588D01*
X143225916Y-73408193D01*
X143180878Y-73344234D01*
X143141343Y-73289172D01*
X143110136Y-73246857D01*
X143090085Y-73221141D01*
X143084136Y-73215064D01*
X143070183Y-73222424D01*
X143036111Y-73243942D01*
X142984817Y-73277623D01*
X142919197Y-73321471D01*
X142842149Y-73373492D01*
X142756569Y-73431689D01*
X142665353Y-73494067D01*
X142571399Y-73558632D01*
X142477603Y-73623387D01*
X142386862Y-73686338D01*
X142302072Y-73745490D01*
X142226131Y-73798846D01*
X142161934Y-73844412D01*
X142112379Y-73880192D01*
X142080363Y-73904192D01*
X142068781Y-73914415D01*
X142068778Y-73914458D01*
X142076353Y-73930030D01*
X142097316Y-73964670D01*
X142129022Y-74014220D01*
X142168824Y-74074524D01*
X142200733Y-74121858D01*
X142248106Y-74193807D01*
X142292004Y-74264615D01*
X142328791Y-74328118D01*
X142354836Y-74378150D01*
X142363213Y-74397556D01*
X142401719Y-74538481D01*
X142413130Y-74679793D01*
X142398098Y-74818418D01*
X142357278Y-74951282D01*
X142291323Y-75075312D01*
X142200887Y-75187433D01*
X142193762Y-75194650D01*
X142110926Y-75267866D01*
X142023338Y-75323834D01*
X141919881Y-75369527D01*
X141908187Y-75373817D01*
X141837847Y-75393462D01*
X141755341Y-75407834D01*
X141672312Y-75415528D01*
X141600400Y-75415143D01*
X141581945Y-75413129D01*
X141453875Y-75383270D01*
X141331083Y-75333319D01*
X141221246Y-75266925D01*
X141152213Y-75208757D01*
X141132003Y-75185132D01*
X141098079Y-75141168D01*
X141052559Y-75079892D01*
X140997563Y-75004329D01*
X140935208Y-74917503D01*
X140867613Y-74822440D01*
X140796897Y-74722166D01*
X140725178Y-74619704D01*
X140654576Y-74518081D01*
X140587208Y-74420320D01*
X140525193Y-74329449D01*
X140470651Y-74248491D01*
X140425698Y-74180471D01*
X140392455Y-74128415D01*
X140374958Y-74098927D01*
X140349921Y-74058506D01*
X140315570Y-74009394D01*
X140290195Y-73976055D01*
X140228359Y-73879090D01*
X140179661Y-73763680D01*
X140145937Y-73637240D01*
X140129022Y-73507184D01*
X140130752Y-73380929D01*
X140134713Y-73348050D01*
X140163158Y-73207559D01*
X140206469Y-73084816D01*
X140268149Y-72972878D01*
X140351699Y-72864807D01*
X140409718Y-72803015D01*
X140523619Y-72688308D01*
X140442230Y-72598435D01*
X140348505Y-72474502D01*
X140278387Y-72337569D01*
X140232565Y-72191108D01*
X140211729Y-72038591D01*
X140216569Y-71883489D01*
X140247775Y-71729274D01*
X140261179Y-71687168D01*
X140301527Y-71570111D01*
X140206687Y-71570111D01*
X140095745Y-71560676D01*
X139974740Y-71534106D01*
X139853782Y-71492999D01*
X139782778Y-71461120D01*
X139674329Y-71393922D01*
X139571017Y-71305301D01*
X139479471Y-71202015D01*
X139406320Y-71090822D01*
X139391453Y-71062111D01*
X139344539Y-70947951D01*
X139310384Y-70827167D01*
X139291652Y-70710396D01*
X139288889Y-70652888D01*
X139295704Y-70562510D01*
X139314257Y-70460537D01*
X139341707Y-70359540D01*
X139374649Y-70273309D01*
X139394652Y-70228302D01*
X139408120Y-70194628D01*
X139412347Y-70179090D01*
X139412210Y-70178839D01*
X139397240Y-70179101D01*
X139364877Y-70184813D01*
X139351993Y-70187665D01*
X139292339Y-70196276D01*
X139214730Y-70200256D01*
X139129021Y-70199788D01*
X139045064Y-70195057D01*
X138972715Y-70186246D01*
X138942604Y-70180026D01*
X138793632Y-70128123D01*
X138656706Y-70052291D01*
X138534529Y-69955234D01*
X138429804Y-69839655D01*
X138345233Y-69708254D01*
X138283519Y-69563735D01*
X138265974Y-69503396D01*
X138250411Y-69410812D01*
X138244819Y-69303443D01*
X138249023Y-69192836D01*
X138262848Y-69090542D01*
X138272889Y-69047645D01*
X138286420Y-68998307D01*
X138296377Y-68961033D01*
X138300902Y-68942796D01*
X138300998Y-68942095D01*
X138287899Y-68940251D01*
X138252976Y-68938468D01*
X138202626Y-68937034D01*
X138177526Y-68936590D01*
X138018503Y-68920826D01*
X137868747Y-68879331D01*
X137730373Y-68813674D01*
X137605494Y-68725426D01*
X137496224Y-68616157D01*
X137404679Y-68487435D01*
X137332971Y-68340831D01*
X137317047Y-68297693D01*
X137299978Y-68243936D01*
X137289063Y-68195732D01*
X137283031Y-68143746D01*
X137280610Y-68078641D01*
X137280364Y-68028222D01*
X137284600Y-67919350D01*
X137298549Y-67823452D01*
X137324701Y-67728441D01*
X137362449Y-67629583D01*
X137365080Y-67616545D01*
X137355751Y-67609065D01*
X137329157Y-67605612D01*
X137279992Y-67604655D01*
X137276038Y-67604643D01*
X137119901Y-67590800D01*
X136971940Y-67551538D01*
X136834481Y-67489046D01*
X136709847Y-67405514D01*
X136600363Y-67303132D01*
X136508352Y-67184089D01*
X136436140Y-67050576D01*
X136386050Y-66904780D01*
X136360407Y-66748893D01*
X136359856Y-66741549D01*
X136362743Y-66589992D01*
X136391591Y-66439721D01*
X136444561Y-66295689D01*
X136519815Y-66162849D01*
X136615515Y-66046152D01*
X136619413Y-66042220D01*
X136663507Y-66002546D01*
X136727148Y-65951354D01*
X136805780Y-65891804D01*
X136894845Y-65827054D01*
X136989784Y-65760264D01*
X137086041Y-65694594D01*
X137179057Y-65633202D01*
X137264275Y-65579249D01*
X137337138Y-65535893D01*
X137391349Y-65507117D01*
X137537814Y-65451964D01*
X137686567Y-65423477D01*
X137834959Y-65420534D01*
X137980340Y-65442016D01*
G36*
X116085629Y-64439789D02*
X116147568Y-64444543D01*
X116201415Y-64453764D01*
X116257210Y-64468870D01*
X116283749Y-64477347D01*
X116428363Y-64539342D01*
X116559664Y-64624488D01*
X116674915Y-64729862D01*
X116771380Y-64852543D01*
X116846323Y-64989609D01*
X116894951Y-65129933D01*
X116917770Y-65251202D01*
X116923054Y-65372898D01*
X116910421Y-65500865D01*
X116879485Y-65640947D01*
X116856231Y-65719908D01*
X116853878Y-65739027D01*
X116869507Y-65737973D01*
X116874649Y-65735964D01*
X116986973Y-65701230D01*
X117113200Y-65680792D01*
X117242366Y-65675604D01*
X117363505Y-65686621D01*
X117387948Y-65691305D01*
X117543057Y-65738259D01*
X117684944Y-65809236D01*
X117811491Y-65902313D01*
X117920577Y-66015564D01*
X118010083Y-66147066D01*
X118077889Y-66294895D01*
X118089173Y-66327833D01*
X118113411Y-66430745D01*
X118125917Y-66546688D01*
X118126365Y-66664736D01*
X118114428Y-66773965D01*
X118103914Y-66821121D01*
X118092509Y-66865591D01*
X118085655Y-66897437D01*
X118084726Y-66908873D01*
X118098750Y-66906249D01*
X118132690Y-66895997D01*
X118179941Y-66880150D01*
X118193511Y-66875392D01*
X118307523Y-66845866D01*
X118435377Y-66830775D01*
X118566448Y-66830494D01*
X118690108Y-66845400D01*
X118736882Y-66856172D01*
X118883722Y-66909753D01*
X119016956Y-66986156D01*
X119134433Y-67082663D01*
X119234002Y-67196554D01*
X119313513Y-67325113D01*
X119370815Y-67465619D01*
X119403757Y-67615355D01*
X119410927Y-67708171D01*
X119413389Y-67809500D01*
X119811977Y-67809500D01*
X119811429Y-67668389D01*
X119817938Y-67535835D01*
X119840227Y-67417202D01*
X119880768Y-67301523D01*
X119906829Y-67245055D01*
X119987040Y-67112606D01*
X120087135Y-66997331D01*
X120203895Y-66900872D01*
X120334104Y-66824866D01*
X120474543Y-66770952D01*
X120621996Y-66740770D01*
X120773245Y-66735959D01*
X120880945Y-66748801D01*
X120937578Y-66759945D01*
X120985946Y-66770721D01*
X121017246Y-66779138D01*
X121020978Y-66780480D01*
X121040120Y-66784982D01*
X121039302Y-66770968D01*
X121036560Y-66764199D01*
X120989332Y-66622153D01*
X120962727Y-66470324D01*
X120957607Y-66370166D01*
X120967571Y-66217241D01*
X120998263Y-66080165D01*
X121051572Y-65954402D01*
X121129387Y-65835413D01*
X121225418Y-65726842D01*
X121286211Y-65667680D01*
X121337125Y-65624159D01*
X121386323Y-65590222D01*
X121441970Y-65559810D01*
X121466556Y-65547894D01*
X121565289Y-65504935D01*
X121652793Y-65476740D01*
X121740202Y-65460856D01*
X121838651Y-65454833D01*
X121889889Y-65454690D01*
X121972147Y-65457284D01*
X122038049Y-65464315D01*
X122099330Y-65477505D01*
X122150945Y-65493007D01*
X122212150Y-65514304D01*
X122267314Y-65537181D01*
X122319617Y-65564006D01*
X122372239Y-65597149D01*
X122428360Y-65638980D01*
X122491161Y-65691866D01*
X122563823Y-65758179D01*
X122649525Y-65840287D01*
X122750660Y-65939777D01*
X122839026Y-66027668D01*
X122909691Y-66098851D01*
X122965221Y-66156262D01*
X123008179Y-66202839D01*
X123041128Y-66241518D01*
X123066633Y-66275234D01*
X123087258Y-66306925D01*
X123105565Y-66339526D01*
X123114127Y-66356055D01*
X123179514Y-66512088D01*
X123216745Y-66667642D01*
X123225817Y-66822450D01*
X123206726Y-66976246D01*
X123159468Y-67128762D01*
X123126140Y-67202722D01*
X123048001Y-67335108D01*
X122954417Y-67446573D01*
X122840978Y-67542174D01*
X122813124Y-67561441D01*
X122697524Y-67628729D01*
X122581603Y-67674220D01*
X122457529Y-67700229D01*
X122317473Y-67709067D01*
X122313222Y-67709090D01*
X122198131Y-67706006D01*
X122108368Y-67695602D01*
X122068699Y-67686588D01*
X122023651Y-67674432D01*
X122000123Y-67670445D01*
X121992611Y-67674664D01*
X121995591Y-67687078D01*
X122044266Y-67835163D01*
X122071528Y-67971174D01*
X122072819Y-67982019D01*
X122076901Y-68139634D01*
X122054533Y-68292467D01*
X122007294Y-68437608D01*
X121936766Y-68572144D01*
X121844532Y-68693163D01*
X121732170Y-68797753D01*
X121601264Y-68883003D01*
X121576684Y-68895658D01*
X121439053Y-68953035D01*
X121302853Y-68986500D01*
X121161848Y-68996919D01*
X121009803Y-68985154D01*
X120972325Y-68979352D01*
X120922595Y-68971008D01*
X120928100Y-69080029D01*
X120922824Y-69243305D01*
X120891435Y-69411135D01*
X120834802Y-69579784D01*
X120789360Y-69679222D01*
X120691961Y-69842011D01*
X120573876Y-69986682D01*
X120437204Y-70111770D01*
X120284045Y-70215810D01*
X120116498Y-70297338D01*
X119936661Y-70354888D01*
X119780278Y-70383310D01*
X119708987Y-70391435D01*
X119653517Y-70395604D01*
X119603377Y-70395781D01*
X119548075Y-70391933D01*
X119477121Y-70384027D01*
X119462778Y-70382280D01*
X119400711Y-70371479D01*
X119325070Y-70353670D01*
X119248618Y-70331989D01*
X119219185Y-70322431D01*
X119045267Y-70248909D01*
X118886263Y-70152904D01*
X118743911Y-70036673D01*
X118619948Y-69902474D01*
X118516110Y-69752565D01*
X118434136Y-69589202D01*
X118375761Y-69414642D01*
X118342722Y-69231144D01*
X118338190Y-69177545D01*
X118333755Y-69107722D01*
X119145278Y-69107722D01*
X119148158Y-69193001D01*
X119158897Y-69260158D01*
X119180639Y-69318898D01*
X119216532Y-69378926D01*
X119246539Y-69420085D01*
X119316263Y-69489523D01*
X119404131Y-69542576D01*
X119504146Y-69577471D01*
X119610309Y-69592436D01*
X119716620Y-69585698D01*
X119767133Y-69573883D01*
X119875331Y-69528061D01*
X119965702Y-69461550D01*
X120036302Y-69376988D01*
X120085189Y-69277014D01*
X120110419Y-69164267D01*
X120113555Y-69103458D01*
X120102397Y-68990418D01*
X120068349Y-68891496D01*
X120009396Y-68801817D01*
X119971907Y-68760871D01*
X119894521Y-68694620D01*
X119814848Y-68651242D01*
X119725961Y-68628150D01*
X119620935Y-68622752D01*
X119603889Y-68623287D01*
X119500404Y-68634807D01*
X119414097Y-68662448D01*
X119336950Y-68709614D01*
X119278730Y-68761396D01*
X119220087Y-68827499D01*
X119180538Y-68892656D01*
X119157050Y-68964744D01*
X119146583Y-69051645D01*
X119145278Y-69107722D01*
X118333755Y-69107722D01*
X118330076Y-69049812D01*
X118236732Y-69069474D01*
X118149918Y-69081143D01*
X118049263Y-69083816D01*
X118016389Y-69082648D01*
X117858729Y-69061027D01*
X117710466Y-69013894D01*
X117574028Y-68943084D01*
X117451847Y-68850436D01*
X117346353Y-68737785D01*
X117259976Y-68606968D01*
X117196182Y-68462816D01*
X117167682Y-68352071D01*
X117152863Y-68229329D01*
X117152221Y-68105433D01*
X117166253Y-67991225D01*
X117173209Y-67961194D01*
X117185008Y-67912384D01*
X117191866Y-67876261D01*
X117192571Y-67859451D01*
X117191917Y-67858987D01*
X117175712Y-67863469D01*
X117139922Y-67875275D01*
X117091490Y-67892095D01*
X117078000Y-67896892D01*
X117031085Y-67912657D01*
X116989579Y-67923350D01*
X116945948Y-67929930D01*
X116892657Y-67933359D01*
X116822173Y-67934599D01*
X116781667Y-67934699D01*
X116700402Y-67934128D01*
X116639854Y-67931787D01*
X116592528Y-67926737D01*
X116550931Y-67918035D01*
X116507570Y-67904742D01*
X116487663Y-67897790D01*
X116359717Y-67843038D01*
X116248764Y-67774226D01*
X116144629Y-67684923D01*
X116133790Y-67674210D01*
X116043266Y-67571857D01*
X115973012Y-67463656D01*
X115916633Y-67339513D01*
X115909500Y-67320332D01*
X115893874Y-67274666D01*
X115883287Y-67234296D01*
X115876802Y-67191797D01*
X115873481Y-67139743D01*
X115872386Y-67070710D01*
X115872384Y-67026333D01*
X115873444Y-66940626D01*
X115876644Y-66875811D01*
X115882788Y-66824589D01*
X115892679Y-66779663D01*
X115903370Y-66744716D01*
X115918065Y-66698565D01*
X115927527Y-66664414D01*
X115929756Y-66649506D01*
X115929707Y-66649447D01*
X115915113Y-66650762D01*
X115879989Y-66657922D01*
X115831075Y-66669512D01*
X115815131Y-66673536D01*
X115658502Y-66699551D01*
X115502475Y-66698668D01*
X115350201Y-66672095D01*
X115204835Y-66621041D01*
X115069529Y-66546713D01*
X114947435Y-66450322D01*
X114841705Y-66333074D01*
X114809695Y-66288149D01*
X114731820Y-66147632D01*
X114680962Y-66000456D01*
X114657222Y-65848440D01*
X114660698Y-65693404D01*
X114691489Y-65537168D01*
X114749695Y-65381550D01*
X114759171Y-65361683D01*
X114779168Y-65321689D01*
X114798228Y-65286917D01*
X114819044Y-65254116D01*
X114844308Y-65220038D01*
X114876713Y-65181434D01*
X114918952Y-65135053D01*
X114973716Y-65077646D01*
X115043699Y-65005964D01*
X115108109Y-64940560D01*
X115213158Y-64835228D01*
X115302581Y-64748609D01*
X115379505Y-64678327D01*
X115447061Y-64622007D01*
X115508378Y-64577273D01*
X115566586Y-64541752D01*
X115624814Y-64513067D01*
X115686191Y-64488843D01*
X115717256Y-64478245D01*
X115778146Y-64459431D01*
X115829094Y-64447413D01*
X115880082Y-64440798D01*
X115941091Y-64438198D01*
X116005556Y-64438085D01*
X116085629Y-64439789D01*
X116085629Y-64439789D01*
G37*
X116085629Y-64439789D02*
X116147568Y-64444543D01*
X116201415Y-64453764D01*
X116257210Y-64468870D01*
X116283749Y-64477347D01*
X116428363Y-64539342D01*
X116559664Y-64624488D01*
X116674915Y-64729862D01*
X116771380Y-64852543D01*
X116846323Y-64989609D01*
X116894951Y-65129933D01*
X116917770Y-65251202D01*
X116923054Y-65372898D01*
X116910421Y-65500865D01*
X116879485Y-65640947D01*
X116856231Y-65719908D01*
X116853878Y-65739027D01*
X116869507Y-65737973D01*
X116874649Y-65735964D01*
X116986973Y-65701230D01*
X117113200Y-65680792D01*
X117242366Y-65675604D01*
X117363505Y-65686621D01*
X117387948Y-65691305D01*
X117543057Y-65738259D01*
X117684944Y-65809236D01*
X117811491Y-65902313D01*
X117920577Y-66015564D01*
X118010083Y-66147066D01*
X118077889Y-66294895D01*
X118089173Y-66327833D01*
X118113411Y-66430745D01*
X118125917Y-66546688D01*
X118126365Y-66664736D01*
X118114428Y-66773965D01*
X118103914Y-66821121D01*
X118092509Y-66865591D01*
X118085655Y-66897437D01*
X118084726Y-66908873D01*
X118098750Y-66906249D01*
X118132690Y-66895997D01*
X118179941Y-66880150D01*
X118193511Y-66875392D01*
X118307523Y-66845866D01*
X118435377Y-66830775D01*
X118566448Y-66830494D01*
X118690108Y-66845400D01*
X118736882Y-66856172D01*
X118883722Y-66909753D01*
X119016956Y-66986156D01*
X119134433Y-67082663D01*
X119234002Y-67196554D01*
X119313513Y-67325113D01*
X119370815Y-67465619D01*
X119403757Y-67615355D01*
X119410927Y-67708171D01*
X119413389Y-67809500D01*
X119811977Y-67809500D01*
X119811429Y-67668389D01*
X119817938Y-67535835D01*
X119840227Y-67417202D01*
X119880768Y-67301523D01*
X119906829Y-67245055D01*
X119987040Y-67112606D01*
X120087135Y-66997331D01*
X120203895Y-66900872D01*
X120334104Y-66824866D01*
X120474543Y-66770952D01*
X120621996Y-66740770D01*
X120773245Y-66735959D01*
X120880945Y-66748801D01*
X120937578Y-66759945D01*
X120985946Y-66770721D01*
X121017246Y-66779138D01*
X121020978Y-66780480D01*
X121040120Y-66784982D01*
X121039302Y-66770968D01*
X121036560Y-66764199D01*
X120989332Y-66622153D01*
X120962727Y-66470324D01*
X120957607Y-66370166D01*
X120967571Y-66217241D01*
X120998263Y-66080165D01*
X121051572Y-65954402D01*
X121129387Y-65835413D01*
X121225418Y-65726842D01*
X121286211Y-65667680D01*
X121337125Y-65624159D01*
X121386323Y-65590222D01*
X121441970Y-65559810D01*
X121466556Y-65547894D01*
X121565289Y-65504935D01*
X121652793Y-65476740D01*
X121740202Y-65460856D01*
X121838651Y-65454833D01*
X121889889Y-65454690D01*
X121972147Y-65457284D01*
X122038049Y-65464315D01*
X122099330Y-65477505D01*
X122150945Y-65493007D01*
X122212150Y-65514304D01*
X122267314Y-65537181D01*
X122319617Y-65564006D01*
X122372239Y-65597149D01*
X122428360Y-65638980D01*
X122491161Y-65691866D01*
X122563823Y-65758179D01*
X122649525Y-65840287D01*
X122750660Y-65939777D01*
X122839026Y-66027668D01*
X122909691Y-66098851D01*
X122965221Y-66156262D01*
X123008179Y-66202839D01*
X123041128Y-66241518D01*
X123066633Y-66275234D01*
X123087258Y-66306925D01*
X123105565Y-66339526D01*
X123114127Y-66356055D01*
X123179514Y-66512088D01*
X123216745Y-66667642D01*
X123225817Y-66822450D01*
X123206726Y-66976246D01*
X123159468Y-67128762D01*
X123126140Y-67202722D01*
X123048001Y-67335108D01*
X122954417Y-67446573D01*
X122840978Y-67542174D01*
X122813124Y-67561441D01*
X122697524Y-67628729D01*
X122581603Y-67674220D01*
X122457529Y-67700229D01*
X122317473Y-67709067D01*
X122313222Y-67709090D01*
X122198131Y-67706006D01*
X122108368Y-67695602D01*
X122068699Y-67686588D01*
X122023651Y-67674432D01*
X122000123Y-67670445D01*
X121992611Y-67674664D01*
X121995591Y-67687078D01*
X122044266Y-67835163D01*
X122071528Y-67971174D01*
X122072819Y-67982019D01*
X122076901Y-68139634D01*
X122054533Y-68292467D01*
X122007294Y-68437608D01*
X121936766Y-68572144D01*
X121844532Y-68693163D01*
X121732170Y-68797753D01*
X121601264Y-68883003D01*
X121576684Y-68895658D01*
X121439053Y-68953035D01*
X121302853Y-68986500D01*
X121161848Y-68996919D01*
X121009803Y-68985154D01*
X120972325Y-68979352D01*
X120922595Y-68971008D01*
X120928100Y-69080029D01*
X120922824Y-69243305D01*
X120891435Y-69411135D01*
X120834802Y-69579784D01*
X120789360Y-69679222D01*
X120691961Y-69842011D01*
X120573876Y-69986682D01*
X120437204Y-70111770D01*
X120284045Y-70215810D01*
X120116498Y-70297338D01*
X119936661Y-70354888D01*
X119780278Y-70383310D01*
X119708987Y-70391435D01*
X119653517Y-70395604D01*
X119603377Y-70395781D01*
X119548075Y-70391933D01*
X119477121Y-70384027D01*
X119462778Y-70382280D01*
X119400711Y-70371479D01*
X119325070Y-70353670D01*
X119248618Y-70331989D01*
X119219185Y-70322431D01*
X119045267Y-70248909D01*
X118886263Y-70152904D01*
X118743911Y-70036673D01*
X118619948Y-69902474D01*
X118516110Y-69752565D01*
X118434136Y-69589202D01*
X118375761Y-69414642D01*
X118342722Y-69231144D01*
X118338190Y-69177545D01*
X118333755Y-69107722D01*
X119145278Y-69107722D01*
X119148158Y-69193001D01*
X119158897Y-69260158D01*
X119180639Y-69318898D01*
X119216532Y-69378926D01*
X119246539Y-69420085D01*
X119316263Y-69489523D01*
X119404131Y-69542576D01*
X119504146Y-69577471D01*
X119610309Y-69592436D01*
X119716620Y-69585698D01*
X119767133Y-69573883D01*
X119875331Y-69528061D01*
X119965702Y-69461550D01*
X120036302Y-69376988D01*
X120085189Y-69277014D01*
X120110419Y-69164267D01*
X120113555Y-69103458D01*
X120102397Y-68990418D01*
X120068349Y-68891496D01*
X120009396Y-68801817D01*
X119971907Y-68760871D01*
X119894521Y-68694620D01*
X119814848Y-68651242D01*
X119725961Y-68628150D01*
X119620935Y-68622752D01*
X119603889Y-68623287D01*
X119500404Y-68634807D01*
X119414097Y-68662448D01*
X119336950Y-68709614D01*
X119278730Y-68761396D01*
X119220087Y-68827499D01*
X119180538Y-68892656D01*
X119157050Y-68964744D01*
X119146583Y-69051645D01*
X119145278Y-69107722D01*
X118333755Y-69107722D01*
X118330076Y-69049812D01*
X118236732Y-69069474D01*
X118149918Y-69081143D01*
X118049263Y-69083816D01*
X118016389Y-69082648D01*
X117858729Y-69061027D01*
X117710466Y-69013894D01*
X117574028Y-68943084D01*
X117451847Y-68850436D01*
X117346353Y-68737785D01*
X117259976Y-68606968D01*
X117196182Y-68462816D01*
X117167682Y-68352071D01*
X117152863Y-68229329D01*
X117152221Y-68105433D01*
X117166253Y-67991225D01*
X117173209Y-67961194D01*
X117185008Y-67912384D01*
X117191866Y-67876261D01*
X117192571Y-67859451D01*
X117191917Y-67858987D01*
X117175712Y-67863469D01*
X117139922Y-67875275D01*
X117091490Y-67892095D01*
X117078000Y-67896892D01*
X117031085Y-67912657D01*
X116989579Y-67923350D01*
X116945948Y-67929930D01*
X116892657Y-67933359D01*
X116822173Y-67934599D01*
X116781667Y-67934699D01*
X116700402Y-67934128D01*
X116639854Y-67931787D01*
X116592528Y-67926737D01*
X116550931Y-67918035D01*
X116507570Y-67904742D01*
X116487663Y-67897790D01*
X116359717Y-67843038D01*
X116248764Y-67774226D01*
X116144629Y-67684923D01*
X116133790Y-67674210D01*
X116043266Y-67571857D01*
X115973012Y-67463656D01*
X115916633Y-67339513D01*
X115909500Y-67320332D01*
X115893874Y-67274666D01*
X115883287Y-67234296D01*
X115876802Y-67191797D01*
X115873481Y-67139743D01*
X115872386Y-67070710D01*
X115872384Y-67026333D01*
X115873444Y-66940626D01*
X115876644Y-66875811D01*
X115882788Y-66824589D01*
X115892679Y-66779663D01*
X115903370Y-66744716D01*
X115918065Y-66698565D01*
X115927527Y-66664414D01*
X115929756Y-66649506D01*
X115929707Y-66649447D01*
X115915113Y-66650762D01*
X115879989Y-66657922D01*
X115831075Y-66669512D01*
X115815131Y-66673536D01*
X115658502Y-66699551D01*
X115502475Y-66698668D01*
X115350201Y-66672095D01*
X115204835Y-66621041D01*
X115069529Y-66546713D01*
X114947435Y-66450322D01*
X114841705Y-66333074D01*
X114809695Y-66288149D01*
X114731820Y-66147632D01*
X114680962Y-66000456D01*
X114657222Y-65848440D01*
X114660698Y-65693404D01*
X114691489Y-65537168D01*
X114749695Y-65381550D01*
X114759171Y-65361683D01*
X114779168Y-65321689D01*
X114798228Y-65286917D01*
X114819044Y-65254116D01*
X114844308Y-65220038D01*
X114876713Y-65181434D01*
X114918952Y-65135053D01*
X114973716Y-65077646D01*
X115043699Y-65005964D01*
X115108109Y-64940560D01*
X115213158Y-64835228D01*
X115302581Y-64748609D01*
X115379505Y-64678327D01*
X115447061Y-64622007D01*
X115508378Y-64577273D01*
X115566586Y-64541752D01*
X115624814Y-64513067D01*
X115686191Y-64488843D01*
X115717256Y-64478245D01*
X115778146Y-64459431D01*
X115829094Y-64447413D01*
X115880082Y-64440798D01*
X115941091Y-64438198D01*
X116005556Y-64438085D01*
X116085629Y-64439789D01*
G36*
X114136502Y-61306822D02*
X114271876Y-61341279D01*
X114403685Y-61402811D01*
X114416328Y-61410323D01*
X114447943Y-61433828D01*
X114498279Y-61477393D01*
X114567429Y-61541103D01*
X114655485Y-61625049D01*
X114762540Y-61729318D01*
X114888685Y-61853997D01*
X115034013Y-61999176D01*
X115058150Y-62023406D01*
X115178383Y-62144236D01*
X115280375Y-62246965D01*
X115365823Y-62333466D01*
X115436424Y-62405611D01*
X115493878Y-62465272D01*
X115539880Y-62514321D01*
X115576130Y-62554630D01*
X115604325Y-62588072D01*
X115626163Y-62616518D01*
X115643341Y-62641842D01*
X115657558Y-62665914D01*
X115670510Y-62690608D01*
X115679279Y-62708333D01*
X115739568Y-62861991D01*
X115772296Y-63018321D01*
X115777691Y-63175073D01*
X115755983Y-63329998D01*
X115707399Y-63480847D01*
X115632170Y-63625370D01*
X115578133Y-63703166D01*
X115556648Y-63728133D01*
X115517164Y-63770683D01*
X115461479Y-63829026D01*
X115391390Y-63901371D01*
X115308695Y-63985930D01*
X115215192Y-64080911D01*
X115112678Y-64184525D01*
X115002953Y-64294981D01*
X114887812Y-64410489D01*
X114769055Y-64529259D01*
X114648478Y-64649501D01*
X114527880Y-64769424D01*
X114409058Y-64887239D01*
X114293810Y-65001156D01*
X114183935Y-65109384D01*
X114081228Y-65210133D01*
X113987490Y-65301613D01*
X113904516Y-65382034D01*
X113834106Y-65449605D01*
X113778056Y-65502537D01*
X113738165Y-65539040D01*
X113716230Y-65557322D01*
X113715739Y-65557658D01*
X113571582Y-65638654D01*
X113420237Y-65693745D01*
X113264479Y-65722405D01*
X113107081Y-65724112D01*
X112959802Y-65700595D01*
X112823277Y-65654485D01*
X112687736Y-65584810D01*
X112560698Y-65495464D01*
X112555896Y-65491533D01*
X112513965Y-65455151D01*
X112457028Y-65402995D01*
X112387536Y-65337515D01*
X112307940Y-65261163D01*
X112220692Y-65176388D01*
X112128241Y-65085643D01*
X112033039Y-64991377D01*
X111937537Y-64896041D01*
X111844186Y-64802087D01*
X111755436Y-64711964D01*
X111673739Y-64628125D01*
X111601545Y-64553019D01*
X111541306Y-64489098D01*
X111495473Y-64438812D01*
X111466496Y-64404612D01*
X111459937Y-64395629D01*
X111393866Y-64270794D01*
X111353869Y-64139410D01*
X111339569Y-64004769D01*
X111350592Y-63870163D01*
X111386561Y-63738886D01*
X111447100Y-63614231D01*
X111531833Y-63499490D01*
X111566441Y-63462970D01*
X111679650Y-63369285D01*
X111803079Y-63301188D01*
X111934278Y-63259050D01*
X112070793Y-63243241D01*
X112210173Y-63254133D01*
X112349964Y-63292096D01*
X112438898Y-63330965D01*
X112484002Y-63357515D01*
X112535456Y-63395578D01*
X112596716Y-63448022D01*
X112671244Y-63517714D01*
X112711487Y-63556897D01*
X112770849Y-63614584D01*
X112823738Y-63664710D01*
X112866745Y-63704145D01*
X112896458Y-63729760D01*
X112909301Y-63738444D01*
X112921939Y-63728786D01*
X112951826Y-63701484D01*
X112996450Y-63659047D01*
X113053303Y-63603984D01*
X113119876Y-63538805D01*
X113193658Y-63466018D01*
X113272140Y-63388132D01*
X113352812Y-63307657D01*
X113433166Y-63227101D01*
X113510691Y-63148973D01*
X113582878Y-63075783D01*
X113647217Y-63010039D01*
X113701200Y-62954251D01*
X113742315Y-62910927D01*
X113768055Y-62882577D01*
X113776000Y-62871921D01*
X113766599Y-62858246D01*
X113740474Y-62827922D01*
X113700745Y-62784373D01*
X113650529Y-62731019D01*
X113596032Y-62674451D01*
X113503762Y-62576496D01*
X113433961Y-62495224D01*
X113386470Y-62430445D01*
X113371442Y-62404944D01*
X113314896Y-62269283D01*
X113285578Y-62130943D01*
X113283073Y-61992733D01*
X113306969Y-61857464D01*
X113356850Y-61727944D01*
X113432304Y-61606983D01*
X113500526Y-61528492D01*
X113613282Y-61432790D01*
X113735954Y-61362424D01*
X113865845Y-61317742D01*
X114000260Y-61299092D01*
X114136502Y-61306822D01*
X114136502Y-61306822D01*
G37*
X114136502Y-61306822D02*
X114271876Y-61341279D01*
X114403685Y-61402811D01*
X114416328Y-61410323D01*
X114447943Y-61433828D01*
X114498279Y-61477393D01*
X114567429Y-61541103D01*
X114655485Y-61625049D01*
X114762540Y-61729318D01*
X114888685Y-61853997D01*
X115034013Y-61999176D01*
X115058150Y-62023406D01*
X115178383Y-62144236D01*
X115280375Y-62246965D01*
X115365823Y-62333466D01*
X115436424Y-62405611D01*
X115493878Y-62465272D01*
X115539880Y-62514321D01*
X115576130Y-62554630D01*
X115604325Y-62588072D01*
X115626163Y-62616518D01*
X115643341Y-62641842D01*
X115657558Y-62665914D01*
X115670510Y-62690608D01*
X115679279Y-62708333D01*
X115739568Y-62861991D01*
X115772296Y-63018321D01*
X115777691Y-63175073D01*
X115755983Y-63329998D01*
X115707399Y-63480847D01*
X115632170Y-63625370D01*
X115578133Y-63703166D01*
X115556648Y-63728133D01*
X115517164Y-63770683D01*
X115461479Y-63829026D01*
X115391390Y-63901371D01*
X115308695Y-63985930D01*
X115215192Y-64080911D01*
X115112678Y-64184525D01*
X115002953Y-64294981D01*
X114887812Y-64410489D01*
X114769055Y-64529259D01*
X114648478Y-64649501D01*
X114527880Y-64769424D01*
X114409058Y-64887239D01*
X114293810Y-65001156D01*
X114183935Y-65109384D01*
X114081228Y-65210133D01*
X113987490Y-65301613D01*
X113904516Y-65382034D01*
X113834106Y-65449605D01*
X113778056Y-65502537D01*
X113738165Y-65539040D01*
X113716230Y-65557322D01*
X113715739Y-65557658D01*
X113571582Y-65638654D01*
X113420237Y-65693745D01*
X113264479Y-65722405D01*
X113107081Y-65724112D01*
X112959802Y-65700595D01*
X112823277Y-65654485D01*
X112687736Y-65584810D01*
X112560698Y-65495464D01*
X112555896Y-65491533D01*
X112513965Y-65455151D01*
X112457028Y-65402995D01*
X112387536Y-65337515D01*
X112307940Y-65261163D01*
X112220692Y-65176388D01*
X112128241Y-65085643D01*
X112033039Y-64991377D01*
X111937537Y-64896041D01*
X111844186Y-64802087D01*
X111755436Y-64711964D01*
X111673739Y-64628125D01*
X111601545Y-64553019D01*
X111541306Y-64489098D01*
X111495473Y-64438812D01*
X111466496Y-64404612D01*
X111459937Y-64395629D01*
X111393866Y-64270794D01*
X111353869Y-64139410D01*
X111339569Y-64004769D01*
X111350592Y-63870163D01*
X111386561Y-63738886D01*
X111447100Y-63614231D01*
X111531833Y-63499490D01*
X111566441Y-63462970D01*
X111679650Y-63369285D01*
X111803079Y-63301188D01*
X111934278Y-63259050D01*
X112070793Y-63243241D01*
X112210173Y-63254133D01*
X112349964Y-63292096D01*
X112438898Y-63330965D01*
X112484002Y-63357515D01*
X112535456Y-63395578D01*
X112596716Y-63448022D01*
X112671244Y-63517714D01*
X112711487Y-63556897D01*
X112770849Y-63614584D01*
X112823738Y-63664710D01*
X112866745Y-63704145D01*
X112896458Y-63729760D01*
X112909301Y-63738444D01*
X112921939Y-63728786D01*
X112951826Y-63701484D01*
X112996450Y-63659047D01*
X113053303Y-63603984D01*
X113119876Y-63538805D01*
X113193658Y-63466018D01*
X113272140Y-63388132D01*
X113352812Y-63307657D01*
X113433166Y-63227101D01*
X113510691Y-63148973D01*
X113582878Y-63075783D01*
X113647217Y-63010039D01*
X113701200Y-62954251D01*
X113742315Y-62910927D01*
X113768055Y-62882577D01*
X113776000Y-62871921D01*
X113766599Y-62858246D01*
X113740474Y-62827922D01*
X113700745Y-62784373D01*
X113650529Y-62731019D01*
X113596032Y-62674451D01*
X113503762Y-62576496D01*
X113433961Y-62495224D01*
X113386470Y-62430445D01*
X113371442Y-62404944D01*
X113314896Y-62269283D01*
X113285578Y-62130943D01*
X113283073Y-61992733D01*
X113306969Y-61857464D01*
X113356850Y-61727944D01*
X113432304Y-61606983D01*
X113500526Y-61528492D01*
X113613282Y-61432790D01*
X113735954Y-61362424D01*
X113865845Y-61317742D01*
X114000260Y-61299092D01*
X114136502Y-61306822D01*
G36*
X125179453Y-56993663D02*
X125282051Y-56995358D01*
X125372965Y-56998296D01*
X125447207Y-57002509D01*
X125499793Y-57008025D01*
X125502060Y-57008383D01*
X125627280Y-57042421D01*
X125740932Y-57100364D01*
X125840035Y-57179232D01*
X125921612Y-57276047D01*
X125982683Y-57387829D01*
X126020269Y-57511600D01*
X126023506Y-57529829D01*
X126028311Y-57575681D01*
X126032147Y-57644573D01*
X126035013Y-57731342D01*
X126036909Y-57830822D01*
X126037836Y-57937849D01*
X126037794Y-58047258D01*
X126036783Y-58153884D01*
X126034803Y-58252562D01*
X126031854Y-58338129D01*
X126027937Y-58405419D01*
X126023472Y-58446777D01*
X125989841Y-58569208D01*
X125932139Y-58681542D01*
X125853696Y-58780449D01*
X125757840Y-58862602D01*
X125647899Y-58924672D01*
X125527201Y-58963331D01*
X125502333Y-58967916D01*
X125453526Y-58973154D01*
X125382658Y-58977168D01*
X125294605Y-58979989D01*
X125194243Y-58981651D01*
X125086448Y-58982185D01*
X124976096Y-58981623D01*
X124868062Y-58979997D01*
X124767222Y-58977341D01*
X124678452Y-58973686D01*
X124606628Y-58969064D01*
X124556625Y-58963507D01*
X124546322Y-58961601D01*
X124424345Y-58921176D01*
X124314773Y-58857191D01*
X124220623Y-58772701D01*
X124144912Y-58670761D01*
X124090658Y-58554426D01*
X124069653Y-58478956D01*
X124062595Y-58429095D01*
X124056938Y-58356137D01*
X124052682Y-58265174D01*
X124049828Y-58161295D01*
X124048375Y-58049593D01*
X124048323Y-57935157D01*
X124049673Y-57823078D01*
X124052424Y-57718448D01*
X124056576Y-57626357D01*
X124062130Y-57551896D01*
X124069084Y-57500156D01*
X124069653Y-57497376D01*
X124110065Y-57371676D01*
X124173707Y-57259974D01*
X124258002Y-57164849D01*
X124360373Y-57088877D01*
X124478242Y-57034636D01*
X124552932Y-57014097D01*
X124597711Y-57007928D01*
X124665708Y-57002791D01*
X124751937Y-56998719D01*
X124851413Y-56995739D01*
X124959148Y-56993884D01*
X125070157Y-56993181D01*
X125179453Y-56993663D01*
X125179453Y-56993663D01*
G37*
X125179453Y-56993663D02*
X125282051Y-56995358D01*
X125372965Y-56998296D01*
X125447207Y-57002509D01*
X125499793Y-57008025D01*
X125502060Y-57008383D01*
X125627280Y-57042421D01*
X125740932Y-57100364D01*
X125840035Y-57179232D01*
X125921612Y-57276047D01*
X125982683Y-57387829D01*
X126020269Y-57511600D01*
X126023506Y-57529829D01*
X126028311Y-57575681D01*
X126032147Y-57644573D01*
X126035013Y-57731342D01*
X126036909Y-57830822D01*
X126037836Y-57937849D01*
X126037794Y-58047258D01*
X126036783Y-58153884D01*
X126034803Y-58252562D01*
X126031854Y-58338129D01*
X126027937Y-58405419D01*
X126023472Y-58446777D01*
X125989841Y-58569208D01*
X125932139Y-58681542D01*
X125853696Y-58780449D01*
X125757840Y-58862602D01*
X125647899Y-58924672D01*
X125527201Y-58963331D01*
X125502333Y-58967916D01*
X125453526Y-58973154D01*
X125382658Y-58977168D01*
X125294605Y-58979989D01*
X125194243Y-58981651D01*
X125086448Y-58982185D01*
X124976096Y-58981623D01*
X124868062Y-58979997D01*
X124767222Y-58977341D01*
X124678452Y-58973686D01*
X124606628Y-58969064D01*
X124556625Y-58963507D01*
X124546322Y-58961601D01*
X124424345Y-58921176D01*
X124314773Y-58857191D01*
X124220623Y-58772701D01*
X124144912Y-58670761D01*
X124090658Y-58554426D01*
X124069653Y-58478956D01*
X124062595Y-58429095D01*
X124056938Y-58356137D01*
X124052682Y-58265174D01*
X124049828Y-58161295D01*
X124048375Y-58049593D01*
X124048323Y-57935157D01*
X124049673Y-57823078D01*
X124052424Y-57718448D01*
X124056576Y-57626357D01*
X124062130Y-57551896D01*
X124069084Y-57500156D01*
X124069653Y-57497376D01*
X124110065Y-57371676D01*
X124173707Y-57259974D01*
X124258002Y-57164849D01*
X124360373Y-57088877D01*
X124478242Y-57034636D01*
X124552932Y-57014097D01*
X124597711Y-57007928D01*
X124665708Y-57002791D01*
X124751937Y-56998719D01*
X124851413Y-56995739D01*
X124959148Y-56993884D01*
X125070157Y-56993181D01*
X125179453Y-56993663D01*
G36*
X134966532Y-56995393D02*
X135066405Y-56996724D01*
X135147892Y-56999169D01*
X135207282Y-57002659D01*
X135232204Y-57005446D01*
X135361162Y-57038879D01*
X135477894Y-57095767D01*
X135579461Y-57173617D01*
X135662926Y-57269939D01*
X135725351Y-57382241D01*
X135747338Y-57442249D01*
X135755124Y-57469559D01*
X135761321Y-57497874D01*
X135766110Y-57530687D01*
X135769666Y-57571486D01*
X135772170Y-57623764D01*
X135773798Y-57691009D01*
X135774731Y-57776715D01*
X135775144Y-57884370D01*
X135775222Y-57988166D01*
X135775094Y-58115805D01*
X135774589Y-58218714D01*
X135773529Y-58300382D01*
X135771737Y-58364301D01*
X135769034Y-58413961D01*
X135765241Y-58452853D01*
X135760181Y-58484468D01*
X135753675Y-58512296D01*
X135747338Y-58534084D01*
X135696524Y-58652358D01*
X135623088Y-58756745D01*
X135530415Y-58844316D01*
X135421894Y-58912139D01*
X135300909Y-58957284D01*
X135244462Y-58969232D01*
X135197650Y-58974191D01*
X135128571Y-58977940D01*
X135042098Y-58980519D01*
X134943104Y-58981967D01*
X134836463Y-58982323D01*
X134727047Y-58981626D01*
X134619730Y-58979916D01*
X134519384Y-58977232D01*
X134430882Y-58973613D01*
X134359098Y-58969098D01*
X134308905Y-58963727D01*
X134297100Y-58961601D01*
X134176853Y-58921549D01*
X134068600Y-58857891D01*
X133975179Y-58773717D01*
X133899426Y-58672117D01*
X133844178Y-58556179D01*
X133813112Y-58434558D01*
X133807717Y-58380674D01*
X133803983Y-58300221D01*
X133801942Y-58194807D01*
X133801627Y-58066038D01*
X133803003Y-57920028D01*
X133804859Y-57799508D01*
X133806792Y-57703543D01*
X133809069Y-57628466D01*
X133811954Y-57570611D01*
X133815713Y-57526312D01*
X133820613Y-57491900D01*
X133826918Y-57463711D01*
X133834895Y-57438077D01*
X133838698Y-57427488D01*
X133898208Y-57305710D01*
X133980081Y-57200239D01*
X134082390Y-57113005D01*
X134203212Y-57045940D01*
X134230056Y-57034872D01*
X134255872Y-57025298D01*
X134281092Y-57017705D01*
X134309399Y-57011808D01*
X134344476Y-57007321D01*
X134390006Y-57003957D01*
X134449673Y-57001430D01*
X134527160Y-56999456D01*
X134626150Y-56997748D01*
X134726467Y-56996338D01*
X134851983Y-56995242D01*
X134966532Y-56995393D01*
X134966532Y-56995393D01*
G37*
X134966532Y-56995393D02*
X135066405Y-56996724D01*
X135147892Y-56999169D01*
X135207282Y-57002659D01*
X135232204Y-57005446D01*
X135361162Y-57038879D01*
X135477894Y-57095767D01*
X135579461Y-57173617D01*
X135662926Y-57269939D01*
X135725351Y-57382241D01*
X135747338Y-57442249D01*
X135755124Y-57469559D01*
X135761321Y-57497874D01*
X135766110Y-57530687D01*
X135769666Y-57571486D01*
X135772170Y-57623764D01*
X135773798Y-57691009D01*
X135774731Y-57776715D01*
X135775144Y-57884370D01*
X135775222Y-57988166D01*
X135775094Y-58115805D01*
X135774589Y-58218714D01*
X135773529Y-58300382D01*
X135771737Y-58364301D01*
X135769034Y-58413961D01*
X135765241Y-58452853D01*
X135760181Y-58484468D01*
X135753675Y-58512296D01*
X135747338Y-58534084D01*
X135696524Y-58652358D01*
X135623088Y-58756745D01*
X135530415Y-58844316D01*
X135421894Y-58912139D01*
X135300909Y-58957284D01*
X135244462Y-58969232D01*
X135197650Y-58974191D01*
X135128571Y-58977940D01*
X135042098Y-58980519D01*
X134943104Y-58981967D01*
X134836463Y-58982323D01*
X134727047Y-58981626D01*
X134619730Y-58979916D01*
X134519384Y-58977232D01*
X134430882Y-58973613D01*
X134359098Y-58969098D01*
X134308905Y-58963727D01*
X134297100Y-58961601D01*
X134176853Y-58921549D01*
X134068600Y-58857891D01*
X133975179Y-58773717D01*
X133899426Y-58672117D01*
X133844178Y-58556179D01*
X133813112Y-58434558D01*
X133807717Y-58380674D01*
X133803983Y-58300221D01*
X133801942Y-58194807D01*
X133801627Y-58066038D01*
X133803003Y-57920028D01*
X133804859Y-57799508D01*
X133806792Y-57703543D01*
X133809069Y-57628466D01*
X133811954Y-57570611D01*
X133815713Y-57526312D01*
X133820613Y-57491900D01*
X133826918Y-57463711D01*
X133834895Y-57438077D01*
X133838698Y-57427488D01*
X133898208Y-57305710D01*
X133980081Y-57200239D01*
X134082390Y-57113005D01*
X134203212Y-57045940D01*
X134230056Y-57034872D01*
X134255872Y-57025298D01*
X134281092Y-57017705D01*
X134309399Y-57011808D01*
X134344476Y-57007321D01*
X134390006Y-57003957D01*
X134449673Y-57001430D01*
X134527160Y-56999456D01*
X134626150Y-56997748D01*
X134726467Y-56996338D01*
X134851983Y-56995242D01*
X134966532Y-56995393D01*
D13*
X123295665Y-59117608D02*
G75*
G03X126528000Y-59274516I1672335J1078608D01*
G01*
X123295665Y-56960392D02*
G75*
G02X126528000Y-56803484I1672335J-1078608D01*
G01*
X123926870Y-59118837D02*
G75*
G03X126008961Y-59119000I1041130J1079837D01*
G01*
X123926870Y-56959163D02*
G75*
G02X126008961Y-56959000I1041130J-1079837D01*
G01*
X126528000Y-59275000D02*
X126528000Y-59119000D01*
X126528000Y-56959000D02*
X126528000Y-56803000D01*
X136419335Y-56960392D02*
G75*
G03X133187000Y-56803484I-1672335J-1078608D01*
G01*
X136419335Y-59117608D02*
G75*
G02X133187000Y-59274516I-1672335J1078608D01*
G01*
X135788130Y-56959163D02*
G75*
G03X133706039Y-56959000I-1041130J-1079837D01*
G01*
X135788130Y-59118837D02*
G75*
G02X133706039Y-59119000I-1041130J1079837D01*
G01*
X133187000Y-56803000D02*
X133187000Y-56959000D01*
X133187000Y-59119000D02*
X133187000Y-59275000D01*
D12*
G36*
X147463333Y-50375766D02*
X147717333Y-50497167D01*
X147846447Y-50566615D01*
X147937894Y-50630575D01*
X147971333Y-50673930D01*
X147935522Y-50712899D01*
X147837755Y-50779278D01*
X147692537Y-50864106D01*
X147514369Y-50958424D01*
X147495217Y-50968074D01*
X147019100Y-51206855D01*
X147495217Y-51443811D01*
X147675987Y-51537801D01*
X147825221Y-51623055D01*
X147928390Y-51690713D01*
X147970967Y-51731914D01*
X147971333Y-51734197D01*
X147935534Y-51772423D01*
X147837799Y-51838178D01*
X147692623Y-51922566D01*
X147514502Y-52016692D01*
X147495217Y-52026407D01*
X147019100Y-52265189D01*
X147495217Y-52502145D01*
X147675987Y-52596135D01*
X147825221Y-52681389D01*
X147928390Y-52749046D01*
X147970967Y-52790247D01*
X147971333Y-52792530D01*
X147935535Y-52830756D01*
X147837802Y-52896520D01*
X147692625Y-52980926D01*
X147514498Y-53075079D01*
X147495083Y-53084862D01*
X147018833Y-53323764D01*
X147241083Y-53432638D01*
X147463333Y-53541511D01*
X147463333Y-54455333D01*
X145036222Y-54455333D01*
X144590638Y-54454854D01*
X144170532Y-54453476D01*
X143783505Y-54451285D01*
X143437159Y-54448369D01*
X143139096Y-54444815D01*
X142896917Y-54440712D01*
X142718224Y-54436145D01*
X142610618Y-54431204D01*
X142580889Y-54427111D01*
X142571234Y-54377139D01*
X142563000Y-54257625D01*
X142556805Y-54083689D01*
X142553263Y-53870453D01*
X142552667Y-53734021D01*
X142552667Y-53069154D01*
X142388639Y-53042925D01*
X142148817Y-52963852D01*
X141935514Y-52816127D01*
X141760336Y-52614443D01*
X141634885Y-52373491D01*
X141570766Y-52107962D01*
X141565643Y-52013838D01*
X141706763Y-52013838D01*
X141742831Y-52271127D01*
X141844358Y-52509089D01*
X141951662Y-52650921D01*
X142147180Y-52801411D01*
X142386697Y-52896628D01*
X142646177Y-52931693D01*
X142901582Y-52901727D01*
X143009110Y-52865587D01*
X143234860Y-52730656D01*
X143402673Y-52548028D01*
X143512550Y-52331746D01*
X143564490Y-52095854D01*
X143558493Y-51854393D01*
X143494560Y-51621407D01*
X143372689Y-51410940D01*
X143192882Y-51237033D01*
X143009110Y-51134412D01*
X142758779Y-51072391D01*
X142494012Y-51079673D01*
X142239471Y-51151921D01*
X142019821Y-51284795D01*
X141986412Y-51314329D01*
X141829043Y-51516607D01*
X141735663Y-51756054D01*
X141706763Y-52013838D01*
X141565643Y-52013838D01*
X141564889Y-52000000D01*
X141601655Y-51729170D01*
X141704208Y-51476965D01*
X141860925Y-51258114D01*
X142060186Y-51087347D01*
X142290368Y-50979392D01*
X142387615Y-50957238D01*
X142550620Y-50931173D01*
X142562226Y-50248503D01*
X142572033Y-49671667D01*
X142722000Y-49671667D01*
X142722000Y-50925660D01*
X142929314Y-50978793D01*
X143175674Y-51083536D01*
X143386980Y-51254183D01*
X143551656Y-51475291D01*
X143658126Y-51731417D01*
X143694839Y-52000000D01*
X143656236Y-52275396D01*
X143548145Y-52530825D01*
X143382141Y-52750842D01*
X143169801Y-52920006D01*
X142929314Y-53021206D01*
X142722000Y-53074339D01*
X142722000Y-54328333D01*
X147336333Y-54328333D01*
X147336333Y-53622070D01*
X147092917Y-53497582D01*
X146967537Y-53425848D01*
X146879661Y-53361032D01*
X146849500Y-53320168D01*
X146885216Y-53281394D01*
X146982302Y-53215657D01*
X147125667Y-53132354D01*
X147289256Y-53046371D01*
X147461478Y-52956994D01*
X147601135Y-52879027D01*
X147693449Y-52821105D01*
X147723829Y-52792474D01*
X147686300Y-52761159D01*
X147588270Y-52700999D01*
X147445015Y-52620907D01*
X147287367Y-52537775D01*
X147114739Y-52445892D01*
X146972189Y-52364060D01*
X146875513Y-52301745D01*
X146840771Y-52270145D01*
X146870542Y-52234976D01*
X146962904Y-52172617D01*
X147103737Y-52091707D01*
X147278919Y-52000883D01*
X147289461Y-51995678D01*
X147466747Y-51905854D01*
X147611515Y-51827698D01*
X147709401Y-51769318D01*
X147746036Y-51738818D01*
X147745985Y-51738098D01*
X147707482Y-51708590D01*
X147608353Y-51650036D01*
X147463811Y-51571035D01*
X147296750Y-51484098D01*
X147121502Y-51391262D01*
X146976113Y-51307440D01*
X146876316Y-51242165D01*
X146838124Y-51206204D01*
X146867626Y-51164882D01*
X146967567Y-51097660D01*
X147129607Y-51009665D01*
X147265958Y-50942969D01*
X147443536Y-50856784D01*
X147591717Y-50780687D01*
X147694255Y-50723299D01*
X147734382Y-50694329D01*
X147713670Y-50655640D01*
X147635160Y-50596925D01*
X147557797Y-50553002D01*
X147357500Y-50450043D01*
X147333156Y-49671667D01*
X142722000Y-49671667D01*
X142572033Y-49671667D01*
X142573833Y-49565833D01*
X147463333Y-49543979D01*
X147463333Y-50375766D01*
X147463333Y-50375766D01*
G37*
X147463333Y-50375766D02*
X147717333Y-50497167D01*
X147846447Y-50566615D01*
X147937894Y-50630575D01*
X147971333Y-50673930D01*
X147935522Y-50712899D01*
X147837755Y-50779278D01*
X147692537Y-50864106D01*
X147514369Y-50958424D01*
X147495217Y-50968074D01*
X147019100Y-51206855D01*
X147495217Y-51443811D01*
X147675987Y-51537801D01*
X147825221Y-51623055D01*
X147928390Y-51690713D01*
X147970967Y-51731914D01*
X147971333Y-51734197D01*
X147935534Y-51772423D01*
X147837799Y-51838178D01*
X147692623Y-51922566D01*
X147514502Y-52016692D01*
X147495217Y-52026407D01*
X147019100Y-52265189D01*
X147495217Y-52502145D01*
X147675987Y-52596135D01*
X147825221Y-52681389D01*
X147928390Y-52749046D01*
X147970967Y-52790247D01*
X147971333Y-52792530D01*
X147935535Y-52830756D01*
X147837802Y-52896520D01*
X147692625Y-52980926D01*
X147514498Y-53075079D01*
X147495083Y-53084862D01*
X147018833Y-53323764D01*
X147241083Y-53432638D01*
X147463333Y-53541511D01*
X147463333Y-54455333D01*
X145036222Y-54455333D01*
X144590638Y-54454854D01*
X144170532Y-54453476D01*
X143783505Y-54451285D01*
X143437159Y-54448369D01*
X143139096Y-54444815D01*
X142896917Y-54440712D01*
X142718224Y-54436145D01*
X142610618Y-54431204D01*
X142580889Y-54427111D01*
X142571234Y-54377139D01*
X142563000Y-54257625D01*
X142556805Y-54083689D01*
X142553263Y-53870453D01*
X142552667Y-53734021D01*
X142552667Y-53069154D01*
X142388639Y-53042925D01*
X142148817Y-52963852D01*
X141935514Y-52816127D01*
X141760336Y-52614443D01*
X141634885Y-52373491D01*
X141570766Y-52107962D01*
X141565643Y-52013838D01*
X141706763Y-52013838D01*
X141742831Y-52271127D01*
X141844358Y-52509089D01*
X141951662Y-52650921D01*
X142147180Y-52801411D01*
X142386697Y-52896628D01*
X142646177Y-52931693D01*
X142901582Y-52901727D01*
X143009110Y-52865587D01*
X143234860Y-52730656D01*
X143402673Y-52548028D01*
X143512550Y-52331746D01*
X143564490Y-52095854D01*
X143558493Y-51854393D01*
X143494560Y-51621407D01*
X143372689Y-51410940D01*
X143192882Y-51237033D01*
X143009110Y-51134412D01*
X142758779Y-51072391D01*
X142494012Y-51079673D01*
X142239471Y-51151921D01*
X142019821Y-51284795D01*
X141986412Y-51314329D01*
X141829043Y-51516607D01*
X141735663Y-51756054D01*
X141706763Y-52013838D01*
X141565643Y-52013838D01*
X141564889Y-52000000D01*
X141601655Y-51729170D01*
X141704208Y-51476965D01*
X141860925Y-51258114D01*
X142060186Y-51087347D01*
X142290368Y-50979392D01*
X142387615Y-50957238D01*
X142550620Y-50931173D01*
X142562226Y-50248503D01*
X142572033Y-49671667D01*
X142722000Y-49671667D01*
X142722000Y-50925660D01*
X142929314Y-50978793D01*
X143175674Y-51083536D01*
X143386980Y-51254183D01*
X143551656Y-51475291D01*
X143658126Y-51731417D01*
X143694839Y-52000000D01*
X143656236Y-52275396D01*
X143548145Y-52530825D01*
X143382141Y-52750842D01*
X143169801Y-52920006D01*
X142929314Y-53021206D01*
X142722000Y-53074339D01*
X142722000Y-54328333D01*
X147336333Y-54328333D01*
X147336333Y-53622070D01*
X147092917Y-53497582D01*
X146967537Y-53425848D01*
X146879661Y-53361032D01*
X146849500Y-53320168D01*
X146885216Y-53281394D01*
X146982302Y-53215657D01*
X147125667Y-53132354D01*
X147289256Y-53046371D01*
X147461478Y-52956994D01*
X147601135Y-52879027D01*
X147693449Y-52821105D01*
X147723829Y-52792474D01*
X147686300Y-52761159D01*
X147588270Y-52700999D01*
X147445015Y-52620907D01*
X147287367Y-52537775D01*
X147114739Y-52445892D01*
X146972189Y-52364060D01*
X146875513Y-52301745D01*
X146840771Y-52270145D01*
X146870542Y-52234976D01*
X146962904Y-52172617D01*
X147103737Y-52091707D01*
X147278919Y-52000883D01*
X147289461Y-51995678D01*
X147466747Y-51905854D01*
X147611515Y-51827698D01*
X147709401Y-51769318D01*
X147746036Y-51738818D01*
X147745985Y-51738098D01*
X147707482Y-51708590D01*
X147608353Y-51650036D01*
X147463811Y-51571035D01*
X147296750Y-51484098D01*
X147121502Y-51391262D01*
X146976113Y-51307440D01*
X146876316Y-51242165D01*
X146838124Y-51206204D01*
X146867626Y-51164882D01*
X146967567Y-51097660D01*
X147129607Y-51009665D01*
X147265958Y-50942969D01*
X147443536Y-50856784D01*
X147591717Y-50780687D01*
X147694255Y-50723299D01*
X147734382Y-50694329D01*
X147713670Y-50655640D01*
X147635160Y-50596925D01*
X147557797Y-50553002D01*
X147357500Y-50450043D01*
X147333156Y-49671667D01*
X142722000Y-49671667D01*
X142572033Y-49671667D01*
X142573833Y-49565833D01*
X147463333Y-49543979D01*
X147463333Y-50375766D01*
G36*
X141443932Y-51689411D02*
X141442143Y-51714250D01*
X141350386Y-51969142D01*
X141281311Y-52154819D01*
X141229913Y-52282076D01*
X141191185Y-52361707D01*
X141160122Y-52404509D01*
X141131717Y-52421277D01*
X141113333Y-52423333D01*
X141063654Y-52396192D01*
X141008385Y-52308316D01*
X140941876Y-52150027D01*
X140921723Y-52095250D01*
X140864418Y-51936253D01*
X140817174Y-51805075D01*
X140788196Y-51724499D01*
X140784523Y-51714250D01*
X140799778Y-51667566D01*
X140825809Y-51661333D01*
X140872411Y-51699908D01*
X140930815Y-51805590D01*
X140983151Y-51936500D01*
X141035958Y-52073563D01*
X141082367Y-52172134D01*
X141112629Y-52211608D01*
X141113333Y-52211667D01*
X141142786Y-52174856D01*
X141188757Y-52078162D01*
X141241499Y-51942190D01*
X141243515Y-51936500D01*
X141305179Y-51785734D01*
X141362340Y-51689313D01*
X141400858Y-51661333D01*
X141443932Y-51689411D01*
X141443932Y-51689411D01*
G37*
X141443932Y-51689411D02*
X141442143Y-51714250D01*
X141350386Y-51969142D01*
X141281311Y-52154819D01*
X141229913Y-52282076D01*
X141191185Y-52361707D01*
X141160122Y-52404509D01*
X141131717Y-52421277D01*
X141113333Y-52423333D01*
X141063654Y-52396192D01*
X141008385Y-52308316D01*
X140941876Y-52150027D01*
X140921723Y-52095250D01*
X140864418Y-51936253D01*
X140817174Y-51805075D01*
X140788196Y-51724499D01*
X140784523Y-51714250D01*
X140799778Y-51667566D01*
X140825809Y-51661333D01*
X140872411Y-51699908D01*
X140930815Y-51805590D01*
X140983151Y-51936500D01*
X141035958Y-52073563D01*
X141082367Y-52172134D01*
X141112629Y-52211608D01*
X141113333Y-52211667D01*
X141142786Y-52174856D01*
X141188757Y-52078162D01*
X141241499Y-51942190D01*
X141243515Y-51936500D01*
X141305179Y-51785734D01*
X141362340Y-51689313D01*
X141400858Y-51661333D01*
X141443932Y-51689411D01*
G36*
X146263080Y-51542597D02*
X146425073Y-51572221D01*
X146512067Y-51637526D01*
X146527632Y-51742642D01*
X146505487Y-51823085D01*
X146482450Y-51926512D01*
X146506796Y-52028257D01*
X146536358Y-52088745D01*
X146595656Y-52209184D01*
X146611784Y-52273210D01*
X146587494Y-52295541D01*
X146575194Y-52296333D01*
X146532643Y-52261911D01*
X146473554Y-52175045D01*
X146447333Y-52127000D01*
X146375479Y-52012766D01*
X146302318Y-51963484D01*
X146255973Y-51957667D01*
X146188318Y-51967048D01*
X146158249Y-52011038D01*
X146151032Y-52113405D01*
X146151000Y-52127000D01*
X146141611Y-52233037D01*
X146118156Y-52292015D01*
X146108667Y-52296333D01*
X146088418Y-52256353D01*
X146073962Y-52145608D01*
X146066824Y-51977894D01*
X146066333Y-51913014D01*
X146066333Y-51746000D01*
X146151000Y-51746000D01*
X146162724Y-51837108D01*
X146211133Y-51870290D01*
X146251650Y-51873000D01*
X146354753Y-51845707D01*
X146408802Y-51804919D01*
X146441059Y-51744779D01*
X146405584Y-51693896D01*
X146384727Y-51677919D01*
X146270076Y-51619952D01*
X146189906Y-51633197D01*
X146152630Y-51715205D01*
X146151000Y-51746000D01*
X146066333Y-51746000D01*
X146066333Y-51529694D01*
X146263080Y-51542597D01*
X146263080Y-51542597D01*
G37*
X146263080Y-51542597D02*
X146425073Y-51572221D01*
X146512067Y-51637526D01*
X146527632Y-51742642D01*
X146505487Y-51823085D01*
X146482450Y-51926512D01*
X146506796Y-52028257D01*
X146536358Y-52088745D01*
X146595656Y-52209184D01*
X146611784Y-52273210D01*
X146587494Y-52295541D01*
X146575194Y-52296333D01*
X146532643Y-52261911D01*
X146473554Y-52175045D01*
X146447333Y-52127000D01*
X146375479Y-52012766D01*
X146302318Y-51963484D01*
X146255973Y-51957667D01*
X146188318Y-51967048D01*
X146158249Y-52011038D01*
X146151032Y-52113405D01*
X146151000Y-52127000D01*
X146141611Y-52233037D01*
X146118156Y-52292015D01*
X146108667Y-52296333D01*
X146088418Y-52256353D01*
X146073962Y-52145608D01*
X146066824Y-51977894D01*
X146066333Y-51913014D01*
X146066333Y-51746000D01*
X146151000Y-51746000D01*
X146162724Y-51837108D01*
X146211133Y-51870290D01*
X146251650Y-51873000D01*
X146354753Y-51845707D01*
X146408802Y-51804919D01*
X146441059Y-51744779D01*
X146405584Y-51693896D01*
X146384727Y-51677919D01*
X146270076Y-51619952D01*
X146189906Y-51633197D01*
X146152630Y-51715205D01*
X146151000Y-51746000D01*
X146066333Y-51746000D01*
X146066333Y-51529694D01*
X146263080Y-51542597D01*
G36*
X144816618Y-50473630D02*
X144831087Y-50584254D01*
X144838198Y-50751642D01*
X144838667Y-50814667D01*
X144834226Y-50997226D01*
X144821935Y-51127452D01*
X144803336Y-51191446D01*
X144796333Y-51195667D01*
X144776049Y-51155703D01*
X144761579Y-51045079D01*
X144754469Y-50877691D01*
X144754000Y-50814667D01*
X144758440Y-50632107D01*
X144770732Y-50501881D01*
X144789330Y-50437887D01*
X144796333Y-50433667D01*
X144816618Y-50473630D01*
X144816618Y-50473630D01*
G37*
X144816618Y-50473630D02*
X144831087Y-50584254D01*
X144838198Y-50751642D01*
X144838667Y-50814667D01*
X144834226Y-50997226D01*
X144821935Y-51127452D01*
X144803336Y-51191446D01*
X144796333Y-51195667D01*
X144776049Y-51155703D01*
X144761579Y-51045079D01*
X144754469Y-50877691D01*
X144754000Y-50814667D01*
X144758440Y-50632107D01*
X144770732Y-50501881D01*
X144789330Y-50437887D01*
X144796333Y-50433667D01*
X144816618Y-50473630D01*
G36*
X145390746Y-49870728D02*
X145470640Y-49943328D01*
X145554779Y-50033922D01*
X145619893Y-50117632D01*
X145643000Y-50166713D01*
X145614353Y-50214628D01*
X145544417Y-50292977D01*
X145457201Y-50378295D01*
X145376713Y-50447121D01*
X145326962Y-50475991D01*
X145326525Y-50476000D01*
X145291688Y-50446860D01*
X145286663Y-50439324D01*
X145297779Y-50387921D01*
X145352283Y-50322908D01*
X145383604Y-50292042D01*
X145390854Y-50269855D01*
X145363161Y-50254304D01*
X145289648Y-50243346D01*
X145159443Y-50234939D01*
X144961669Y-50227042D01*
X144814976Y-50222000D01*
X144545929Y-50210411D01*
X144354622Y-50196108D01*
X144234147Y-50178294D01*
X144177599Y-50156173D01*
X144171830Y-50147917D01*
X144184128Y-50126771D01*
X144243490Y-50111698D01*
X144359291Y-50101905D01*
X144540906Y-50096602D01*
X144797710Y-50095000D01*
X144799367Y-50095000D01*
X145044707Y-50094559D01*
X145216452Y-50092242D01*
X145325670Y-50086560D01*
X145383432Y-50076022D01*
X145400806Y-50059137D01*
X145388864Y-50034415D01*
X145374394Y-50017583D01*
X145318744Y-49933877D01*
X145306204Y-49866554D01*
X145338362Y-49841000D01*
X145390746Y-49870728D01*
X145390746Y-49870728D01*
G37*
X145390746Y-49870728D02*
X145470640Y-49943328D01*
X145554779Y-50033922D01*
X145619893Y-50117632D01*
X145643000Y-50166713D01*
X145614353Y-50214628D01*
X145544417Y-50292977D01*
X145457201Y-50378295D01*
X145376713Y-50447121D01*
X145326962Y-50475991D01*
X145326525Y-50476000D01*
X145291688Y-50446860D01*
X145286663Y-50439324D01*
X145297779Y-50387921D01*
X145352283Y-50322908D01*
X145383604Y-50292042D01*
X145390854Y-50269855D01*
X145363161Y-50254304D01*
X145289648Y-50243346D01*
X145159443Y-50234939D01*
X144961669Y-50227042D01*
X144814976Y-50222000D01*
X144545929Y-50210411D01*
X144354622Y-50196108D01*
X144234147Y-50178294D01*
X144177599Y-50156173D01*
X144171830Y-50147917D01*
X144184128Y-50126771D01*
X144243490Y-50111698D01*
X144359291Y-50101905D01*
X144540906Y-50096602D01*
X144797710Y-50095000D01*
X144799367Y-50095000D01*
X145044707Y-50094559D01*
X145216452Y-50092242D01*
X145325670Y-50086560D01*
X145383432Y-50076022D01*
X145400806Y-50059137D01*
X145388864Y-50034415D01*
X145374394Y-50017583D01*
X145318744Y-49933877D01*
X145306204Y-49866554D01*
X145338362Y-49841000D01*
X145390746Y-49870728D01*
G36*
X142811100Y-52468657D02*
X142915384Y-52479509D01*
X142965219Y-52501041D01*
X142976000Y-52529167D01*
X142960048Y-52561748D01*
X142902172Y-52581301D01*
X142787337Y-52590645D01*
X142637333Y-52592667D01*
X142463566Y-52589676D01*
X142359282Y-52578824D01*
X142309448Y-52557292D01*
X142298667Y-52529167D01*
X142314618Y-52496585D01*
X142372494Y-52477032D01*
X142487329Y-52467688D01*
X142637333Y-52465667D01*
X142811100Y-52468657D01*
X142811100Y-52468657D01*
G37*
X142811100Y-52468657D02*
X142915384Y-52479509D01*
X142965219Y-52501041D01*
X142976000Y-52529167D01*
X142960048Y-52561748D01*
X142902172Y-52581301D01*
X142787337Y-52590645D01*
X142637333Y-52592667D01*
X142463566Y-52589676D01*
X142359282Y-52578824D01*
X142309448Y-52557292D01*
X142298667Y-52529167D01*
X142314618Y-52496585D01*
X142372494Y-52477032D01*
X142487329Y-52467688D01*
X142637333Y-52465667D01*
X142811100Y-52468657D01*
G36*
X142690529Y-51212177D02*
X142713981Y-51288352D01*
X142747455Y-51380131D01*
X142831714Y-51415352D01*
X142918399Y-51444719D01*
X142927656Y-51487189D01*
X142859485Y-51521614D01*
X142831714Y-51526314D01*
X142745925Y-51563172D01*
X142713981Y-51650050D01*
X142682642Y-51745391D01*
X142628608Y-51782224D01*
X142581771Y-51760993D01*
X142558538Y-51699425D01*
X142552667Y-51635923D01*
X142527894Y-51557459D01*
X142445517Y-51526562D01*
X142353099Y-51498163D01*
X142334487Y-51457471D01*
X142391651Y-51422985D01*
X142433685Y-51415352D01*
X142523619Y-51383666D01*
X142559160Y-51300129D01*
X142560685Y-51288352D01*
X142591813Y-51200775D01*
X142637333Y-51174500D01*
X142690529Y-51212177D01*
X142690529Y-51212177D01*
G37*
X142690529Y-51212177D02*
X142713981Y-51288352D01*
X142747455Y-51380131D01*
X142831714Y-51415352D01*
X142918399Y-51444719D01*
X142927656Y-51487189D01*
X142859485Y-51521614D01*
X142831714Y-51526314D01*
X142745925Y-51563172D01*
X142713981Y-51650050D01*
X142682642Y-51745391D01*
X142628608Y-51782224D01*
X142581771Y-51760993D01*
X142558538Y-51699425D01*
X142552667Y-51635923D01*
X142527894Y-51557459D01*
X142445517Y-51526562D01*
X142353099Y-51498163D01*
X142334487Y-51457471D01*
X142391651Y-51422985D01*
X142433685Y-51415352D01*
X142523619Y-51383666D01*
X142559160Y-51300129D01*
X142560685Y-51288352D01*
X142591813Y-51200775D01*
X142637333Y-51174500D01*
X142690529Y-51212177D01*
D14*
G36*
X122373000Y-83873000D02*
X110627000Y-83873000D01*
X110627000Y-79127000D01*
X122373000Y-79127000D01*
X122373000Y-83873000D01*
X122373000Y-83873000D01*
G37*
X122373000Y-83873000D02*
X110627000Y-83873000D01*
X110627000Y-79127000D01*
X122373000Y-79127000D01*
X122373000Y-83873000D01*
G36*
X148873000Y-83873000D02*
X137127000Y-83873000D01*
X137127000Y-79127000D01*
X148873000Y-79127000D01*
X148873000Y-83873000D01*
X148873000Y-83873000D01*
G37*
X148873000Y-83873000D02*
X137127000Y-83873000D01*
X137127000Y-79127000D01*
X148873000Y-79127000D01*
X148873000Y-83873000D01*
M02*
