G04 #@! TF.FileFunction,Copper,L1,Top,Signal*
%FSLAX46Y46*%
G04 Gerber Fmt 4.6, Leading zero omitted, Abs format (unit mm)*
G04 Created by KiCad (PCBNEW 4.0.6) date 07/03/18 08:43:19*
%MOMM*%
%LPD*%
G01*
G04 APERTURE LIST*
%ADD10C,0.100000*%
%ADD11C,1.600000*%
%ADD12O,1.600000X1.600000*%
%ADD13R,1.600000X1.600000*%
%ADD14R,1.800000X1.800000*%
%ADD15C,1.800000*%
%ADD16O,0.900000X1.500000*%
%ADD17R,0.900000X1.500000*%
%ADD18C,2.400000*%
%ADD19C,0.600000*%
%ADD20C,0.508000*%
%ADD21C,0.254000*%
G04 APERTURE END LIST*
D10*
D11*
X119507000Y-66040000D03*
D12*
X119507000Y-55880000D03*
D13*
X116078000Y-74168000D03*
D11*
X113578000Y-74168000D03*
D13*
X145923000Y-75438000D03*
D11*
X143423000Y-75438000D03*
D14*
X126238000Y-58039000D03*
D15*
X123698000Y-58039000D03*
D14*
X133477000Y-58039000D03*
D15*
X136017000Y-58039000D03*
D16*
X122047000Y-52451000D03*
X120777000Y-52451000D03*
D17*
X123317000Y-52451000D03*
D16*
X137922000Y-52451000D03*
X136652000Y-52451000D03*
D17*
X139192000Y-52451000D03*
D11*
X145415000Y-69215000D03*
D12*
X145415000Y-59055000D03*
D11*
X114554000Y-58928000D03*
D12*
X114554000Y-69088000D03*
D11*
X141478000Y-67437000D03*
D12*
X141478000Y-57277000D03*
D18*
X130000000Y-78500000D03*
X130000000Y-58500000D03*
D19*
X138000000Y-73000000D03*
D20*
X136652000Y-52451000D02*
X136652000Y-55652000D01*
X138000000Y-57000000D02*
X138000000Y-73000000D01*
X136652000Y-55652000D02*
X138000000Y-57000000D01*
X130000000Y-58500000D02*
X129000000Y-58500000D01*
X129000000Y-58500000D02*
X121460000Y-66040000D01*
X121460000Y-66040000D02*
X119507000Y-66040000D01*
X123317000Y-76708000D02*
X142153000Y-76708000D01*
X142153000Y-76708000D02*
X143423000Y-75438000D01*
X116496999Y-69887999D02*
X123317000Y-76708000D01*
X114554000Y-69088000D02*
X115353999Y-69887999D01*
X115353999Y-69887999D02*
X116496999Y-69887999D01*
D21*
G36*
X128650771Y-47976916D02*
X127979274Y-48647242D01*
X127615415Y-49523513D01*
X127614587Y-50472325D01*
X127976916Y-51349229D01*
X128647242Y-52020726D01*
X129523513Y-52384585D01*
X130472325Y-52385413D01*
X131347012Y-52024000D01*
X135567000Y-52024000D01*
X135567000Y-52324000D01*
X136525000Y-52324000D01*
X136525000Y-51233498D01*
X136779000Y-51233498D01*
X136779000Y-52324000D01*
X136799000Y-52324000D01*
X136799000Y-52578000D01*
X136779000Y-52578000D01*
X136779000Y-53668502D01*
X136946001Y-53795408D01*
X137282726Y-53630830D01*
X137506788Y-53780543D01*
X137922000Y-53863134D01*
X138337212Y-53780543D01*
X138402019Y-53737241D01*
X138490110Y-53797431D01*
X138742000Y-53848440D01*
X139642000Y-53848440D01*
X139877317Y-53804162D01*
X140093441Y-53665090D01*
X140238431Y-53452890D01*
X140289440Y-53201000D01*
X140289440Y-51701000D01*
X140245162Y-51465683D01*
X140106090Y-51249559D01*
X139893890Y-51104569D01*
X139642000Y-51053560D01*
X138742000Y-51053560D01*
X138506683Y-51097838D01*
X138402345Y-51164978D01*
X138337212Y-51121457D01*
X137922000Y-51038866D01*
X137506788Y-51121457D01*
X137282726Y-51271170D01*
X136946001Y-51106592D01*
X136779000Y-51233498D01*
X136525000Y-51233498D01*
X136357999Y-51106592D01*
X135974592Y-51293987D01*
X135698192Y-51618456D01*
X135567000Y-52024000D01*
X131347012Y-52024000D01*
X131349229Y-52023084D01*
X132020726Y-51352758D01*
X132384585Y-50476487D01*
X132385413Y-49527675D01*
X132023084Y-48650771D01*
X131352758Y-47979274D01*
X130704273Y-47710000D01*
X147930069Y-47710000D01*
X148488338Y-47821046D01*
X148902333Y-48097669D01*
X149178953Y-48511660D01*
X149290000Y-49069931D01*
X149290000Y-84930069D01*
X149178953Y-85488340D01*
X148902333Y-85902331D01*
X148488338Y-86178954D01*
X147930069Y-86290000D01*
X112069931Y-86290000D01*
X111511660Y-86178953D01*
X111097669Y-85902333D01*
X110821046Y-85488338D01*
X110710000Y-84930069D01*
X110710000Y-79797175D01*
X128882430Y-79797175D01*
X129005565Y-80084788D01*
X129687734Y-80344707D01*
X130417443Y-80323786D01*
X130994435Y-80084788D01*
X131117570Y-79797175D01*
X130000000Y-78679605D01*
X128882430Y-79797175D01*
X110710000Y-79797175D01*
X110710000Y-74452187D01*
X112142752Y-74452187D01*
X112360757Y-74979800D01*
X112764077Y-75383824D01*
X113291309Y-75602750D01*
X113862187Y-75603248D01*
X114389800Y-75385243D01*
X114658583Y-75116928D01*
X114674838Y-75203317D01*
X114813910Y-75419441D01*
X115026110Y-75564431D01*
X115278000Y-75615440D01*
X116878000Y-75615440D01*
X117113317Y-75571162D01*
X117329441Y-75432090D01*
X117474431Y-75219890D01*
X117525440Y-74968000D01*
X117525440Y-73368000D01*
X117481162Y-73132683D01*
X117342090Y-72916559D01*
X117129890Y-72771569D01*
X116878000Y-72720560D01*
X115278000Y-72720560D01*
X115042683Y-72764838D01*
X114826559Y-72903910D01*
X114681569Y-73116110D01*
X114660320Y-73221041D01*
X114391923Y-72952176D01*
X113864691Y-72733250D01*
X113293813Y-72732752D01*
X112766200Y-72950757D01*
X112362176Y-73354077D01*
X112143250Y-73881309D01*
X112142752Y-74452187D01*
X110710000Y-74452187D01*
X110710000Y-69059887D01*
X113119000Y-69059887D01*
X113119000Y-69116113D01*
X113228233Y-69665264D01*
X113539302Y-70130811D01*
X114004849Y-70441880D01*
X114554000Y-70551113D01*
X114725849Y-70516930D01*
X115013793Y-70709328D01*
X115353999Y-70776999D01*
X116128763Y-70776999D01*
X122688382Y-77336618D01*
X122976794Y-77529329D01*
X123317000Y-77597000D01*
X128380374Y-77597000D01*
X128155293Y-78187734D01*
X128176214Y-78917443D01*
X128415212Y-79494435D01*
X128702825Y-79617570D01*
X129820395Y-78500000D01*
X129806253Y-78485858D01*
X129985858Y-78306253D01*
X130000000Y-78320395D01*
X130014143Y-78306253D01*
X130193748Y-78485858D01*
X130179605Y-78500000D01*
X131297175Y-79617570D01*
X131584788Y-79494435D01*
X131844707Y-78812266D01*
X131823786Y-78082557D01*
X131622662Y-77597000D01*
X142153000Y-77597000D01*
X142493206Y-77529329D01*
X142781618Y-77336618D01*
X143245391Y-76872845D01*
X143707187Y-76873248D01*
X144234800Y-76655243D01*
X144503583Y-76386928D01*
X144519838Y-76473317D01*
X144658910Y-76689441D01*
X144871110Y-76834431D01*
X145123000Y-76885440D01*
X146723000Y-76885440D01*
X146958317Y-76841162D01*
X147174441Y-76702090D01*
X147319431Y-76489890D01*
X147370440Y-76238000D01*
X147370440Y-74638000D01*
X147326162Y-74402683D01*
X147187090Y-74186559D01*
X146974890Y-74041569D01*
X146723000Y-73990560D01*
X145123000Y-73990560D01*
X144887683Y-74034838D01*
X144671559Y-74173910D01*
X144526569Y-74386110D01*
X144505320Y-74491041D01*
X144236923Y-74222176D01*
X143709691Y-74003250D01*
X143138813Y-74002752D01*
X142611200Y-74220757D01*
X142207176Y-74624077D01*
X141988250Y-75151309D01*
X141987845Y-75615919D01*
X141784764Y-75819000D01*
X123685236Y-75819000D01*
X117365423Y-69499187D01*
X143979752Y-69499187D01*
X144197757Y-70026800D01*
X144601077Y-70430824D01*
X145128309Y-70649750D01*
X145699187Y-70650248D01*
X146226800Y-70432243D01*
X146630824Y-70028923D01*
X146849750Y-69501691D01*
X146850248Y-68930813D01*
X146632243Y-68403200D01*
X146228923Y-67999176D01*
X145701691Y-67780250D01*
X145130813Y-67779752D01*
X144603200Y-67997757D01*
X144199176Y-68401077D01*
X143980250Y-68928309D01*
X143979752Y-69499187D01*
X117365423Y-69499187D01*
X117125617Y-69259381D01*
X116837205Y-69066670D01*
X116496999Y-68998999D01*
X115976889Y-68998999D01*
X115879767Y-68510736D01*
X115568698Y-68045189D01*
X115103151Y-67734120D01*
X115038133Y-67721187D01*
X140042752Y-67721187D01*
X140260757Y-68248800D01*
X140664077Y-68652824D01*
X141191309Y-68871750D01*
X141762187Y-68872248D01*
X142289800Y-68654243D01*
X142693824Y-68250923D01*
X142912750Y-67723691D01*
X142913248Y-67152813D01*
X142695243Y-66625200D01*
X142291923Y-66221176D01*
X141764691Y-66002250D01*
X141193813Y-66001752D01*
X140666200Y-66219757D01*
X140262176Y-66623077D01*
X140043250Y-67150309D01*
X140042752Y-67721187D01*
X115038133Y-67721187D01*
X114554000Y-67624887D01*
X114004849Y-67734120D01*
X113539302Y-68045189D01*
X113228233Y-68510736D01*
X113119000Y-69059887D01*
X110710000Y-69059887D01*
X110710000Y-66324187D01*
X118071752Y-66324187D01*
X118289757Y-66851800D01*
X118693077Y-67255824D01*
X119220309Y-67474750D01*
X119791187Y-67475248D01*
X120318800Y-67257243D01*
X120647616Y-66929000D01*
X121460000Y-66929000D01*
X121800206Y-66861329D01*
X122088618Y-66668618D01*
X128830964Y-59926272D01*
X128959199Y-60054730D01*
X129633395Y-60334681D01*
X130363403Y-60335318D01*
X131038086Y-60056545D01*
X131554730Y-59540801D01*
X131834681Y-58866605D01*
X131835318Y-58136597D01*
X131556545Y-57461914D01*
X131234194Y-57139000D01*
X131929560Y-57139000D01*
X131929560Y-58939000D01*
X131973838Y-59174317D01*
X132112910Y-59390441D01*
X132325110Y-59535431D01*
X132577000Y-59586440D01*
X134377000Y-59586440D01*
X134612317Y-59542162D01*
X134828441Y-59403090D01*
X134973431Y-59190890D01*
X134977567Y-59170466D01*
X135146357Y-59339551D01*
X135710330Y-59573733D01*
X136320991Y-59574265D01*
X136885371Y-59341068D01*
X137200101Y-59026887D01*
X143980000Y-59026887D01*
X143980000Y-59083113D01*
X144089233Y-59632264D01*
X144400302Y-60097811D01*
X144865849Y-60408880D01*
X145415000Y-60518113D01*
X145964151Y-60408880D01*
X146429698Y-60097811D01*
X146740767Y-59632264D01*
X146850000Y-59083113D01*
X146850000Y-59026887D01*
X146740767Y-58477736D01*
X146429698Y-58012189D01*
X145964151Y-57701120D01*
X145415000Y-57591887D01*
X144865849Y-57701120D01*
X144400302Y-58012189D01*
X144089233Y-58477736D01*
X143980000Y-59026887D01*
X137200101Y-59026887D01*
X137317551Y-58909643D01*
X137551733Y-58345670D01*
X137552265Y-57735009D01*
X137351404Y-57248887D01*
X140043000Y-57248887D01*
X140043000Y-57305113D01*
X140152233Y-57854264D01*
X140463302Y-58319811D01*
X140928849Y-58630880D01*
X141478000Y-58740113D01*
X142027151Y-58630880D01*
X142492698Y-58319811D01*
X142803767Y-57854264D01*
X142913000Y-57305113D01*
X142913000Y-57248887D01*
X142803767Y-56699736D01*
X142492698Y-56234189D01*
X142027151Y-55923120D01*
X141478000Y-55813887D01*
X140928849Y-55923120D01*
X140463302Y-56234189D01*
X140152233Y-56699736D01*
X140043000Y-57248887D01*
X137351404Y-57248887D01*
X137319068Y-57170629D01*
X136887643Y-56738449D01*
X136323670Y-56504267D01*
X135713009Y-56503735D01*
X135148629Y-56736932D01*
X134980387Y-56904880D01*
X134980162Y-56903683D01*
X134841090Y-56687559D01*
X134628890Y-56542569D01*
X134377000Y-56491560D01*
X132577000Y-56491560D01*
X132341683Y-56535838D01*
X132125559Y-56674910D01*
X131980569Y-56887110D01*
X131929560Y-57139000D01*
X131234194Y-57139000D01*
X131040801Y-56945270D01*
X130366605Y-56665319D01*
X129636597Y-56664682D01*
X128961914Y-56943455D01*
X128445270Y-57459199D01*
X128205049Y-58037715D01*
X127785440Y-58457324D01*
X127785440Y-57139000D01*
X127741162Y-56903683D01*
X127602090Y-56687559D01*
X127389890Y-56542569D01*
X127138000Y-56491560D01*
X125338000Y-56491560D01*
X125102683Y-56535838D01*
X124886559Y-56674910D01*
X124741569Y-56887110D01*
X124737433Y-56907534D01*
X124568643Y-56738449D01*
X124004670Y-56504267D01*
X123394009Y-56503735D01*
X122829629Y-56736932D01*
X122397449Y-57168357D01*
X122163267Y-57732330D01*
X122162735Y-58342991D01*
X122395932Y-58907371D01*
X122827357Y-59339551D01*
X123391330Y-59573733D01*
X124001991Y-59574265D01*
X124566371Y-59341068D01*
X124734613Y-59173120D01*
X124734838Y-59174317D01*
X124873910Y-59390441D01*
X125086110Y-59535431D01*
X125338000Y-59586440D01*
X126656324Y-59586440D01*
X121091764Y-65151000D01*
X120647178Y-65151000D01*
X120320923Y-64824176D01*
X119793691Y-64605250D01*
X119222813Y-64604752D01*
X118695200Y-64822757D01*
X118291176Y-65226077D01*
X118072250Y-65753309D01*
X118071752Y-66324187D01*
X110710000Y-66324187D01*
X110710000Y-59212187D01*
X113118752Y-59212187D01*
X113336757Y-59739800D01*
X113740077Y-60143824D01*
X114267309Y-60362750D01*
X114838187Y-60363248D01*
X115365800Y-60145243D01*
X115769824Y-59741923D01*
X115988750Y-59214691D01*
X115989248Y-58643813D01*
X115771243Y-58116200D01*
X115367923Y-57712176D01*
X114840691Y-57493250D01*
X114269813Y-57492752D01*
X113742200Y-57710757D01*
X113338176Y-58114077D01*
X113119250Y-58641309D01*
X113118752Y-59212187D01*
X110710000Y-59212187D01*
X110710000Y-55851887D01*
X118072000Y-55851887D01*
X118072000Y-55908113D01*
X118181233Y-56457264D01*
X118492302Y-56922811D01*
X118957849Y-57233880D01*
X119507000Y-57343113D01*
X120056151Y-57233880D01*
X120521698Y-56922811D01*
X120832767Y-56457264D01*
X120942000Y-55908113D01*
X120942000Y-55851887D01*
X120832767Y-55302736D01*
X120521698Y-54837189D01*
X120056151Y-54526120D01*
X119507000Y-54416887D01*
X118957849Y-54526120D01*
X118492302Y-54837189D01*
X118181233Y-55302736D01*
X118072000Y-55851887D01*
X110710000Y-55851887D01*
X110710000Y-52578000D01*
X119692000Y-52578000D01*
X119692000Y-52878000D01*
X119823192Y-53283544D01*
X120099592Y-53608013D01*
X120482999Y-53795408D01*
X120650000Y-53668502D01*
X120650000Y-52578000D01*
X119692000Y-52578000D01*
X110710000Y-52578000D01*
X110710000Y-52024000D01*
X119692000Y-52024000D01*
X119692000Y-52324000D01*
X120650000Y-52324000D01*
X120650000Y-51233498D01*
X120904000Y-51233498D01*
X120904000Y-52324000D01*
X120924000Y-52324000D01*
X120924000Y-52578000D01*
X120904000Y-52578000D01*
X120904000Y-53668502D01*
X121071001Y-53795408D01*
X121407726Y-53630830D01*
X121631788Y-53780543D01*
X122047000Y-53863134D01*
X122462212Y-53780543D01*
X122527019Y-53737241D01*
X122615110Y-53797431D01*
X122867000Y-53848440D01*
X123767000Y-53848440D01*
X124002317Y-53804162D01*
X124218441Y-53665090D01*
X124363431Y-53452890D01*
X124414440Y-53201000D01*
X124414440Y-52578000D01*
X135567000Y-52578000D01*
X135567000Y-52878000D01*
X135698192Y-53283544D01*
X135974592Y-53608013D01*
X136357999Y-53795408D01*
X136525000Y-53668502D01*
X136525000Y-52578000D01*
X135567000Y-52578000D01*
X124414440Y-52578000D01*
X124414440Y-51701000D01*
X124370162Y-51465683D01*
X124231090Y-51249559D01*
X124018890Y-51104569D01*
X123767000Y-51053560D01*
X122867000Y-51053560D01*
X122631683Y-51097838D01*
X122527345Y-51164978D01*
X122462212Y-51121457D01*
X122047000Y-51038866D01*
X121631788Y-51121457D01*
X121407726Y-51271170D01*
X121071001Y-51106592D01*
X120904000Y-51233498D01*
X120650000Y-51233498D01*
X120482999Y-51106592D01*
X120099592Y-51293987D01*
X119823192Y-51618456D01*
X119692000Y-52024000D01*
X110710000Y-52024000D01*
X110710000Y-49069931D01*
X110821046Y-48511662D01*
X111097669Y-48097667D01*
X111511660Y-47821047D01*
X112069931Y-47710000D01*
X129296758Y-47710000D01*
X128650771Y-47976916D01*
X128650771Y-47976916D01*
G37*
X128650771Y-47976916D02*
X127979274Y-48647242D01*
X127615415Y-49523513D01*
X127614587Y-50472325D01*
X127976916Y-51349229D01*
X128647242Y-52020726D01*
X129523513Y-52384585D01*
X130472325Y-52385413D01*
X131347012Y-52024000D01*
X135567000Y-52024000D01*
X135567000Y-52324000D01*
X136525000Y-52324000D01*
X136525000Y-51233498D01*
X136779000Y-51233498D01*
X136779000Y-52324000D01*
X136799000Y-52324000D01*
X136799000Y-52578000D01*
X136779000Y-52578000D01*
X136779000Y-53668502D01*
X136946001Y-53795408D01*
X137282726Y-53630830D01*
X137506788Y-53780543D01*
X137922000Y-53863134D01*
X138337212Y-53780543D01*
X138402019Y-53737241D01*
X138490110Y-53797431D01*
X138742000Y-53848440D01*
X139642000Y-53848440D01*
X139877317Y-53804162D01*
X140093441Y-53665090D01*
X140238431Y-53452890D01*
X140289440Y-53201000D01*
X140289440Y-51701000D01*
X140245162Y-51465683D01*
X140106090Y-51249559D01*
X139893890Y-51104569D01*
X139642000Y-51053560D01*
X138742000Y-51053560D01*
X138506683Y-51097838D01*
X138402345Y-51164978D01*
X138337212Y-51121457D01*
X137922000Y-51038866D01*
X137506788Y-51121457D01*
X137282726Y-51271170D01*
X136946001Y-51106592D01*
X136779000Y-51233498D01*
X136525000Y-51233498D01*
X136357999Y-51106592D01*
X135974592Y-51293987D01*
X135698192Y-51618456D01*
X135567000Y-52024000D01*
X131347012Y-52024000D01*
X131349229Y-52023084D01*
X132020726Y-51352758D01*
X132384585Y-50476487D01*
X132385413Y-49527675D01*
X132023084Y-48650771D01*
X131352758Y-47979274D01*
X130704273Y-47710000D01*
X147930069Y-47710000D01*
X148488338Y-47821046D01*
X148902333Y-48097669D01*
X149178953Y-48511660D01*
X149290000Y-49069931D01*
X149290000Y-84930069D01*
X149178953Y-85488340D01*
X148902333Y-85902331D01*
X148488338Y-86178954D01*
X147930069Y-86290000D01*
X112069931Y-86290000D01*
X111511660Y-86178953D01*
X111097669Y-85902333D01*
X110821046Y-85488338D01*
X110710000Y-84930069D01*
X110710000Y-79797175D01*
X128882430Y-79797175D01*
X129005565Y-80084788D01*
X129687734Y-80344707D01*
X130417443Y-80323786D01*
X130994435Y-80084788D01*
X131117570Y-79797175D01*
X130000000Y-78679605D01*
X128882430Y-79797175D01*
X110710000Y-79797175D01*
X110710000Y-74452187D01*
X112142752Y-74452187D01*
X112360757Y-74979800D01*
X112764077Y-75383824D01*
X113291309Y-75602750D01*
X113862187Y-75603248D01*
X114389800Y-75385243D01*
X114658583Y-75116928D01*
X114674838Y-75203317D01*
X114813910Y-75419441D01*
X115026110Y-75564431D01*
X115278000Y-75615440D01*
X116878000Y-75615440D01*
X117113317Y-75571162D01*
X117329441Y-75432090D01*
X117474431Y-75219890D01*
X117525440Y-74968000D01*
X117525440Y-73368000D01*
X117481162Y-73132683D01*
X117342090Y-72916559D01*
X117129890Y-72771569D01*
X116878000Y-72720560D01*
X115278000Y-72720560D01*
X115042683Y-72764838D01*
X114826559Y-72903910D01*
X114681569Y-73116110D01*
X114660320Y-73221041D01*
X114391923Y-72952176D01*
X113864691Y-72733250D01*
X113293813Y-72732752D01*
X112766200Y-72950757D01*
X112362176Y-73354077D01*
X112143250Y-73881309D01*
X112142752Y-74452187D01*
X110710000Y-74452187D01*
X110710000Y-69059887D01*
X113119000Y-69059887D01*
X113119000Y-69116113D01*
X113228233Y-69665264D01*
X113539302Y-70130811D01*
X114004849Y-70441880D01*
X114554000Y-70551113D01*
X114725849Y-70516930D01*
X115013793Y-70709328D01*
X115353999Y-70776999D01*
X116128763Y-70776999D01*
X122688382Y-77336618D01*
X122976794Y-77529329D01*
X123317000Y-77597000D01*
X128380374Y-77597000D01*
X128155293Y-78187734D01*
X128176214Y-78917443D01*
X128415212Y-79494435D01*
X128702825Y-79617570D01*
X129820395Y-78500000D01*
X129806253Y-78485858D01*
X129985858Y-78306253D01*
X130000000Y-78320395D01*
X130014143Y-78306253D01*
X130193748Y-78485858D01*
X130179605Y-78500000D01*
X131297175Y-79617570D01*
X131584788Y-79494435D01*
X131844707Y-78812266D01*
X131823786Y-78082557D01*
X131622662Y-77597000D01*
X142153000Y-77597000D01*
X142493206Y-77529329D01*
X142781618Y-77336618D01*
X143245391Y-76872845D01*
X143707187Y-76873248D01*
X144234800Y-76655243D01*
X144503583Y-76386928D01*
X144519838Y-76473317D01*
X144658910Y-76689441D01*
X144871110Y-76834431D01*
X145123000Y-76885440D01*
X146723000Y-76885440D01*
X146958317Y-76841162D01*
X147174441Y-76702090D01*
X147319431Y-76489890D01*
X147370440Y-76238000D01*
X147370440Y-74638000D01*
X147326162Y-74402683D01*
X147187090Y-74186559D01*
X146974890Y-74041569D01*
X146723000Y-73990560D01*
X145123000Y-73990560D01*
X144887683Y-74034838D01*
X144671559Y-74173910D01*
X144526569Y-74386110D01*
X144505320Y-74491041D01*
X144236923Y-74222176D01*
X143709691Y-74003250D01*
X143138813Y-74002752D01*
X142611200Y-74220757D01*
X142207176Y-74624077D01*
X141988250Y-75151309D01*
X141987845Y-75615919D01*
X141784764Y-75819000D01*
X123685236Y-75819000D01*
X117365423Y-69499187D01*
X143979752Y-69499187D01*
X144197757Y-70026800D01*
X144601077Y-70430824D01*
X145128309Y-70649750D01*
X145699187Y-70650248D01*
X146226800Y-70432243D01*
X146630824Y-70028923D01*
X146849750Y-69501691D01*
X146850248Y-68930813D01*
X146632243Y-68403200D01*
X146228923Y-67999176D01*
X145701691Y-67780250D01*
X145130813Y-67779752D01*
X144603200Y-67997757D01*
X144199176Y-68401077D01*
X143980250Y-68928309D01*
X143979752Y-69499187D01*
X117365423Y-69499187D01*
X117125617Y-69259381D01*
X116837205Y-69066670D01*
X116496999Y-68998999D01*
X115976889Y-68998999D01*
X115879767Y-68510736D01*
X115568698Y-68045189D01*
X115103151Y-67734120D01*
X115038133Y-67721187D01*
X140042752Y-67721187D01*
X140260757Y-68248800D01*
X140664077Y-68652824D01*
X141191309Y-68871750D01*
X141762187Y-68872248D01*
X142289800Y-68654243D01*
X142693824Y-68250923D01*
X142912750Y-67723691D01*
X142913248Y-67152813D01*
X142695243Y-66625200D01*
X142291923Y-66221176D01*
X141764691Y-66002250D01*
X141193813Y-66001752D01*
X140666200Y-66219757D01*
X140262176Y-66623077D01*
X140043250Y-67150309D01*
X140042752Y-67721187D01*
X115038133Y-67721187D01*
X114554000Y-67624887D01*
X114004849Y-67734120D01*
X113539302Y-68045189D01*
X113228233Y-68510736D01*
X113119000Y-69059887D01*
X110710000Y-69059887D01*
X110710000Y-66324187D01*
X118071752Y-66324187D01*
X118289757Y-66851800D01*
X118693077Y-67255824D01*
X119220309Y-67474750D01*
X119791187Y-67475248D01*
X120318800Y-67257243D01*
X120647616Y-66929000D01*
X121460000Y-66929000D01*
X121800206Y-66861329D01*
X122088618Y-66668618D01*
X128830964Y-59926272D01*
X128959199Y-60054730D01*
X129633395Y-60334681D01*
X130363403Y-60335318D01*
X131038086Y-60056545D01*
X131554730Y-59540801D01*
X131834681Y-58866605D01*
X131835318Y-58136597D01*
X131556545Y-57461914D01*
X131234194Y-57139000D01*
X131929560Y-57139000D01*
X131929560Y-58939000D01*
X131973838Y-59174317D01*
X132112910Y-59390441D01*
X132325110Y-59535431D01*
X132577000Y-59586440D01*
X134377000Y-59586440D01*
X134612317Y-59542162D01*
X134828441Y-59403090D01*
X134973431Y-59190890D01*
X134977567Y-59170466D01*
X135146357Y-59339551D01*
X135710330Y-59573733D01*
X136320991Y-59574265D01*
X136885371Y-59341068D01*
X137200101Y-59026887D01*
X143980000Y-59026887D01*
X143980000Y-59083113D01*
X144089233Y-59632264D01*
X144400302Y-60097811D01*
X144865849Y-60408880D01*
X145415000Y-60518113D01*
X145964151Y-60408880D01*
X146429698Y-60097811D01*
X146740767Y-59632264D01*
X146850000Y-59083113D01*
X146850000Y-59026887D01*
X146740767Y-58477736D01*
X146429698Y-58012189D01*
X145964151Y-57701120D01*
X145415000Y-57591887D01*
X144865849Y-57701120D01*
X144400302Y-58012189D01*
X144089233Y-58477736D01*
X143980000Y-59026887D01*
X137200101Y-59026887D01*
X137317551Y-58909643D01*
X137551733Y-58345670D01*
X137552265Y-57735009D01*
X137351404Y-57248887D01*
X140043000Y-57248887D01*
X140043000Y-57305113D01*
X140152233Y-57854264D01*
X140463302Y-58319811D01*
X140928849Y-58630880D01*
X141478000Y-58740113D01*
X142027151Y-58630880D01*
X142492698Y-58319811D01*
X142803767Y-57854264D01*
X142913000Y-57305113D01*
X142913000Y-57248887D01*
X142803767Y-56699736D01*
X142492698Y-56234189D01*
X142027151Y-55923120D01*
X141478000Y-55813887D01*
X140928849Y-55923120D01*
X140463302Y-56234189D01*
X140152233Y-56699736D01*
X140043000Y-57248887D01*
X137351404Y-57248887D01*
X137319068Y-57170629D01*
X136887643Y-56738449D01*
X136323670Y-56504267D01*
X135713009Y-56503735D01*
X135148629Y-56736932D01*
X134980387Y-56904880D01*
X134980162Y-56903683D01*
X134841090Y-56687559D01*
X134628890Y-56542569D01*
X134377000Y-56491560D01*
X132577000Y-56491560D01*
X132341683Y-56535838D01*
X132125559Y-56674910D01*
X131980569Y-56887110D01*
X131929560Y-57139000D01*
X131234194Y-57139000D01*
X131040801Y-56945270D01*
X130366605Y-56665319D01*
X129636597Y-56664682D01*
X128961914Y-56943455D01*
X128445270Y-57459199D01*
X128205049Y-58037715D01*
X127785440Y-58457324D01*
X127785440Y-57139000D01*
X127741162Y-56903683D01*
X127602090Y-56687559D01*
X127389890Y-56542569D01*
X127138000Y-56491560D01*
X125338000Y-56491560D01*
X125102683Y-56535838D01*
X124886559Y-56674910D01*
X124741569Y-56887110D01*
X124737433Y-56907534D01*
X124568643Y-56738449D01*
X124004670Y-56504267D01*
X123394009Y-56503735D01*
X122829629Y-56736932D01*
X122397449Y-57168357D01*
X122163267Y-57732330D01*
X122162735Y-58342991D01*
X122395932Y-58907371D01*
X122827357Y-59339551D01*
X123391330Y-59573733D01*
X124001991Y-59574265D01*
X124566371Y-59341068D01*
X124734613Y-59173120D01*
X124734838Y-59174317D01*
X124873910Y-59390441D01*
X125086110Y-59535431D01*
X125338000Y-59586440D01*
X126656324Y-59586440D01*
X121091764Y-65151000D01*
X120647178Y-65151000D01*
X120320923Y-64824176D01*
X119793691Y-64605250D01*
X119222813Y-64604752D01*
X118695200Y-64822757D01*
X118291176Y-65226077D01*
X118072250Y-65753309D01*
X118071752Y-66324187D01*
X110710000Y-66324187D01*
X110710000Y-59212187D01*
X113118752Y-59212187D01*
X113336757Y-59739800D01*
X113740077Y-60143824D01*
X114267309Y-60362750D01*
X114838187Y-60363248D01*
X115365800Y-60145243D01*
X115769824Y-59741923D01*
X115988750Y-59214691D01*
X115989248Y-58643813D01*
X115771243Y-58116200D01*
X115367923Y-57712176D01*
X114840691Y-57493250D01*
X114269813Y-57492752D01*
X113742200Y-57710757D01*
X113338176Y-58114077D01*
X113119250Y-58641309D01*
X113118752Y-59212187D01*
X110710000Y-59212187D01*
X110710000Y-55851887D01*
X118072000Y-55851887D01*
X118072000Y-55908113D01*
X118181233Y-56457264D01*
X118492302Y-56922811D01*
X118957849Y-57233880D01*
X119507000Y-57343113D01*
X120056151Y-57233880D01*
X120521698Y-56922811D01*
X120832767Y-56457264D01*
X120942000Y-55908113D01*
X120942000Y-55851887D01*
X120832767Y-55302736D01*
X120521698Y-54837189D01*
X120056151Y-54526120D01*
X119507000Y-54416887D01*
X118957849Y-54526120D01*
X118492302Y-54837189D01*
X118181233Y-55302736D01*
X118072000Y-55851887D01*
X110710000Y-55851887D01*
X110710000Y-52578000D01*
X119692000Y-52578000D01*
X119692000Y-52878000D01*
X119823192Y-53283544D01*
X120099592Y-53608013D01*
X120482999Y-53795408D01*
X120650000Y-53668502D01*
X120650000Y-52578000D01*
X119692000Y-52578000D01*
X110710000Y-52578000D01*
X110710000Y-52024000D01*
X119692000Y-52024000D01*
X119692000Y-52324000D01*
X120650000Y-52324000D01*
X120650000Y-51233498D01*
X120904000Y-51233498D01*
X120904000Y-52324000D01*
X120924000Y-52324000D01*
X120924000Y-52578000D01*
X120904000Y-52578000D01*
X120904000Y-53668502D01*
X121071001Y-53795408D01*
X121407726Y-53630830D01*
X121631788Y-53780543D01*
X122047000Y-53863134D01*
X122462212Y-53780543D01*
X122527019Y-53737241D01*
X122615110Y-53797431D01*
X122867000Y-53848440D01*
X123767000Y-53848440D01*
X124002317Y-53804162D01*
X124218441Y-53665090D01*
X124363431Y-53452890D01*
X124414440Y-53201000D01*
X124414440Y-52578000D01*
X135567000Y-52578000D01*
X135567000Y-52878000D01*
X135698192Y-53283544D01*
X135974592Y-53608013D01*
X136357999Y-53795408D01*
X136525000Y-53668502D01*
X136525000Y-52578000D01*
X135567000Y-52578000D01*
X124414440Y-52578000D01*
X124414440Y-51701000D01*
X124370162Y-51465683D01*
X124231090Y-51249559D01*
X124018890Y-51104569D01*
X123767000Y-51053560D01*
X122867000Y-51053560D01*
X122631683Y-51097838D01*
X122527345Y-51164978D01*
X122462212Y-51121457D01*
X122047000Y-51038866D01*
X121631788Y-51121457D01*
X121407726Y-51271170D01*
X121071001Y-51106592D01*
X120904000Y-51233498D01*
X120650000Y-51233498D01*
X120482999Y-51106592D01*
X120099592Y-51293987D01*
X119823192Y-51618456D01*
X119692000Y-52024000D01*
X110710000Y-52024000D01*
X110710000Y-49069931D01*
X110821046Y-48511662D01*
X111097669Y-48097667D01*
X111511660Y-47821047D01*
X112069931Y-47710000D01*
X129296758Y-47710000D01*
X128650771Y-47976916D01*
M02*
